<svg width="204" height="40" viewBox="0 0 204 40" fill="none" xmlns="http://www.w3.org/2000/svg">
<path d="M10.6243 11.1982C10.1003 11.3486 9.75846 11.5583 9.31185 12.0003C8.95182 12.3558 8.86523 12.4697 8.6875 12.8434C8.57357 13.0804 8.46875 13.3356 8.45508 13.4131L8.42773 13.5498L14.1745 17.3323C17.3372 19.4105 19.9577 21.1149 19.9987 21.1103C20.0397 21.1103 22.6602 19.4105 25.8275 17.3323L31.5833 13.5589L31.556 13.4176C31.5378 13.3402 31.4329 13.0804 31.319 12.8434C31.1413 12.4697 31.0547 12.3558 30.6947 12.0003C30.3802 11.6859 30.1979 11.5491 29.9382 11.4215C29.2591 11.0889 30.0521 11.1116 19.9805 11.1162C11.3945 11.1162 10.8978 11.1208 10.6243 11.1982Z" fill="white"/>
<path d="M8.33658 20.6009C8.33658 25.9011 8.34114 26.1426 8.42772 26.4662C8.4733 26.6485 8.53254 26.8216 8.55533 26.8444C8.57811 26.8672 10.1549 25.6322 12.5703 23.6862C15.7513 21.125 16.5306 20.4733 16.485 20.4278C16.4121 20.3639 8.39127 15.0775 8.35936 15.0775C8.34569 15.0775 8.33658 17.5658 8.33658 20.6009Z" fill="white"/>
<path d="M27.5592 17.7565C25.3125 19.2285 23.4713 20.4453 23.4713 20.459C23.4668 20.5 31.36 26.8574 31.4147 26.8574C31.4375 26.8574 31.5013 26.7435 31.5514 26.6068C31.6471 26.3607 31.6471 26.2969 31.6608 21.6621C31.6654 19.0781 31.6654 16.5443 31.6608 16.0247L31.6471 15.0814L27.5592 17.7565Z" fill="white"/>
<path d="M13.5091 24.6062C11.2031 26.4656 9.31183 27.9969 9.30728 28.0151C9.28905 28.0698 9.84504 28.4754 10.1276 28.6075C10.7565 28.9038 10.0547 28.8855 20.0124 28.8855C29.013 28.8855 29.054 28.8855 29.3913 28.7898C29.5781 28.7397 29.847 28.6349 29.9883 28.562C30.248 28.4207 30.7083 28.047 30.6673 28.006C30.6491 27.9923 22.4915 21.4207 22.3047 21.2703C22.2728 21.2475 21.9355 21.448 21.4616 21.7625C21.0241 22.0541 20.5729 22.3321 20.4635 22.3823C20.222 22.4871 19.7708 22.4962 19.5384 22.4005C19.4518 22.364 19.0052 22.086 18.554 21.7807C18.0983 21.4799 17.72 21.2293 17.7155 21.2293C17.7064 21.2293 15.8151 22.7514 13.5091 24.6062Z" fill="white"/>
<path d="M54.784 25.16C53.5253 25.16 52.5227 24.8187 51.776 24.136C51.0293 23.4533 50.64 22.44 50.608 21.096C50.608 21.0213 50.608 20.9253 50.608 20.808C50.608 20.6907 50.608 20.6 50.608 20.536C50.64 19.6933 50.8267 18.9733 51.168 18.376C51.52 17.768 52 17.3093 52.608 17C53.2267 16.68 53.9467 16.52 54.768 16.52C55.7067 16.52 56.48 16.7067 57.088 17.08C57.7067 17.4533 58.1707 17.96 58.48 18.6C58.7893 19.24 58.944 19.9707 58.944 20.792V21.176C58.944 21.2933 58.9013 21.3893 58.816 21.464C58.7413 21.5387 58.6507 21.576 58.544 21.576H53.424C53.424 21.5867 53.424 21.6027 53.424 21.624C53.424 21.6453 53.424 21.6667 53.424 21.688C53.4347 21.9973 53.488 22.28 53.584 22.536C53.68 22.792 53.8293 22.9947 54.032 23.144C54.2347 23.2933 54.48 23.368 54.768 23.368C54.9813 23.368 55.1573 23.336 55.296 23.272C55.4453 23.1973 55.568 23.1173 55.664 23.032C55.76 22.936 55.8347 22.856 55.888 22.792C55.984 22.6853 56.0587 22.6213 56.112 22.6C56.176 22.568 56.272 22.552 56.4 22.552H58.384C58.4907 22.552 58.576 22.584 58.64 22.648C58.7147 22.7013 58.7467 22.7813 58.736 22.888C58.7253 23.0693 58.6347 23.288 58.464 23.544C58.2933 23.8 58.0427 24.056 57.712 24.312C57.392 24.5573 56.9867 24.76 56.496 24.92C56.0053 25.08 55.4347 25.16 54.784 25.16ZM53.424 19.992H56.128V19.96C56.128 19.6187 56.0747 19.32 55.968 19.064C55.872 18.808 55.7173 18.6107 55.504 18.472C55.3013 18.3333 55.056 18.264 54.768 18.264C54.48 18.264 54.2347 18.3333 54.032 18.472C53.84 18.6107 53.6907 18.808 53.584 19.064C53.4773 19.32 53.424 19.6187 53.424 19.96V19.992ZM60.844 28.04C60.7267 28.04 60.6307 28.0027 60.556 27.928C60.4813 27.8533 60.444 27.7573 60.444 27.64V17.08C60.444 16.9627 60.4813 16.8667 60.556 16.792C60.6307 16.7173 60.7267 16.68 60.844 16.68H62.652C62.7587 16.68 62.8493 16.7173 62.924 16.792C63.0093 16.8667 63.052 16.9627 63.052 17.08V17.672C63.2973 17.3413 63.6227 17.0693 64.028 16.856C64.4333 16.632 64.9347 16.52 65.532 16.52C66.0653 16.52 66.5347 16.6053 66.94 16.776C67.3453 16.936 67.692 17.176 67.98 17.496C68.268 17.816 68.492 18.2053 68.652 18.664C68.8227 19.1227 68.9187 19.6507 68.94 20.248C68.9507 20.4613 68.956 20.6587 68.956 20.84C68.956 21.0213 68.9507 21.2187 68.94 21.432C68.9187 22.008 68.828 22.5253 68.668 22.984C68.508 23.4427 68.284 23.832 67.996 24.152C67.708 24.472 67.356 24.7227 66.94 24.904C66.5347 25.0747 66.0653 25.16 65.532 25.16C65.0093 25.16 64.5507 25.0693 64.156 24.888C63.772 24.696 63.452 24.4293 63.196 24.088V27.64C63.196 27.7573 63.1587 27.8533 63.084 27.928C63.0093 28.0027 62.9133 28.04 62.796 28.04H60.844ZM64.668 23.016C65.0307 23.016 65.3133 22.9413 65.516 22.792C65.7187 22.6427 65.8627 22.44 65.948 22.184C66.044 21.928 66.1027 21.6453 66.124 21.336C66.1453 21.0053 66.1453 20.6747 66.124 20.344C66.1027 20.0347 66.044 19.752 65.948 19.496C65.8627 19.24 65.7187 19.0373 65.516 18.888C65.3133 18.7387 65.0307 18.664 64.668 18.664C64.316 18.664 64.0333 18.744 63.82 18.904C63.6067 19.0533 63.452 19.2507 63.356 19.496C63.26 19.7413 63.2067 20.008 63.196 20.296C63.1853 20.4987 63.18 20.696 63.18 20.888C63.18 21.08 63.1853 21.2827 63.196 21.496C63.2067 21.7627 63.2653 22.0133 63.372 22.248C63.4787 22.472 63.6387 22.6587 63.852 22.808C64.0653 22.9467 64.3373 23.016 64.668 23.016ZM70.7953 25C70.6779 25 70.5819 24.9627 70.5073 24.888C70.4326 24.8133 70.3953 24.7173 70.3953 24.6V22.568C70.3953 22.4613 70.4326 22.3707 70.5073 22.296C70.5819 22.2107 70.6779 22.168 70.7953 22.168H72.8113C72.9286 22.168 73.0246 22.2107 73.0993 22.296C73.1846 22.3707 73.2273 22.4613 73.2273 22.568V24.6C73.2273 24.7173 73.1846 24.8133 73.0993 24.888C73.0246 24.9627 72.9286 25 72.8113 25H70.7953ZM75.4221 25C75.3048 25 75.2088 24.9627 75.1341 24.888C75.0595 24.8133 75.0221 24.7173 75.0221 24.6V17.08C75.0221 16.9627 75.0595 16.8667 75.1341 16.792C75.2088 16.7173 75.3048 16.68 75.4221 16.68H77.1661C77.2835 16.68 77.3795 16.7173 77.4541 16.792C77.5288 16.8667 77.5661 16.9627 77.5661 17.08V17.624C77.7795 17.336 78.0781 17.0853 78.4621 16.872C78.8461 16.648 79.2995 16.5307 79.8221 16.52C81.0488 16.4987 81.8915 16.9627 82.3501 17.912C82.5955 17.5067 82.9475 17.176 83.4061 16.92C83.8648 16.6533 84.3661 16.52 84.9101 16.52C85.4648 16.52 85.9608 16.648 86.3981 16.904C86.8461 17.1493 87.2035 17.5333 87.4701 18.056C87.7368 18.568 87.8701 19.2347 87.8701 20.056V24.6C87.8701 24.7173 87.8275 24.8133 87.7421 24.888C87.6675 24.9627 87.5768 25 87.4701 25H85.6141C85.4968 25 85.3955 24.9627 85.3101 24.888C85.2355 24.8133 85.1981 24.7173 85.1981 24.6V20.168C85.1981 19.7947 85.1448 19.5013 85.0381 19.288C84.9315 19.064 84.7875 18.904 84.6061 18.808C84.4248 18.712 84.2168 18.664 83.9821 18.664C83.7901 18.664 83.5981 18.712 83.4061 18.808C83.2248 18.904 83.0755 19.064 82.9581 19.288C82.8515 19.5013 82.7981 19.7947 82.7981 20.168V24.6C82.7981 24.7173 82.7608 24.8133 82.6861 24.888C82.6115 24.9627 82.5155 25 82.3981 25H80.5421C80.4248 25 80.3288 24.9627 80.2541 24.888C80.1795 24.8133 80.1421 24.7173 80.1421 24.6V20.168C80.1421 19.7947 80.0835 19.5013 79.9661 19.288C79.8488 19.064 79.6995 18.904 79.5181 18.808C79.3368 18.712 79.1341 18.664 78.9101 18.664C78.7181 18.664 78.5261 18.712 78.3341 18.808C78.1528 18.904 78.0035 19.064 77.8861 19.288C77.7795 19.5013 77.7261 19.7893 77.7261 20.152V24.6C77.7261 24.7173 77.6835 24.8133 77.5981 24.888C77.5235 24.9627 77.4275 25 77.3101 25H75.4221ZM93.5988 25.16C92.7028 25.16 91.9454 25.016 91.3268 24.728C90.7188 24.44 90.2494 24.0293 89.9188 23.496C89.5988 22.952 89.4174 22.3067 89.3748 21.56C89.3641 21.3467 89.3588 21.1067 89.3588 20.84C89.3588 20.5627 89.3641 20.3227 89.3748 20.12C89.4174 19.3627 89.6094 18.7173 89.9508 18.184C90.2921 17.6507 90.7668 17.24 91.3748 16.952C91.9934 16.664 92.7348 16.52 93.5988 16.52C94.4734 16.52 95.2148 16.664 95.8228 16.952C96.4414 17.24 96.9214 17.6507 97.2628 18.184C97.6041 18.7173 97.7961 19.3627 97.8388 20.12C97.8494 20.3227 97.8548 20.5627 97.8548 20.84C97.8548 21.1067 97.8494 21.3467 97.8388 21.56C97.7961 22.3067 97.6094 22.952 97.2788 23.496C96.9588 24.0293 96.4894 24.44 95.8708 24.728C95.2628 25.016 94.5054 25.16 93.5988 25.16ZM93.5988 23.208C94.0788 23.208 94.4254 23.064 94.6388 22.776C94.8628 22.488 94.9908 22.056 95.0228 21.48C95.0334 21.32 95.0388 21.1067 95.0388 20.84C95.0388 20.5733 95.0334 20.36 95.0228 20.2C94.9908 19.6347 94.8628 19.208 94.6388 18.92C94.4254 18.6213 94.0788 18.472 93.5988 18.472C93.1294 18.472 92.7828 18.6213 92.5588 18.92C92.3348 19.208 92.2121 19.6347 92.1908 20.2C92.1801 20.36 92.1748 20.5733 92.1748 20.84C92.1748 21.1067 92.1801 21.32 92.1908 21.48C92.2121 22.056 92.3348 22.488 92.5588 22.776C92.7828 23.064 93.1294 23.208 93.5988 23.208ZM103.508 28.52C102.687 28.52 102.004 28.4133 101.46 28.2C100.927 27.9867 100.5 27.7307 100.18 27.432C99.871 27.1333 99.647 26.8347 99.5084 26.536C99.3697 26.248 99.295 26.0187 99.2844 25.848C99.2737 25.7307 99.311 25.6347 99.3964 25.56C99.4817 25.4853 99.583 25.448 99.7004 25.448H101.732C101.828 25.448 101.908 25.4693 101.972 25.512C102.047 25.5653 102.106 25.6507 102.148 25.768C102.202 25.8853 102.271 26.008 102.356 26.136C102.452 26.264 102.58 26.3653 102.74 26.44C102.911 26.5253 103.14 26.568 103.428 26.568C103.748 26.568 104.015 26.5147 104.228 26.408C104.442 26.312 104.602 26.1467 104.708 25.912C104.815 25.688 104.868 25.384 104.868 25V23.928C104.623 24.1947 104.308 24.4133 103.924 24.584C103.54 24.744 103.076 24.824 102.532 24.824C101.988 24.824 101.508 24.744 101.092 24.584C100.676 24.424 100.33 24.184 100.052 23.864C99.775 23.544 99.5564 23.1547 99.3964 22.696C99.247 22.2373 99.1564 21.7093 99.1244 21.112C99.1137 20.8347 99.1137 20.5573 99.1244 20.28C99.1564 19.704 99.247 19.1867 99.3964 18.728C99.5457 18.2693 99.759 17.8747 100.036 17.544C100.324 17.2133 100.676 16.9627 101.092 16.792C101.508 16.6107 101.988 16.52 102.532 16.52C103.108 16.52 103.599 16.632 104.004 16.856C104.42 17.0693 104.762 17.3413 105.028 17.672V17.08C105.028 16.9733 105.066 16.8827 105.14 16.808C105.215 16.7227 105.311 16.68 105.428 16.68H107.268C107.386 16.68 107.482 16.7227 107.556 16.808C107.642 16.8827 107.684 16.9733 107.684 17.08V24.776C107.684 25.5867 107.519 26.2693 107.188 26.824C106.858 27.3787 106.383 27.8 105.764 28.088C105.146 28.376 104.394 28.52 103.508 28.52ZM103.396 22.744C103.738 22.744 104.015 22.6693 104.228 22.52C104.442 22.3707 104.596 22.1787 104.692 21.944C104.799 21.7093 104.858 21.4587 104.868 21.192C104.879 21.0747 104.884 20.9093 104.884 20.696C104.884 20.4827 104.879 20.3227 104.868 20.216C104.858 19.9387 104.799 19.6827 104.692 19.448C104.596 19.2133 104.442 19.0267 104.228 18.888C104.015 18.7387 103.738 18.664 103.396 18.664C103.044 18.664 102.762 18.7387 102.548 18.888C102.346 19.0373 102.196 19.24 102.1 19.496C102.015 19.752 101.962 20.0347 101.94 20.344C101.93 20.5787 101.93 20.8187 101.94 21.064C101.962 21.3733 102.015 21.656 102.1 21.912C102.196 22.168 102.346 22.3707 102.548 22.52C102.762 22.6693 103.044 22.744 103.396 22.744ZM115.489 27.08C114.188 27.08 113.1 26.8667 112.225 26.44C111.361 26.0133 110.7 25.416 110.241 24.648C109.793 23.88 109.521 23.0053 109.425 22.024C109.414 21.8747 109.404 21.6773 109.393 21.432C109.382 21.1867 109.377 20.9253 109.377 20.648C109.377 20.3707 109.382 20.1093 109.393 19.864C109.404 19.6187 109.414 19.4267 109.425 19.288C109.489 18.616 109.654 17.976 109.921 17.368C110.198 16.7493 110.577 16.2053 111.057 15.736C111.548 15.256 112.14 14.8827 112.833 14.616C113.537 14.3387 114.353 14.2 115.281 14.2C116.39 14.2 117.324 14.328 118.081 14.584C118.838 14.8293 119.452 15.1813 119.921 15.64C120.401 16.0987 120.758 16.6427 120.993 17.272C121.228 17.8907 121.366 18.5627 121.409 19.288C121.43 19.512 121.441 19.752 121.441 20.008C121.441 20.264 121.436 20.5093 121.425 20.744C121.425 20.968 121.42 21.1547 121.409 21.304C121.377 21.8373 121.244 22.2853 121.009 22.648C120.785 23.0107 120.492 23.2827 120.129 23.464C119.777 23.6453 119.393 23.736 118.977 23.736C118.625 23.736 118.316 23.688 118.049 23.592C117.782 23.496 117.564 23.3893 117.393 23.272C117.233 23.144 117.105 23.0267 117.009 22.92C116.934 23.048 116.822 23.192 116.673 23.352C116.534 23.5013 116.326 23.6293 116.049 23.736C115.782 23.8427 115.414 23.896 114.945 23.896C114.156 23.896 113.532 23.6027 113.073 23.016C112.614 22.4293 112.385 21.6347 112.385 20.632C112.385 19.6187 112.604 18.8187 113.041 18.232C113.489 17.6453 114.108 17.352 114.897 17.352C115.324 17.352 115.66 17.4213 115.905 17.56C116.15 17.6987 116.353 17.8747 116.513 18.088V17.88C116.513 17.7627 116.55 17.6667 116.625 17.592C116.7 17.5173 116.796 17.48 116.913 17.48H117.729C117.846 17.48 117.942 17.5173 118.017 17.592C118.092 17.6667 118.129 17.7627 118.129 17.88V21.128C118.129 21.4693 118.204 21.7307 118.353 21.912C118.502 22.0933 118.71 22.184 118.977 22.184C119.19 22.184 119.356 22.1307 119.473 22.024C119.601 21.9067 119.686 21.768 119.729 21.608C119.782 21.4373 119.809 21.2773 119.809 21.128C119.809 20.8933 119.814 20.6267 119.825 20.328C119.836 20.0187 119.825 19.6987 119.793 19.368C119.75 18.5573 119.58 17.8853 119.281 17.352C118.982 16.808 118.513 16.408 117.873 16.152C117.233 15.8853 116.369 15.752 115.281 15.752C114.374 15.752 113.622 15.9067 113.025 16.216C112.438 16.5147 111.98 16.936 111.649 17.48C111.329 18.024 111.126 18.6533 111.041 19.368C111.02 19.5493 111.004 19.8053 110.993 20.136C110.993 20.4667 110.993 20.8027 110.993 21.144C111.004 21.4747 111.02 21.7413 111.041 21.944C111.169 23.0747 111.59 23.9547 112.305 24.584C113.02 25.2133 114.081 25.528 115.489 25.528C116.15 25.528 116.678 25.4853 117.073 25.4C117.478 25.3253 117.798 25.2187 118.033 25.08C118.278 24.952 118.497 24.8187 118.689 24.68C118.774 24.616 118.849 24.5627 118.913 24.52C118.988 24.4773 119.078 24.456 119.185 24.456H120.321C120.428 24.456 120.518 24.4933 120.593 24.568C120.678 24.6427 120.716 24.744 120.705 24.872C120.705 24.9147 120.694 24.9573 120.673 25C120.662 25.032 120.641 25.064 120.609 25.096C120.31 25.4373 119.932 25.7573 119.473 26.056C119.025 26.3653 118.47 26.6107 117.809 26.792C117.158 26.984 116.385 27.08 115.489 27.08ZM115.249 22.344C115.676 22.344 115.99 22.2053 116.193 21.928C116.406 21.6507 116.513 21.2187 116.513 20.632C116.513 20.0453 116.406 19.6133 116.193 19.336C115.99 19.048 115.676 18.904 115.249 18.904C114.844 18.904 114.534 19.048 114.321 19.336C114.108 19.6133 114.001 20.0453 114.001 20.632C114.001 20.9947 114.044 21.304 114.129 21.56C114.225 21.816 114.364 22.0133 114.545 22.152C114.737 22.28 114.972 22.344 115.249 22.344ZM124.637 28.04C124.541 28.04 124.461 28.008 124.397 27.944C124.333 27.88 124.301 27.8 124.301 27.704C124.301 27.6827 124.301 27.6507 124.301 27.608C124.311 27.576 124.327 27.5387 124.349 27.496L125.597 24.488L122.525 17.224C122.493 17.1493 122.477 17.0853 122.477 17.032C122.498 16.936 122.541 16.856 122.605 16.792C122.669 16.7173 122.749 16.68 122.845 16.68H124.669C124.807 16.68 124.909 16.7173 124.973 16.792C125.037 16.856 125.085 16.9307 125.117 17.016L126.957 21.672L128.829 17.016C128.871 16.9307 128.925 16.856 128.989 16.792C129.063 16.7173 129.17 16.68 129.309 16.68H131.101C131.197 16.68 131.277 16.7173 131.341 16.792C131.415 16.856 131.453 16.9307 131.453 17.016C131.453 17.0693 131.437 17.1387 131.405 17.224L126.877 27.704C126.845 27.7893 126.791 27.864 126.717 27.928C126.642 28.0027 126.535 28.04 126.397 28.04H124.637ZM134.784 25.16C134.208 25.16 133.69 25.0533 133.232 24.84C132.784 24.616 132.426 24.3173 132.16 23.944C131.893 23.5707 131.76 23.1493 131.76 22.68C131.76 21.9227 132.069 21.3253 132.688 20.888C133.306 20.44 134.128 20.136 135.152 19.976L137.152 19.672V19.448C137.152 19.064 137.072 18.7707 136.912 18.568C136.752 18.3653 136.458 18.264 136.032 18.264C135.733 18.264 135.488 18.3227 135.296 18.44C135.114 18.5573 134.97 18.7173 134.864 18.92C134.768 19.0587 134.634 19.128 134.464 19.128H132.672C132.554 19.128 132.464 19.096 132.4 19.032C132.336 18.9573 132.309 18.872 132.32 18.776C132.32 18.584 132.389 18.3653 132.528 18.12C132.677 17.864 132.901 17.6133 133.2 17.368C133.498 17.1227 133.882 16.92 134.352 16.76C134.821 16.6 135.386 16.52 136.048 16.52C136.741 16.52 137.333 16.6 137.824 16.76C138.314 16.92 138.709 17.144 139.008 17.432C139.317 17.72 139.546 18.0613 139.696 18.456C139.845 18.84 139.92 19.2667 139.92 19.736V24.6C139.92 24.7173 139.877 24.8133 139.792 24.888C139.717 24.9627 139.626 25 139.52 25H137.664C137.546 25 137.45 24.9627 137.376 24.888C137.301 24.8133 137.264 24.7173 137.264 24.6V24.04C137.125 24.2427 136.938 24.4293 136.704 24.6C136.469 24.7707 136.192 24.904 135.872 25C135.562 25.1067 135.2 25.16 134.784 25.16ZM135.536 23.336C135.845 23.336 136.122 23.272 136.368 23.144C136.624 23.0053 136.821 22.7973 136.96 22.52C137.109 22.232 137.184 21.8747 137.184 21.448V21.224L135.824 21.464C135.322 21.5493 134.954 21.6827 134.72 21.864C134.496 22.0347 134.384 22.2373 134.384 22.472C134.384 22.6533 134.437 22.808 134.544 22.936C134.65 23.064 134.789 23.1653 134.96 23.24C135.13 23.304 135.322 23.336 135.536 23.336ZM142.125 25C142.008 25 141.912 24.9627 141.837 24.888C141.763 24.8133 141.725 24.7173 141.725 24.6V17.08C141.725 16.9627 141.763 16.8667 141.837 16.792C141.912 16.7173 142.008 16.68 142.125 16.68H143.965C144.083 16.68 144.179 16.7173 144.253 16.792C144.328 16.8667 144.365 16.9627 144.365 17.08V17.688C144.643 17.3573 145.005 17.08 145.453 16.856C145.901 16.632 146.429 16.52 147.037 16.52C147.656 16.52 148.2 16.6587 148.669 16.936C149.149 17.2133 149.523 17.624 149.789 18.168C150.067 18.7013 150.205 19.3573 150.205 20.136V24.6C150.205 24.7173 150.163 24.8133 150.077 24.888C150.003 24.9627 149.912 25 149.805 25H147.789C147.683 25 147.587 24.9627 147.501 24.888C147.427 24.8133 147.389 24.7173 147.389 24.6V20.232C147.389 19.7307 147.267 19.3467 147.021 19.08C146.787 18.8027 146.435 18.664 145.965 18.664C145.528 18.664 145.176 18.8027 144.909 19.08C144.653 19.3467 144.525 19.7307 144.525 20.232V24.6C144.525 24.7173 144.483 24.8133 144.397 24.888C144.323 24.9627 144.232 25 144.125 25H142.125ZM155.095 25.16C154.583 25.16 154.119 25.08 153.703 24.92C153.298 24.7493 152.946 24.504 152.647 24.184C152.359 23.8533 152.135 23.4587 151.975 23C151.815 22.5307 151.724 21.9973 151.703 21.4C151.692 21.1867 151.687 21 151.687 20.84C151.687 20.6693 151.692 20.4827 151.703 20.28C151.724 19.704 151.815 19.1867 151.975 18.728C152.135 18.2693 152.359 17.8747 152.647 17.544C152.935 17.2133 153.287 16.9627 153.703 16.792C154.119 16.6107 154.583 16.52 155.095 16.52C155.628 16.52 156.087 16.6107 156.471 16.792C156.855 16.9627 157.18 17.1867 157.447 17.464V14.04C157.447 13.9227 157.484 13.8267 157.559 13.752C157.634 13.6773 157.73 13.64 157.847 13.64H159.799C159.906 13.64 159.996 13.6773 160.071 13.752C160.156 13.8267 160.199 13.9227 160.199 14.04V24.6C160.199 24.7173 160.156 24.8133 160.071 24.888C159.996 24.9627 159.906 25 159.799 25H157.991C157.874 25 157.778 24.9627 157.703 24.888C157.628 24.8133 157.591 24.7173 157.591 24.6V24.088C157.335 24.3973 157.004 24.6533 156.599 24.856C156.194 25.0587 155.692 25.16 155.095 25.16ZM155.959 23.016C156.322 23.016 156.604 22.9413 156.807 22.792C157.02 22.632 157.175 22.4293 157.271 22.184C157.378 21.9387 157.436 21.672 157.447 21.384C157.458 21.1707 157.463 20.968 157.463 20.776C157.463 20.584 157.458 20.3867 157.447 20.184C157.436 19.9173 157.378 19.672 157.271 19.448C157.164 19.2133 157.004 19.0267 156.791 18.888C156.578 18.7387 156.3 18.664 155.959 18.664C155.607 18.664 155.324 18.7387 155.111 18.888C154.908 19.0373 154.764 19.24 154.679 19.496C154.594 19.752 154.54 20.0347 154.519 20.344C154.487 20.6747 154.487 21.0053 154.519 21.336C154.54 21.6453 154.594 21.928 154.679 22.184C154.764 22.44 154.908 22.6427 155.111 22.792C155.324 22.9413 155.607 23.016 155.959 23.016ZM165.925 25.16C164.666 25.16 163.663 24.8187 162.917 24.136C162.17 23.4533 161.781 22.44 161.749 21.096C161.749 21.0213 161.749 20.9253 161.749 20.808C161.749 20.6907 161.749 20.6 161.749 20.536C161.781 19.6933 161.967 18.9733 162.309 18.376C162.661 17.768 163.141 17.3093 163.749 17C164.367 16.68 165.087 16.52 165.909 16.52C166.847 16.52 167.621 16.7067 168.229 17.08C168.847 17.4533 169.311 17.96 169.621 18.6C169.93 19.24 170.085 19.9707 170.085 20.792V21.176C170.085 21.2933 170.042 21.3893 169.957 21.464C169.882 21.5387 169.791 21.576 169.685 21.576H164.565C164.565 21.5867 164.565 21.6027 164.565 21.624C164.565 21.6453 164.565 21.6667 164.565 21.688C164.575 21.9973 164.629 22.28 164.725 22.536C164.821 22.792 164.97 22.9947 165.173 23.144C165.375 23.2933 165.621 23.368 165.909 23.368C166.122 23.368 166.298 23.336 166.437 23.272C166.586 23.1973 166.709 23.1173 166.805 23.032C166.901 22.936 166.975 22.856 167.029 22.792C167.125 22.6853 167.199 22.6213 167.253 22.6C167.317 22.568 167.413 22.552 167.541 22.552H169.525C169.631 22.552 169.717 22.584 169.781 22.648C169.855 22.7013 169.887 22.7813 169.877 22.888C169.866 23.0693 169.775 23.288 169.605 23.544C169.434 23.8 169.183 24.056 168.853 24.312C168.533 24.5573 168.127 24.76 167.637 24.92C167.146 25.08 166.575 25.16 165.925 25.16ZM164.565 19.992H167.269V19.96C167.269 19.6187 167.215 19.32 167.109 19.064C167.013 18.808 166.858 18.6107 166.645 18.472C166.442 18.3333 166.197 18.264 165.909 18.264C165.621 18.264 165.375 18.3333 165.173 18.472C164.981 18.6107 164.831 18.808 164.725 19.064C164.618 19.32 164.565 19.6187 164.565 19.96V19.992ZM170.967 25C170.871 25 170.786 24.968 170.711 24.904C170.647 24.8293 170.615 24.744 170.615 24.648C170.615 24.616 170.621 24.5787 170.631 24.536C170.642 24.4827 170.663 24.4347 170.695 24.392L173.367 20.728L170.935 17.288C170.903 17.2453 170.877 17.2027 170.855 17.16C170.845 17.1173 170.839 17.0747 170.839 17.032C170.839 16.936 170.877 16.856 170.951 16.792C171.026 16.7173 171.111 16.68 171.207 16.68H173.159C173.298 16.68 173.399 16.712 173.463 16.776C173.538 16.84 173.591 16.8987 173.623 16.952L175.111 19.016L176.583 16.968C176.626 16.9147 176.679 16.856 176.743 16.792C176.818 16.7173 176.925 16.68 177.063 16.68H178.935C179.031 16.68 179.111 16.7173 179.175 16.792C179.25 16.856 179.287 16.936 179.287 17.032C179.287 17.0747 179.282 17.1173 179.271 17.16C179.261 17.2027 179.239 17.2453 179.207 17.288L176.711 20.728L179.415 24.392C179.458 24.4347 179.485 24.4773 179.495 24.52C179.506 24.5627 179.511 24.6053 179.511 24.648C179.511 24.744 179.474 24.8293 179.399 24.904C179.335 24.968 179.25 25 179.143 25H177.111C176.983 25 176.887 24.9733 176.823 24.92C176.759 24.856 176.706 24.7973 176.663 24.744L175.047 22.552L173.415 24.744C173.373 24.7867 173.319 24.84 173.255 24.904C173.191 24.968 173.09 25 172.951 25H170.967ZM181.03 25C180.912 25 180.816 24.9627 180.742 24.888C180.667 24.8133 180.63 24.7173 180.63 24.6V22.568C180.63 22.4613 180.667 22.3707 180.742 22.296C180.816 22.2107 180.912 22.168 181.03 22.168H183.046C183.163 22.168 183.259 22.2107 183.334 22.296C183.419 22.3707 183.462 22.4613 183.462 22.568V24.6C183.462 24.7173 183.419 24.8133 183.334 24.888C183.259 24.9627 183.163 25 183.046 25H181.03ZM190.345 25.16C189.747 25.16 189.246 25.0587 188.841 24.856C188.446 24.6533 188.121 24.3973 187.865 24.088V24.6C187.865 24.7173 187.822 24.8133 187.737 24.888C187.662 24.9627 187.571 25 187.465 25H185.657C185.539 25 185.443 24.9627 185.368 24.888C185.294 24.8133 185.257 24.7173 185.257 24.6V14.04C185.257 13.9227 185.294 13.8267 185.368 13.752C185.443 13.6773 185.539 13.64 185.657 13.64H187.609C187.726 13.64 187.822 13.6773 187.897 13.752C187.971 13.8267 188.009 13.9227 188.009 14.04V17.464C188.265 17.1867 188.585 16.9627 188.969 16.792C189.363 16.6107 189.822 16.52 190.345 16.52C190.878 16.52 191.347 16.6107 191.753 16.792C192.169 16.9627 192.521 17.2133 192.809 17.544C193.097 17.8747 193.321 18.2693 193.481 18.728C193.641 19.1867 193.731 19.704 193.753 20.28C193.763 20.4827 193.769 20.6693 193.769 20.84C193.769 21 193.763 21.1867 193.753 21.4C193.731 21.9973 193.635 22.5307 193.465 23C193.305 23.4587 193.081 23.8533 192.793 24.184C192.505 24.504 192.158 24.7493 191.753 24.92C191.347 25.08 190.878 25.16 190.345 25.16ZM189.481 23.016C189.843 23.016 190.126 22.9413 190.329 22.792C190.531 22.6427 190.675 22.44 190.761 22.184C190.857 21.928 190.915 21.6453 190.937 21.336C190.958 21.0053 190.958 20.6747 190.937 20.344C190.915 20.0347 190.857 19.752 190.761 19.496C190.675 19.24 190.531 19.0373 190.329 18.888C190.126 18.7387 189.843 18.664 189.481 18.664C189.15 18.664 188.878 18.7387 188.665 18.888C188.451 19.0267 188.291 19.2133 188.185 19.448C188.078 19.672 188.019 19.9173 188.009 20.184C187.998 20.3867 187.993 20.584 187.993 20.776C187.993 20.968 187.998 21.1707 188.009 21.384C188.019 21.672 188.073 21.9387 188.169 22.184C188.265 22.4293 188.419 22.632 188.633 22.792C188.846 22.9413 189.129 23.016 189.481 23.016ZM196.559 28.04C196.463 28.04 196.383 28.008 196.319 27.944C196.255 27.88 196.223 27.8 196.223 27.704C196.223 27.6827 196.223 27.6507 196.223 27.608C196.233 27.576 196.249 27.5387 196.271 27.496L197.519 24.488L194.447 17.224C194.415 17.1493 194.399 17.0853 194.399 17.032C194.42 16.936 194.463 16.856 194.527 16.792C194.591 16.7173 194.671 16.68 194.767 16.68H196.591C196.729 16.68 196.831 16.7173 196.895 16.792C196.959 16.856 197.007 16.9307 197.039 17.016L198.879 21.672L200.751 17.016C200.793 16.9307 200.847 16.856 200.911 16.792C200.985 16.7173 201.092 16.68 201.231 16.68H203.023C203.119 16.68 203.199 16.7173 203.263 16.792C203.337 16.856 203.375 16.9307 203.375 17.016C203.375 17.0693 203.359 17.1387 203.327 17.224L198.799 27.704C198.767 27.7893 198.713 27.864 198.639 27.928C198.564 28.0027 198.457 28.04 198.319 28.04H196.559Z" fill="white"/>
<path d="M50 26.2H203.615V27H50V26.2Z" fill="white"/>
</svg>
