<svg width="30" height="30" viewBox="0 0 30 30" fill="none" xmlns="http://www.w3.org/2000/svg">
<g clip-path="url(#clip0_7_311)">
<rect width="30" height="30" rx="15" transform="matrix(-1 0 0 1 30 0)" fill="white"/>
<path d="M11.6664 12.3392C11.8384 12.4515 11.9227 12.6411 11.8911 12.8483C11.8665 13.0098 11.8349 13.0449 10.8272 14.0562L9.78787 15.1025L15.7254 15.1095C21.6629 15.1201 21.6664 15.1201 21.7612 15.1938C21.9368 15.3237 22 15.4396 22 15.6292C22 15.8188 21.9368 15.9347 21.7612 16.0646C21.6664 16.1383 21.6629 16.1383 15.7254 16.1489L9.78787 16.1559L10.8272 17.2022C11.8349 18.2135 11.8665 18.2486 11.8911 18.4101C11.9403 18.7261 11.7085 19 11.3925 19C11.3082 19 11.2029 18.9824 11.1608 18.9614C11.0835 18.9192 8.17621 16.0576 8.08492 15.9347C8.00767 15.8258 7.97607 15.6257 8.01469 15.4782C8.04278 15.3694 8.30613 15.092 9.55964 13.8455C10.3918 13.0203 11.1081 12.3286 11.1467 12.304C11.2766 12.2303 11.533 12.2479 11.6664 12.3392Z" fill="#443E3E"/>
</g>
<defs>
<clipPath id="clip0_7_311">
<rect width="30" height="30" fill="white" transform="matrix(-1 0 0 1 30 0)"/>
</clipPath>
</defs>
</svg>
