<svg width="30" height="30" viewBox="0 0 30 30" fill="none" xmlns="http://www.w3.org/2000/svg">
<g clip-path="url(#clip0_22_593)">
<rect width="30" height="30" rx="15" fill="white"/>
<path d="M18.3336 12.3392C18.1616 12.4515 18.0773 12.6411 18.1089 12.8483C18.1335 13.0098 18.1651 13.0449 19.1728 14.0562L20.2121 15.1025L14.2746 15.1095C8.33708 15.1201 8.33357 15.1201 8.23876 15.1938C8.0632 15.3237 8 15.4396 8 15.6292C8 15.8188 8.0632 15.9347 8.23876 16.0646C8.33357 16.1383 8.33708 16.1383 14.2746 16.1489L20.2121 16.1559L19.1728 17.2022C18.1651 18.2135 18.1335 18.2486 18.1089 18.4101C18.0597 18.7261 18.2915 19 18.6075 19C18.6918 19 18.7971 18.9824 18.8392 18.9614C18.9165 18.9192 21.8238 16.0576 21.9151 15.9347C21.9923 15.8258 22.0239 15.6257 21.9853 15.4782C21.9572 15.3694 21.6939 15.092 20.4404 13.8455C19.6082 13.0203 18.8919 12.3286 18.8533 12.304C18.7234 12.2303 18.467 12.2479 18.3336 12.3392Z" fill="#E81212"/>
</g>
<defs>
<clipPath id="clip0_22_593">
<rect width="30" height="30" fill="white"/>
</clipPath>
</defs>
</svg>
