<svg width="21" height="14" viewBox="0 0 21 14" fill="none" xmlns="http://www.w3.org/2000/svg">
<path d="M2.11324 0.726605C1.38668 0.902387 0.777301 1.50004 0.562457 2.23832C0.503863 2.43364 0.499957 2.93364 0.50777 7.06254L0.519488 11.668L0.605426 11.9024C0.828082 12.4844 1.30464 12.961 1.89449 13.1836L2.12105 13.2696L7.82027 13.2813C12.9531 13.2891 13.5468 13.2852 13.7382 13.2266C14.4179 13.0313 14.9961 12.4766 15.2109 11.8047C15.2656 11.6368 15.2851 11.3946 15.3007 10.668L15.3242 9.74614L17.6093 10.9922C19.2695 11.9024 19.9414 12.25 20.0586 12.2618C20.207 12.2813 20.2382 12.2696 20.3632 12.1446L20.5 12.0079V7.00395V2.00004L20.3945 1.88286C20.3164 1.79692 20.2382 1.75395 20.1289 1.74223C19.9843 1.7227 19.8242 1.80473 17.6484 2.98832L15.3242 4.25786L15.3007 3.31645C15.2851 2.73442 15.2578 2.31254 15.2265 2.21489C15.0468 1.64457 14.6093 1.12895 14.1015 0.886762C13.6328 0.664105 13.8828 0.671918 7.86324 0.675824C3.5273 0.67973 2.27339 0.687543 2.11324 0.726605ZM13.7382 1.70707C14.0039 1.85551 14.2265 2.10551 14.3281 2.37895C14.4062 2.58989 14.4062 2.64067 14.3984 7.05082L14.3867 11.5118L14.2812 11.7071C14.1445 11.9727 13.9218 12.1836 13.664 12.3086L13.4492 12.4102H7.9023H2.35543L2.09371 12.2813C1.79683 12.1368 1.62496 11.961 1.48043 11.6485L1.37886 11.4336V7.00004C1.37886 2.81645 1.38277 2.55473 1.44918 2.38286C1.53511 2.1602 1.69918 1.94536 1.9023 1.79692C2.22652 1.56254 1.85152 1.57426 7.94136 1.58207L13.5273 1.58989L13.7382 1.70707ZM19.6406 7.00004C19.6406 9.23442 19.6328 11.0625 19.625 11.0625C19.6132 11.0625 18.6367 10.5352 17.457 9.88676L15.3046 8.71098V7.00004V5.28911L17.4453 4.11723C18.6211 3.4727 19.5937 2.94536 19.6132 2.94145C19.6289 2.93754 19.6406 4.76567 19.6406 7.00004Z" fill="#443E3E"/>
</svg>
