<svg width="25" height="25" viewBox="0 0 25 25" fill="none" xmlns="http://www.w3.org/2000/svg">
<path d="M7.9533 6.53357L21.6757 6.53357H21.6758L7.9533 6.53357ZM7.9533 6.53357L7.46717 4.23495L7.46717 4.23495C7.44451 4.12786 7.38576 4.0318 7.30073 3.96287C7.21571 3.89393 7.10959 3.85629 7.00013 3.85625H7.00011H2.54932H2.49932V3.90625V4.76135V4.81135H2.54932H6.61326L9.02545 16.2193L9.07437 16.209L9.02545 16.2194C9.04812 16.3265 9.10691 16.4226 9.19199 16.4915C9.27706 16.5605 9.38324 16.5981 9.49273 16.598H19.0248H19.025V16.548L7.9533 6.53357ZM8.15529 7.48867L21.6774 7.48867C21.7303 7.48872 21.7824 7.50078 21.8299 7.52395C21.8773 7.54711 21.9189 7.58076 21.9515 7.62236C21.9841 7.66396 22.0067 7.71242 22.0178 7.76408C22.0289 7.81572 22.0281 7.86921 22.0154 7.92049L22.0154 7.92053M8.15529 7.48867L22.0154 7.92053M8.15529 7.48867L9.87979 15.6429H19.025H19.0251C19.3337 15.6437 19.6337 15.5408 19.8769 15.3507C20.12 15.1606 20.2922 14.8943 20.3659 14.5946L20.366 14.5945L22.0154 7.92053M8.15529 7.48867L22.0154 7.92053" fill="#443E3E" stroke="#443E3E" stroke-width="0.1"/>
<path d="M13.7734 19.3126V19.3126C13.7735 18.9504 13.6661 18.5963 13.4649 18.2951C13.2637 17.9939 12.9777 17.7591 12.643 17.6204C12.3084 17.4818 11.9402 17.4455 11.5849 17.5161C11.2296 17.5868 10.9033 17.7612 10.6471 18.0173C10.391 18.2734 10.2165 18.5997 10.1459 18.955C10.0752 19.3103 10.1114 19.6785 10.25 20.0131C10.3886 20.3478 10.6234 20.6338 10.9245 20.8351C11.2257 21.0363 11.5798 21.1437 11.942 21.1437H11.9421C12.4276 21.1432 12.8931 20.9501 13.2364 20.6069C13.5797 20.2636 13.7728 19.7981 13.7734 19.3126ZM11.4552 18.5837C11.5942 18.4909 11.7567 18.4398 11.9236 18.4363L11.942 18.4363C12.1743 18.4366 12.3971 18.529 12.5614 18.6933C12.7256 18.8575 12.8181 19.0803 12.8183 19.3126L12.8683 19.3126L12.8183 19.3126C12.8183 19.4859 12.7669 19.6553 12.6705 19.7993C12.5742 19.9434 12.4374 20.0557 12.2772 20.122C12.1171 20.1883 11.9409 20.2056 11.771 20.1718C11.601 20.1379 11.4449 20.0545 11.3223 19.9319C11.1998 19.8094 11.1164 19.6532 11.0826 19.4832C11.0488 19.3133 11.0661 19.1371 11.1325 18.977C11.1988 18.8169 11.3111 18.68 11.4552 18.5837Z" fill="#443E3E" stroke="#443E3E" stroke-width="0.1"/>
<path d="M19.8874 19.3126V19.3126C19.8875 18.9503 19.7801 18.5962 19.5788 18.295C19.3776 17.9938 19.0915 17.759 18.7568 17.6204C18.4221 17.4817 18.0539 17.4455 17.6986 17.5162C17.3433 17.5869 17.0169 17.7614 16.7608 18.0176C16.5047 18.2738 16.3303 18.6002 16.2598 18.9555C16.1892 19.3109 16.2256 19.6791 16.3643 20.0138C16.503 20.3484 16.7379 20.6344 17.0392 20.8355C17.3405 21.0367 17.6947 21.1439 18.0569 21.1438H18.057C18.5423 21.143 19.0076 20.9498 19.3507 20.6066C19.6938 20.2633 19.8868 19.798 19.8874 19.3126ZM17.5698 18.5834C17.7089 18.4906 17.8715 18.4396 18.0384 18.4363L18.0568 18.4363C18.289 18.4368 18.5115 18.5293 18.6756 18.6935C18.8398 18.8578 18.9321 19.0804 18.9323 19.3126L18.9823 19.3126L18.9323 19.3126C18.9323 19.4859 18.8808 19.6553 18.7845 19.7994C18.6881 19.9435 18.5512 20.0558 18.3911 20.1221C18.2309 20.1884 18.0547 20.2056 17.8847 20.1717C17.7147 20.1378 17.5586 20.0543 17.4361 19.9316C17.3136 19.809 17.2302 19.6528 17.1965 19.4828C17.1628 19.3127 17.1803 19.1365 17.2467 18.9764C17.3132 18.8163 17.4256 18.6795 17.5698 18.5834Z" fill="#443E3E" stroke="#443E3E" stroke-width="0.1"/>
</svg>
