<svg width="230" height="50" viewBox="0 0 230 50" fill="none" xmlns="http://www.w3.org/2000/svg">
<path d="M31.1499 26.6864L31.0376 26.3446C30.7739 25.5585 29.9048 24.7382 29.104 24.5184L26.1475 23.7103C25.3467 23.4931 24.2041 23.786 23.6159 24.3744L22.5465 25.4438C18.6598 24.3915 15.6105 21.3422 14.5606 17.4555L15.63 16.3861C16.2159 15.8002 16.5089 14.6576 16.2916 13.8544L15.4859 10.8978C15.2686 10.097 14.4434 9.2279 13.6573 8.96423L13.3203 8.85188C12.5317 8.58821 11.4062 8.8543 10.8203 9.44274L9.21874 11.0443C8.93312 11.3275 8.74999 12.143 8.74999 12.143C8.69624 17.226 10.6885 22.121 14.2823 25.7172C17.8662 29.3012 22.7442 31.291 27.8101 31.247C27.8369 31.247 28.6744 31.0688 28.96 30.7831L30.5616 29.1815C31.1475 28.598 31.4111 27.4725 31.1499 26.6864Z" fill="#E81212"/>
<path d="M54.208 16.472C54.0907 16.472 53.9947 16.4347 53.92 16.36C53.8453 16.2853 53.808 16.1893 53.808 16.072V13.144H50.96C50.8427 13.144 50.7413 13.1067 50.656 13.032C50.5813 12.9573 50.544 12.8613 50.544 12.744V11.576C50.544 11.4587 50.5813 11.3627 50.656 11.288C50.7413 11.2133 50.8427 11.176 50.96 11.176H53.808V8.328C53.808 8.21067 53.8453 8.11467 53.92 8.04C53.9947 7.96533 54.0907 7.928 54.208 7.928H55.52C55.6267 7.928 55.7173 7.96533 55.792 8.04C55.8773 8.11467 55.92 8.21067 55.92 8.328V11.176H58.752C58.8693 11.176 58.9653 11.2133 59.04 11.288C59.1147 11.3627 59.152 11.4587 59.152 11.576V12.744C59.152 12.8613 59.1147 12.9573 59.04 13.032C58.9653 13.1067 58.8693 13.144 58.752 13.144H55.92V16.072C55.92 16.1893 55.8773 16.2853 55.792 16.36C55.7173 16.4347 55.6267 16.472 55.52 16.472H54.208ZM64.8406 17.16C64.0086 17.16 63.2993 17.064 62.7126 16.872C62.126 16.6693 61.646 16.4133 61.2726 16.104C60.8993 15.784 60.622 15.448 60.4406 15.096C60.2593 14.7333 60.1633 14.3867 60.1526 14.056C60.1526 13.96 60.1846 13.88 60.2486 13.816C60.3233 13.752 60.4086 13.72 60.5046 13.72H62.5846C62.7126 13.72 62.814 13.7467 62.8886 13.8C62.9633 13.8427 63.0326 13.9173 63.0966 14.024C63.182 14.2267 63.3046 14.392 63.4646 14.52C63.6353 14.648 63.838 14.7387 64.0726 14.792C64.3073 14.8347 64.5633 14.856 64.8406 14.856C65.3846 14.856 65.806 14.7333 66.1046 14.488C66.414 14.232 66.5686 13.8853 66.5686 13.448C66.5686 12.9893 66.4246 12.664 66.1366 12.472C65.8486 12.2693 65.438 12.168 64.9046 12.168H63.1286C63.0113 12.168 62.9153 12.1307 62.8406 12.056C62.766 11.9813 62.7286 11.8853 62.7286 11.768V10.872C62.7286 10.744 62.7553 10.632 62.8086 10.536C62.862 10.44 62.9206 10.3707 62.9846 10.328L65.6086 8.104H61.1606C61.054 8.104 60.958 8.06667 60.8726 7.992C60.798 7.91733 60.7606 7.82133 60.7606 7.704V6.2C60.7606 6.08267 60.798 5.98667 60.8726 5.912C60.958 5.83733 61.054 5.8 61.1606 5.8H68.5206C68.638 5.8 68.734 5.83733 68.8086 5.912C68.894 5.98667 68.9366 6.08267 68.9366 6.2V7.56C68.9366 7.67733 68.91 7.784 68.8566 7.88C68.8033 7.96533 68.7446 8.03467 68.6806 8.088L66.2486 10.344L66.3606 10.376C66.9686 10.4507 67.5126 10.616 67.9926 10.872C68.4726 11.1173 68.8513 11.464 69.1286 11.912C69.406 12.36 69.5446 12.9307 69.5446 13.624C69.5446 14.3493 69.3366 14.9787 68.9206 15.512C68.5153 16.0347 67.9606 16.44 67.2566 16.728C66.5526 17.016 65.7473 17.16 64.8406 17.16ZM72.4435 17C72.3475 17 72.2675 16.968 72.2035 16.904C72.1395 16.8293 72.1075 16.744 72.1075 16.648C72.1075 16.6053 72.1182 16.5573 72.1395 16.504L75.8355 8.216H71.0355C70.9288 8.216 70.8328 8.17867 70.7475 8.104C70.6728 8.01867 70.6355 7.91733 70.6355 7.8V6.2C70.6355 6.08267 70.6728 5.98667 70.7475 5.912C70.8328 5.83733 70.9288 5.8 71.0355 5.8H78.5235C78.6515 5.8 78.7528 5.83733 78.8275 5.912C78.9022 5.98667 78.9395 6.08267 78.9395 6.2V7.624C78.9395 7.784 78.9235 7.91733 78.8915 8.024C78.8595 8.13067 78.8168 8.23733 78.7635 8.344L75.0675 16.616C75.0355 16.68 74.9768 16.76 74.8915 16.856C74.8062 16.952 74.6782 17 74.5075 17H72.4435ZM84.4794 17.176C83.4767 17.176 82.6394 17.0213 81.9674 16.712C81.2954 16.392 80.7834 15.9813 80.4314 15.48C80.09 14.968 79.9087 14.4187 79.8874 13.832C79.8874 13.736 79.9194 13.656 79.9834 13.592C80.0474 13.528 80.1274 13.496 80.2234 13.496H82.3674C82.506 13.496 82.6127 13.528 82.6874 13.592C82.7727 13.6453 82.8367 13.7147 82.8794 13.8C82.9754 14.0453 83.098 14.248 83.2474 14.408C83.4074 14.568 83.5887 14.6853 83.7914 14.76C84.0047 14.8347 84.2394 14.872 84.4954 14.872C84.794 14.872 85.0714 14.808 85.3274 14.68C85.5834 14.552 85.786 14.3653 85.9354 14.12C86.0954 13.864 86.1754 13.56 86.1754 13.208C86.1754 12.888 86.1007 12.6107 85.9514 12.376C85.8127 12.1413 85.6154 11.9547 85.3594 11.816C85.1034 11.6773 84.8154 11.608 84.4954 11.608C84.2394 11.608 84.0314 11.64 83.8714 11.704C83.7114 11.7573 83.578 11.8267 83.4714 11.912C83.3647 11.9973 83.2687 12.072 83.1834 12.136C83.098 12.1893 83.002 12.216 82.8954 12.216H80.7994C80.7034 12.216 80.618 12.184 80.5434 12.12C80.4794 12.0453 80.4474 11.96 80.4474 11.864L81.0234 6.28C81.0447 6.12 81.1034 6.00267 81.1994 5.928C81.2954 5.84267 81.4127 5.8 81.5514 5.8H87.9674C88.0847 5.8 88.1807 5.83733 88.2554 5.912C88.33 5.98667 88.3674 6.08267 88.3674 6.2V7.704C88.3674 7.82133 88.33 7.91733 88.2554 7.992C88.1807 8.06667 88.0847 8.104 87.9674 8.104H83.3274L83.1194 10.184C83.354 10.024 83.626 9.896 83.9354 9.8C84.2554 9.69333 84.6874 9.64 85.2314 9.64C85.7434 9.64 86.2287 9.72533 86.6874 9.896C87.1567 10.0667 87.5727 10.312 87.9354 10.632C88.3087 10.952 88.5967 11.336 88.7994 11.784C89.0127 12.2213 89.1194 12.7173 89.1194 13.272C89.1194 14.0293 88.9327 14.7013 88.5594 15.288C88.1967 15.8747 87.6687 16.3387 86.9754 16.68C86.282 17.0107 85.45 17.176 84.4794 17.176ZM98.4854 19.544C97.7494 19.544 97.088 19.4 96.5014 19.112C95.9254 18.8347 95.4347 18.3973 95.0294 17.8C94.624 17.2027 94.3147 16.4293 94.1014 15.48C93.888 14.5307 93.7814 13.3893 93.7814 12.056C93.7814 10.7227 93.888 9.58133 94.1014 8.632C94.3147 7.68267 94.624 6.91467 95.0294 6.328C95.4347 5.73067 95.9254 5.29333 96.5014 5.016C97.088 4.728 97.7494 4.584 98.4854 4.584C98.592 4.584 98.6827 4.62667 98.7574 4.712C98.8427 4.78667 98.8854 4.87733 98.8854 4.984V6.344C98.8854 6.45067 98.8427 6.54133 98.7574 6.616C98.6827 6.69067 98.5974 6.73333 98.5014 6.744C98.064 6.76533 97.696 6.89867 97.3974 7.144C97.1094 7.38933 96.88 7.736 96.7094 8.184C96.5494 8.632 96.432 9.18133 96.3574 9.832C96.2827 10.4827 96.2454 11.224 96.2454 12.056C96.2454 12.888 96.2827 13.6293 96.3574 14.28C96.432 14.9307 96.5494 15.4853 96.7094 15.944C96.88 16.392 97.1094 16.7387 97.3974 16.984C97.696 17.2293 98.064 17.3627 98.5014 17.384C98.5974 17.3947 98.6827 17.4373 98.7574 17.512C98.8427 17.5867 98.8854 17.6773 98.8854 17.784V19.144C98.8854 19.2507 98.8427 19.3413 98.7574 19.416C98.6827 19.5013 98.592 19.544 98.4854 19.544ZM100.213 17C100.095 17 99.994 16.9627 99.9086 16.888C99.834 16.8133 99.7966 16.7173 99.7966 16.6V15.464C99.7966 15.3893 99.818 15.2773 99.8606 15.128C99.9033 14.968 100.015 14.8187 100.197 14.68L101.861 13.048C102.714 12.3973 103.413 11.848 103.957 11.4C104.511 10.9413 104.922 10.536 105.189 10.184C105.455 9.832 105.589 9.50133 105.589 9.192C105.589 8.82933 105.493 8.53067 105.301 8.296C105.119 8.05067 104.799 7.928 104.341 7.928C104.031 7.928 103.77 7.99733 103.557 8.136C103.354 8.264 103.199 8.43467 103.093 8.648C102.986 8.86133 102.911 9.08 102.869 9.304C102.826 9.44267 102.751 9.53867 102.645 9.592C102.549 9.64533 102.442 9.672 102.325 9.672H100.325C100.229 9.672 100.149 9.64 100.085 9.576C100.021 9.512 99.9886 9.432 99.9886 9.336C99.9993 8.824 100.106 8.344 100.309 7.896C100.522 7.448 100.815 7.05333 101.189 6.712C101.573 6.36 102.026 6.088 102.549 5.896C103.082 5.704 103.679 5.608 104.341 5.608C105.247 5.608 106.015 5.752 106.645 6.04C107.285 6.328 107.77 6.73333 108.101 7.256C108.431 7.768 108.597 8.37067 108.597 9.064C108.597 9.58667 108.479 10.0773 108.245 10.536C108.021 10.984 107.695 11.416 107.269 11.832C106.853 12.2373 106.357 12.6587 105.781 13.096L104.309 14.584H108.421C108.538 14.584 108.634 14.6213 108.709 14.696C108.794 14.7707 108.837 14.8667 108.837 14.984V16.6C108.837 16.7173 108.794 16.8133 108.709 16.888C108.634 16.9627 108.538 17 108.421 17H100.213ZM112.331 17C112.235 17 112.155 16.968 112.091 16.904C112.027 16.8293 111.995 16.744 111.995 16.648C111.995 16.5947 112 16.552 112.011 16.52C112.032 16.488 112.048 16.4613 112.059 16.44L114.315 13.352C114.166 13.384 114.011 13.4 113.851 13.4C113.371 13.368 112.902 13.2613 112.443 13.08C111.984 12.888 111.568 12.632 111.195 12.312C110.832 11.9813 110.544 11.592 110.331 11.144C110.118 10.696 110.011 10.1947 110.011 9.64C110.011 9.128 110.107 8.63733 110.299 8.168C110.491 7.688 110.779 7.26133 111.163 6.888C111.547 6.504 112.022 6.2 112.587 5.976C113.163 5.752 113.83 5.64 114.587 5.64C115.344 5.64 116.011 5.74133 116.587 5.944C117.174 6.14667 117.664 6.42933 118.059 6.792C118.464 7.144 118.768 7.55467 118.971 8.024C119.174 8.49333 119.275 8.99467 119.275 9.528C119.275 10.0187 119.184 10.472 119.003 10.888C118.832 11.304 118.619 11.6987 118.363 12.072C118.107 12.4347 117.851 12.8027 117.595 13.176L115.035 16.68C114.992 16.7333 114.928 16.8027 114.843 16.888C114.758 16.9627 114.63 17 114.459 17H112.331ZM114.619 11.304C114.939 11.304 115.227 11.2347 115.483 11.096C115.739 10.9573 115.942 10.7653 116.091 10.52C116.24 10.2747 116.315 9.976 116.315 9.624C116.315 9.272 116.24 8.97333 116.091 8.728C115.942 8.472 115.739 8.28 115.483 8.152C115.227 8.01333 114.939 7.944 114.619 7.944C114.31 7.944 114.027 8.01333 113.771 8.152C113.515 8.28 113.312 8.472 113.163 8.728C113.014 8.97333 112.939 9.272 112.939 9.624C112.939 9.976 113.014 10.2747 113.163 10.52C113.312 10.7653 113.515 10.9573 113.771 11.096C114.027 11.2347 114.31 11.304 114.619 11.304ZM120.362 19.544C120.255 19.544 120.159 19.5013 120.074 19.416C119.999 19.3413 119.962 19.2507 119.962 19.144V17.784C119.962 17.6773 119.999 17.5867 120.074 17.512C120.159 17.4373 120.25 17.3947 120.346 17.384C120.783 17.3627 121.146 17.2293 121.434 16.984C121.732 16.7387 121.962 16.392 122.122 15.944C122.292 15.4853 122.415 14.9307 122.49 14.28C122.564 13.6293 122.602 12.888 122.602 12.056C122.602 11.224 122.564 10.4827 122.49 9.832C122.415 9.18133 122.292 8.632 122.122 8.184C121.962 7.736 121.732 7.38933 121.434 7.144C121.146 6.89867 120.783 6.76533 120.346 6.744C120.25 6.73333 120.159 6.69067 120.074 6.616C119.999 6.54133 119.962 6.45067 119.962 6.344V4.984C119.962 4.87733 119.999 4.78667 120.074 4.712C120.159 4.62667 120.255 4.584 120.362 4.584C121.098 4.584 121.754 4.728 122.33 5.016C122.916 5.29333 123.412 5.73067 123.818 6.328C124.223 6.91467 124.532 7.68267 124.746 8.632C124.959 9.58133 125.066 10.7227 125.066 12.056C125.066 13.3893 124.959 14.5307 124.746 15.48C124.532 16.4293 124.223 17.2027 123.818 17.8C123.412 18.3973 122.916 18.8347 122.33 19.112C121.754 19.4 121.098 19.544 120.362 19.544ZM133.573 17C133.466 17 133.37 16.9627 133.285 16.888C133.21 16.8133 133.173 16.7173 133.173 16.6V8.984L130.981 10.664C130.885 10.7387 130.783 10.7653 130.677 10.744C130.581 10.7227 130.495 10.664 130.421 10.568L129.477 9.336C129.413 9.24 129.386 9.13867 129.397 9.032C129.418 8.91467 129.482 8.824 129.589 8.76L133.269 5.912C133.333 5.86933 133.391 5.84267 133.445 5.832C133.509 5.81067 133.578 5.8 133.653 5.8H135.653C135.759 5.8 135.85 5.83733 135.925 5.912C136.01 5.98667 136.053 6.08267 136.053 6.2V16.6C136.053 16.7173 136.01 16.8133 135.925 16.888C135.85 16.9627 135.759 17 135.653 17H133.573ZM143.318 17C143.211 17 143.115 16.9627 143.03 16.888C142.955 16.8133 142.918 16.7173 142.918 16.6V14.792H137.942C137.835 14.792 137.739 14.7547 137.654 14.68C137.579 14.6053 137.542 14.5093 137.542 14.392V12.872C137.542 12.776 137.558 12.6907 137.59 12.616C137.632 12.5307 137.675 12.4507 137.718 12.376L142.374 6.072C142.512 5.89067 142.71 5.8 142.966 5.8H145.286C145.403 5.8 145.499 5.83733 145.574 5.912C145.659 5.98667 145.702 6.08267 145.702 6.2V12.408H147.11C147.238 12.408 147.339 12.4507 147.414 12.536C147.488 12.6107 147.526 12.7013 147.526 12.808V14.392C147.526 14.5093 147.483 14.6053 147.398 14.68C147.323 14.7547 147.232 14.792 147.126 14.792H145.702V16.6C145.702 16.7173 145.659 16.8133 145.574 16.888C145.499 16.9627 145.403 17 145.286 17H143.318ZM140.294 12.52H142.982V8.744L140.294 12.52ZM154.224 17C154.117 17 154.021 16.9627 153.936 16.888C153.861 16.8133 153.824 16.7173 153.824 16.6V14.792H148.848C148.741 14.792 148.645 14.7547 148.56 14.68C148.485 14.6053 148.448 14.5093 148.448 14.392V12.872C148.448 12.776 148.464 12.6907 148.496 12.616C148.539 12.5307 148.581 12.4507 148.624 12.376L153.28 6.072C153.419 5.89067 153.616 5.8 153.872 5.8H156.192C156.309 5.8 156.405 5.83733 156.48 5.912C156.565 5.98667 156.608 6.08267 156.608 6.2V12.408H158.016C158.144 12.408 158.245 12.4507 158.32 12.536C158.395 12.6107 158.432 12.7013 158.432 12.808V14.392C158.432 14.5093 158.389 14.6053 158.304 14.68C158.229 14.7547 158.139 14.792 158.032 14.792H156.608V16.6C156.608 16.7173 156.565 16.8133 156.48 16.888C156.405 16.9627 156.309 17 156.192 17H154.224ZM151.2 12.52H153.888V8.744L151.2 12.52ZM160.218 13.352C160.101 13.352 160.005 13.3147 159.93 13.24C159.856 13.1653 159.818 13.0693 159.818 12.952V11.448C159.818 11.3307 159.856 11.2347 159.93 11.16C160.005 11.0853 160.101 11.048 160.218 11.048H165.226C165.344 11.048 165.44 11.0853 165.514 11.16C165.589 11.2347 165.626 11.3307 165.626 11.448V12.952C165.626 13.0693 165.589 13.1653 165.514 13.24C165.44 13.3147 165.344 13.352 165.226 13.352H160.218ZM167.181 17C167.064 17 166.963 16.9627 166.877 16.888C166.803 16.8133 166.765 16.7173 166.765 16.6V15.464C166.765 15.3893 166.787 15.2773 166.829 15.128C166.872 14.968 166.984 14.8187 167.165 14.68L168.829 13.048C169.683 12.3973 170.381 11.848 170.925 11.4C171.48 10.9413 171.891 10.536 172.157 10.184C172.424 9.832 172.557 9.50133 172.557 9.192C172.557 8.82933 172.461 8.53067 172.269 8.296C172.088 8.05067 171.768 7.928 171.309 7.928C171 7.928 170.739 7.99733 170.525 8.136C170.323 8.264 170.168 8.43467 170.061 8.648C169.955 8.86133 169.88 9.08 169.837 9.304C169.795 9.44267 169.72 9.53867 169.613 9.592C169.517 9.64533 169.411 9.672 169.293 9.672H167.293C167.197 9.672 167.117 9.64 167.053 9.576C166.989 9.512 166.957 9.432 166.957 9.336C166.968 8.824 167.075 8.344 167.277 7.896C167.491 7.448 167.784 7.05333 168.157 6.712C168.541 6.36 168.995 6.088 169.517 5.896C170.051 5.704 170.648 5.608 171.309 5.608C172.216 5.608 172.984 5.752 173.613 6.04C174.253 6.328 174.739 6.73333 175.069 7.256C175.4 7.768 175.565 8.37067 175.565 9.064C175.565 9.58667 175.448 10.0773 175.213 10.536C174.989 10.984 174.664 11.416 174.237 11.832C173.821 12.2373 173.325 12.6587 172.749 13.096L171.277 14.584H175.389C175.507 14.584 175.603 14.6213 175.677 14.696C175.763 14.7707 175.805 14.8667 175.805 14.984V16.6C175.805 16.7173 175.763 16.8133 175.677 16.888C175.603 16.9627 175.507 17 175.389 17H167.181ZM182.677 17C182.57 17 182.474 16.9627 182.389 16.888C182.314 16.8133 182.277 16.7173 182.277 16.6V14.792H177.301C177.194 14.792 177.098 14.7547 177.013 14.68C176.938 14.6053 176.901 14.5093 176.901 14.392V12.872C176.901 12.776 176.917 12.6907 176.949 12.616C176.992 12.5307 177.034 12.4507 177.077 12.376L181.733 6.072C181.872 5.89067 182.069 5.8 182.325 5.8H184.645C184.762 5.8 184.858 5.83733 184.933 5.912C185.018 5.98667 185.061 6.08267 185.061 6.2V12.408H186.469C186.597 12.408 186.698 12.4507 186.773 12.536C186.848 12.6107 186.885 12.7013 186.885 12.808V14.392C186.885 14.5093 186.842 14.6053 186.757 14.68C186.682 14.7547 186.592 14.792 186.485 14.792H185.061V16.6C185.061 16.7173 185.018 16.8133 184.933 16.888C184.858 16.9627 184.762 17 184.645 17H182.677ZM179.653 12.52H182.341V8.744L179.653 12.52ZM188.671 13.352C188.554 13.352 188.458 13.3147 188.383 13.24C188.309 13.1653 188.271 13.0693 188.271 12.952V11.448C188.271 11.3307 188.309 11.2347 188.383 11.16C188.458 11.0853 188.554 11.048 188.671 11.048H193.679C193.797 11.048 193.893 11.0853 193.967 11.16C194.042 11.2347 194.079 11.3307 194.079 11.448V12.952C194.079 13.0693 194.042 13.1653 193.967 13.24C193.893 13.3147 193.797 13.352 193.679 13.352H188.671ZM200.028 17.16C199.196 17.16 198.487 17.064 197.9 16.872C197.313 16.6693 196.833 16.4133 196.46 16.104C196.087 15.784 195.809 15.448 195.628 15.096C195.447 14.7333 195.351 14.3867 195.34 14.056C195.34 13.96 195.372 13.88 195.436 13.816C195.511 13.752 195.596 13.72 195.692 13.72H197.772C197.9 13.72 198.001 13.7467 198.076 13.8C198.151 13.8427 198.22 13.9173 198.284 14.024C198.369 14.2267 198.492 14.392 198.652 14.52C198.823 14.648 199.025 14.7387 199.26 14.792C199.495 14.8347 199.751 14.856 200.028 14.856C200.572 14.856 200.993 14.7333 201.292 14.488C201.601 14.232 201.756 13.8853 201.756 13.448C201.756 12.9893 201.612 12.664 201.324 12.472C201.036 12.2693 200.625 12.168 200.092 12.168H198.316C198.199 12.168 198.103 12.1307 198.028 12.056C197.953 11.9813 197.916 11.8853 197.916 11.768V10.872C197.916 10.744 197.943 10.632 197.996 10.536C198.049 10.44 198.108 10.3707 198.172 10.328L200.796 8.104H196.348C196.241 8.104 196.145 8.06667 196.06 7.992C195.985 7.91733 195.948 7.82133 195.948 7.704V6.2C195.948 6.08267 195.985 5.98667 196.06 5.912C196.145 5.83733 196.241 5.8 196.348 5.8H203.708C203.825 5.8 203.921 5.83733 203.996 5.912C204.081 5.98667 204.124 6.08267 204.124 6.2V7.56C204.124 7.67733 204.097 7.784 204.044 7.88C203.991 7.96533 203.932 8.03467 203.868 8.088L201.436 10.344L201.548 10.376C202.156 10.4507 202.7 10.616 203.18 10.872C203.66 11.1173 204.039 11.464 204.316 11.912C204.593 12.36 204.732 12.9307 204.732 13.624C204.732 14.3493 204.524 14.9787 204.108 15.512C203.703 16.0347 203.148 16.44 202.444 16.728C201.74 17.016 200.935 17.16 200.028 17.16ZM211.599 17C211.492 17 211.396 16.9627 211.311 16.888C211.236 16.8133 211.199 16.7173 211.199 16.6V14.792H206.223C206.116 14.792 206.02 14.7547 205.935 14.68C205.86 14.6053 205.823 14.5093 205.823 14.392V12.872C205.823 12.776 205.839 12.6907 205.871 12.616C205.914 12.5307 205.956 12.4507 205.999 12.376L210.655 6.072C210.794 5.89067 210.991 5.8 211.247 5.8H213.567C213.684 5.8 213.78 5.83733 213.855 5.912C213.94 5.98667 213.983 6.08267 213.983 6.2V12.408H215.391C215.519 12.408 215.62 12.4507 215.695 12.536C215.77 12.6107 215.807 12.7013 215.807 12.808V14.392C215.807 14.5093 215.764 14.6053 215.679 14.68C215.604 14.7547 215.514 14.792 215.407 14.792H213.983V16.6C213.983 16.7173 213.94 16.8133 213.855 16.888C213.78 16.9627 213.684 17 213.567 17H211.599ZM208.575 12.52H211.263V8.744L208.575 12.52Z" fill="#443E3E"/>
<path d="M50 18.2H216.287V19H50V18.2Z" fill="#443E3E"/>
<path d="M53.934 44.14C52.9727 44.14 52.2073 43.846 51.638 43.258C51.0687 42.6607 50.756 41.8487 50.7 40.822C50.6907 40.7007 50.686 40.5467 50.686 40.36C50.686 40.164 50.6907 40.0053 50.7 39.884C50.7373 39.2213 50.8913 38.6427 51.162 38.148C51.4327 37.644 51.8013 37.2567 52.268 36.986C52.744 36.7153 53.2993 36.58 53.934 36.58C54.6433 36.58 55.236 36.7293 55.712 37.028C56.1973 37.3267 56.566 37.7513 56.818 38.302C57.07 38.8527 57.196 39.4967 57.196 40.234V40.472C57.196 40.5747 57.1633 40.654 57.098 40.71C57.042 40.766 56.9673 40.794 56.874 40.794H52.03C52.03 40.8033 52.03 40.822 52.03 40.85C52.03 40.878 52.03 40.9013 52.03 40.92C52.0487 41.3027 52.1327 41.662 52.282 41.998C52.4313 42.3247 52.646 42.5907 52.926 42.796C53.206 43.0013 53.542 43.104 53.934 43.104C54.27 43.104 54.55 43.0527 54.774 42.95C54.998 42.8473 55.18 42.7353 55.32 42.614C55.46 42.4833 55.5533 42.3853 55.6 42.32C55.684 42.1987 55.7493 42.1287 55.796 42.11C55.8427 42.082 55.9173 42.068 56.02 42.068H56.692C56.7853 42.068 56.86 42.096 56.916 42.152C56.9813 42.1987 57.0093 42.2687 57 42.362C56.9907 42.502 56.916 42.6747 56.776 42.88C56.636 43.076 56.4353 43.272 56.174 43.468C55.9127 43.664 55.5953 43.8273 55.222 43.958C54.8487 44.0793 54.4193 44.14 53.934 44.14ZM52.03 39.828H55.866V39.786C55.866 39.366 55.7867 38.9927 55.628 38.666C55.4787 38.3393 55.2593 38.0827 54.97 37.896C54.6807 37.7 54.3353 37.602 53.934 37.602C53.5327 37.602 53.1873 37.7 52.898 37.896C52.618 38.0827 52.4033 38.3393 52.254 38.666C52.1047 38.9927 52.03 39.366 52.03 39.786V39.828ZM58.436 44C58.352 44 58.282 43.9813 58.226 43.944C58.1793 43.9067 58.156 43.8507 58.156 43.776C58.156 43.7293 58.1793 43.6687 58.226 43.594L60.62 40.192L58.506 37.112C58.4873 37.084 58.4733 37.056 58.464 37.028C58.4547 36.9907 58.45 36.9627 58.45 36.944C58.45 36.8693 58.4733 36.8133 58.52 36.776C58.576 36.7387 58.646 36.72 58.73 36.72H59.458C59.5513 36.72 59.626 36.7387 59.682 36.776C59.738 36.8133 59.7893 36.8647 59.836 36.93L61.726 39.73H62.79V37.042C62.79 36.9487 62.818 36.874 62.874 36.818C62.9393 36.7527 63.0187 36.72 63.112 36.72H63.756C63.8587 36.72 63.938 36.7527 63.994 36.818C64.05 36.874 64.078 36.9487 64.078 37.042V39.73H65.1L67.018 36.93C67.0553 36.8647 67.102 36.8133 67.158 36.776C67.2233 36.7387 67.298 36.72 67.382 36.72H68.124C68.208 36.72 68.2733 36.7387 68.32 36.776C68.376 36.8133 68.404 36.8693 68.404 36.944C68.404 36.9627 68.3947 36.9907 68.376 37.028C68.3667 37.056 68.3527 37.084 68.334 37.112L66.234 40.192L68.628 43.594C68.6653 43.65 68.684 43.7107 68.684 43.776C68.684 43.8507 68.6607 43.9067 68.614 43.944C68.5673 43.9813 68.4973 44 68.404 44H67.564C67.4707 44 67.3913 43.9813 67.326 43.944C67.27 43.9067 67.2233 43.8553 67.186 43.79L65.142 40.85H64.078V43.678C64.078 43.7713 64.05 43.8507 63.994 43.916C63.938 43.972 63.8587 44 63.756 44H63.112C63.0187 44 62.9393 43.972 62.874 43.916C62.818 43.8507 62.79 43.7713 62.79 43.678V40.85H61.726L59.654 43.79C59.626 43.8553 59.5793 43.9067 59.514 43.944C59.458 43.9813 59.3833 44 59.29 44H58.436ZM72.9379 44.14C71.9766 44.14 71.2112 43.846 70.6419 43.258C70.0726 42.6607 69.7599 41.8487 69.7039 40.822C69.6946 40.7007 69.6899 40.5467 69.6899 40.36C69.6899 40.164 69.6946 40.0053 69.7039 39.884C69.7412 39.2213 69.8952 38.6427 70.1659 38.148C70.4366 37.644 70.8052 37.2567 71.2719 36.986C71.7479 36.7153 72.3032 36.58 72.9379 36.58C73.6472 36.58 74.2399 36.7293 74.7159 37.028C75.2012 37.3267 75.5699 37.7513 75.8219 38.302C76.0739 38.8527 76.1999 39.4967 76.1999 40.234V40.472C76.1999 40.5747 76.1672 40.654 76.1019 40.71C76.0459 40.766 75.9712 40.794 75.8779 40.794H71.0339C71.0339 40.8033 71.0339 40.822 71.0339 40.85C71.0339 40.878 71.0339 40.9013 71.0339 40.92C71.0526 41.3027 71.1366 41.662 71.2859 41.998C71.4352 42.3247 71.6499 42.5907 71.9299 42.796C72.2099 43.0013 72.5459 43.104 72.9379 43.104C73.2739 43.104 73.5539 43.0527 73.7779 42.95C74.0019 42.8473 74.1839 42.7353 74.3239 42.614C74.4639 42.4833 74.5572 42.3853 74.6039 42.32C74.6879 42.1987 74.7532 42.1287 74.7999 42.11C74.8466 42.082 74.9212 42.068 75.0239 42.068H75.6959C75.7892 42.068 75.8639 42.096 75.9199 42.152C75.9852 42.1987 76.0132 42.2687 76.0039 42.362C75.9946 42.502 75.9199 42.6747 75.7799 42.88C75.6399 43.076 75.4392 43.272 75.1779 43.468C74.9166 43.664 74.5992 43.8273 74.2259 43.958C73.8526 44.0793 73.4232 44.14 72.9379 44.14ZM71.0339 39.828H74.8699V39.786C74.8699 39.366 74.7906 38.9927 74.6319 38.666C74.4826 38.3393 74.2632 38.0827 73.9739 37.896C73.6846 37.7 73.3392 37.602 72.9379 37.602C72.5366 37.602 72.1912 37.7 71.9019 37.896C71.6219 38.0827 71.4072 38.3393 71.2579 38.666C71.1086 38.9927 71.0339 39.366 71.0339 39.786V39.828ZM77.4539 45.54C77.3606 45.54 77.2812 45.5073 77.2159 45.442C77.1599 45.386 77.1319 45.3113 77.1319 45.218V43.202C77.1319 43.1087 77.1599 43.034 77.2159 42.978C77.2812 42.9127 77.3606 42.88 77.4539 42.88H77.5239C77.7759 42.8707 77.9906 42.7307 78.1679 42.46C78.3452 42.18 78.4806 41.746 78.5739 41.158C78.6672 40.5607 78.7139 39.786 78.7139 38.834V37.042C78.7139 36.9487 78.7419 36.874 78.7979 36.818C78.8632 36.7527 78.9426 36.72 79.0359 36.72H83.5019C83.5952 36.72 83.6699 36.7527 83.7259 36.818C83.7912 36.874 83.8239 36.9487 83.8239 37.042V42.852H84.4819C84.5846 42.852 84.6639 42.8847 84.7199 42.95C84.7759 43.006 84.8039 43.0807 84.8039 43.174V45.218C84.8039 45.3113 84.7759 45.386 84.7199 45.442C84.6639 45.5073 84.5846 45.54 84.4819 45.54H83.8239C83.7306 45.54 83.6512 45.5073 83.5859 45.442C83.5299 45.386 83.5019 45.3113 83.5019 45.218V44H78.4339V45.218C78.4339 45.3113 78.4012 45.386 78.3359 45.442C78.2799 45.5073 78.2052 45.54 78.1119 45.54H77.4539ZM79.1899 42.88L82.5219 42.852V37.84H79.9879V38.988C79.9879 39.9773 79.9179 40.7893 79.7779 41.424C79.6379 42.0493 79.4419 42.5347 79.1899 42.88ZM86.5904 44C86.4971 44 86.4178 43.972 86.3524 43.916C86.2964 43.8507 86.2684 43.7713 86.2684 43.678V37.042C86.2684 36.9487 86.2964 36.874 86.3524 36.818C86.4178 36.7527 86.4971 36.72 86.5904 36.72H87.2624C87.3558 36.72 87.4304 36.7527 87.4864 36.818C87.5424 36.874 87.5704 36.9487 87.5704 37.042V39.73H91.3924V37.042C91.3924 36.9487 91.4204 36.874 91.4764 36.818C91.5418 36.7527 91.6211 36.72 91.7144 36.72H92.3724C92.4658 36.72 92.5404 36.7527 92.5964 36.818C92.6618 36.874 92.6944 36.9487 92.6944 37.042V43.678C92.6944 43.7713 92.6618 43.8507 92.5964 43.916C92.5404 43.972 92.4658 44 92.3724 44H91.7144C91.6211 44 91.5418 43.972 91.4764 43.916C91.4204 43.8507 91.3924 43.7713 91.3924 43.678V40.85H87.5704V43.678C87.5704 43.7713 87.5424 43.8507 87.4864 43.916C87.4304 43.972 87.3558 44 87.2624 44H86.5904ZM97.6977 44.14C96.7363 44.14 95.971 43.846 95.4017 43.258C94.8323 42.6607 94.5197 41.8487 94.4637 40.822C94.4543 40.7007 94.4497 40.5467 94.4497 40.36C94.4497 40.164 94.4543 40.0053 94.4637 39.884C94.501 39.2213 94.655 38.6427 94.9257 38.148C95.1963 37.644 95.565 37.2567 96.0317 36.986C96.5077 36.7153 97.063 36.58 97.6977 36.58C98.407 36.58 98.9997 36.7293 99.4757 37.028C99.961 37.3267 100.33 37.7513 100.582 38.302C100.834 38.8527 100.96 39.4967 100.96 40.234V40.472C100.96 40.5747 100.927 40.654 100.862 40.71C100.806 40.766 100.731 40.794 100.638 40.794H95.7937C95.7937 40.8033 95.7937 40.822 95.7937 40.85C95.7937 40.878 95.7937 40.9013 95.7937 40.92C95.8123 41.3027 95.8963 41.662 96.0457 41.998C96.195 42.3247 96.4097 42.5907 96.6897 42.796C96.9697 43.0013 97.3057 43.104 97.6977 43.104C98.0337 43.104 98.3137 43.0527 98.5377 42.95C98.7617 42.8473 98.9437 42.7353 99.0837 42.614C99.2237 42.4833 99.317 42.3853 99.3637 42.32C99.4477 42.1987 99.513 42.1287 99.5597 42.11C99.6063 42.082 99.681 42.068 99.7837 42.068H100.456C100.549 42.068 100.624 42.096 100.68 42.152C100.745 42.1987 100.773 42.2687 100.764 42.362C100.754 42.502 100.68 42.6747 100.54 42.88C100.4 43.076 100.199 43.272 99.9377 43.468C99.6763 43.664 99.359 43.8273 98.9857 43.958C98.6123 44.0793 98.183 44.14 97.6977 44.14ZM95.7937 39.828H99.6297V39.786C99.6297 39.366 99.5503 38.9927 99.3917 38.666C99.2423 38.3393 99.023 38.0827 98.7337 37.896C98.4443 37.7 98.099 37.602 97.6977 37.602C97.2963 37.602 96.951 37.7 96.6617 37.896C96.3817 38.0827 96.167 38.3393 96.0177 38.666C95.8683 38.9927 95.7937 39.366 95.7937 39.786V39.828ZM102.956 44C102.862 44 102.783 43.972 102.718 43.916C102.662 43.8507 102.634 43.7713 102.634 43.678V37.042C102.634 36.9487 102.662 36.874 102.718 36.818C102.783 36.7527 102.862 36.72 102.956 36.72H105.868C106.745 36.72 107.403 36.8973 107.842 37.252C108.29 37.6067 108.514 38.0827 108.514 38.68C108.514 39.1 108.434 39.4173 108.276 39.632C108.117 39.8467 107.893 40.0287 107.604 40.178C107.958 40.3273 108.224 40.57 108.402 40.906C108.588 41.2327 108.682 41.5733 108.682 41.928C108.682 42.6 108.444 43.1133 107.968 43.468C107.492 43.8227 106.829 44 105.98 44H102.956ZM103.922 42.978H105.868C106.316 42.978 106.675 42.894 106.946 42.726C107.226 42.5487 107.366 42.2827 107.366 41.928C107.366 41.5547 107.24 41.284 106.988 41.116C106.736 40.9387 106.362 40.85 105.868 40.85H103.922V42.978ZM103.922 39.814H105.784C106.232 39.814 106.586 39.716 106.848 39.52C107.118 39.324 107.254 39.0487 107.254 38.694C107.254 38.33 107.118 38.0827 106.848 37.952C106.586 37.812 106.232 37.742 105.784 37.742H103.922V39.814ZM110.803 44C110.71 44 110.631 43.972 110.565 43.916C110.509 43.8507 110.481 43.7713 110.481 43.678V37.042C110.481 36.9487 110.509 36.874 110.565 36.818C110.631 36.7527 110.71 36.72 110.803 36.72H111.475C111.569 36.72 111.643 36.7527 111.699 36.818C111.755 36.874 111.783 36.9487 111.783 37.042V39.73H115.605V37.042C115.605 36.9487 115.633 36.874 115.689 36.818C115.755 36.7527 115.834 36.72 115.927 36.72H116.585C116.679 36.72 116.753 36.7527 116.809 36.818C116.875 36.874 116.907 36.9487 116.907 37.042V43.678C116.907 43.7713 116.875 43.8507 116.809 43.916C116.753 43.972 116.679 44 116.585 44H115.927C115.834 44 115.755 43.972 115.689 43.916C115.633 43.8507 115.605 43.7713 115.605 43.678V40.85H111.783V43.678C111.783 43.7713 111.755 43.8507 111.699 43.916C111.643 43.972 111.569 44 111.475 44H110.803ZM121.995 44.14C121.285 44.14 120.693 44.0047 120.217 43.734C119.741 43.4633 119.377 43.09 119.125 42.614C118.873 42.1287 118.733 41.578 118.705 40.962C118.695 40.8033 118.691 40.6027 118.691 40.36C118.691 40.108 118.695 39.9073 118.705 39.758C118.733 39.1327 118.873 38.582 119.125 38.106C119.386 37.63 119.755 37.2567 120.231 36.986C120.707 36.7153 121.295 36.58 121.995 36.58C122.695 36.58 123.283 36.7153 123.759 36.986C124.235 37.2567 124.599 37.63 124.851 38.106C125.112 38.582 125.257 39.1327 125.285 39.758C125.294 39.9073 125.299 40.108 125.299 40.36C125.299 40.6027 125.294 40.8033 125.285 40.962C125.257 41.578 125.117 42.1287 124.865 42.614C124.613 43.09 124.249 43.4633 123.773 43.734C123.297 44.0047 122.704 44.14 121.995 44.14ZM121.995 43.062C122.573 43.062 123.035 42.88 123.381 42.516C123.726 42.1427 123.913 41.6013 123.941 40.892C123.95 40.752 123.955 40.5747 123.955 40.36C123.955 40.1453 123.95 39.968 123.941 39.828C123.913 39.1187 123.726 38.582 123.381 38.218C123.035 37.8447 122.573 37.658 121.995 37.658C121.416 37.658 120.949 37.8447 120.595 38.218C120.249 38.582 120.067 39.1187 120.049 39.828C120.039 39.968 120.035 40.1453 120.035 40.36C120.035 40.5747 120.039 40.752 120.049 40.892C120.067 41.6013 120.249 42.1427 120.595 42.516C120.949 42.88 121.416 43.062 121.995 43.062ZM133.423 44.14C132.761 44.14 132.187 44.014 131.701 43.762C131.225 43.5007 130.857 43.132 130.595 42.656C130.334 42.1707 130.194 41.592 130.175 40.92C130.166 40.78 130.161 40.5933 130.161 40.36C130.161 40.1267 130.166 39.94 130.175 39.8C130.194 39.128 130.334 38.554 130.595 38.078C130.857 37.5927 131.225 37.224 131.701 36.972C132.187 36.7107 132.761 36.58 133.423 36.58C133.965 36.58 134.427 36.6547 134.809 36.804C135.201 36.9533 135.523 37.1447 135.775 37.378C136.027 37.6113 136.214 37.8633 136.335 38.134C136.466 38.4047 136.536 38.6613 136.545 38.904C136.555 38.9973 136.527 39.072 136.461 39.128C136.396 39.184 136.317 39.212 136.223 39.212H135.551C135.458 39.212 135.388 39.1933 135.341 39.156C135.295 39.1093 135.248 39.0347 135.201 38.932C135.033 38.4747 134.805 38.1527 134.515 37.966C134.226 37.7793 133.867 37.686 133.437 37.686C132.877 37.686 132.42 37.8587 132.065 38.204C131.72 38.5493 131.533 39.1047 131.505 39.87C131.496 40.206 131.496 40.5327 131.505 40.85C131.533 41.6247 131.72 42.1847 132.065 42.53C132.42 42.866 132.877 43.034 133.437 43.034C133.867 43.034 134.226 42.9407 134.515 42.754C134.805 42.5673 135.033 42.2453 135.201 41.788C135.248 41.6853 135.295 41.6153 135.341 41.578C135.388 41.5313 135.458 41.508 135.551 41.508H136.223C136.317 41.508 136.396 41.536 136.461 41.592C136.527 41.648 136.555 41.7227 136.545 41.816C136.536 42.012 136.494 42.2127 136.419 42.418C136.345 42.6233 136.223 42.8333 136.055 43.048C135.897 43.2533 135.696 43.44 135.453 43.608C135.211 43.7667 134.917 43.8973 134.571 44C134.235 44.0933 133.853 44.14 133.423 44.14ZM143.306 44C143.222 44 143.152 43.972 143.096 43.916C143.049 43.8507 143.026 43.776 143.026 43.692C143.026 43.6453 143.03 43.608 143.04 43.58C143.058 43.552 143.072 43.5287 143.082 43.51L145.224 40.528C144.99 40.584 144.738 40.612 144.468 40.612C143.945 40.6027 143.478 40.5093 143.068 40.332C142.657 40.1547 142.307 39.9167 142.018 39.618C141.728 39.31 141.509 38.9647 141.36 38.582C141.21 38.1993 141.136 37.798 141.136 37.378C141.136 36.9673 141.206 36.566 141.346 36.174C141.495 35.782 141.714 35.4273 142.004 35.11C142.302 34.7927 142.671 34.5407 143.11 34.354C143.548 34.158 144.066 34.06 144.664 34.06C145.252 34.06 145.765 34.1533 146.204 34.34C146.652 34.5173 147.025 34.7647 147.324 35.082C147.632 35.39 147.856 35.74 147.996 36.132C148.145 36.524 148.22 36.93 148.22 37.35C148.22 37.7327 148.164 38.0827 148.052 38.4C147.94 38.7173 147.804 39.002 147.646 39.254C147.496 39.506 147.347 39.7393 147.198 39.954L144.51 43.72C144.472 43.7667 144.421 43.8273 144.356 43.902C144.29 43.9673 144.192 44 144.062 44H143.306ZM144.664 39.478C145.056 39.478 145.415 39.394 145.742 39.226C146.078 39.0487 146.344 38.806 146.54 38.498C146.736 38.1807 146.834 37.8027 146.834 37.364C146.834 36.9253 146.736 36.552 146.54 36.244C146.344 35.9267 146.078 35.684 145.742 35.516C145.415 35.3387 145.056 35.25 144.664 35.25C144.281 35.25 143.926 35.3387 143.6 35.516C143.273 35.684 143.012 35.9267 142.816 36.244C142.62 36.552 142.522 36.9253 142.522 37.364C142.522 37.8027 142.62 38.1807 142.816 38.498C143.012 38.806 143.273 39.0487 143.6 39.226C143.926 39.394 144.281 39.478 144.664 39.478ZM150.19 39.1C150.097 39.1 150.018 39.072 149.952 39.016C149.896 38.9507 149.868 38.8713 149.868 38.778V37.798C149.868 37.7047 149.896 37.63 149.952 37.574C150.018 37.5087 150.097 37.476 150.19 37.476H151.184C151.287 37.476 151.366 37.5087 151.422 37.574C151.488 37.63 151.52 37.7047 151.52 37.798V38.778C151.52 38.8713 151.488 38.9507 151.422 39.016C151.366 39.072 151.287 39.1 151.184 39.1H150.19ZM150.19 44C150.097 44 150.018 43.972 149.952 43.916C149.896 43.8507 149.868 43.7713 149.868 43.678V42.698C149.868 42.6047 149.896 42.53 149.952 42.474C150.018 42.4087 150.097 42.376 150.19 42.376H151.184C151.287 42.376 151.366 42.4087 151.422 42.474C151.488 42.53 151.52 42.6047 151.52 42.698V43.678C151.52 43.7713 151.488 43.8507 151.422 43.916C151.366 43.972 151.287 44 151.184 44H150.19ZM156.922 44.14C156.278 44.14 155.732 44.042 155.284 43.846C154.846 43.6407 154.486 43.3607 154.206 43.006C153.926 42.6513 153.721 42.2453 153.59 41.788C153.469 41.3307 153.399 40.8453 153.38 40.332C153.371 40.08 153.362 39.814 153.352 39.534C153.352 39.254 153.352 38.974 153.352 38.694C153.362 38.4047 153.371 38.1293 153.38 37.868C153.39 37.3547 153.46 36.8693 153.59 36.412C153.73 35.9453 153.936 35.5393 154.206 35.194C154.486 34.8393 154.85 34.564 155.298 34.368C155.746 34.1627 156.288 34.06 156.922 34.06C157.566 34.06 158.108 34.1627 158.546 34.368C158.994 34.564 159.358 34.8393 159.638 35.194C159.918 35.5393 160.124 35.9453 160.254 36.412C160.394 36.8693 160.469 37.3547 160.478 37.868C160.488 38.1293 160.492 38.4047 160.492 38.694C160.502 38.974 160.502 39.254 160.492 39.534C160.492 39.814 160.488 40.08 160.478 40.332C160.469 40.8453 160.394 41.3307 160.254 41.788C160.124 42.2453 159.918 42.6513 159.638 43.006C159.368 43.3607 159.008 43.6407 158.56 43.846C158.122 44.042 157.576 44.14 156.922 44.14ZM156.922 42.95C157.65 42.95 158.187 42.712 158.532 42.236C158.887 41.7507 159.069 41.0927 159.078 40.262C159.097 39.9913 159.106 39.73 159.106 39.478C159.106 39.2167 159.106 38.96 159.106 38.708C159.106 38.4467 159.097 38.19 159.078 37.938C159.069 37.126 158.887 36.4773 158.532 35.992C158.187 35.4973 157.65 35.25 156.922 35.25C156.204 35.25 155.667 35.4973 155.312 35.992C154.967 36.4773 154.785 37.126 154.766 37.938C154.766 38.19 154.762 38.4467 154.752 38.708C154.752 38.96 154.752 39.2167 154.752 39.478C154.762 39.73 154.766 39.9913 154.766 40.262C154.785 41.0927 154.972 41.7507 155.326 42.236C155.681 42.712 156.213 42.95 156.922 42.95ZM165.809 44.14C165.165 44.14 164.619 44.042 164.171 43.846C163.732 43.6407 163.373 43.3607 163.093 43.006C162.813 42.6513 162.608 42.2453 162.477 41.788C162.356 41.3307 162.286 40.8453 162.267 40.332C162.258 40.08 162.248 39.814 162.239 39.534C162.239 39.254 162.239 38.974 162.239 38.694C162.248 38.4047 162.258 38.1293 162.267 37.868C162.276 37.3547 162.346 36.8693 162.477 36.412C162.617 35.9453 162.822 35.5393 163.093 35.194C163.373 34.8393 163.737 34.564 164.185 34.368C164.633 34.1627 165.174 34.06 165.809 34.06C166.453 34.06 166.994 34.1627 167.433 34.368C167.881 34.564 168.245 34.8393 168.525 35.194C168.805 35.5393 169.01 35.9453 169.141 36.412C169.281 36.8693 169.356 37.3547 169.365 37.868C169.374 38.1293 169.379 38.4047 169.379 38.694C169.388 38.974 169.388 39.254 169.379 39.534C169.379 39.814 169.374 40.08 169.365 40.332C169.356 40.8453 169.281 41.3307 169.141 41.788C169.01 42.2453 168.805 42.6513 168.525 43.006C168.254 43.3607 167.895 43.6407 167.447 43.846C167.008 44.042 166.462 44.14 165.809 44.14ZM165.809 42.95C166.537 42.95 167.074 42.712 167.419 42.236C167.774 41.7507 167.956 41.0927 167.965 40.262C167.984 39.9913 167.993 39.73 167.993 39.478C167.993 39.2167 167.993 38.96 167.993 38.708C167.993 38.4467 167.984 38.19 167.965 37.938C167.956 37.126 167.774 36.4773 167.419 35.992C167.074 35.4973 166.537 35.25 165.809 35.25C165.09 35.25 164.554 35.4973 164.199 35.992C163.854 36.4773 163.672 37.126 163.653 37.938C163.653 38.19 163.648 38.4467 163.639 38.708C163.639 38.96 163.639 39.2167 163.639 39.478C163.648 39.73 163.653 39.9913 163.653 40.262C163.672 41.0927 163.858 41.7507 164.213 42.236C164.568 42.712 165.1 42.95 165.809 42.95ZM174.305 45.54C174.212 45.54 174.133 45.5073 174.067 45.442C174.011 45.386 173.983 45.3113 173.983 45.218V43.202C173.983 43.1087 174.011 43.034 174.067 42.978C174.133 42.9127 174.212 42.88 174.305 42.88H174.375C174.627 42.8707 174.842 42.7307 175.019 42.46C175.197 42.18 175.332 41.746 175.425 41.158C175.519 40.5607 175.565 39.786 175.565 38.834V37.042C175.565 36.9487 175.593 36.874 175.649 36.818C175.715 36.7527 175.794 36.72 175.887 36.72H180.353C180.447 36.72 180.521 36.7527 180.577 36.818C180.643 36.874 180.675 36.9487 180.675 37.042V42.852H181.333C181.436 42.852 181.515 42.8847 181.571 42.95C181.627 43.006 181.655 43.0807 181.655 43.174V45.218C181.655 45.3113 181.627 45.386 181.571 45.442C181.515 45.5073 181.436 45.54 181.333 45.54H180.675C180.582 45.54 180.503 45.5073 180.437 45.442C180.381 45.386 180.353 45.3113 180.353 45.218V44H175.285V45.218C175.285 45.3113 175.253 45.386 175.187 45.442C175.131 45.5073 175.057 45.54 174.963 45.54H174.305ZM176.041 42.88L179.373 42.852V37.84H176.839V38.988C176.839 39.9773 176.769 40.7893 176.629 41.424C176.489 42.0493 176.293 42.5347 176.041 42.88ZM186.102 44.14C185.393 44.14 184.8 44.0047 184.324 43.734C183.848 43.4633 183.484 43.09 183.232 42.614C182.98 42.1287 182.84 41.578 182.812 40.962C182.803 40.8033 182.798 40.6027 182.798 40.36C182.798 40.108 182.803 39.9073 182.812 39.758C182.84 39.1327 182.98 38.582 183.232 38.106C183.493 37.63 183.862 37.2567 184.338 36.986C184.814 36.7153 185.402 36.58 186.102 36.58C186.802 36.58 187.39 36.7153 187.866 36.986C188.342 37.2567 188.706 37.63 188.958 38.106C189.219 38.582 189.364 39.1327 189.392 39.758C189.401 39.9073 189.406 40.108 189.406 40.36C189.406 40.6027 189.401 40.8033 189.392 40.962C189.364 41.578 189.224 42.1287 188.972 42.614C188.72 43.09 188.356 43.4633 187.88 43.734C187.404 44.0047 186.811 44.14 186.102 44.14ZM186.102 43.062C186.681 43.062 187.143 42.88 187.488 42.516C187.833 42.1427 188.02 41.6013 188.048 40.892C188.057 40.752 188.062 40.5747 188.062 40.36C188.062 40.1453 188.057 39.968 188.048 39.828C188.02 39.1187 187.833 38.582 187.488 38.218C187.143 37.8447 186.681 37.658 186.102 37.658C185.523 37.658 185.057 37.8447 184.702 38.218C184.357 38.582 184.175 39.1187 184.156 39.828C184.147 39.968 184.142 40.1453 184.142 40.36C184.142 40.5747 184.147 40.752 184.156 40.892C184.175 41.6013 184.357 42.1427 184.702 42.516C185.057 42.88 185.523 43.062 186.102 43.062ZM197.419 44C197.325 44 197.246 43.972 197.181 43.916C197.125 43.8507 197.097 43.7713 197.097 43.678V35.838L194.773 37.63C194.698 37.686 194.619 37.7093 194.535 37.7C194.451 37.6907 194.381 37.6487 194.325 37.574L193.961 37.112C193.905 37.028 193.881 36.944 193.891 36.86C193.909 36.776 193.956 36.706 194.031 36.65L197.083 34.298C197.148 34.2513 197.209 34.2233 197.265 34.214C197.321 34.2047 197.381 34.2 197.447 34.2H198.161C198.254 34.2 198.329 34.2327 198.385 34.298C198.441 34.354 198.469 34.4287 198.469 34.522V43.678C198.469 43.7713 198.441 43.8507 198.385 43.916C198.329 43.972 198.254 44 198.161 44H197.419ZM202.245 44C202.161 44 202.091 43.972 202.035 43.916C201.988 43.8507 201.965 43.776 201.965 43.692C201.965 43.6453 201.97 43.608 201.979 43.58C201.998 43.552 202.012 43.5287 202.021 43.51L204.163 40.528C203.93 40.584 203.678 40.612 203.407 40.612C202.884 40.6027 202.418 40.5093 202.007 40.332C201.596 40.1547 201.246 39.9167 200.957 39.618C200.668 39.31 200.448 38.9647 200.299 38.582C200.15 38.1993 200.075 37.798 200.075 37.378C200.075 36.9673 200.145 36.566 200.285 36.174C200.434 35.782 200.654 35.4273 200.943 35.11C201.242 34.7927 201.61 34.5407 202.049 34.354C202.488 34.158 203.006 34.06 203.603 34.06C204.191 34.06 204.704 34.1533 205.143 34.34C205.591 34.5173 205.964 34.7647 206.263 35.082C206.571 35.39 206.795 35.74 206.935 36.132C207.084 36.524 207.159 36.93 207.159 37.35C207.159 37.7327 207.103 38.0827 206.991 38.4C206.879 38.7173 206.744 39.002 206.585 39.254C206.436 39.506 206.286 39.7393 206.137 39.954L203.449 43.72C203.412 43.7667 203.36 43.8273 203.295 43.902C203.23 43.9673 203.132 44 203.001 44H202.245ZM203.603 39.478C203.995 39.478 204.354 39.394 204.681 39.226C205.017 39.0487 205.283 38.806 205.479 38.498C205.675 38.1807 205.773 37.8027 205.773 37.364C205.773 36.9253 205.675 36.552 205.479 36.244C205.283 35.9267 205.017 35.684 204.681 35.516C204.354 35.3387 203.995 35.25 203.603 35.25C203.22 35.25 202.866 35.3387 202.539 35.516C202.212 35.684 201.951 35.9267 201.755 36.244C201.559 36.552 201.461 36.9253 201.461 37.364C201.461 37.8027 201.559 38.1807 201.755 38.498C201.951 38.806 202.212 39.0487 202.539 39.226C202.866 39.394 203.22 39.478 203.603 39.478ZM209.13 39.1C209.036 39.1 208.957 39.072 208.892 39.016C208.836 38.9507 208.808 38.8713 208.808 38.778V37.798C208.808 37.7047 208.836 37.63 208.892 37.574C208.957 37.5087 209.036 37.476 209.13 37.476H210.124C210.226 37.476 210.306 37.5087 210.362 37.574C210.427 37.63 210.46 37.7047 210.46 37.798V38.778C210.46 38.8713 210.427 38.9507 210.362 39.016C210.306 39.072 210.226 39.1 210.124 39.1H209.13ZM209.13 44C209.036 44 208.957 43.972 208.892 43.916C208.836 43.8507 208.808 43.7713 208.808 43.678V42.698C208.808 42.6047 208.836 42.53 208.892 42.474C208.957 42.4087 209.036 42.376 209.13 42.376H210.124C210.226 42.376 210.306 42.4087 210.362 42.474C210.427 42.53 210.46 42.6047 210.46 42.698V43.678C210.46 43.7713 210.427 43.8507 210.362 43.916C210.306 43.972 210.226 44 210.124 44H209.13ZM215.862 44.14C215.218 44.14 214.672 44.042 214.224 43.846C213.785 43.6407 213.426 43.3607 213.146 43.006C212.866 42.6513 212.66 42.2453 212.53 41.788C212.408 41.3307 212.338 40.8453 212.32 40.332C212.31 40.08 212.301 39.814 212.292 39.534C212.292 39.254 212.292 38.974 212.292 38.694C212.301 38.4047 212.31 38.1293 212.32 37.868C212.329 37.3547 212.399 36.8693 212.53 36.412C212.67 35.9453 212.875 35.5393 213.146 35.194C213.426 34.8393 213.79 34.564 214.238 34.368C214.686 34.1627 215.227 34.06 215.862 34.06C216.506 34.06 217.047 34.1627 217.486 34.368C217.934 34.564 218.298 34.8393 218.578 35.194C218.858 35.5393 219.063 35.9453 219.194 36.412C219.334 36.8693 219.408 37.3547 219.418 37.868C219.427 38.1293 219.432 38.4047 219.432 38.694C219.441 38.974 219.441 39.254 219.432 39.534C219.432 39.814 219.427 40.08 219.418 40.332C219.408 40.8453 219.334 41.3307 219.194 41.788C219.063 42.2453 218.858 42.6513 218.578 43.006C218.307 43.3607 217.948 43.6407 217.5 43.846C217.061 44.042 216.515 44.14 215.862 44.14ZM215.862 42.95C216.59 42.95 217.126 42.712 217.472 42.236C217.826 41.7507 218.008 41.0927 218.018 40.262C218.036 39.9913 218.046 39.73 218.046 39.478C218.046 39.2167 218.046 38.96 218.046 38.708C218.046 38.4467 218.036 38.19 218.018 37.938C218.008 37.126 217.826 36.4773 217.472 35.992C217.126 35.4973 216.59 35.25 215.862 35.25C215.143 35.25 214.606 35.4973 214.252 35.992C213.906 36.4773 213.724 37.126 213.706 37.938C213.706 38.19 213.701 38.4467 213.692 38.708C213.692 38.96 213.692 39.2167 213.692 39.478C213.701 39.73 213.706 39.9913 213.706 40.262C213.724 41.0927 213.911 41.7507 214.266 42.236C214.62 42.712 215.152 42.95 215.862 42.95ZM224.749 44.14C224.105 44.14 223.559 44.042 223.111 43.846C222.672 43.6407 222.313 43.3607 222.033 43.006C221.753 42.6513 221.547 42.2453 221.417 41.788C221.295 41.3307 221.225 40.8453 221.207 40.332C221.197 40.08 221.188 39.814 221.179 39.534C221.179 39.254 221.179 38.974 221.179 38.694C221.188 38.4047 221.197 38.1293 221.207 37.868C221.216 37.3547 221.286 36.8693 221.417 36.412C221.557 35.9453 221.762 35.5393 222.033 35.194C222.313 34.8393 222.677 34.564 223.125 34.368C223.573 34.1627 224.114 34.06 224.749 34.06C225.393 34.06 225.934 34.1627 226.373 34.368C226.821 34.564 227.185 34.8393 227.465 35.194C227.745 35.5393 227.95 35.9453 228.081 36.412C228.221 36.8693 228.295 37.3547 228.305 37.868C228.314 38.1293 228.319 38.4047 228.319 38.694C228.328 38.974 228.328 39.254 228.319 39.534C228.319 39.814 228.314 40.08 228.305 40.332C228.295 40.8453 228.221 41.3307 228.081 41.788C227.95 42.2453 227.745 42.6513 227.465 43.006C227.194 43.3607 226.835 43.6407 226.387 43.846C225.948 44.042 225.402 44.14 224.749 44.14ZM224.749 42.95C225.477 42.95 226.013 42.712 226.359 42.236C226.713 41.7507 226.895 41.0927 226.905 40.262C226.923 39.9913 226.933 39.73 226.933 39.478C226.933 39.2167 226.933 38.96 226.933 38.708C226.933 38.4467 226.923 38.19 226.905 37.938C226.895 37.126 226.713 36.4773 226.359 35.992C226.013 35.4973 225.477 35.25 224.749 35.25C224.03 35.25 223.493 35.4973 223.139 35.992C222.793 36.4773 222.611 37.126 222.593 37.938C222.593 38.19 222.588 38.4467 222.579 38.708C222.579 38.96 222.579 39.2167 222.579 39.478C222.588 39.73 222.593 39.9913 222.593 40.262C222.611 41.0927 222.798 41.7507 223.153 42.236C223.507 42.712 224.039 42.95 224.749 42.95Z" fill="#646469"/>
</svg>
