<svg width="131" height="30" viewBox="0 0 131 30" fill="none" xmlns="http://www.w3.org/2000/svg">
<rect width="131" height="30" fill="#E81212"/>
<path d="M21.3463 7.47716C20.9039 7.77404 20.1795 8.49841 19.7402 9.07732C19.0366 10.0125 18.5259 11.1139 18.327 12.1351C18.1845 12.8654 18.1014 13.7501 18.0984 14.5458C18.0984 14.8634 18.0895 14.9406 18.0569 14.9406C18.0361 14.9406 17.9114 14.8872 17.7808 14.8219C17.2286 14.5458 16.7863 13.8689 16.5844 12.9812C16.5013 12.6131 16.4834 12.5775 16.3706 12.5062C16.237 12.4261 16.1509 12.432 15.9758 12.5329C15.5334 12.7853 15.0644 13.3939 14.7764 14.0826C14.2747 15.282 14.147 17.0751 14.4736 18.3398C14.8298 19.7262 15.7531 20.985 16.9673 21.739C17.9084 22.3209 18.8822 22.6 19.9984 22.6C21.5541 22.6 22.9405 22.027 24.033 20.9345C24.9266 20.0409 25.4609 18.9692 25.6569 17.6778C25.7163 17.2681 25.7014 16.3062 25.6242 15.7867C25.4877 14.8634 25.2056 14.0233 24.7544 13.2039C24.4723 12.6903 24.2141 12.2984 23.5105 11.3306C22.7653 10.3064 22.602 10.0511 22.3734 9.58201C22.0973 9.01498 21.9281 8.39748 21.9281 7.95216C21.9252 7.56029 21.8272 7.39998 21.5897 7.39998C21.5006 7.39998 21.4264 7.42373 21.3463 7.47716ZM21.3344 8.59341C21.4116 9.05357 21.6016 9.57013 21.8777 10.0867C22.1122 10.5261 22.3348 10.8586 22.9583 11.7136C23.8073 12.8773 24.0627 13.2811 24.3981 13.9876C24.977 15.2108 25.1848 16.7308 24.9384 17.939C24.6861 19.1651 23.9053 20.3319 22.8573 21.0473C22.605 21.2225 22.0766 21.5223 22.0766 21.4926C22.0766 21.4837 22.13 21.3858 22.1953 21.2759C22.4625 20.8217 22.5842 20.219 22.5248 19.6431C22.4417 18.8237 22.2725 18.4051 21.6402 17.464C21.4383 17.1612 21.2245 16.8198 21.1681 16.7011C21.0583 16.4725 20.9781 16.1637 20.9781 15.9529C20.9781 15.8461 20.9603 15.8075 20.8772 15.7244C20.6872 15.5344 20.4972 15.5967 20.1142 15.9767C19.7639 16.327 19.4195 16.8762 19.2473 17.3601C19.1494 17.6333 19.0841 17.9687 19.0514 18.3636C19.0366 18.5417 19.0158 18.6931 19.0069 18.702C18.9802 18.7287 18.8436 18.4229 18.7931 18.2181C18.6981 17.8411 18.4903 17.7283 18.2142 17.9064C17.8995 18.1023 17.6264 18.5951 17.5225 19.1503C17.3741 19.9459 17.475 20.7178 17.8016 21.2759C17.8669 21.3887 17.9173 21.4837 17.9114 21.4897C17.8906 21.5104 17.285 21.1542 17.0238 20.9672C16.2073 20.3883 15.5067 19.4204 15.195 18.4437C15.0109 17.8619 14.9664 17.5501 14.9694 16.8109C14.9723 15.6887 15.1208 14.9169 15.4859 14.1539C15.6284 13.857 15.9491 13.385 15.9906 13.4117C16.0025 13.4206 16.0233 13.4622 16.0352 13.5067C16.1034 13.7976 16.3973 14.3973 16.5963 14.6586C17.0475 15.2553 17.5225 15.5492 18.1727 15.6294C18.4102 15.6561 18.4547 15.6561 18.5497 15.6115C18.7248 15.5284 18.7516 15.4334 18.7516 14.905C18.7545 13.6581 18.8763 12.5478 19.0989 11.7789C19.4077 10.7012 20.1083 9.54935 20.9781 8.68248C21.1473 8.51623 21.2898 8.37966 21.2928 8.37966C21.2958 8.37966 21.3166 8.47763 21.3344 8.59341ZM20.4438 16.6951C20.4438 16.799 20.7495 17.3453 21.0998 17.8648C21.6758 18.7198 21.8272 19.1058 21.8598 19.8123C21.8717 20.1062 21.8658 20.2339 21.8272 20.415C21.75 20.7594 21.5719 21.0829 21.3166 21.3501C21.082 21.5965 20.8742 21.7361 20.5684 21.8519C20.3933 21.9201 20.325 21.929 19.9984 21.929C19.6719 21.929 19.6036 21.9201 19.4284 21.8519C19.1227 21.7361 18.9148 21.5965 18.6833 21.3531C18.2914 20.9464 18.1281 20.5129 18.1281 19.8984C18.1281 19.7084 18.143 19.4739 18.1608 19.3759C18.2023 19.1444 18.2766 18.889 18.3003 18.889C18.3122 18.889 18.3508 18.9395 18.3864 19.0019C18.5823 19.3403 18.8881 19.5422 19.2414 19.5659C19.4819 19.5808 19.5858 19.5392 19.6363 19.3997C19.6541 19.3551 19.6748 19.1176 19.6867 18.8742C19.7253 17.9153 19.847 17.4789 20.2241 16.9089C20.3755 16.6803 20.4438 16.615 20.4438 16.6951Z" fill="white"/>
<path d="M41.104 15.904C41.024 15.904 40.956 15.88 40.9 15.832C40.852 15.776 40.828 15.708 40.828 15.628V15.172C40.828 15.092 40.852 15.028 40.9 14.98C40.956 14.924 41.024 14.896 41.104 14.896H44.704C44.784 14.896 44.848 14.924 44.896 14.98C44.952 15.028 44.98 15.092 44.98 15.172V15.628C44.98 15.708 44.952 15.776 44.896 15.832C44.848 15.88 44.784 15.904 44.704 15.904H41.104ZM46.2078 19C46.1278 19 46.0598 18.976 46.0038 18.928C45.9558 18.872 45.9318 18.804 45.9318 18.724V18.34C45.9318 18.268 45.9518 18.188 45.9918 18.1C46.0318 18.012 46.1118 17.916 46.2318 17.812L48.7758 15.268C49.1838 14.924 49.5038 14.632 49.7358 14.392C49.9758 14.144 50.1438 13.908 50.2398 13.684C50.3438 13.46 50.3958 13.228 50.3958 12.988C50.3958 12.532 50.2678 12.172 50.0118 11.908C49.7558 11.636 49.3758 11.5 48.8717 11.5C48.5518 11.5 48.2758 11.568 48.0438 11.704C47.8118 11.832 47.6278 12.012 47.4918 12.244C47.3638 12.468 47.2798 12.724 47.2398 13.012C47.2238 13.116 47.1798 13.188 47.1077 13.228C47.0438 13.268 46.9838 13.288 46.9277 13.288H46.3038C46.2318 13.288 46.1718 13.268 46.1238 13.228C46.0758 13.18 46.0518 13.124 46.0518 13.06C46.0598 12.756 46.1238 12.452 46.2438 12.148C46.3638 11.836 46.5398 11.556 46.7718 11.308C47.0118 11.06 47.3038 10.86 47.6478 10.708C47.9998 10.548 48.4078 10.468 48.8717 10.468C49.5038 10.468 50.0198 10.584 50.4198 10.816C50.8278 11.04 51.1278 11.34 51.3198 11.716C51.5118 12.092 51.6078 12.504 51.6078 12.952C51.6078 13.304 51.5478 13.628 51.4278 13.924C51.3078 14.212 51.1318 14.496 50.8998 14.776C50.6758 15.048 50.3958 15.328 50.0598 15.616L47.7558 17.956H51.4998C51.5878 17.956 51.6558 17.98 51.7038 18.028C51.7598 18.076 51.7878 18.144 51.7878 18.232V18.724C51.7878 18.804 51.7598 18.872 51.7038 18.928C51.6558 18.976 51.5878 19 51.4998 19H46.2078ZM55.8907 19.12C55.2587 19.12 54.7227 19.012 54.2827 18.796C53.8507 18.572 53.5187 18.284 53.2867 17.932C53.0627 17.58 52.9427 17.208 52.9267 16.816C52.9187 16.744 52.9387 16.688 52.9867 16.648C53.0347 16.608 53.0947 16.588 53.1667 16.588H53.8147C53.8867 16.588 53.9507 16.604 54.0067 16.636C54.0627 16.668 54.1067 16.736 54.1387 16.84C54.2187 17.136 54.3467 17.38 54.5227 17.572C54.7067 17.756 54.9147 17.892 55.1467 17.98C55.3867 18.06 55.6347 18.1 55.8907 18.1C56.2347 18.1 56.5467 18.032 56.8267 17.896C57.1147 17.752 57.3427 17.544 57.5107 17.272C57.6787 16.992 57.7627 16.656 57.7627 16.264C57.7627 15.904 57.6787 15.596 57.5107 15.34C57.3507 15.076 57.1267 14.876 56.8387 14.74C56.5587 14.596 56.2427 14.524 55.8907 14.524C55.6267 14.524 55.4107 14.556 55.2427 14.62C55.0747 14.684 54.9307 14.76 54.8107 14.848C54.6987 14.936 54.5947 15.012 54.4987 15.076C54.4107 15.14 54.3107 15.172 54.1987 15.172H53.5747C53.5027 15.172 53.4387 15.148 53.3827 15.1C53.3267 15.044 53.3027 14.98 53.3107 14.908L53.6947 10.9C53.7027 10.804 53.7307 10.732 53.7787 10.684C53.8347 10.628 53.9067 10.6 53.9947 10.6H58.1827C58.2627 10.6 58.3267 10.628 58.3747 10.684C58.4307 10.732 58.4587 10.796 58.4587 10.876V11.344C58.4587 11.432 58.4307 11.5 58.3747 11.548C58.3267 11.596 58.2627 11.62 58.1827 11.62H54.7267L54.4987 13.984C54.6107 13.912 54.7907 13.828 55.0387 13.732C55.2867 13.628 55.6267 13.576 56.0587 13.576C56.4507 13.576 56.8187 13.636 57.1627 13.756C57.5147 13.876 57.8267 14.052 58.0987 14.284C58.3707 14.516 58.5827 14.8 58.7347 15.136C58.8867 15.464 58.9627 15.844 58.9627 16.276C58.9627 16.884 58.8267 17.4 58.5547 17.824C58.2907 18.248 57.9267 18.572 57.4627 18.796C57.0067 19.012 56.4827 19.12 55.8907 19.12ZM60.8197 19C60.6517 19 60.5677 18.92 60.5677 18.76C60.5677 18.712 60.5837 18.668 60.6157 18.628L66.5437 10.828C66.5997 10.756 66.6517 10.7 66.6997 10.66C66.7557 10.62 66.8357 10.6 66.9397 10.6H67.3357C67.5037 10.6 67.5877 10.68 67.5877 10.84C67.5877 10.888 67.5717 10.932 67.5397 10.972L61.6237 18.772C61.5677 18.844 61.5117 18.9 61.4557 18.94C61.4077 18.98 61.3277 19 61.2157 19H60.8197ZM66.3157 19.072C65.7877 19.072 65.3757 18.924 65.0797 18.628C64.7837 18.332 64.6197 17.944 64.5877 17.464C64.5797 17.256 64.5757 17.08 64.5757 16.936C64.5757 16.784 64.5797 16.596 64.5877 16.372C64.6117 15.892 64.7677 15.504 65.0557 15.208C65.3437 14.904 65.7637 14.752 66.3157 14.752C66.8757 14.752 67.2957 14.904 67.5757 15.208C67.8637 15.504 68.0237 15.892 68.0557 16.372C68.0717 16.596 68.0797 16.784 68.0797 16.936C68.0797 17.08 68.0717 17.256 68.0557 17.464C68.0237 17.944 67.8557 18.332 67.5517 18.628C67.2557 18.924 66.8437 19.072 66.3157 19.072ZM66.3157 18.28C66.5237 18.28 66.6877 18.236 66.8077 18.148C66.9357 18.06 67.0277 17.952 67.0837 17.824C67.1397 17.688 67.1717 17.552 67.1797 17.416C67.1957 17.2 67.2037 17.032 67.2037 16.912C67.2037 16.784 67.1957 16.62 67.1797 16.42C67.1717 16.204 67.1037 16.004 66.9757 15.82C66.8477 15.636 66.6277 15.544 66.3157 15.544C66.0117 15.544 65.7957 15.636 65.6677 15.82C65.5477 16.004 65.4797 16.204 65.4637 16.42C65.4557 16.62 65.4517 16.784 65.4517 16.912C65.4517 17.032 65.4557 17.2 65.4637 17.416C65.4797 17.552 65.5117 17.688 65.5597 17.824C65.6157 17.952 65.7037 18.06 65.8237 18.148C65.9517 18.236 66.1157 18.28 66.3157 18.28ZM61.8277 14.812C61.2997 14.812 60.8877 14.672 60.5917 14.392C60.2957 14.112 60.1317 13.732 60.0997 13.252C60.0917 13.044 60.0877 12.868 60.0877 12.724C60.0877 12.572 60.0917 12.384 60.0997 12.16C60.1237 11.68 60.2797 11.292 60.5677 10.996C60.8557 10.692 61.2757 10.54 61.8277 10.54C62.3877 10.54 62.8077 10.692 63.0877 10.996C63.3757 11.292 63.5317 11.68 63.5557 12.16C63.5717 12.384 63.5797 12.572 63.5797 12.724C63.5797 12.868 63.5717 13.044 63.5557 13.252C63.5317 13.732 63.3677 14.112 63.0637 14.392C62.7677 14.672 62.3557 14.812 61.8277 14.812ZM61.8277 14.068C62.0357 14.068 62.1997 14.024 62.3197 13.936C62.4477 13.848 62.5397 13.74 62.5957 13.612C62.6517 13.476 62.6837 13.34 62.6917 13.204C62.7077 12.988 62.7157 12.82 62.7157 12.7C62.7157 12.572 62.7077 12.408 62.6917 12.208C62.6837 11.992 62.6117 11.792 62.4757 11.608C62.3477 11.424 62.1317 11.332 61.8277 11.332C61.5237 11.332 61.3077 11.424 61.1797 11.608C61.0597 11.792 60.9917 11.992 60.9757 12.208C60.9677 12.408 60.9637 12.572 60.9637 12.7C60.9637 12.82 60.9677 12.988 60.9757 13.204C60.9917 13.34 61.0237 13.476 61.0717 13.612C61.1277 13.74 61.2157 13.848 61.3357 13.936C61.4557 14.024 61.6197 14.068 61.8277 14.068ZM75.65 19.12C74.914 19.12 74.302 18.984 73.814 18.712C73.334 18.44 72.97 18.06 72.722 17.572C72.474 17.084 72.338 16.516 72.314 15.868C72.306 15.54 72.302 15.188 72.302 14.812C72.302 14.436 72.306 14.076 72.314 13.732C72.338 13.084 72.474 12.516 72.722 12.028C72.97 11.54 73.334 11.16 73.814 10.888C74.302 10.616 74.914 10.48 75.65 10.48C76.202 10.48 76.686 10.556 77.102 10.708C77.518 10.86 77.862 11.064 78.134 11.32C78.414 11.576 78.626 11.864 78.77 12.184C78.914 12.496 78.994 12.82 79.01 13.156C79.018 13.228 78.994 13.288 78.938 13.336C78.89 13.384 78.83 13.408 78.758 13.408H78.098C78.026 13.408 77.962 13.388 77.906 13.348C77.858 13.308 77.822 13.236 77.798 13.132C77.662 12.508 77.406 12.08 77.03 11.848C76.662 11.616 76.198 11.5 75.638 11.5C74.998 11.5 74.49 11.684 74.114 12.052C73.738 12.412 73.534 12.992 73.502 13.792C73.478 14.448 73.478 15.12 73.502 15.808C73.534 16.608 73.738 17.192 74.114 17.56C74.49 17.92 74.998 18.1 75.638 18.1C76.198 18.1 76.662 17.984 77.03 17.752C77.406 17.52 77.662 17.092 77.798 16.468C77.822 16.364 77.858 16.292 77.906 16.252C77.962 16.212 78.026 16.192 78.098 16.192H78.758C78.83 16.192 78.89 16.216 78.938 16.264C78.994 16.312 79.018 16.372 79.01 16.444C78.994 16.78 78.914 17.108 78.77 17.428C78.626 17.74 78.414 18.024 78.134 18.28C77.862 18.536 77.518 18.74 77.102 18.892C76.686 19.044 76.202 19.12 75.65 19.12ZM80.8942 19C80.8062 19 80.7382 18.976 80.6902 18.928C80.6422 18.872 80.6182 18.804 80.6182 18.724V10.888C80.6182 10.8 80.6422 10.732 80.6902 10.684C80.7382 10.628 80.8062 10.6 80.8942 10.6H81.5062C81.5942 10.6 81.6622 10.628 81.7102 10.684C81.7662 10.732 81.7942 10.8 81.7942 10.888V14.2H83.1502L85.2862 10.792C85.3262 10.728 85.3782 10.68 85.4422 10.648C85.5062 10.616 85.5902 10.6 85.6942 10.6H86.3422C86.4302 10.6 86.4942 10.624 86.5342 10.672C86.5742 10.72 86.5942 10.776 86.5942 10.84C86.5942 10.888 86.5742 10.94 86.5342 10.996L84.2302 14.668L86.7622 18.58C86.7862 18.612 86.7982 18.656 86.7982 18.712C86.7982 18.792 86.7702 18.86 86.7142 18.916C86.6662 18.972 86.6022 19 86.5222 19H85.8382C85.7502 19 85.6822 18.984 85.6342 18.952C85.5942 18.912 85.5582 18.868 85.5262 18.82L83.1982 15.28H81.7942V18.724C81.7942 18.804 81.7662 18.872 81.7102 18.928C81.6622 18.976 81.5942 19 81.5062 19H80.8942ZM88.57 19C88.482 19 88.414 18.972 88.366 18.916C88.318 18.86 88.294 18.792 88.294 18.712V10.888C88.294 10.8 88.318 10.732 88.366 10.684C88.422 10.628 88.49 10.6 88.57 10.6H89.194C89.274 10.6 89.338 10.628 89.386 10.684C89.442 10.732 89.47 10.8 89.47 10.888V17.092L93.946 10.768C93.97 10.736 94.002 10.7 94.042 10.66C94.09 10.62 94.158 10.6 94.246 10.6H94.834C94.914 10.6 94.978 10.628 95.026 10.684C95.082 10.732 95.11 10.8 95.11 10.888V18.724C95.11 18.804 95.082 18.872 95.026 18.928C94.978 18.976 94.914 19 94.834 19H94.222C94.142 19 94.074 18.976 94.018 18.928C93.962 18.872 93.934 18.804 93.934 18.724V12.568L89.47 18.832C89.454 18.856 89.422 18.892 89.374 18.94C89.326 18.98 89.258 19 89.17 19H88.57ZM96.7083 20.668C96.6283 20.668 96.5603 20.644 96.5043 20.596C96.4563 20.548 96.4323 20.48 96.4323 20.392V18.196C96.4323 18.116 96.4563 18.052 96.5043 18.004C96.5603 17.948 96.6283 17.92 96.7083 17.92H96.9603C97.1523 17.92 97.3203 17.832 97.4643 17.656C97.6083 17.48 97.7283 17.212 97.8243 16.852C97.9283 16.484 98.0043 16.02 98.0523 15.46C98.1003 14.9 98.1243 14.236 98.1243 13.468V10.876C98.1243 10.796 98.1483 10.732 98.1963 10.684C98.2523 10.628 98.3203 10.6 98.4003 10.6H103.08C103.168 10.6 103.236 10.628 103.284 10.684C103.34 10.732 103.368 10.8 103.368 10.888V17.92H103.956C104.044 17.92 104.112 17.948 104.16 18.004C104.216 18.052 104.244 18.116 104.244 18.196V20.392C104.244 20.472 104.216 20.536 104.16 20.584C104.112 20.64 104.044 20.668 103.956 20.668H103.344C103.256 20.668 103.188 20.64 103.14 20.584C103.092 20.536 103.068 20.472 103.068 20.392V19H97.6083V20.392C97.6083 20.472 97.5803 20.536 97.5243 20.584C97.4763 20.64 97.4083 20.668 97.3203 20.668H96.7083ZM98.4963 17.92H102.192V11.68H99.2763V13.612C99.2763 14.748 99.2083 15.664 99.0723 16.36C98.9443 17.056 98.7523 17.576 98.4963 17.92ZM105.972 19C105.884 19 105.816 18.976 105.768 18.928C105.72 18.872 105.696 18.804 105.696 18.724V10.888C105.696 10.8 105.72 10.732 105.768 10.684C105.816 10.628 105.884 10.6 105.972 10.6H106.584C106.672 10.6 106.74 10.628 106.788 10.684C106.844 10.732 106.872 10.8 106.872 10.888V14.2H108.228L110.364 10.792C110.404 10.728 110.456 10.68 110.52 10.648C110.584 10.616 110.668 10.6 110.772 10.6H111.42C111.508 10.6 111.572 10.624 111.612 10.672C111.652 10.72 111.672 10.776 111.672 10.84C111.672 10.888 111.652 10.94 111.612 10.996L109.308 14.668L111.84 18.58C111.864 18.612 111.876 18.656 111.876 18.712C111.876 18.792 111.848 18.86 111.792 18.916C111.744 18.972 111.68 19 111.6 19H110.916C110.828 19 110.76 18.984 110.712 18.952C110.672 18.912 110.636 18.868 110.604 18.82L108.276 15.28H106.872V18.724C106.872 18.804 106.844 18.872 106.788 18.928C106.74 18.976 106.672 19 106.584 19H105.972ZM112.808 19C112.744 19 112.688 18.976 112.64 18.928C112.592 18.88 112.568 18.824 112.568 18.76C112.568 18.72 112.572 18.676 112.58 18.628L115.556 10.864C115.588 10.784 115.632 10.72 115.688 10.672C115.744 10.624 115.828 10.6 115.94 10.6H116.756C116.86 10.6 116.94 10.624 116.996 10.672C117.06 10.72 117.108 10.784 117.14 10.864L120.104 18.628C120.12 18.676 120.128 18.72 120.128 18.76C120.128 18.824 120.104 18.88 120.056 18.928C120.008 18.976 119.952 19 119.888 19H119.276C119.18 19 119.108 18.976 119.06 18.928C119.02 18.88 118.992 18.836 118.976 18.796L118.316 17.092H114.38L113.72 18.796C113.712 18.836 113.684 18.88 113.636 18.928C113.588 18.976 113.516 19 113.42 19H112.808ZM114.728 16.06H117.968L116.348 11.8L114.728 16.06Z" fill="white"/>
</svg>
