<svg width="270" height="40" viewBox="0 0 270 40" fill="none" xmlns="http://www.w3.org/2000/svg">
<rect width="270" height="40" fill="#E81212"/>
<path d="M32.2 19.1153C32.2 18.8063 32.1475 18.4456 32.1475 18.0335C32.095 17.6214 32.0424 17.2093 31.9898 16.8487C31.8847 16.4366 31.7271 16.1275 31.4117 15.8699C31.149 15.6123 30.7811 15.4578 30.4132 15.4063C29.2044 15.2517 27.4176 15.2002 25.0001 15.2002C22.5825 15.2002 20.7431 15.2517 19.5869 15.4063C19.219 15.4578 18.8511 15.6123 18.5884 15.8699C18.3256 16.1275 18.1154 16.4366 18.0103 16.8487C17.9052 17.2093 17.8526 17.5699 17.8526 18.0335C17.8001 18.4456 17.8 18.8063 17.8 19.1153C17.8 19.4244 17.8 19.785 17.8 20.3002C17.8 20.8153 17.8 21.2275 17.8 21.485C17.8 21.7941 17.8526 22.1547 17.8526 22.5669C17.9052 22.979 17.9577 23.3911 18.0103 23.7517C18.1154 24.1638 18.273 24.4729 18.5884 24.7305C18.8511 24.9881 19.219 25.1426 19.5869 25.1941C20.7957 25.3487 22.5825 25.4002 25.0001 25.4002C27.4176 25.4002 29.257 25.3487 30.4132 25.1941C30.7811 25.1426 31.149 24.9881 31.4117 24.7305C31.6745 24.4729 31.8847 24.1638 31.9898 23.7517C32.0949 23.3911 32.1475 23.0305 32.1475 22.5669C32.2001 22.1547 32.2 21.7941 32.2 21.485C32.2 21.176 32.2 20.8153 32.2 20.3002C32.2 19.785 32.2 19.3729 32.2 19.1153ZM27.7855 20.7123L23.6336 23.2366C23.5811 23.2881 23.476 23.3396 23.3709 23.3396C23.2657 23.3396 23.2132 23.3396 23.1081 23.2881C22.9504 23.185 22.8453 23.0305 22.8453 22.8244V17.7244C22.8453 17.5184 22.9504 17.3638 23.1081 17.2608C23.2657 17.1578 23.476 17.1578 23.6336 17.2608L27.7855 19.785C27.9431 19.8881 28.0482 20.0426 28.0482 20.1972C28.0482 20.3517 27.9431 20.6093 27.7855 20.7123Z" fill="white"/>
<path d="M51.54 24.5C51.4373 24.5 51.358 24.472 51.302 24.416C51.246 24.3507 51.218 24.2713 51.218 24.178V15.036C51.218 14.9333 51.246 14.854 51.302 14.798C51.358 14.7327 51.4373 14.7 51.54 14.7H55.376C56.076 14.7 56.6453 14.8167 57.084 15.05C57.532 15.274 57.8587 15.582 58.064 15.974C58.2787 16.366 58.386 16.8047 58.386 17.29C58.386 17.6727 58.3207 18.004 58.19 18.284C58.0687 18.5547 57.9147 18.7787 57.728 18.956C57.5413 19.124 57.3593 19.2547 57.182 19.348C57.546 19.5253 57.868 19.8147 58.148 20.216C58.4373 20.6173 58.582 21.1027 58.582 21.672C58.582 22.1853 58.4653 22.6567 58.232 23.086C57.9987 23.5153 57.6487 23.8607 57.182 24.122C56.7247 24.374 56.1553 24.5 55.474 24.5H51.54ZM52.59 23.366H55.292C55.8987 23.366 56.3653 23.2027 56.692 22.876C57.0187 22.5493 57.182 22.148 57.182 21.672C57.182 21.1773 57.0187 20.7713 56.692 20.454C56.3653 20.1273 55.8987 19.964 55.292 19.964H52.59V23.366ZM52.59 18.844H55.166C55.7633 18.844 56.216 18.7087 56.524 18.438C56.832 18.158 56.986 17.78 56.986 17.304C56.986 16.828 56.832 16.464 56.524 16.212C56.216 15.96 55.7633 15.834 55.166 15.834H52.59V18.844ZM60.6956 24.5C60.6116 24.5 60.5369 24.472 60.4716 24.416C60.4156 24.3507 60.3876 24.2807 60.3876 24.206V17.542C60.3876 17.4487 60.4156 17.374 60.4716 17.318C60.5369 17.2527 60.6162 17.22 60.7096 17.22H61.3816C61.4749 17.22 61.5496 17.2527 61.6056 17.318C61.6616 17.374 61.6896 17.4487 61.6896 17.542V23.478L61.3256 23.1L65.5676 17.43C65.6142 17.374 65.6656 17.3273 65.7216 17.29C65.7776 17.2433 65.8476 17.22 65.9316 17.22H66.5756C66.6502 17.22 66.7156 17.248 66.7716 17.304C66.8369 17.36 66.8696 17.4253 66.8696 17.5V24.178C66.8696 24.2713 66.8369 24.3507 66.7716 24.416C66.7156 24.472 66.6409 24.5 66.5476 24.5H65.8896C65.7869 24.5 65.7076 24.472 65.6516 24.416C65.5956 24.3507 65.5676 24.2713 65.5676 24.178V18.592L65.9596 18.578L61.6896 24.29C61.6522 24.3367 61.6056 24.3833 61.5496 24.43C61.4936 24.4767 61.4189 24.5 61.3256 24.5H60.6956ZM68.4988 26.04C68.4055 26.04 68.3261 26.0073 68.2608 25.942C68.2048 25.886 68.1768 25.8113 68.1768 25.718V23.702C68.1768 23.6087 68.2048 23.534 68.2608 23.478C68.3261 23.4127 68.4055 23.38 68.4988 23.38H68.5688C68.8208 23.3707 69.0355 23.2307 69.2128 22.96C69.3901 22.68 69.5255 22.246 69.6188 21.658C69.7121 21.0607 69.7588 20.286 69.7588 19.334V17.542C69.7588 17.4487 69.7868 17.374 69.8428 17.318C69.9081 17.2527 69.9875 17.22 70.0808 17.22H74.5468C74.6401 17.22 74.7148 17.2527 74.7708 17.318C74.8361 17.374 74.8688 17.4487 74.8688 17.542V23.352H75.5268C75.6295 23.352 75.7088 23.3847 75.7648 23.45C75.8208 23.506 75.8488 23.5807 75.8488 23.674V25.718C75.8488 25.8113 75.8208 25.886 75.7648 25.942C75.7088 26.0073 75.6295 26.04 75.5268 26.04H74.8688C74.7755 26.04 74.6961 26.0073 74.6308 25.942C74.5748 25.886 74.5468 25.8113 74.5468 25.718V24.5H69.4788V25.718C69.4788 25.8113 69.4461 25.886 69.3808 25.942C69.3248 26.0073 69.2501 26.04 69.1568 26.04H68.4988ZM70.2348 23.38L73.5668 23.352V18.34H71.0328V19.488C71.0328 20.4773 70.9628 21.2893 70.8228 21.924C70.6828 22.5493 70.4868 23.0347 70.2348 23.38ZM80.2113 24.64C79.25 24.64 78.4847 24.346 77.9153 23.758C77.346 23.1607 77.0333 22.3487 76.9773 21.322C76.968 21.2007 76.9633 21.0467 76.9633 20.86C76.9633 20.664 76.968 20.5053 76.9773 20.384C77.0147 19.7213 77.1687 19.1427 77.4393 18.648C77.71 18.144 78.0787 17.7567 78.5453 17.486C79.0213 17.2153 79.5767 17.08 80.2113 17.08C80.9207 17.08 81.5133 17.2293 81.9893 17.528C82.4747 17.8267 82.8433 18.2513 83.0953 18.802C83.3473 19.3527 83.4733 19.9967 83.4733 20.734V20.972C83.4733 21.0747 83.4407 21.154 83.3753 21.21C83.3193 21.266 83.2447 21.294 83.1513 21.294H78.3073C78.3073 21.3033 78.3073 21.322 78.3073 21.35C78.3073 21.378 78.3073 21.4013 78.3073 21.42C78.326 21.8027 78.41 22.162 78.5593 22.498C78.7087 22.8247 78.9233 23.0907 79.2033 23.296C79.4833 23.5013 79.8193 23.604 80.2113 23.604C80.5473 23.604 80.8273 23.5527 81.0513 23.45C81.2753 23.3473 81.4573 23.2353 81.5973 23.114C81.7373 22.9833 81.8307 22.8853 81.8773 22.82C81.9613 22.6987 82.0267 22.6287 82.0733 22.61C82.12 22.582 82.1947 22.568 82.2973 22.568H82.9693C83.0627 22.568 83.1373 22.596 83.1933 22.652C83.2587 22.6987 83.2867 22.7687 83.2773 22.862C83.268 23.002 83.1933 23.1747 83.0533 23.38C82.9133 23.576 82.7127 23.772 82.4513 23.968C82.19 24.164 81.8727 24.3273 81.4993 24.458C81.126 24.5793 80.6967 24.64 80.2113 24.64ZM78.3073 20.328H82.1433V20.286C82.1433 19.866 82.064 19.4927 81.9053 19.166C81.756 18.8393 81.5367 18.5827 81.2473 18.396C80.958 18.2 80.6127 18.102 80.2113 18.102C79.81 18.102 79.4647 18.2 79.1753 18.396C78.8953 18.5827 78.6807 18.8393 78.5313 19.166C78.382 19.4927 78.3073 19.866 78.3073 20.286V20.328ZM88.1293 24.64C87.42 24.64 86.8273 24.5047 86.3513 24.234C85.8753 23.9633 85.5113 23.59 85.2593 23.114C85.0073 22.6287 84.8673 22.078 84.8393 21.462C84.83 21.3033 84.8253 21.1027 84.8253 20.86C84.8253 20.608 84.83 20.4073 84.8393 20.258C84.8673 19.6327 85.0073 19.082 85.2593 18.606C85.5207 18.13 85.8893 17.7567 86.3653 17.486C86.8413 17.2153 87.4293 17.08 88.1293 17.08C88.8293 17.08 89.4173 17.2153 89.8933 17.486C90.3693 17.7567 90.7333 18.13 90.9853 18.606C91.2467 19.082 91.3913 19.6327 91.4193 20.258C91.4287 20.4073 91.4333 20.608 91.4333 20.86C91.4333 21.1027 91.4287 21.3033 91.4193 21.462C91.3913 22.078 91.2513 22.6287 90.9993 23.114C90.7473 23.59 90.3833 23.9633 89.9073 24.234C89.4313 24.5047 88.8387 24.64 88.1293 24.64ZM88.1293 23.562C88.708 23.562 89.17 23.38 89.5153 23.016C89.8607 22.6427 90.0473 22.1013 90.0753 21.392C90.0847 21.252 90.0893 21.0747 90.0893 20.86C90.0893 20.6453 90.0847 20.468 90.0753 20.328C90.0473 19.6187 89.8607 19.082 89.5153 18.718C89.17 18.3447 88.708 18.158 88.1293 18.158C87.5507 18.158 87.084 18.3447 86.7293 18.718C86.384 19.082 86.202 19.6187 86.1833 20.328C86.174 20.468 86.1693 20.6453 86.1693 20.86C86.1693 21.0747 86.174 21.252 86.1833 21.392C86.202 22.1013 86.384 22.6427 86.7293 23.016C87.084 23.38 87.5507 23.562 88.1293 23.562ZM96.1684 24.64C95.4591 24.64 94.8664 24.5047 94.3904 24.234C93.9144 23.9633 93.5504 23.59 93.2984 23.114C93.0464 22.6287 92.9064 22.078 92.8784 21.462C92.8691 21.3033 92.8644 21.1027 92.8644 20.86C92.8644 20.608 92.8691 20.4073 92.8784 20.258C92.9064 19.6327 93.0464 19.082 93.2984 18.606C93.5597 18.13 93.9284 17.7567 94.4044 17.486C94.8804 17.2153 95.4684 17.08 96.1684 17.08C96.8684 17.08 97.4564 17.2153 97.9324 17.486C98.4084 17.7567 98.7724 18.13 99.0244 18.606C99.2857 19.082 99.4304 19.6327 99.4584 20.258C99.4677 20.4073 99.4724 20.608 99.4724 20.86C99.4724 21.1027 99.4677 21.3033 99.4584 21.462C99.4304 22.078 99.2904 22.6287 99.0384 23.114C98.7864 23.59 98.4224 23.9633 97.9464 24.234C97.4704 24.5047 96.8777 24.64 96.1684 24.64ZM96.1684 23.562C96.7471 23.562 97.2091 23.38 97.5544 23.016C97.8997 22.6427 98.0864 22.1013 98.1144 21.392C98.1237 21.252 98.1284 21.0747 98.1284 20.86C98.1284 20.6453 98.1237 20.468 98.1144 20.328C98.0864 19.6187 97.8997 19.082 97.5544 18.718C97.2091 18.3447 96.7471 18.158 96.1684 18.158C95.5897 18.158 95.1231 18.3447 94.7684 18.718C94.4231 19.082 94.2411 19.6187 94.2224 20.328C94.2131 20.468 94.2084 20.6453 94.2084 20.86C94.2084 21.0747 94.2131 21.252 94.2224 21.392C94.2411 22.1013 94.4231 22.6427 94.7684 23.016C95.1231 23.38 95.5897 23.562 96.1684 23.562ZM104.305 24.64C103.587 24.64 102.985 24.5047 102.499 24.234C102.023 23.954 101.659 23.562 101.407 23.058C101.165 22.5447 101.034 21.952 101.015 21.28C101.006 21 101.001 20.72 101.001 20.44C101.001 20.16 101.006 19.88 101.015 19.6C101.015 18.7507 101.085 18.046 101.225 17.486C101.365 16.926 101.575 16.4687 101.855 16.114C102.145 15.75 102.509 15.4513 102.947 15.218C103.386 14.9847 103.904 14.784 104.501 14.616C105.099 14.4387 105.78 14.252 106.545 14.056C106.629 14.0373 106.709 14.0513 106.783 14.098C106.867 14.1447 106.914 14.21 106.923 14.294L107.035 14.868C107.054 14.952 107.04 15.0267 106.993 15.092C106.956 15.1573 106.895 15.1993 106.811 15.218C106.111 15.3953 105.5 15.5493 104.977 15.68C104.455 15.8107 104.016 15.9647 103.661 16.142C103.307 16.31 103.022 16.5293 102.807 16.8C102.593 17.0707 102.443 17.43 102.359 17.878C102.285 18.326 102.261 18.9 102.289 19.6L101.981 19.474C102.028 19.1287 102.173 18.816 102.415 18.536C102.667 18.2467 102.98 18.0133 103.353 17.836C103.727 17.6587 104.123 17.57 104.543 17.57C105.187 17.57 105.729 17.7053 106.167 17.976C106.615 18.2467 106.956 18.6153 107.189 19.082C107.432 19.5487 107.567 20.0853 107.595 20.692C107.614 21.0093 107.614 21.2847 107.595 21.518C107.567 22.1247 107.427 22.666 107.175 23.142C106.923 23.6087 106.559 23.9773 106.083 24.248C105.607 24.5093 105.015 24.64 104.305 24.64ZM104.305 23.604C104.893 23.604 105.36 23.422 105.705 23.058C106.051 22.694 106.233 22.162 106.251 21.462C106.261 21.3687 106.265 21.2613 106.265 21.14C106.265 21.0187 106.261 20.8927 106.251 20.762C106.233 20.0527 106.051 19.516 105.705 19.152C105.369 18.788 104.945 18.606 104.431 18.606C103.843 18.606 103.358 18.788 102.975 19.152C102.593 19.516 102.387 20.0527 102.359 20.762C102.35 20.8927 102.345 21.0187 102.345 21.14C102.345 21.2613 102.35 21.3687 102.359 21.462C102.387 22.162 102.574 22.694 102.919 23.058C103.265 23.422 103.727 23.604 104.305 23.604ZM111.894 24.64C111.344 24.64 110.877 24.5747 110.494 24.444C110.121 24.304 109.818 24.1313 109.584 23.926C109.36 23.7113 109.197 23.492 109.094 23.268C108.992 23.0347 108.936 22.82 108.926 22.624C108.926 22.54 108.954 22.4747 109.01 22.428C109.066 22.372 109.132 22.344 109.206 22.344H109.864C109.948 22.344 110.018 22.3673 110.074 22.414C110.13 22.4513 110.172 22.5213 110.2 22.624C110.312 22.9787 110.527 23.226 110.844 23.366C111.162 23.506 111.549 23.576 112.006 23.576C112.305 23.576 112.58 23.5387 112.832 23.464C113.084 23.38 113.28 23.2493 113.42 23.072C113.57 22.8947 113.644 22.6753 113.644 22.414C113.644 22.0313 113.532 21.742 113.308 21.546C113.094 21.35 112.758 21.252 112.3 21.252H111.53C111.437 21.252 111.362 21.224 111.306 21.168C111.25 21.112 111.222 21.0373 111.222 20.944V20.566C111.222 20.482 111.25 20.412 111.306 20.356C111.362 20.2907 111.437 20.258 111.53 20.258H112.216C112.599 20.258 112.893 20.1833 113.098 20.034C113.304 19.8847 113.406 19.6467 113.406 19.32C113.406 19.124 113.36 18.9373 113.266 18.76C113.173 18.5827 113.014 18.438 112.79 18.326C112.576 18.2047 112.277 18.144 111.894 18.144C111.353 18.144 110.97 18.2373 110.746 18.424C110.532 18.6013 110.378 18.8673 110.284 19.222C110.247 19.3247 110.2 19.3947 110.144 19.432C110.098 19.4693 110.028 19.488 109.934 19.488H109.304C109.22 19.488 109.15 19.4647 109.094 19.418C109.038 19.3713 109.01 19.306 109.01 19.222C109.02 18.942 109.08 18.676 109.192 18.424C109.314 18.172 109.491 17.9433 109.724 17.738C109.967 17.5327 110.266 17.374 110.62 17.262C110.984 17.1407 111.409 17.08 111.894 17.08C112.594 17.08 113.145 17.1873 113.546 17.402C113.957 17.6167 114.246 17.8827 114.414 18.2C114.592 18.508 114.68 18.816 114.68 19.124C114.68 19.488 114.62 19.7913 114.498 20.034C114.386 20.2767 114.162 20.482 113.826 20.65C114.246 20.8087 114.536 21.0467 114.694 21.364C114.853 21.6813 114.937 22.05 114.946 22.47C114.956 22.9553 114.825 23.3567 114.554 23.674C114.293 23.9913 113.934 24.234 113.476 24.402C113.019 24.5607 112.492 24.64 111.894 24.64ZM119.506 24.64C118.797 24.64 118.204 24.5047 117.728 24.234C117.252 23.9633 116.888 23.59 116.636 23.114C116.384 22.6287 116.244 22.078 116.216 21.462C116.207 21.3033 116.202 21.1027 116.202 20.86C116.202 20.608 116.207 20.4073 116.216 20.258C116.244 19.6327 116.384 19.082 116.636 18.606C116.898 18.13 117.266 17.7567 117.742 17.486C118.218 17.2153 118.806 17.08 119.506 17.08C120.206 17.08 120.794 17.2153 121.27 17.486C121.746 17.7567 122.11 18.13 122.362 18.606C122.624 19.082 122.768 19.6327 122.796 20.258C122.806 20.4073 122.81 20.608 122.81 20.86C122.81 21.1027 122.806 21.3033 122.796 21.462C122.768 22.078 122.628 22.6287 122.376 23.114C122.124 23.59 121.76 23.9633 121.284 24.234C120.808 24.5047 120.216 24.64 119.506 24.64ZM119.506 23.562C120.085 23.562 120.547 23.38 120.892 23.016C121.238 22.6427 121.424 22.1013 121.452 21.392C121.462 21.252 121.466 21.0747 121.466 20.86C121.466 20.6453 121.462 20.468 121.452 20.328C121.424 19.6187 121.238 19.082 120.892 18.718C120.547 18.3447 120.085 18.158 119.506 18.158C118.928 18.158 118.461 18.3447 118.106 18.718C117.761 19.082 117.579 19.6187 117.56 20.328C117.551 20.468 117.546 20.6453 117.546 20.86C117.546 21.0747 117.551 21.252 117.56 21.392C117.579 22.1013 117.761 22.6427 118.106 23.016C118.461 23.38 118.928 23.562 119.506 23.562ZM124.899 27.16C124.806 27.16 124.727 27.1273 124.661 27.062C124.605 27.006 124.577 26.9313 124.577 26.838V17.542C124.577 17.4487 124.605 17.374 124.661 17.318C124.727 17.2527 124.806 17.22 124.899 17.22H125.543C125.637 17.22 125.711 17.2527 125.767 17.318C125.833 17.374 125.865 17.4487 125.865 17.542V18.158C126.089 17.85 126.388 17.5933 126.761 17.388C127.135 17.1827 127.601 17.08 128.161 17.08C128.684 17.08 129.127 17.1687 129.491 17.346C129.865 17.5233 130.168 17.766 130.401 18.074C130.644 18.382 130.826 18.732 130.947 19.124C131.069 19.516 131.134 19.936 131.143 20.384C131.153 20.5333 131.157 20.692 131.157 20.86C131.157 21.028 131.153 21.1867 131.143 21.336C131.134 21.7747 131.069 22.1947 130.947 22.596C130.826 22.988 130.644 23.338 130.401 23.646C130.168 23.9447 129.865 24.1873 129.491 24.374C129.127 24.5513 128.684 24.64 128.161 24.64C127.62 24.64 127.163 24.542 126.789 24.346C126.425 24.1407 126.127 23.8887 125.893 23.59V26.838C125.893 26.9313 125.865 27.006 125.809 27.062C125.753 27.1273 125.674 27.16 125.571 27.16H124.899ZM127.867 23.506C128.353 23.506 128.731 23.4033 129.001 23.198C129.281 22.9833 129.482 22.708 129.603 22.372C129.725 22.0267 129.795 21.658 129.813 21.266C129.823 20.9953 129.823 20.7247 129.813 20.454C129.795 20.062 129.725 19.698 129.603 19.362C129.482 19.0167 129.281 18.7413 129.001 18.536C128.731 18.3213 128.353 18.214 127.867 18.214C127.41 18.214 127.037 18.3213 126.747 18.536C126.467 18.7507 126.257 19.026 126.117 19.362C125.987 19.6887 125.912 20.0247 125.893 20.37C125.884 20.5193 125.879 20.6967 125.879 20.902C125.879 21.1073 125.884 21.2893 125.893 21.448C125.903 21.7747 125.977 22.0967 126.117 22.414C126.267 22.7313 126.486 22.9927 126.775 23.198C127.065 23.4033 127.429 23.506 127.867 23.506ZM133.225 24.5C133.132 24.5 133.053 24.472 132.987 24.416C132.931 24.3507 132.903 24.2713 132.903 24.178V17.542C132.903 17.4487 132.931 17.374 132.987 17.318C133.053 17.2527 133.132 17.22 133.225 17.22H133.897C133.991 17.22 134.065 17.2527 134.121 17.318C134.187 17.374 134.219 17.4487 134.219 17.542V19.6H135.675C136.627 19.6 137.323 19.824 137.761 20.272C138.2 20.72 138.419 21.3267 138.419 22.092C138.419 22.9133 138.177 23.52 137.691 23.912C137.206 24.304 136.478 24.5 135.507 24.5H133.225ZM134.205 23.45H135.549C136.119 23.45 136.534 23.352 136.795 23.156C137.057 22.9507 137.187 22.596 137.187 22.092C137.187 21.6067 137.061 21.2473 136.809 21.014C136.557 20.7713 136.137 20.65 135.549 20.65H134.205V23.45ZM139.735 24.5C139.642 24.5 139.563 24.472 139.497 24.416C139.441 24.3507 139.413 24.2713 139.413 24.178V17.542C139.413 17.4487 139.441 17.374 139.497 17.318C139.563 17.2527 139.642 17.22 139.735 17.22H140.407C140.501 17.22 140.575 17.2527 140.631 17.318C140.697 17.374 140.729 17.4487 140.729 17.542V24.178C140.729 24.2713 140.697 24.3507 140.631 24.416C140.575 24.472 140.501 24.5 140.407 24.5H139.735ZM148.473 24.5C148.38 24.5 148.3 24.472 148.235 24.416C148.179 24.3507 148.151 24.2713 148.151 24.178V18.34H145.715C145.622 18.34 145.542 18.312 145.477 18.256C145.421 18.1907 145.393 18.1113 145.393 18.018V17.542C145.393 17.4487 145.421 17.374 145.477 17.318C145.542 17.2527 145.622 17.22 145.715 17.22H151.875C151.968 17.22 152.043 17.2527 152.099 17.318C152.164 17.374 152.197 17.4487 152.197 17.542V18.018C152.197 18.1113 152.164 18.1907 152.099 18.256C152.043 18.312 151.968 18.34 151.875 18.34H149.439V24.178C149.439 24.2713 149.411 24.3507 149.355 24.416C149.299 24.472 149.22 24.5 149.117 24.5H148.473ZM156.393 24.64C155.684 24.64 155.091 24.5047 154.615 24.234C154.139 23.9633 153.775 23.59 153.523 23.114C153.271 22.6287 153.131 22.078 153.103 21.462C153.094 21.3033 153.089 21.1027 153.089 20.86C153.089 20.608 153.094 20.4073 153.103 20.258C153.131 19.6327 153.271 19.082 153.523 18.606C153.784 18.13 154.153 17.7567 154.629 17.486C155.105 17.2153 155.693 17.08 156.393 17.08C157.093 17.08 157.681 17.2153 158.157 17.486C158.633 17.7567 158.997 18.13 159.249 18.606C159.51 19.082 159.655 19.6327 159.683 20.258C159.692 20.4073 159.697 20.608 159.697 20.86C159.697 21.1027 159.692 21.3033 159.683 21.462C159.655 22.078 159.515 22.6287 159.263 23.114C159.011 23.59 158.647 23.9633 158.171 24.234C157.695 24.5047 157.102 24.64 156.393 24.64ZM156.393 23.562C156.972 23.562 157.434 23.38 157.779 23.016C158.124 22.6427 158.311 22.1013 158.339 21.392C158.348 21.252 158.353 21.0747 158.353 20.86C158.353 20.6453 158.348 20.468 158.339 20.328C158.311 19.6187 158.124 19.082 157.779 18.718C157.434 18.3447 156.972 18.158 156.393 18.158C155.814 18.158 155.348 18.3447 154.993 18.718C154.648 19.082 154.466 19.6187 154.447 20.328C154.438 20.468 154.433 20.6453 154.433 20.86C154.433 21.0747 154.438 21.252 154.447 21.392C154.466 22.1013 154.648 22.6427 154.993 23.016C155.348 23.38 155.814 23.562 156.393 23.562ZM161.772 24.5C161.679 24.5 161.599 24.472 161.534 24.416C161.478 24.3507 161.45 24.2713 161.45 24.178V17.542C161.45 17.4487 161.478 17.374 161.534 17.318C161.599 17.2527 161.679 17.22 161.772 17.22H164.684C165.561 17.22 166.219 17.3973 166.658 17.752C167.106 18.1067 167.33 18.5827 167.33 19.18C167.33 19.6 167.251 19.9173 167.092 20.132C166.933 20.3467 166.709 20.5287 166.42 20.678C166.775 20.8273 167.041 21.07 167.218 21.406C167.405 21.7327 167.498 22.0733 167.498 22.428C167.498 23.1 167.26 23.6133 166.784 23.968C166.308 24.3227 165.645 24.5 164.796 24.5H161.772ZM162.738 23.478H164.684C165.132 23.478 165.491 23.394 165.762 23.226C166.042 23.0487 166.182 22.7827 166.182 22.428C166.182 22.0547 166.056 21.784 165.804 21.616C165.552 21.4387 165.179 21.35 164.684 21.35H162.738V23.478ZM162.738 20.314H164.6C165.048 20.314 165.403 20.216 165.664 20.02C165.935 19.824 166.07 19.5487 166.07 19.194C166.07 18.83 165.935 18.5827 165.664 18.452C165.403 18.312 165.048 18.242 164.6 18.242H162.738V20.314ZM171.328 24.64C170.861 24.64 170.436 24.5467 170.054 24.36C169.671 24.1733 169.363 23.9213 169.13 23.604C168.896 23.2867 168.78 22.9273 168.78 22.526C168.78 21.882 169.041 21.3687 169.564 20.986C170.086 20.6033 170.768 20.3513 171.608 20.23L173.694 19.936V19.53C173.694 19.082 173.563 18.732 173.302 18.48C173.05 18.228 172.634 18.102 172.056 18.102C171.636 18.102 171.295 18.186 171.034 18.354C170.782 18.522 170.604 18.7367 170.502 18.998C170.446 19.138 170.348 19.208 170.208 19.208H169.578C169.475 19.208 169.396 19.18 169.34 19.124C169.293 19.0587 169.27 18.984 169.27 18.9C169.27 18.76 169.321 18.5873 169.424 18.382C169.536 18.1767 169.704 17.976 169.928 17.78C170.152 17.584 170.436 17.4207 170.782 17.29C171.136 17.15 171.566 17.08 172.07 17.08C172.63 17.08 173.101 17.1547 173.484 17.304C173.866 17.444 174.165 17.6353 174.38 17.878C174.604 18.1207 174.762 18.396 174.856 18.704C174.958 19.012 175.01 19.3247 175.01 19.642V24.178C175.01 24.2713 174.977 24.3507 174.912 24.416C174.856 24.472 174.781 24.5 174.688 24.5H174.044C173.941 24.5 173.862 24.472 173.806 24.416C173.75 24.3507 173.722 24.2713 173.722 24.178V23.576C173.6 23.744 173.437 23.912 173.232 24.08C173.026 24.2387 172.77 24.374 172.462 24.486C172.154 24.5887 171.776 24.64 171.328 24.64ZM171.622 23.59C172.004 23.59 172.354 23.5107 172.672 23.352C172.989 23.184 173.236 22.9273 173.414 22.582C173.6 22.2367 173.694 21.8027 173.694 21.28V20.888L172.07 21.126C171.407 21.2193 170.908 21.378 170.572 21.602C170.236 21.8167 170.068 22.092 170.068 22.428C170.068 22.6893 170.142 22.9087 170.292 23.086C170.45 23.254 170.646 23.38 170.88 23.464C171.122 23.548 171.37 23.59 171.622 23.59ZM177.358 27.16C177.265 27.16 177.186 27.1273 177.12 27.062C177.064 27.006 177.036 26.9313 177.036 26.838V17.542C177.036 17.4487 177.064 17.374 177.12 17.318C177.186 17.2527 177.265 17.22 177.358 17.22H178.002C178.096 17.22 178.17 17.2527 178.226 17.318C178.292 17.374 178.324 17.4487 178.324 17.542V18.158C178.548 17.85 178.847 17.5933 179.22 17.388C179.594 17.1827 180.06 17.08 180.62 17.08C181.143 17.08 181.586 17.1687 181.95 17.346C182.324 17.5233 182.627 17.766 182.86 18.074C183.103 18.382 183.285 18.732 183.406 19.124C183.528 19.516 183.593 19.936 183.602 20.384C183.612 20.5333 183.616 20.692 183.616 20.86C183.616 21.028 183.612 21.1867 183.602 21.336C183.593 21.7747 183.528 22.1947 183.406 22.596C183.285 22.988 183.103 23.338 182.86 23.646C182.627 23.9447 182.324 24.1873 181.95 24.374C181.586 24.5513 181.143 24.64 180.62 24.64C180.079 24.64 179.622 24.542 179.248 24.346C178.884 24.1407 178.586 23.8887 178.352 23.59V26.838C178.352 26.9313 178.324 27.006 178.268 27.062C178.212 27.1273 178.133 27.16 178.03 27.16H177.358ZM180.326 23.506C180.812 23.506 181.19 23.4033 181.46 23.198C181.74 22.9833 181.941 22.708 182.062 22.372C182.184 22.0267 182.254 21.658 182.272 21.266C182.282 20.9953 182.282 20.7247 182.272 20.454C182.254 20.062 182.184 19.698 182.062 19.362C181.941 19.0167 181.74 18.7413 181.46 18.536C181.19 18.3213 180.812 18.214 180.326 18.214C179.869 18.214 179.496 18.3213 179.206 18.536C178.926 18.7507 178.716 19.026 178.576 19.362C178.446 19.6887 178.371 20.0247 178.352 20.37C178.343 20.5193 178.338 20.6967 178.338 20.902C178.338 21.1073 178.343 21.2893 178.352 21.448C178.362 21.7747 178.436 22.0967 178.576 22.414C178.726 22.7313 178.945 22.9927 179.234 23.198C179.524 23.4033 179.888 23.506 180.326 23.506ZM188.344 24.64C187.635 24.64 187.042 24.5047 186.566 24.234C186.09 23.9633 185.726 23.59 185.474 23.114C185.222 22.6287 185.082 22.078 185.054 21.462C185.045 21.3033 185.04 21.1027 185.04 20.86C185.04 20.608 185.045 20.4073 185.054 20.258C185.082 19.6327 185.222 19.082 185.474 18.606C185.736 18.13 186.104 17.7567 186.58 17.486C187.056 17.2153 187.644 17.08 188.344 17.08C189.044 17.08 189.632 17.2153 190.108 17.486C190.584 17.7567 190.948 18.13 191.2 18.606C191.462 19.082 191.606 19.6327 191.634 20.258C191.644 20.4073 191.648 20.608 191.648 20.86C191.648 21.1027 191.644 21.3033 191.634 21.462C191.606 22.078 191.466 22.6287 191.214 23.114C190.962 23.59 190.598 23.9633 190.122 24.234C189.646 24.5047 189.054 24.64 188.344 24.64ZM188.344 23.562C188.923 23.562 189.385 23.38 189.73 23.016C190.076 22.6427 190.262 22.1013 190.29 21.392C190.3 21.252 190.304 21.0747 190.304 20.86C190.304 20.6453 190.3 20.468 190.29 20.328C190.262 19.6187 190.076 19.082 189.73 18.718C189.385 18.3447 188.923 18.158 188.344 18.158C187.766 18.158 187.299 18.3447 186.944 18.718C186.599 19.082 186.417 19.6187 186.398 20.328C186.389 20.468 186.384 20.6453 186.384 20.86C186.384 21.0747 186.389 21.252 186.398 21.392C186.417 22.1013 186.599 22.6427 186.944 23.016C187.299 23.38 187.766 23.562 188.344 23.562ZM193.723 24.5C193.63 24.5 193.551 24.472 193.485 24.416C193.429 24.3507 193.401 24.2713 193.401 24.178V17.542C193.401 17.4487 193.429 17.374 193.485 17.318C193.551 17.2527 193.63 17.22 193.723 17.22H196.635C197.513 17.22 198.171 17.3973 198.609 17.752C199.057 18.1067 199.281 18.5827 199.281 19.18C199.281 19.6 199.202 19.9173 199.043 20.132C198.885 20.3467 198.661 20.5287 198.371 20.678C198.726 20.8273 198.992 21.07 199.169 21.406C199.356 21.7327 199.449 22.0733 199.449 22.428C199.449 23.1 199.211 23.6133 198.735 23.968C198.259 24.3227 197.597 24.5 196.747 24.5H193.723ZM194.689 23.478H196.635C197.083 23.478 197.443 23.394 197.713 23.226C197.993 23.0487 198.133 22.7827 198.133 22.428C198.133 22.0547 198.007 21.784 197.755 21.616C197.503 21.4387 197.13 21.35 196.635 21.35H194.689V23.478ZM194.689 20.314H196.551C196.999 20.314 197.354 20.216 197.615 20.02C197.886 19.824 198.021 19.5487 198.021 19.194C198.021 18.83 197.886 18.5827 197.615 18.452C197.354 18.312 196.999 18.242 196.551 18.242H194.689V20.314Z" fill="white"/>
</svg>
