<svg width="270" height="40" viewBox="0 0 270 40" fill="none" xmlns="http://www.w3.org/2000/svg">
<rect width="270" height="40" fill="#0177FF"/>
<path d="M32.6551 23.3368C32.6551 23.2793 32.593 23.2793 32.593 23.2217C32.3447 22.7614 31.7861 22.1861 31.0413 21.5532C30.6688 21.2656 30.4826 21.0354 30.3585 20.9204C30.1723 20.6902 30.1723 20.5176 30.2344 20.2875C30.2964 20.1149 30.5447 19.8272 30.9792 19.3094C31.2275 19.0217 31.3516 18.8491 31.5378 18.6765C32.4688 17.5258 32.9033 16.7779 32.7792 16.4327L32.7171 16.3751C32.6551 16.3176 32.593 16.2601 32.4688 16.2601C32.3447 16.2025 32.1585 16.2025 31.9723 16.2601H29.6137C29.5516 16.2601 29.5516 16.2601 29.4275 16.2601C29.3654 16.2601 29.3033 16.2601 29.3033 16.2601H29.2413H29.1792L29.1171 16.3176C29.0551 16.3751 29.0551 16.3751 29.0551 16.4327C28.8068 17.0656 28.4964 17.5834 28.1861 18.1587C27.9999 18.4464 27.8137 18.7341 27.6275 18.9642C27.4413 19.1943 27.3171 19.3669 27.193 19.482C27.0689 19.5971 26.9447 19.6546 26.8827 19.7697C26.8206 19.8272 26.6965 19.8847 26.6965 19.8272C26.6344 19.8272 26.5723 19.8272 26.5723 19.7697C26.5102 19.7121 26.4482 19.6546 26.3861 19.5971C26.324 19.5395 26.324 19.4245 26.262 19.3094C26.262 19.1943 26.262 19.0793 26.262 19.0217C26.262 18.9642 26.262 18.7916 26.262 18.6765C26.262 18.5039 26.262 18.3888 26.262 18.3313C26.262 18.1587 26.262 17.9286 26.262 17.6984C26.262 17.4683 26.262 17.2957 26.262 17.1806C26.262 17.0656 26.262 16.893 26.262 16.7779C26.262 16.6053 26.262 16.4902 26.262 16.4327C26.262 16.3751 26.1999 16.2601 26.1999 16.2025C26.1378 16.145 26.0758 16.0875 26.0137 16.0299C25.9516 15.9724 25.8275 15.9724 25.7654 15.9149C25.4551 15.8573 25.0827 15.7998 24.6482 15.7998C23.6551 15.7998 22.9723 15.8573 22.7241 15.9724C22.5999 16.0299 22.4758 16.0875 22.4137 16.2025C22.2896 16.3176 22.2896 16.3751 22.3517 16.3751C22.662 16.4327 22.9103 16.5477 23.0344 16.7203L23.0965 16.8354C23.1586 16.893 23.1585 17.008 23.2206 17.1806C23.2827 17.3532 23.2827 17.5258 23.2827 17.756C23.2827 18.1012 23.2827 18.4464 23.2827 18.6765C23.2827 18.9642 23.2206 19.1368 23.2206 19.3094C23.2206 19.482 23.1586 19.5971 23.0965 19.6546C23.0344 19.7697 23.0344 19.8272 22.9723 19.8272C22.9723 19.8272 22.9723 19.8847 22.9103 19.8847C22.8482 19.8847 22.7861 19.9423 22.662 19.9423C22.5999 19.9423 22.4758 19.8847 22.4137 19.8272C22.2896 19.7697 22.1654 19.6546 22.1034 19.5395C21.9792 19.4245 21.8551 19.2519 21.731 19.0217C21.6068 18.7916 21.4206 18.5614 21.2965 18.2162L21.1724 17.9861C21.1103 17.871 20.9861 17.6409 20.862 17.3532C20.7379 17.0656 20.6137 16.8354 20.4896 16.5478C20.4275 16.4327 20.3655 16.3751 20.3034 16.3176H20.2413C20.2413 16.3176 20.1792 16.2601 20.1172 16.2601C20.0551 16.2601 19.993 16.2025 19.931 16.2025H17.6965C17.4482 16.2025 17.3241 16.2601 17.262 16.3176L17.2 16.3751C17.2 16.3751 17.2 16.4327 17.2 16.4902C17.2 16.5477 17.2 16.6053 17.262 16.7203C17.5724 17.4108 17.9448 18.1012 18.3172 18.7916C18.6896 19.4245 19.062 19.9998 19.3103 20.4025C19.6206 20.8053 19.8689 21.208 20.1792 21.5532C20.4896 21.8984 20.6758 22.1286 20.7379 22.2436C20.862 22.3587 20.9241 22.4162 20.9861 22.4738L21.1724 22.6464C21.2965 22.7614 21.4827 22.9341 21.731 23.1067C21.9792 23.2793 22.2896 23.4519 22.5999 23.6245C22.9103 23.7971 23.2827 23.9121 23.6551 24.0272C24.0896 24.1423 24.462 24.1998 24.8344 24.1423H25.7654C25.9516 24.1423 26.0758 24.0847 26.1999 23.9697L26.262 23.9121C26.262 23.8546 26.324 23.8546 26.324 23.7971C26.324 23.7395 26.324 23.682 26.324 23.5669C26.324 23.3368 26.324 23.1642 26.3861 22.9916C26.4482 22.819 26.4482 22.7039 26.5103 22.5889C26.5723 22.4738 26.6344 22.4162 26.6965 22.3587C26.7585 22.3012 26.8206 22.2436 26.8206 22.2436H26.8827C27.0068 22.1861 27.193 22.2436 27.3171 22.3587C27.5033 22.4738 27.6895 22.6464 27.8137 22.819C27.9378 22.9916 28.124 23.1642 28.3723 23.3943C28.6206 23.6245 28.8068 23.7971 28.9309 23.8546L29.1171 23.9697C29.2413 24.0272 29.3654 24.0847 29.5516 24.1423C29.7378 24.1998 29.8619 24.1998 29.9861 24.1998L32.0964 24.1423C32.2826 24.1423 32.4688 24.0847 32.593 24.0272C32.7171 23.9697 32.7792 23.9121 32.7792 23.7971C32.7792 23.7395 32.7792 23.6245 32.7792 23.5669C32.655 23.4519 32.6551 23.3943 32.6551 23.3368Z" fill="white"/>
<path d="M51.54 24.5C51.4373 24.5 51.358 24.472 51.302 24.416C51.246 24.3507 51.218 24.2713 51.218 24.178V15.036C51.218 14.9333 51.246 14.854 51.302 14.798C51.358 14.7327 51.4373 14.7 51.54 14.7H56.93C57.0327 14.7 57.112 14.7327 57.168 14.798C57.2333 14.854 57.266 14.9333 57.266 15.036V15.596C57.266 15.6893 57.2333 15.7687 57.168 15.834C57.112 15.89 57.0327 15.918 56.93 15.918H52.59V24.178C52.59 24.2713 52.5573 24.3507 52.492 24.416C52.436 24.472 52.3567 24.5 52.254 24.5H51.54ZM58.7001 27.16C58.6068 27.16 58.5275 27.1273 58.4621 27.062C58.4061 27.006 58.3781 26.9313 58.3781 26.838V17.542C58.3781 17.4487 58.4061 17.374 58.4621 17.318C58.5275 17.2527 58.6068 17.22 58.7001 17.22H59.3441C59.4375 17.22 59.5121 17.2527 59.5681 17.318C59.6335 17.374 59.6661 17.4487 59.6661 17.542V18.158C59.8901 17.85 60.1888 17.5933 60.5621 17.388C60.9355 17.1827 61.4021 17.08 61.9621 17.08C62.4848 17.08 62.9281 17.1687 63.2921 17.346C63.6655 17.5233 63.9688 17.766 64.2021 18.074C64.4448 18.382 64.6268 18.732 64.7481 19.124C64.8695 19.516 64.9348 19.936 64.9441 20.384C64.9535 20.5333 64.9581 20.692 64.9581 20.86C64.9581 21.028 64.9535 21.1867 64.9441 21.336C64.9348 21.7747 64.8695 22.1947 64.7481 22.596C64.6268 22.988 64.4448 23.338 64.2021 23.646C63.9688 23.9447 63.6655 24.1873 63.2921 24.374C62.9281 24.5513 62.4848 24.64 61.9621 24.64C61.4208 24.64 60.9635 24.542 60.5901 24.346C60.2261 24.1407 59.9275 23.8887 59.6941 23.59V26.838C59.6941 26.9313 59.6661 27.006 59.6101 27.062C59.5541 27.1273 59.4748 27.16 59.3721 27.16H58.7001ZM61.6681 23.506C62.1535 23.506 62.5315 23.4033 62.8021 23.198C63.0821 22.9833 63.2828 22.708 63.4041 22.372C63.5255 22.0267 63.5955 21.658 63.6141 21.266C63.6235 20.9953 63.6235 20.7247 63.6141 20.454C63.5955 20.062 63.5255 19.698 63.4041 19.362C63.2828 19.0167 63.0821 18.7413 62.8021 18.536C62.5315 18.3213 62.1535 18.214 61.6681 18.214C61.2108 18.214 60.8375 18.3213 60.5481 18.536C60.2681 18.7507 60.0581 19.026 59.9181 19.362C59.7875 19.6887 59.7128 20.0247 59.6941 20.37C59.6848 20.5193 59.6801 20.6967 59.6801 20.902C59.6801 21.1073 59.6848 21.2893 59.6941 21.448C59.7035 21.7747 59.7781 22.0967 59.9181 22.414C60.0675 22.7313 60.2868 22.9927 60.5761 23.198C60.8655 23.4033 61.2295 23.506 61.6681 23.506ZM67.04 27.16C66.9373 27.16 66.858 27.1273 66.802 27.062C66.746 27.006 66.718 26.9313 66.718 26.838V26.362C66.718 26.2687 66.746 26.1893 66.802 26.124C66.858 26.068 66.9373 26.04 67.04 26.04H67.404C67.6186 26.04 67.7913 25.998 67.922 25.914C68.0526 25.83 68.174 25.6853 68.286 25.48C68.398 25.284 68.524 25.0133 68.664 24.668L71.702 17.458C71.73 17.3833 71.7673 17.3273 71.814 17.29C71.87 17.2433 71.9493 17.22 72.052 17.22H72.668C72.752 17.22 72.822 17.248 72.878 17.304C72.934 17.36 72.962 17.4253 72.962 17.5C72.962 17.5373 72.9573 17.5747 72.948 17.612C72.9386 17.64 72.92 17.6867 72.892 17.752L70.232 24.052C70.092 24.388 69.938 24.738 69.77 25.102C69.602 25.466 69.4153 25.802 69.21 26.11C69.014 26.4273 68.7806 26.6793 68.51 26.866C68.2486 27.062 67.936 27.16 67.572 27.16H67.04ZM68.986 24.29L66.158 17.752C66.1113 17.64 66.088 17.5607 66.088 17.514C66.0973 17.43 66.13 17.36 66.186 17.304C66.242 17.248 66.3073 17.22 66.382 17.22H67.04C67.1426 17.22 67.2173 17.2433 67.264 17.29C67.32 17.3367 67.362 17.3927 67.39 17.458L69.714 23.016L68.986 24.29ZM74.6959 24.5C74.6026 24.5 74.5232 24.472 74.4579 24.416C74.4019 24.3507 74.3739 24.2713 74.3739 24.178V17.542C74.3739 17.4487 74.4019 17.374 74.4579 17.318C74.5232 17.2527 74.6026 17.22 74.6959 17.22H80.2539C80.3472 17.22 80.4219 17.2527 80.4779 17.318C80.5432 17.374 80.5759 17.4487 80.5759 17.542V24.178C80.5759 24.2713 80.5432 24.3507 80.4779 24.416C80.4219 24.472 80.3472 24.5 80.2539 24.5H79.5819C79.4886 24.5 79.4139 24.472 79.3579 24.416C79.3019 24.3507 79.2739 24.2713 79.2739 24.178V18.34H75.6759V24.178C75.6759 24.2713 75.6479 24.3507 75.5919 24.416C75.5359 24.472 75.4612 24.5 75.3679 24.5H74.6959ZM82.981 24.5C82.8877 24.5 82.8084 24.472 82.743 24.416C82.687 24.3507 82.659 24.2713 82.659 24.178V17.542C82.659 17.4487 82.687 17.374 82.743 17.318C82.8084 17.2527 82.8877 17.22 82.981 17.22H88.539C88.6324 17.22 88.707 17.2527 88.763 17.318C88.8284 17.374 88.861 17.4487 88.861 17.542V24.178C88.861 24.2713 88.8284 24.3507 88.763 24.416C88.707 24.472 88.6324 24.5 88.539 24.5H87.867C87.7737 24.5 87.699 24.472 87.643 24.416C87.587 24.3507 87.559 24.2713 87.559 24.178V18.34H83.961V24.178C83.961 24.2713 83.933 24.3507 83.877 24.416C83.821 24.472 83.7464 24.5 83.653 24.5H82.981ZM92.9742 24.64C92.5075 24.64 92.0829 24.5467 91.7002 24.36C91.3175 24.1733 91.0095 23.9213 90.7762 23.604C90.5429 23.2867 90.4262 22.9273 90.4262 22.526C90.4262 21.882 90.6875 21.3687 91.2102 20.986C91.7329 20.6033 92.4142 20.3513 93.2542 20.23L95.3402 19.936V19.53C95.3402 19.082 95.2095 18.732 94.9482 18.48C94.6962 18.228 94.2809 18.102 93.7022 18.102C93.2822 18.102 92.9415 18.186 92.6802 18.354C92.4282 18.522 92.2509 18.7367 92.1482 18.998C92.0922 19.138 91.9942 19.208 91.8542 19.208H91.2242C91.1215 19.208 91.0422 19.18 90.9862 19.124C90.9395 19.0587 90.9162 18.984 90.9162 18.9C90.9162 18.76 90.9675 18.5873 91.0702 18.382C91.1822 18.1767 91.3502 17.976 91.5742 17.78C91.7982 17.584 92.0829 17.4207 92.4282 17.29C92.7829 17.15 93.2122 17.08 93.7162 17.08C94.2762 17.08 94.7475 17.1547 95.1302 17.304C95.5129 17.444 95.8115 17.6353 96.0262 17.878C96.2502 18.1207 96.4089 18.396 96.5022 18.704C96.6049 19.012 96.6562 19.3247 96.6562 19.642V24.178C96.6562 24.2713 96.6235 24.3507 96.5582 24.416C96.5022 24.472 96.4275 24.5 96.3342 24.5H95.6902C95.5875 24.5 95.5082 24.472 95.4522 24.416C95.3962 24.3507 95.3682 24.2713 95.3682 24.178V23.576C95.2469 23.744 95.0835 23.912 94.8782 24.08C94.6729 24.2387 94.4162 24.374 94.1082 24.486C93.8002 24.5887 93.4222 24.64 92.9742 24.64ZM93.2682 23.59C93.6509 23.59 94.0009 23.5107 94.3182 23.352C94.6355 23.184 94.8829 22.9273 95.0602 22.582C95.2469 22.2367 95.3402 21.8027 95.3402 21.28V20.888L93.7162 21.126C93.0535 21.2193 92.5542 21.378 92.2182 21.602C91.8822 21.8167 91.7142 22.092 91.7142 22.428C91.7142 22.6893 91.7889 22.9087 91.9382 23.086C92.0969 23.254 92.2929 23.38 92.5262 23.464C92.7689 23.548 93.0162 23.59 93.2682 23.59ZM105.04 24.64C104.378 24.64 103.804 24.514 103.318 24.262C102.842 24.0007 102.474 23.632 102.212 23.156C101.951 22.6707 101.811 22.092 101.792 21.42C101.783 21.28 101.778 21.0933 101.778 20.86C101.778 20.6267 101.783 20.44 101.792 20.3C101.811 19.628 101.951 19.054 102.212 18.578C102.474 18.0927 102.842 17.724 103.318 17.472C103.804 17.2107 104.378 17.08 105.04 17.08C105.582 17.08 106.044 17.1547 106.426 17.304C106.818 17.4533 107.14 17.6447 107.392 17.878C107.644 18.1113 107.831 18.3633 107.952 18.634C108.083 18.9047 108.153 19.1613 108.162 19.404C108.172 19.4973 108.144 19.572 108.078 19.628C108.013 19.684 107.934 19.712 107.84 19.712H107.168C107.075 19.712 107.005 19.6933 106.958 19.656C106.912 19.6093 106.865 19.5347 106.818 19.432C106.65 18.9747 106.422 18.6527 106.132 18.466C105.843 18.2793 105.484 18.186 105.054 18.186C104.494 18.186 104.037 18.3587 103.682 18.704C103.337 19.0493 103.15 19.6047 103.122 20.37C103.113 20.706 103.113 21.0327 103.122 21.35C103.15 22.1247 103.337 22.6847 103.682 23.03C104.037 23.366 104.494 23.534 105.054 23.534C105.484 23.534 105.843 23.4407 106.132 23.254C106.422 23.0673 106.65 22.7453 106.818 22.288C106.865 22.1853 106.912 22.1153 106.958 22.078C107.005 22.0313 107.075 22.008 107.168 22.008H107.84C107.934 22.008 108.013 22.036 108.078 22.092C108.144 22.148 108.172 22.2227 108.162 22.316C108.153 22.512 108.111 22.7127 108.036 22.918C107.962 23.1233 107.84 23.3333 107.672 23.548C107.514 23.7533 107.313 23.94 107.07 24.108C106.828 24.2667 106.534 24.3973 106.188 24.5C105.852 24.5933 105.47 24.64 105.04 24.64ZM113.565 24.5C113.481 24.5 113.406 24.472 113.341 24.416C113.285 24.3507 113.257 24.2807 113.257 24.206V17.542C113.257 17.4487 113.285 17.374 113.341 17.318C113.406 17.2527 113.485 17.22 113.579 17.22H114.251C114.344 17.22 114.419 17.2527 114.475 17.318C114.531 17.374 114.559 17.4487 114.559 17.542V23.478L114.195 23.1L118.437 17.43C118.483 17.374 118.535 17.3273 118.591 17.29C118.647 17.2433 118.717 17.22 118.801 17.22H119.445C119.519 17.22 119.585 17.248 119.641 17.304C119.706 17.36 119.739 17.4253 119.739 17.5V24.178C119.739 24.2713 119.706 24.3507 119.641 24.416C119.585 24.472 119.51 24.5 119.417 24.5H118.759C118.656 24.5 118.577 24.472 118.521 24.416C118.465 24.3507 118.437 24.2713 118.437 24.178V18.592L118.829 18.578L114.559 24.29C114.521 24.3367 114.475 24.3833 114.419 24.43C114.363 24.4767 114.288 24.5 114.195 24.5H113.565ZM121.368 26.04C121.275 26.04 121.195 26.0073 121.13 25.942C121.074 25.886 121.046 25.8113 121.046 25.718V23.702C121.046 23.6087 121.074 23.534 121.13 23.478C121.195 23.4127 121.275 23.38 121.368 23.38H121.438C121.69 23.3707 121.905 23.2307 122.082 22.96C122.259 22.68 122.395 22.246 122.488 21.658C122.581 21.0607 122.628 20.286 122.628 19.334V17.542C122.628 17.4487 122.656 17.374 122.712 17.318C122.777 17.2527 122.857 17.22 122.95 17.22H127.416C127.509 17.22 127.584 17.2527 127.64 17.318C127.705 17.374 127.738 17.4487 127.738 17.542V23.352H128.396C128.499 23.352 128.578 23.3847 128.634 23.45C128.69 23.506 128.718 23.5807 128.718 23.674V25.718C128.718 25.8113 128.69 25.886 128.634 25.942C128.578 26.0073 128.499 26.04 128.396 26.04H127.738C127.645 26.04 127.565 26.0073 127.5 25.942C127.444 25.886 127.416 25.8113 127.416 25.718V24.5H122.348V25.718C122.348 25.8113 122.315 25.886 122.25 25.942C122.194 26.0073 122.119 26.04 122.026 26.04H121.368ZM123.104 23.38L126.436 23.352V18.34H123.902V19.488C123.902 20.4773 123.832 21.2893 123.692 21.924C123.552 22.5493 123.356 23.0347 123.104 23.38ZM133.08 24.64C132.119 24.64 131.354 24.346 130.784 23.758C130.215 23.1607 129.902 22.3487 129.846 21.322C129.837 21.2007 129.832 21.0467 129.832 20.86C129.832 20.664 129.837 20.5053 129.846 20.384C129.884 19.7213 130.038 19.1427 130.308 18.648C130.579 18.144 130.948 17.7567 131.414 17.486C131.89 17.2153 132.446 17.08 133.08 17.08C133.79 17.08 134.382 17.2293 134.858 17.528C135.344 17.8267 135.712 18.2513 135.964 18.802C136.216 19.3527 136.342 19.9967 136.342 20.734V20.972C136.342 21.0747 136.31 21.154 136.244 21.21C136.188 21.266 136.114 21.294 136.02 21.294H131.176C131.176 21.3033 131.176 21.322 131.176 21.35C131.176 21.378 131.176 21.4013 131.176 21.42C131.195 21.8027 131.279 22.162 131.428 22.498C131.578 22.8247 131.792 23.0907 132.072 23.296C132.352 23.5013 132.688 23.604 133.08 23.604C133.416 23.604 133.696 23.5527 133.92 23.45C134.144 23.3473 134.326 23.2353 134.466 23.114C134.606 22.9833 134.7 22.8853 134.746 22.82C134.83 22.6987 134.896 22.6287 134.942 22.61C134.989 22.582 135.064 22.568 135.166 22.568H135.838C135.932 22.568 136.006 22.596 136.062 22.652C136.128 22.6987 136.156 22.7687 136.146 22.862C136.137 23.002 136.062 23.1747 135.922 23.38C135.782 23.576 135.582 23.772 135.32 23.968C135.059 24.164 134.742 24.3273 134.368 24.458C133.995 24.5793 133.566 24.64 133.08 24.64ZM131.176 20.328H135.012V20.286C135.012 19.866 134.933 19.4927 134.774 19.166C134.625 18.8393 134.406 18.5827 134.116 18.396C133.827 18.2 133.482 18.102 133.08 18.102C132.679 18.102 132.334 18.2 132.044 18.396C131.764 18.5827 131.55 18.8393 131.4 19.166C131.251 19.4927 131.176 19.866 131.176 20.286V20.328ZM142.552 24.5C142.45 24.5 142.37 24.472 142.314 24.416C142.258 24.3507 142.23 24.2713 142.23 24.178V21.896H140.62V21.826C139.743 21.826 139.09 21.6113 138.66 21.182C138.24 20.7433 138.03 20.188 138.03 19.516C138.03 18.732 138.259 18.1533 138.716 17.78C139.183 17.4067 139.883 17.22 140.816 17.22H143.224C143.318 17.22 143.392 17.2527 143.448 17.318C143.514 17.374 143.546 17.4487 143.546 17.542V24.178C143.546 24.2713 143.514 24.3507 143.448 24.416C143.392 24.472 143.318 24.5 143.224 24.5H142.552ZM138.114 24.5C138.03 24.5 137.96 24.472 137.904 24.416C137.848 24.36 137.82 24.2947 137.82 24.22C137.82 24.1827 137.825 24.1453 137.834 24.108C137.853 24.0613 137.881 24.0147 137.918 23.968L139.584 21.504L140.928 21.602L139.15 24.29C139.113 24.3367 139.062 24.3833 138.996 24.43C138.931 24.4767 138.861 24.5 138.786 24.5H138.114ZM140.662 20.846H142.244V18.27H140.774C140.252 18.27 139.864 18.3633 139.612 18.55C139.37 18.7273 139.248 19.0493 139.248 19.516C139.248 19.8987 139.36 20.216 139.584 20.468C139.818 20.72 140.177 20.846 140.662 20.846ZM145.94 24.5C145.846 24.5 145.772 24.472 145.716 24.416C145.66 24.36 145.632 24.2853 145.632 24.192V17.486C145.632 17.4113 145.66 17.3507 145.716 17.304C145.781 17.248 145.846 17.22 145.912 17.22H146.626C146.775 17.22 146.892 17.2947 146.976 17.444L149.356 21.896L151.75 17.444C151.834 17.2947 151.95 17.22 152.1 17.22H152.8C152.874 17.22 152.94 17.248 152.996 17.304C153.052 17.3507 153.08 17.4113 153.08 17.486V24.192C153.08 24.2853 153.052 24.36 152.996 24.416C152.94 24.472 152.87 24.5 152.786 24.5H152.1C152.006 24.5 151.932 24.472 151.876 24.416C151.82 24.36 151.792 24.2853 151.792 24.192V18.606L152.282 18.662L150 22.974C149.953 23.0673 149.897 23.1513 149.832 23.226C149.766 23.3007 149.668 23.338 149.538 23.338H149.174C149.052 23.338 148.959 23.3007 148.894 23.226C148.828 23.1513 148.768 23.0673 148.712 22.974L146.5 18.872L146.934 18.83V24.192C146.934 24.2853 146.906 24.36 146.85 24.416C146.794 24.472 146.719 24.5 146.626 24.5H145.94ZM155.483 24.5C155.399 24.5 155.324 24.472 155.259 24.416C155.203 24.3507 155.175 24.2807 155.175 24.206V17.542C155.175 17.4487 155.203 17.374 155.259 17.318C155.324 17.2527 155.403 17.22 155.497 17.22H156.169C156.262 17.22 156.337 17.2527 156.393 17.318C156.449 17.374 156.477 17.4487 156.477 17.542V23.478L156.113 23.1L160.355 17.43C160.401 17.374 160.453 17.3273 160.509 17.29C160.565 17.2433 160.635 17.22 160.719 17.22H161.363C161.437 17.22 161.503 17.248 161.559 17.304C161.624 17.36 161.657 17.4253 161.657 17.5V24.178C161.657 24.2713 161.624 24.3507 161.559 24.416C161.503 24.472 161.428 24.5 161.335 24.5H160.677C160.574 24.5 160.495 24.472 160.439 24.416C160.383 24.3507 160.355 24.2713 160.355 24.178V18.592L160.747 18.578L156.477 24.29C156.439 24.3367 156.393 24.3833 156.337 24.43C156.281 24.4767 156.206 24.5 156.113 24.5H155.483ZM166.718 26.04C166.624 26.04 166.545 26.0073 166.48 25.942C166.424 25.886 166.396 25.8113 166.396 25.718V23.702C166.396 23.6087 166.424 23.534 166.48 23.478C166.545 23.4127 166.624 23.38 166.718 23.38H166.788C167.04 23.3707 167.254 23.2307 167.432 22.96C167.609 22.68 167.744 22.246 167.838 21.658C167.931 21.0607 167.978 20.286 167.978 19.334V17.542C167.978 17.4487 168.006 17.374 168.062 17.318C168.127 17.2527 168.206 17.22 168.3 17.22H172.766C172.859 17.22 172.934 17.2527 172.99 17.318C173.055 17.374 173.088 17.4487 173.088 17.542V23.352H173.746C173.848 23.352 173.928 23.3847 173.984 23.45C174.04 23.506 174.068 23.5807 174.068 23.674V25.718C174.068 25.8113 174.04 25.886 173.984 25.942C173.928 26.0073 173.848 26.04 173.746 26.04H173.088C172.994 26.04 172.915 26.0073 172.85 25.942C172.794 25.886 172.766 25.8113 172.766 25.718V24.5H167.698V25.718C167.698 25.8113 167.665 25.886 167.6 25.942C167.544 26.0073 167.469 26.04 167.376 26.04H166.718ZM168.454 23.38L171.786 23.352V18.34H169.252V19.488C169.252 20.4773 169.182 21.2893 169.042 21.924C168.902 22.5493 168.706 23.0347 168.454 23.38ZM175.182 24.5C175.089 24.5 175.009 24.4673 174.944 24.402C174.879 24.3367 174.846 24.2573 174.846 24.164V23.646C174.846 23.45 174.944 23.3473 175.14 23.338C175.429 23.3287 175.672 23.1933 175.868 22.932C176.064 22.6613 176.213 22.2367 176.316 21.658C176.419 21.07 176.47 20.2953 176.47 19.334V17.542C176.47 17.4487 176.498 17.374 176.554 17.318C176.619 17.2527 176.699 17.22 176.792 17.22H181.244C181.337 17.22 181.412 17.2527 181.468 17.318C181.533 17.374 181.566 17.4487 181.566 17.542V24.178C181.566 24.2713 181.533 24.3507 181.468 24.416C181.412 24.472 181.337 24.5 181.244 24.5H180.572C180.479 24.5 180.404 24.472 180.348 24.416C180.292 24.3507 180.264 24.2713 180.264 24.178V18.34H177.744V19.488C177.744 20.384 177.693 21.154 177.59 21.798C177.487 22.4327 177.329 22.9507 177.114 23.352C176.909 23.744 176.643 24.0333 176.316 24.22C175.999 24.4067 175.621 24.5 175.182 24.5ZM188.189 24.5C188.087 24.5 188.007 24.472 187.951 24.416C187.895 24.3507 187.867 24.2713 187.867 24.178V21.896H186.257V21.826C185.38 21.826 184.727 21.6113 184.297 21.182C183.877 20.7433 183.667 20.188 183.667 19.516C183.667 18.732 183.896 18.1533 184.353 17.78C184.82 17.4067 185.52 17.22 186.453 17.22H188.861C188.955 17.22 189.029 17.2527 189.085 17.318C189.151 17.374 189.183 17.4487 189.183 17.542V24.178C189.183 24.2713 189.151 24.3507 189.085 24.416C189.029 24.472 188.955 24.5 188.861 24.5H188.189ZM183.751 24.5C183.667 24.5 183.597 24.472 183.541 24.416C183.485 24.36 183.457 24.2947 183.457 24.22C183.457 24.1827 183.462 24.1453 183.471 24.108C183.49 24.0613 183.518 24.0147 183.555 23.968L185.221 21.504L186.565 21.602L184.787 24.29C184.75 24.3367 184.699 24.3833 184.633 24.43C184.568 24.4767 184.498 24.5 184.423 24.5H183.751ZM186.299 20.846H187.881V18.27H186.411C185.889 18.27 185.501 18.3633 185.249 18.55C185.007 18.7273 184.885 19.0493 184.885 19.516C184.885 19.8987 184.997 20.216 185.221 20.468C185.455 20.72 185.814 20.846 186.299 20.846ZM195.022 24.5C194.929 24.5 194.849 24.472 194.784 24.416C194.728 24.3507 194.7 24.2713 194.7 24.178V17.542C194.7 17.4487 194.728 17.374 194.784 17.318C194.849 17.2527 194.929 17.22 195.022 17.22H200.58C200.673 17.22 200.748 17.2527 200.804 17.318C200.869 17.374 200.902 17.4487 200.902 17.542V24.178C200.902 24.2713 200.869 24.3507 200.804 24.416C200.748 24.472 200.673 24.5 200.58 24.5H199.908C199.815 24.5 199.74 24.472 199.684 24.416C199.628 24.3507 199.6 24.2713 199.6 24.178V18.34H196.002V24.178C196.002 24.2713 195.974 24.3507 195.918 24.416C195.862 24.472 195.787 24.5 195.694 24.5H195.022ZM205.967 24.64C205.258 24.64 204.665 24.5047 204.189 24.234C203.713 23.9633 203.349 23.59 203.097 23.114C202.845 22.6287 202.705 22.078 202.677 21.462C202.668 21.3033 202.663 21.1027 202.663 20.86C202.663 20.608 202.668 20.4073 202.677 20.258C202.705 19.6327 202.845 19.082 203.097 18.606C203.359 18.13 203.727 17.7567 204.203 17.486C204.679 17.2153 205.267 17.08 205.967 17.08C206.667 17.08 207.255 17.2153 207.731 17.486C208.207 17.7567 208.571 18.13 208.823 18.606C209.085 19.082 209.229 19.6327 209.257 20.258C209.267 20.4073 209.271 20.608 209.271 20.86C209.271 21.1027 209.267 21.3033 209.257 21.462C209.229 22.078 209.089 22.6287 208.837 23.114C208.585 23.59 208.221 23.9633 207.745 24.234C207.269 24.5047 206.677 24.64 205.967 24.64ZM205.967 23.562C206.546 23.562 207.008 23.38 207.353 23.016C207.699 22.6427 207.885 22.1013 207.913 21.392C207.923 21.252 207.927 21.0747 207.927 20.86C207.927 20.6453 207.923 20.468 207.913 20.328C207.885 19.6187 207.699 19.082 207.353 18.718C207.008 18.3447 206.546 18.158 205.967 18.158C205.389 18.158 204.922 18.3447 204.567 18.718C204.222 19.082 204.04 19.6187 204.021 20.328C204.012 20.468 204.007 20.6453 204.007 20.86C204.007 21.0747 204.012 21.252 204.021 21.392C204.04 22.1013 204.222 22.6427 204.567 23.016C204.922 23.38 205.389 23.562 205.967 23.562ZM210.604 26.04C210.511 26.04 210.432 26.0073 210.366 25.942C210.31 25.886 210.282 25.8113 210.282 25.718V23.702C210.282 23.6087 210.31 23.534 210.366 23.478C210.432 23.4127 210.511 23.38 210.604 23.38H210.674C210.926 23.3707 211.141 23.2307 211.318 22.96C211.496 22.68 211.631 22.246 211.724 21.658C211.818 21.0607 211.864 20.286 211.864 19.334V17.542C211.864 17.4487 211.892 17.374 211.948 17.318C212.014 17.2527 212.093 17.22 212.186 17.22H216.652C216.746 17.22 216.82 17.2527 216.876 17.318C216.942 17.374 216.974 17.4487 216.974 17.542V23.352H217.632C217.735 23.352 217.814 23.3847 217.87 23.45C217.926 23.506 217.954 23.5807 217.954 23.674V25.718C217.954 25.8113 217.926 25.886 217.87 25.942C217.814 26.0073 217.735 26.04 217.632 26.04H216.974C216.881 26.04 216.802 26.0073 216.736 25.942C216.68 25.886 216.652 25.8113 216.652 25.718V24.5H211.584V25.718C211.584 25.8113 211.552 25.886 211.486 25.942C211.43 26.0073 211.356 26.04 211.262 26.04H210.604ZM212.34 23.38L215.672 23.352V18.34H213.138V19.488C213.138 20.4773 213.068 21.2893 212.928 21.924C212.788 22.5493 212.592 23.0347 212.34 23.38ZM221.449 24.64C220.982 24.64 220.557 24.5467 220.175 24.36C219.792 24.1733 219.484 23.9213 219.251 23.604C219.017 23.2867 218.901 22.9273 218.901 22.526C218.901 21.882 219.162 21.3687 219.685 20.986C220.207 20.6033 220.889 20.3513 221.729 20.23L223.815 19.936V19.53C223.815 19.082 223.684 18.732 223.423 18.48C223.171 18.228 222.755 18.102 222.177 18.102C221.757 18.102 221.416 18.186 221.155 18.354C220.903 18.522 220.725 18.7367 220.623 18.998C220.567 19.138 220.469 19.208 220.329 19.208H219.699C219.596 19.208 219.517 19.18 219.461 19.124C219.414 19.0587 219.391 18.984 219.391 18.9C219.391 18.76 219.442 18.5873 219.545 18.382C219.657 18.1767 219.825 17.976 220.049 17.78C220.273 17.584 220.557 17.4207 220.903 17.29C221.257 17.15 221.687 17.08 222.191 17.08C222.751 17.08 223.222 17.1547 223.605 17.304C223.987 17.444 224.286 17.6353 224.501 17.878C224.725 18.1207 224.883 18.396 224.977 18.704C225.079 19.012 225.131 19.3247 225.131 19.642V24.178C225.131 24.2713 225.098 24.3507 225.033 24.416C224.977 24.472 224.902 24.5 224.809 24.5H224.165C224.062 24.5 223.983 24.472 223.927 24.416C223.871 24.3507 223.843 24.2713 223.843 24.178V23.576C223.721 23.744 223.558 23.912 223.353 24.08C223.147 24.2387 222.891 24.374 222.583 24.486C222.275 24.5887 221.897 24.64 221.449 24.64ZM221.743 23.59C222.125 23.59 222.475 23.5107 222.793 23.352C223.11 23.184 223.357 22.9273 223.535 22.582C223.721 22.2367 223.815 21.8027 223.815 21.28V20.888L222.191 21.126C221.528 21.2193 221.029 21.378 220.693 21.602C220.357 21.8167 220.189 22.092 220.189 22.428C220.189 22.6893 220.263 22.9087 220.413 23.086C220.571 23.254 220.767 23.38 221.001 23.464C221.243 23.548 221.491 23.59 221.743 23.59ZM227.479 27.16C227.386 27.16 227.307 27.1273 227.241 27.062C227.185 27.006 227.157 26.9313 227.157 26.838V17.542C227.157 17.4487 227.185 17.374 227.241 17.318C227.307 17.2527 227.386 17.22 227.479 17.22H228.123C228.217 17.22 228.291 17.2527 228.347 17.318C228.413 17.374 228.445 17.4487 228.445 17.542V18.158C228.669 17.85 228.968 17.5933 229.341 17.388C229.715 17.1827 230.181 17.08 230.741 17.08C231.264 17.08 231.707 17.1687 232.071 17.346C232.445 17.5233 232.748 17.766 232.981 18.074C233.224 18.382 233.406 18.732 233.527 19.124C233.649 19.516 233.714 19.936 233.723 20.384C233.733 20.5333 233.737 20.692 233.737 20.86C233.737 21.028 233.733 21.1867 233.723 21.336C233.714 21.7747 233.649 22.1947 233.527 22.596C233.406 22.988 233.224 23.338 232.981 23.646C232.748 23.9447 232.445 24.1873 232.071 24.374C231.707 24.5513 231.264 24.64 230.741 24.64C230.2 24.64 229.743 24.542 229.369 24.346C229.005 24.1407 228.707 23.8887 228.473 23.59V26.838C228.473 26.9313 228.445 27.006 228.389 27.062C228.333 27.1273 228.254 27.16 228.151 27.16H227.479ZM230.447 23.506C230.933 23.506 231.311 23.4033 231.581 23.198C231.861 22.9833 232.062 22.708 232.183 22.372C232.305 22.0267 232.375 21.658 232.393 21.266C232.403 20.9953 232.403 20.7247 232.393 20.454C232.375 20.062 232.305 19.698 232.183 19.362C232.062 19.0167 231.861 18.7413 231.581 18.536C231.311 18.3213 230.933 18.214 230.447 18.214C229.99 18.214 229.617 18.3213 229.327 18.536C229.047 18.7507 228.837 19.026 228.697 19.362C228.567 19.6887 228.492 20.0247 228.473 20.37C228.464 20.5193 228.459 20.6967 228.459 20.902C228.459 21.1073 228.464 21.2893 228.473 21.448C228.483 21.7747 228.557 22.0967 228.697 22.414C228.847 22.7313 229.066 22.9927 229.355 23.198C229.645 23.4033 230.009 23.506 230.447 23.506ZM235.805 24.5C235.712 24.5 235.633 24.472 235.567 24.416C235.511 24.3507 235.483 24.2713 235.483 24.178V17.542C235.483 17.4487 235.511 17.374 235.567 17.318C235.633 17.2527 235.712 17.22 235.805 17.22H236.463C236.557 17.22 236.631 17.2527 236.687 17.318C236.753 17.374 236.785 17.4487 236.785 17.542V20.23H238.059L239.949 17.43C239.996 17.3647 240.047 17.3133 240.103 17.276C240.159 17.2387 240.234 17.22 240.327 17.22H241.055C241.139 17.22 241.209 17.2387 241.265 17.276C241.321 17.3133 241.349 17.3693 241.349 17.444C241.349 17.4627 241.34 17.4907 241.321 17.528C241.312 17.556 241.298 17.584 241.279 17.612L239.179 20.706L241.559 24.094C241.606 24.15 241.629 24.2107 241.629 24.276C241.629 24.3507 241.601 24.4067 241.545 24.444C241.499 24.4813 241.433 24.5 241.349 24.5H240.495C240.411 24.5 240.341 24.4813 240.285 24.444C240.229 24.4067 240.178 24.3553 240.131 24.29L238.073 21.364H236.785V24.178C236.785 24.2713 236.753 24.3507 236.687 24.416C236.631 24.472 236.557 24.5 236.463 24.5H235.805ZM245.971 24.64C245.262 24.64 244.669 24.5047 244.193 24.234C243.717 23.9633 243.353 23.59 243.101 23.114C242.849 22.6287 242.709 22.078 242.681 21.462C242.672 21.3033 242.667 21.1027 242.667 20.86C242.667 20.608 242.672 20.4073 242.681 20.258C242.709 19.6327 242.849 19.082 243.101 18.606C243.362 18.13 243.731 17.7567 244.207 17.486C244.683 17.2153 245.271 17.08 245.971 17.08C246.671 17.08 247.259 17.2153 247.735 17.486C248.211 17.7567 248.575 18.13 248.827 18.606C249.088 19.082 249.233 19.6327 249.261 20.258C249.27 20.4073 249.275 20.608 249.275 20.86C249.275 21.1027 249.27 21.3033 249.261 21.462C249.233 22.078 249.093 22.6287 248.841 23.114C248.589 23.59 248.225 23.9633 247.749 24.234C247.273 24.5047 246.68 24.64 245.971 24.64ZM245.971 23.562C246.55 23.562 247.012 23.38 247.357 23.016C247.702 22.6427 247.889 22.1013 247.917 21.392C247.926 21.252 247.931 21.0747 247.931 20.86C247.931 20.6453 247.926 20.468 247.917 20.328C247.889 19.6187 247.702 19.082 247.357 18.718C247.012 18.3447 246.55 18.158 245.971 18.158C245.392 18.158 244.926 18.3447 244.571 18.718C244.226 19.082 244.044 19.6187 244.025 20.328C244.016 20.468 244.011 20.6453 244.011 20.86C244.011 21.0747 244.016 21.252 244.025 21.392C244.044 22.1013 244.226 22.6427 244.571 23.016C244.926 23.38 245.392 23.562 245.971 23.562ZM251.35 24.5C251.257 24.5 251.178 24.472 251.112 24.416C251.056 24.3507 251.028 24.2713 251.028 24.178V17.542C251.028 17.4487 251.056 17.374 251.112 17.318C251.178 17.2527 251.257 17.22 251.35 17.22H254.262C255.14 17.22 255.798 17.3973 256.236 17.752C256.684 18.1067 256.908 18.5827 256.908 19.18C256.908 19.6 256.829 19.9173 256.67 20.132C256.512 20.3467 256.288 20.5287 255.998 20.678C256.353 20.8273 256.619 21.07 256.796 21.406C256.983 21.7327 257.076 22.0733 257.076 22.428C257.076 23.1 256.838 23.6133 256.362 23.968C255.886 24.3227 255.224 24.5 254.374 24.5H251.35ZM252.316 23.478H254.262C254.71 23.478 255.07 23.394 255.34 23.226C255.62 23.0487 255.76 22.7827 255.76 22.428C255.76 22.0547 255.634 21.784 255.382 21.616C255.13 21.4387 254.757 21.35 254.262 21.35H252.316V23.478ZM252.316 20.314H254.178C254.626 20.314 254.981 20.216 255.242 20.02C255.513 19.824 255.648 19.5487 255.648 19.194C255.648 18.83 255.513 18.5827 255.242 18.452C254.981 18.312 254.626 18.242 254.178 18.242H252.316V20.314Z" fill="white"/>
</svg>
