<svg width="270" height="50" viewBox="0 0 270 50" fill="none" xmlns="http://www.w3.org/2000/svg">
<g clip-path="url(#clip0_110_2189)">
<circle cx="25.2082" cy="25" r="25" fill="white"/>
<path d="M12.0319 21.23C12.1682 22.0484 11.425 29.9595 11.0083 29.9595C10.5915 29.9595 9.8855 21.912 9.98527 21.23C10.1167 20.3315 10.6673 19.3887 11.0083 19.3887C11.3492 19.3887 11.8869 20.36 12.0319 21.23Z" fill="#E81212"/>
<path d="M12.0319 44.895C12.1682 44.0766 11.425 36.1655 11.0082 36.1655C10.5915 36.1655 9.88548 44.213 9.98525 44.895C10.1167 45.7935 10.6672 46.7363 11.0082 46.7363C11.3492 46.7363 11.8869 45.765 12.0319 44.895Z" fill="#E81212"/>
<path d="M5.97898 22.3059C6.50625 22.9464 9.81814 30.1692 9.45723 30.3776C9.09633 30.586 4.46116 23.9697 4.20657 23.3292C3.8711 22.4853 3.8765 21.3935 4.17181 21.223C4.46712 21.0525 5.41846 21.6249 5.97898 22.3059Z" fill="#E81212"/>
<path d="M17.8115 42.8001C17.5204 42.0232 12.9212 35.5436 12.5603 35.752C12.1994 35.9603 15.6117 43.2827 16.0391 43.8234C16.6022 44.5359 17.5504 45.0771 17.8457 44.9066C18.141 44.7361 18.121 43.626 17.8115 42.8001Z" fill="#E81212"/>
<path d="M1.2747 26.2631C2.05161 26.5542 8.5312 31.1534 8.32283 31.5143C8.11446 31.8752 0.792129 28.4629 0.251394 28.0355C-0.461084 27.4724 -1.00229 26.5242 -0.831789 26.2289C-0.661292 25.9335 0.448782 25.9536 1.2747 26.2631Z" fill="#E81212"/>
<path d="M21.7692 38.0955C21.1286 37.5682 13.9058 34.2564 13.6975 34.6173C13.4891 34.9782 20.1054 39.6133 20.7459 39.8679C21.5898 40.2034 22.6816 40.198 22.8521 39.9027C23.0226 39.6074 22.4502 38.656 21.7692 38.0955Z" fill="#E81212"/>
<path d="M-0.820462 32.0425C-0.00207448 31.9061 7.90901 32.6494 7.90901 33.0661C7.90901 33.4828 -0.138473 34.1889 -0.820462 34.0891C-1.71904 33.9577 -2.66183 33.4071 -2.66183 33.0661C-2.66183 32.7251 -1.69047 32.1874 -0.820462 32.0425Z" fill="#E81212"/>
<path d="M22.8446 32.0425C22.0262 31.9061 14.1151 32.6494 14.1151 33.0661C14.1151 33.4828 22.1626 34.1889 22.8446 34.0891C23.7432 33.9577 24.686 33.4071 24.686 33.0661C24.686 32.7251 23.7146 32.1874 22.8446 32.0425Z" fill="#E81212"/>
<path d="M0.254863 38.0955C0.895438 37.5682 8.11825 34.2564 8.32662 34.6173C8.53499 34.9782 1.91867 39.6133 1.27817 39.8679C0.43426 40.2034 -0.657503 40.198 -0.828001 39.9027C-0.998498 39.6074 -0.426115 38.656 0.254863 38.0955Z" fill="#E81212"/>
<path d="M20.7494 26.2631C19.9725 26.5542 13.4929 31.1534 13.7013 31.5143C13.9096 31.8752 21.232 28.4629 21.7727 28.0355C22.4852 27.4724 23.0264 26.5242 22.8559 26.2289C22.6854 25.9335 21.5753 25.9536 20.7494 26.2631Z" fill="#E81212"/>
<path d="M4.21258 42.8001C4.5037 42.0232 9.10289 35.5436 9.4638 35.752C9.8247 35.9603 6.41239 43.2827 5.98499 43.8234C5.42188 44.5359 4.47369 45.0771 4.17838 44.9066C3.88307 44.7361 3.9031 43.626 4.21258 42.8001Z" fill="#E81212"/>
<path d="M16.0451 22.3059C15.5179 22.9464 12.206 30.1692 12.5669 30.3776C12.9278 30.586 17.5629 23.9697 17.8175 23.3292C18.153 22.4853 18.1476 21.3935 17.8523 21.223C17.557 21.0525 16.6056 21.6249 16.0451 22.3059Z" fill="#E81212"/>
<path d="M16.4272 16.0859C16.2952 16.9542 13.5996 24.9668 13.3126 24.8899C13.0256 24.813 14.7608 16.3924 15.0177 15.7083C15.3563 14.8068 15.9957 13.9372 16.2305 14.0001C16.4653 14.063 16.5675 15.1629 16.4272 16.0859Z" fill="#FCCD05"/>
<path d="M7.03709 15.7099C7.35689 16.5278 9.02878 24.8147 8.74179 24.8916C8.4548 24.9685 5.74722 16.8085 5.62768 16.0876C5.47015 15.1376 5.58905 14.0648 5.82388 14.0019C6.05871 13.9389 6.69713 14.8404 7.03709 15.7099Z" fill="#FCCD05"/>
<path d="M16.4272 50.0723C16.2952 49.2041 13.5996 41.1914 13.3126 41.2683C13.0256 41.3452 14.7608 49.7658 15.0178 50.4499C15.3563 51.3514 15.9957 52.221 16.2305 52.1581C16.4654 52.0952 16.5675 50.9953 16.4272 50.0723Z" fill="#FCCD05"/>
<path d="M7.03711 50.4483C7.3569 49.6304 9.0288 41.3435 8.74181 41.2666C8.45482 41.1897 5.74724 49.3497 5.62769 50.0707C5.47016 51.0206 5.58907 52.0934 5.8239 52.1563C6.05873 52.2193 6.69714 51.3178 7.03711 50.4483Z" fill="#FCCD05"/>
<path d="M-0.987891 19.9077C-0.30198 20.4562 5.28938 26.7969 5.07929 27.007C4.8692 27.2171 -1.55564 21.5041 -2.01966 20.9395C-2.63105 20.1956 -3.06449 19.207 -2.89258 19.0351C-2.72068 18.8632 -1.71706 19.3247 -0.987891 19.9077Z" fill="#FCCD05"/>
<path d="M-6.00889 27.8521C-5.14065 27.9841 2.87198 30.6796 2.79508 30.9666C2.71818 31.2536 -5.70238 29.5184 -6.38654 29.2615C-7.28798 28.9229 -8.15763 28.2835 -8.0947 28.0487C-8.03178 27.8139 -6.93189 27.7117 -6.00889 27.8521Z" fill="#FCCD05"/>
<path d="M28.4448 36.9009C27.6269 36.5811 19.34 34.9092 19.2631 35.1962C19.1862 35.4832 27.3462 38.1908 28.0672 38.3103C29.0171 38.4679 30.0899 38.349 30.1529 38.1141C30.2158 37.8793 29.3143 37.2409 28.4448 36.9009Z" fill="#FCCD05"/>
<path d="M24.0757 45.2213C23.5273 44.5353 17.1865 38.944 16.9764 39.1541C16.7663 39.3642 22.4793 45.789 23.0439 46.253C23.7879 46.8644 24.7764 47.2979 24.9483 47.126C25.1202 46.954 24.6587 45.9504 24.0757 45.2213Z" fill="#FCCD05"/>
<path d="M-6.38524 36.9009C-5.56732 36.5811 2.7196 34.9092 2.7965 35.1962C2.8734 35.4832 -5.28661 38.1908 -6.00759 38.3103C-6.95753 38.4679 -8.03036 38.349 -8.09328 38.1141C-8.15621 37.8793 -7.25475 37.2409 -6.38524 36.9009Z" fill="#FCCD05"/>
<path d="M-2.01614 45.2213C-1.46769 44.5353 4.87304 38.944 5.08313 39.1541C5.29323 39.3642 -0.419759 45.789 -0.984371 46.253C-1.72828 46.8644 -2.71683 47.2979 -2.88874 47.126C-3.06065 46.954 -2.59917 45.9504 -2.01614 45.2213Z" fill="#FCCD05"/>
<path d="M23.0475 19.9077C22.3616 20.4562 16.7702 26.7969 16.9803 27.007C17.1904 27.2171 23.6152 21.5041 24.0792 20.9395C24.6906 20.1956 25.1241 19.207 24.9522 19.0351C24.7803 18.8632 23.7766 19.3247 23.0475 19.9077Z" fill="#FCCD05"/>
<path d="M28.0685 27.8521C27.2002 27.9841 19.1876 30.6796 19.2645 30.9666C19.3414 31.2536 27.762 29.5184 28.4461 29.2615C29.3476 28.9229 30.2172 28.2835 30.1543 28.0487C30.0914 27.8139 28.9915 27.7117 28.0685 27.8521Z" fill="#FCCD05"/>
<path d="M-2.68263 49.0813C-2.17705 48.4707 3.50411 43.362 3.66461 43.5225C3.82511 43.683 -1.39093 49.4429 -1.89443 49.8695C-2.55783 50.4317 -3.4128 50.8626 -3.54412 50.7313C-3.67545 50.5999 -3.22011 49.7304 -2.68263 49.0813Z" fill="#E81212"/>
<path d="M1.64377 52.1902C1.97409 51.4696 6.13944 45.0646 6.33601 45.178C6.53258 45.2915 2.98504 52.2051 2.60912 52.7476C2.11382 53.4623 1.39951 54.0998 1.23867 54.0069C1.07783 53.914 1.29261 52.9563 1.64377 52.1902Z" fill="#E81212"/>
<path d="M24.9848 17.0935C24.4792 17.7041 18.798 22.8128 18.6375 22.6523C18.477 22.4918 23.693 16.7319 24.1966 16.3053C24.86 15.7431 25.7149 15.3122 25.8462 15.4436C25.9776 15.5749 25.5222 16.4444 24.9848 17.0935Z" fill="#E81212"/>
<path d="M20.6584 13.9846C20.328 14.7052 16.1627 21.1103 15.9661 20.9968C15.7695 20.8833 19.3171 13.9697 19.693 13.4272C20.1883 12.7125 20.9026 12.075 21.0635 12.1679C21.2243 12.2608 21.0095 13.2185 20.6584 13.9846Z" fill="#E81212"/>
<path d="M7.16757 53.8561C7.30012 53.0745 9.6658 45.8097 9.88505 45.8685C10.1043 45.9272 8.467 53.5234 8.24428 54.1446C7.95084 54.9632 7.42586 55.7638 7.24647 55.7158C7.06707 55.6677 7.02666 54.687 7.16757 53.8561Z" fill="#E81212"/>
<path d="M12.4689 54.3853C12.3947 53.596 12.7995 45.9664 13.0265 45.9664C13.2534 45.9664 13.638 53.7276 13.5836 54.3853C13.5121 55.2519 13.2122 56.1611 13.0265 56.1611C12.8407 56.1611 12.5479 55.2243 12.4689 54.3853Z" fill="#E81212"/>
<path d="M15.1345 12.3196C15.002 13.1012 12.6363 20.3661 12.417 20.3073C12.1978 20.2486 13.8351 12.6524 14.0578 12.0311C14.3513 11.2126 14.8762 10.4119 15.0556 10.46C15.235 10.5081 15.2754 11.4888 15.1345 12.3196Z" fill="#E81212"/>
<path d="M9.83311 11.7905C9.90737 12.5798 9.50257 20.2093 9.27559 20.2093C9.04862 20.2093 8.66408 12.4482 8.71842 11.7905C8.79001 10.9239 9.08987 10.0146 9.27559 10.0146C9.46132 10.0146 9.75417 10.9515 9.83311 11.7905Z" fill="#E81212"/>
<path d="M18.0852 53.0647C17.8092 52.3216 16.2255 44.8472 16.4447 44.7885C16.664 44.7297 19.0441 52.1269 19.1619 52.7762C19.317 53.6318 19.2627 54.5877 19.0833 54.6358C18.9039 54.6839 18.3786 53.8548 18.0852 53.0647Z" fill="#E81212"/>
<path d="M22.941 50.8726C22.4821 50.2262 19.0179 43.4164 19.2144 43.3029C19.411 43.1894 23.6246 49.7185 23.9064 50.3153C24.2777 51.1015 24.4726 52.0389 24.3118 52.1318C24.1509 52.2246 23.4289 51.5598 22.941 50.8726Z" fill="#E81212"/>
<path d="M4.21696 13.1101C4.49297 13.8532 6.07664 21.3276 5.8574 21.3863C5.63816 21.4451 3.258 14.0479 3.14026 13.3986C2.98511 12.543 3.03942 11.5871 3.21882 11.539C3.39821 11.4909 3.92355 12.32 4.21696 13.1101Z" fill="#E81212"/>
<path d="M-0.638898 15.3022C-0.179956 15.9486 3.28427 22.7584 3.0877 22.8719C2.89113 22.9854 -1.32245 16.4563 -1.60425 15.8596C-1.97556 15.0733 -2.17049 14.1359 -2.00965 14.043C-1.84881 13.9502 -1.12679 14.615 -0.638898 15.3022Z" fill="#E81212"/>
<path d="M27.1448 46.9219C26.5342 46.4163 21.4255 40.7352 21.586 40.5747C21.7465 40.4142 27.5063 45.6302 27.933 46.1337C28.4951 46.7971 28.926 47.6521 28.7947 47.7834C28.6634 47.9147 27.7939 47.4594 27.1448 46.9219Z" fill="#E81212"/>
<path d="M30.254 42.5956C29.5334 42.2653 23.1283 38.0999 23.2418 37.9034C23.3553 37.7068 30.2689 41.2543 30.8114 41.6302C31.5261 42.1255 32.1636 42.8399 32.0707 43.0007C31.9778 43.1615 31.0201 42.9468 30.254 42.5956Z" fill="#E81212"/>
<path d="M-4.84263 19.2509C-4.23203 19.7565 0.876658 25.4377 0.71616 25.5982C0.555663 25.7587 -5.20418 20.5427 -5.63084 20.0391C-6.193 19.3758 -6.6239 18.5208 -6.49257 18.3895C-6.36125 18.2581 -5.49175 18.7135 -4.84263 19.2509Z" fill="#E81212"/>
<path d="M31.9189 37.0743C31.1373 36.9417 23.8724 34.576 23.9312 34.3568C23.9899 34.1375 31.5861 35.7748 32.2074 35.9975C33.0259 36.291 33.8266 36.816 33.7785 36.9954C33.7304 37.1747 32.7498 37.2152 31.9189 37.0743Z" fill="#E81212"/>
<path d="M32.4484 31.7722C31.6591 31.8465 24.0295 31.4417 24.0295 31.2147C24.0295 30.9877 31.7906 30.6032 32.4484 30.6575C33.315 30.7291 34.2242 31.029 34.2242 31.2147C34.2242 31.4004 33.2874 31.6933 32.4484 31.7722Z" fill="#E81212"/>
<path d="M31.1283 26.1537C30.3851 26.4297 22.9107 28.0133 22.852 27.7941C22.7932 27.5748 30.1904 25.1947 30.8397 25.0769C31.6954 24.9218 32.6512 24.9761 32.6993 25.1555C32.7474 25.3349 31.9183 25.8602 31.1283 26.1537Z" fill="#E81212"/>
<path d="M28.9361 21.2972C28.2897 21.7562 21.4799 25.2204 21.3664 25.0238C21.2529 24.8273 27.782 20.6137 28.3787 20.3319C29.165 19.9606 30.1024 19.7656 30.1953 19.9265C30.2881 20.0873 29.6233 20.8093 28.9361 21.2972Z" fill="#E81212"/>
<path d="M-6.63394 44.8776C-5.98754 44.4186 0.822264 40.9544 0.935753 41.151C1.04924 41.3475 -5.47982 45.5611 -6.07659 45.8429C-6.86288 46.2142 -7.80025 46.4092 -7.89311 46.2483C-7.98597 46.0875 -7.3211 45.3655 -6.63394 44.8776Z" fill="#E81212"/>
<path d="M42.4866 1.94752C42.5701 2.44894 42.1147 7.29596 41.8594 7.29596C41.6041 7.29596 41.1715 2.36537 41.2326 1.94752C41.3132 1.39697 41.6505 0.819336 41.8594 0.819336C42.0683 0.819336 42.3978 1.41448 42.4866 1.94752Z" fill="#E81212"/>
<path d="M42.4866 16.447C42.5701 15.9456 42.1147 11.0986 41.8594 11.0986C41.6041 11.0986 41.1715 16.0292 41.2326 16.447C41.3132 16.9976 41.6505 17.5752 41.8594 17.5752C42.0683 17.5752 42.3978 16.9801 42.4866 16.447Z" fill="#E81212"/>
<path d="M38.7781 2.60594C39.1011 2.99841 41.1303 7.42374 40.9091 7.5514C40.688 7.67907 37.8481 3.62533 37.6921 3.2329C37.4866 2.71585 37.4899 2.04694 37.6708 1.94248C37.8518 1.83802 38.4346 2.18871 38.7781 2.60594Z" fill="#E81212"/>
<path d="M46.0277 15.1626C45.8493 14.6866 43.0315 10.7166 42.8103 10.8443C42.5892 10.972 44.6799 15.4583 44.9417 15.7896C45.2868 16.2261 45.8677 16.5577 46.0486 16.4532C46.2296 16.3488 46.2173 15.6686 46.0277 15.1626Z" fill="#E81212"/>
<path d="M35.8958 5.03169C36.3718 5.21005 40.3418 8.02792 40.2141 8.24904C40.0864 8.47017 35.6001 6.37949 35.2688 6.11762C34.8323 5.77261 34.5007 5.19166 34.6052 5.01073C34.7096 4.8298 35.3898 4.84207 35.8958 5.03169Z" fill="#E81212"/>
<path d="M48.4525 12.2814C48.0601 11.9584 43.6347 9.92923 43.5071 10.1503C43.3794 10.3715 47.4331 13.2114 47.8256 13.3674C48.3426 13.5729 49.0115 13.5696 49.116 13.3887C49.2205 13.2077 48.8698 12.6249 48.4525 12.2814Z" fill="#E81212"/>
<path d="M34.6121 8.57225C35.1135 8.48872 39.9605 8.94408 39.9605 9.19941C39.9605 9.45474 35.03 9.88731 34.6121 9.82618C34.0616 9.74566 33.4839 9.40834 33.4839 9.19941C33.4839 8.99049 34.0791 8.66105 34.6121 8.57225Z" fill="#E81212"/>
<path d="M49.1114 8.57225C48.61 8.48872 43.763 8.94408 43.763 9.19941C43.763 9.45474 48.6935 9.88731 49.1114 9.82618C49.6619 9.74566 50.2396 9.40834 50.2396 9.19941C50.2396 8.99049 49.6444 8.66105 49.1114 8.57225Z" fill="#E81212"/>
<path d="M35.2709 12.2805C35.6634 11.9574 40.0887 9.92825 40.2164 10.1494C40.3441 10.3705 36.2903 13.2104 35.8979 13.3664C35.3808 13.5719 34.7119 13.5686 34.6075 13.3877C34.503 13.2068 34.8537 12.6239 35.2709 12.2805Z" fill="#E81212"/>
<path d="M47.8277 5.03071C47.3517 5.20908 43.3817 8.02694 43.5094 8.24807C43.6371 8.46919 48.1234 6.37851 48.4547 6.11665C48.8912 5.77164 49.2228 5.19069 49.1183 5.00975C49.0138 4.82882 48.3337 4.84109 47.8277 5.03071Z" fill="#E81212"/>
<path d="M37.6958 15.1636C37.8742 14.6876 40.692 10.7176 40.9132 10.8453C41.1343 10.9729 39.0436 15.4592 38.7817 15.7905C38.4367 16.2271 37.8558 16.5587 37.6748 16.4542C37.4939 16.3497 37.5062 15.6696 37.6958 15.1636Z" fill="#E81212"/>
<path d="M44.9454 2.60691C44.6224 2.99939 42.5932 7.42471 42.8144 7.55238C43.0355 7.68005 45.8754 3.62631 46.0314 3.23388C46.2369 2.71683 46.2336 2.04792 46.0527 1.94346C45.8717 1.839 45.2889 2.18969 44.9454 2.60691Z" fill="#E81212"/>
<path d="M45.1795 -1.20394C45.0987 -0.671986 43.4471 4.23726 43.2713 4.19014C43.0955 4.14303 44.1586 -1.01615 44.316 -1.43533C44.5234 -1.98763 44.9152 -2.52045 45.0591 -2.4819C45.2029 -2.44335 45.2655 -1.76946 45.1795 -1.20394Z" fill="#FCCD05"/>
<path d="M39.4264 -1.43449C39.6223 -0.933362 40.6466 4.14393 40.4708 4.19105C40.295 4.23816 38.6361 -0.761377 38.5628 -1.20311C38.4663 -1.78513 38.5392 -2.44244 38.683 -2.48099C38.8269 -2.51954 39.2181 -1.96723 39.4264 -1.43449Z" fill="#FCCD05"/>
<path d="M45.1796 19.619C45.0987 19.087 43.4471 14.1778 43.2713 14.2249C43.0955 14.272 44.1586 19.4312 44.316 19.8504C44.5234 20.4027 44.9152 20.9355 45.0591 20.8969C45.2029 20.8584 45.2655 20.1845 45.1796 19.619Z" fill="#FCCD05"/>
<path d="M39.4264 19.8495C39.6223 19.3484 40.6467 14.2711 40.4708 14.224C40.295 14.1769 38.6361 19.1764 38.5628 19.6181C38.4663 20.2002 38.5392 20.8575 38.683 20.896C38.8269 20.9346 39.2181 20.3823 39.4264 19.8495Z" fill="#FCCD05"/>
<path d="M34.5095 1.13856C34.9298 1.47459 38.3556 5.35948 38.2268 5.4882C38.0981 5.61692 34.1617 2.11664 33.8774 1.77071C33.5028 1.31493 33.2372 0.709253 33.3426 0.603928C33.4479 0.498602 34.0628 0.781344 34.5095 1.13856Z" fill="#FCCD05"/>
<path d="M31.4332 6.00538C31.9652 6.08626 36.8744 7.7378 36.8273 7.91363C36.7802 8.08947 31.621 7.02635 31.2018 6.86891C30.6495 6.66149 30.1167 6.26974 30.1553 6.12587C30.1938 5.98199 30.8677 5.9194 31.4332 6.00538Z" fill="#FCCD05"/>
<path d="M52.5426 11.5495C52.0415 11.3536 46.9642 10.3293 46.9171 10.5051C46.8699 10.6809 51.8695 12.3398 52.3112 12.4131C52.8932 12.5096 53.5505 12.4367 53.5891 12.2929C53.6277 12.149 53.0753 11.7578 52.5426 11.5495Z" fill="#FCCD05"/>
<path d="M49.8657 16.6469C49.5297 16.2267 45.6448 12.8009 45.5161 12.9296C45.3874 13.0583 48.8876 16.9948 49.2336 17.2791C49.6893 17.6537 50.295 17.9192 50.4003 17.8139C50.5057 17.7086 50.2229 17.0937 49.8657 16.6469Z" fill="#FCCD05"/>
<path d="M31.2026 11.5495C31.7038 11.3536 36.781 10.3293 36.8282 10.5051C36.8753 10.6809 31.8757 12.3398 31.434 12.4131C30.852 12.5096 30.1947 12.4367 30.1561 12.2929C30.1176 12.149 30.6699 11.7578 31.2026 11.5495Z" fill="#FCCD05"/>
<path d="M33.8795 16.6469C34.2155 16.2267 38.1004 12.8009 38.2292 12.9296C38.3579 13.0583 34.8576 16.9948 34.5117 17.2791C34.0559 17.6537 33.4502 17.9192 33.3449 17.8139C33.2396 17.7086 33.5223 17.0937 33.8795 16.6469Z" fill="#FCCD05"/>
<path d="M49.2357 1.13856C48.8154 1.47459 45.3897 5.35948 45.5184 5.4882C45.6471 5.61692 49.5835 2.11664 49.8678 1.77071C50.2424 1.31493 50.508 0.709253 50.4027 0.603928C50.2974 0.498602 49.6825 0.781344 49.2357 1.13856Z" fill="#FCCD05"/>
<path d="M52.312 6.00538C51.78 6.08626 46.8708 7.7378 46.9179 7.91363C46.965 8.08947 52.1242 7.02635 52.5434 6.86891C53.0957 6.66149 53.6285 6.26974 53.5899 6.12587C53.5514 5.98199 52.8775 5.9194 52.312 6.00538Z" fill="#FCCD05"/>
<path d="M33.4712 19.0121C33.7809 18.638 37.2617 15.5079 37.36 15.6063C37.4584 15.7046 34.2626 19.2336 33.9541 19.495C33.5476 19.8394 33.0238 20.1034 32.9433 20.023C32.8629 19.9425 33.1419 19.4098 33.4712 19.0121Z" fill="#E81212"/>
<path d="M36.1219 20.9168C36.3243 20.4753 38.8763 16.551 38.9968 16.6205C39.1172 16.6901 36.9437 20.9259 36.7134 21.2583C36.4099 21.6962 35.9722 22.0868 35.8737 22.0299C35.7751 21.973 35.9067 21.3862 36.1219 20.9168Z" fill="#E81212"/>
<path d="M50.4226 -0.587261C50.1129 -0.213151 46.6321 2.91688 46.5338 2.81854C46.4354 2.72021 49.6312 -0.808777 49.9397 -1.07018C50.3462 -1.41462 50.87 -1.67862 50.9505 -1.59816C51.0309 -1.5177 50.7519 -0.984966 50.4226 -0.587261Z" fill="#E81212"/>
<path d="M47.7719 -2.492C47.5695 -2.05047 45.0175 1.8738 44.897 1.80427C44.7766 1.73474 46.9501 -2.50114 47.1804 -2.83348C47.4839 -3.27137 47.9216 -3.66196 48.0201 -3.60507C48.1187 -3.54817 47.9871 -2.96139 47.7719 -2.492Z" fill="#E81212"/>
<path d="M39.5061 21.9365C39.5874 21.4576 41.0368 17.0065 41.1711 17.0425C41.3054 17.0785 40.3023 21.7326 40.1658 22.1132C39.986 22.6148 39.6644 23.1053 39.5545 23.0759C39.4446 23.0464 39.4198 22.4456 39.5061 21.9365Z" fill="#E81212"/>
<path d="M42.7542 22.2606C42.7087 21.777 42.9568 17.1025 43.0958 17.1025C43.2349 17.1025 43.4705 21.8576 43.4372 22.2606C43.3933 22.7915 43.2096 23.3486 43.0958 23.3486C42.982 23.3486 42.8026 22.7747 42.7542 22.2606Z" fill="#E81212"/>
<path d="M44.3874 -3.51168C44.3062 -3.03281 42.8568 1.41827 42.7224 1.38227C42.5881 1.34628 43.5913 -3.30781 43.7277 -3.68844C43.9075 -4.18996 44.2291 -4.68051 44.3391 -4.65106C44.449 -4.62161 44.4737 -4.02076 44.3874 -3.51168Z" fill="#E81212"/>
<path d="M41.1393 -3.83579C41.1848 -3.35221 40.9368 1.32234 40.7977 1.32234C40.6586 1.32234 40.423 -3.43281 40.4563 -3.83579C40.5002 -4.36674 40.6839 -4.92383 40.7977 -4.92383C40.9115 -4.92383 41.0909 -4.34986 41.1393 -3.83579Z" fill="#E81212"/>
<path d="M46.1954 21.4518C46.0263 20.9965 45.056 16.417 45.1903 16.381C45.3246 16.3451 46.7829 20.8772 46.855 21.2751C46.9501 21.7993 46.9168 22.3849 46.8069 22.4144C46.697 22.4438 46.3751 21.9359 46.1954 21.4518Z" fill="#E81212"/>
<path d="M49.1705 20.1088C48.8893 19.7128 46.7668 15.5405 46.8873 15.471C47.0077 15.4014 49.5893 19.4017 49.762 19.7673C49.9894 20.2491 50.1089 20.8234 50.0103 20.8803C49.9118 20.9372 49.4694 20.5298 49.1705 20.1088Z" fill="#E81212"/>
<path d="M37.6985 -3.02701C37.8676 -2.57169 38.8379 2.00777 38.7036 2.04376C38.5692 2.07975 37.1109 -2.45238 37.0388 -2.85025C36.9437 -3.37446 36.977 -3.96012 37.0869 -3.98957C37.1968 -4.01902 37.5187 -3.51105 37.6985 -3.02701Z" fill="#E81212"/>
<path d="M34.7233 -1.684C35.0045 -1.28796 37.127 2.88432 37.0066 2.95385C36.8862 3.02339 34.3045 -0.976888 34.1319 -1.34252C33.9044 -1.82428 33.785 -2.39859 33.8835 -2.45548C33.9821 -2.51238 34.4244 -2.10502 34.7233 -1.684Z" fill="#E81212"/>
<path d="M51.746 17.6885C51.3719 17.3787 48.2419 13.8979 48.3402 13.7996C48.4386 13.7013 51.9676 16.8971 52.229 17.2055C52.5734 17.612 52.8374 18.1358 52.7569 18.2163C52.6765 18.2968 52.1437 18.0178 51.746 17.6885Z" fill="#E81212"/>
<path d="M53.6511 15.0375C53.2095 14.8351 49.2853 12.2831 49.3548 12.1626C49.4243 12.0422 53.6602 14.2157 53.9925 14.446C54.4304 14.7495 54.821 15.1872 54.7641 15.2857C54.7072 15.3842 54.1204 15.2527 53.6511 15.0375Z" fill="#E81212"/>
<path d="M32.1478 0.737311C32.5219 1.04708 35.6519 4.52786 35.5536 4.62619C35.4553 4.72453 31.9263 1.52872 31.6649 1.22023C31.3204 0.813778 31.0564 0.289949 31.1369 0.209487C31.2173 0.129025 31.7501 0.408006 32.1478 0.737311Z" fill="#E81212"/>
<path d="M30.2428 3.38828C30.6843 3.59067 34.6086 6.14273 34.5391 6.26316C34.4695 6.3836 30.2337 4.21006 29.9013 3.97974C29.4634 3.67628 29.0728 3.23863 29.1297 3.14008C29.1866 3.04154 29.7734 3.17313 30.2428 3.38828Z" fill="#E81212"/>
<path d="M54.6711 11.6565C54.1922 11.5753 49.7412 10.1259 49.7772 9.99158C49.8132 9.85725 54.4673 10.8604 54.8479 10.9969C55.3494 11.1766 55.8399 11.4983 55.8105 11.6082C55.781 11.7181 55.1802 11.7429 54.6711 11.6565Z" fill="#E81212"/>
<path d="M54.9955 8.40782C54.512 8.45332 49.8374 8.2053 49.8374 8.06624C49.8374 7.92717 54.5926 7.69157 54.9955 7.72486C55.5265 7.76872 56.0836 7.95245 56.0836 8.06624C56.0836 8.18003 55.5096 8.35945 54.9955 8.40782Z" fill="#E81212"/>
<path d="M29.2228 6.77119C29.7017 6.8524 34.1527 8.30183 34.1168 8.43615C34.0808 8.57048 29.4267 7.56733 29.046 7.43087C28.5445 7.25109 28.054 6.92944 28.0834 6.81953C28.1129 6.70961 28.7137 6.68485 29.2228 6.77119Z" fill="#E81212"/>
<path d="M28.8984 10.0199C29.382 9.97442 34.0565 10.2224 34.0565 10.3615C34.0565 10.5006 29.3014 10.7362 28.8984 10.7029C28.3674 10.659 27.8103 10.4753 27.8103 10.3615C27.8103 10.2477 28.3843 10.0683 28.8984 10.0199Z" fill="#E81212"/>
<path d="M54.1867 4.9639C53.7314 5.133 49.1519 6.1033 49.1159 5.96897C49.0799 5.83464 53.6121 4.37635 54.0099 4.30421C54.5341 4.20915 55.1198 4.24243 55.1493 4.35235C55.1787 4.46226 54.6707 4.78413 54.1867 4.9639Z" fill="#E81212"/>
<path d="M52.8436 1.98882C52.4475 2.27001 48.2753 4.3925 48.2057 4.27206C48.1362 4.15163 52.1365 1.57002 52.5021 1.39736C52.9839 1.16987 53.5582 1.05043 53.6151 1.14898C53.672 1.24753 53.2646 1.6899 52.8436 1.98882Z" fill="#E81212"/>
<path d="M29.7072 13.4609C30.1625 13.2918 34.7419 12.3215 34.7779 12.4558C34.8139 12.5902 30.2818 14.0485 29.8839 14.1206C29.3597 14.2156 28.7741 14.1824 28.7446 14.0725C28.7152 13.9625 29.2231 13.6407 29.7072 13.4609Z" fill="#E81212"/>
<path d="M31.0503 16.436C31.4463 16.1548 35.6186 14.0323 35.6881 14.1527C35.7577 14.2732 31.7574 16.8548 31.3917 17.0274C30.91 17.2549 30.3357 17.3744 30.2788 17.2758C30.2219 17.1773 30.6292 16.7349 31.0503 16.436Z" fill="#E81212"/>
<path d="M44.76 34.7867C44.8071 35.0695 44.5502 37.8034 44.4062 37.8034C44.2622 37.8034 44.0182 35.0224 44.0527 34.7867C44.0981 34.4762 44.2884 34.1504 44.4062 34.1504C44.5241 34.1504 44.7099 34.4861 44.76 34.7867Z" fill="#E81212"/>
<path d="M44.7599 42.9652C44.8071 42.6824 44.5502 39.9485 44.4062 39.9485C44.2622 39.9485 44.0182 42.7295 44.0527 42.9652C44.0981 43.2758 44.2884 43.6016 44.4062 43.6016C44.524 43.6016 44.7099 43.2659 44.7599 42.9652Z" fill="#E81212"/>
<path d="M42.6682 35.1587C42.8504 35.3801 43.995 37.8761 43.8702 37.9481C43.7455 38.0201 42.1437 35.7337 42.0557 35.5123C41.9398 35.2207 41.9417 34.8434 42.0437 34.7845C42.1458 34.7256 42.4745 34.9234 42.6682 35.1587Z" fill="#E81212"/>
<path d="M46.7573 42.2411C46.6567 41.9726 45.0673 39.7334 44.9426 39.8054C44.8178 39.8774 45.9971 42.4079 46.1448 42.5947C46.3394 42.8409 46.667 43.028 46.7691 42.9691C46.8711 42.9101 46.8642 42.5265 46.7573 42.2411Z" fill="#E81212"/>
<path d="M41.0425 36.526C41.311 36.6267 43.5502 38.216 43.4782 38.3407C43.4062 38.4655 40.8758 37.2863 40.6889 37.1386C40.4427 36.944 40.2557 36.6163 40.3146 36.5142C40.3735 36.4122 40.7571 36.4191 41.0425 36.526Z" fill="#E81212"/>
<path d="M48.125 40.6153C47.9036 40.4331 45.4076 39.2886 45.3355 39.4133C45.2635 39.538 47.55 41.1398 47.7713 41.2278C48.063 41.3437 48.4402 41.3419 48.4992 41.2398C48.5581 41.1378 48.3603 40.809 48.125 40.6153Z" fill="#E81212"/>
<path d="M40.3185 38.5238C40.6013 38.4767 43.3352 38.7335 43.3352 38.8776C43.3352 39.0216 40.5542 39.2656 40.3185 39.2311C40.008 39.1857 39.6822 38.9954 39.6822 38.8776C39.6822 38.7597 40.0178 38.5739 40.3185 38.5238Z" fill="#E81212"/>
<path d="M48.4966 38.5238C48.2138 38.4767 45.4799 38.7335 45.4799 38.8776C45.4799 39.0216 48.2609 39.2656 48.4966 39.2311C48.8071 39.1857 49.1329 38.9954 49.1329 38.8776C49.1329 38.7597 48.7972 38.5739 48.4966 38.5238Z" fill="#E81212"/>
<path d="M40.6901 40.6153C40.9115 40.4331 43.4075 39.2886 43.4795 39.4133C43.5515 39.538 41.2651 41.1398 41.0437 41.2278C40.7521 41.3437 40.3748 41.3419 40.3159 41.2398C40.257 41.1378 40.4548 40.809 40.6901 40.6153Z" fill="#E81212"/>
<path d="M47.7725 36.526C47.504 36.6267 45.2648 38.216 45.3369 38.3407C45.4089 38.4655 47.9393 37.2863 48.1261 37.1386C48.3724 36.944 48.5594 36.6163 48.5005 36.5142C48.4416 36.4122 48.0579 36.4191 47.7725 36.526Z" fill="#E81212"/>
<path d="M42.0578 42.2411C42.1584 41.9726 43.7478 39.7334 43.8725 39.8054C43.9972 39.8774 42.818 42.4079 42.6703 42.5947C42.4757 42.8409 42.148 43.028 42.046 42.9691C41.9439 42.9101 41.9508 42.5265 42.0578 42.2411Z" fill="#E81212"/>
<path d="M46.1468 35.1587C45.9646 35.3801 44.8201 37.8761 44.9448 37.9481C45.0696 38.0201 46.6714 35.7337 46.7593 35.5123C46.8753 35.2207 46.8734 34.8434 46.7714 34.7845C46.6693 34.7256 46.3405 34.9234 46.1468 35.1587Z" fill="#E81212"/>
<path d="M46.2789 33.0083C46.2332 33.3084 45.3017 36.0773 45.2025 36.0508C45.1034 36.0242 45.703 33.1142 45.7918 32.8778C45.9088 32.5663 46.1298 32.2658 46.2109 32.2875C46.2921 32.3093 46.3274 32.6894 46.2789 33.0083Z" fill="#FCCD05"/>
<path d="M43.0339 32.8779C43.1444 33.1606 43.7222 36.0243 43.623 36.0509C43.5238 36.0775 42.5881 33.2576 42.5468 33.0084C42.4924 32.6802 42.5335 32.3094 42.6146 32.2877C42.6958 32.2659 42.9164 32.5775 43.0339 32.8779Z" fill="#FCCD05"/>
<path d="M46.2789 44.7563C46.2332 44.4563 45.3017 41.6873 45.2025 41.7139C45.1034 41.7405 45.703 44.6504 45.7918 44.8868C45.9088 45.1983 46.1298 45.4989 46.2109 45.4771C46.2921 45.4554 46.3274 45.0753 46.2789 44.7563Z" fill="#FCCD05"/>
<path d="M43.0339 44.8867C43.1444 44.6041 43.7222 41.7403 43.623 41.7137C43.5238 41.6872 42.5881 44.5071 42.5468 44.7562C42.4924 45.0845 42.5335 45.4552 42.6146 45.477C42.6958 45.4987 42.9164 45.1872 43.0339 44.8867Z" fill="#FCCD05"/>
<path d="M40.2607 34.3326C40.4977 34.5221 42.4299 36.7133 42.3573 36.7859C42.2847 36.8585 40.0645 34.8843 39.9041 34.6892C39.6928 34.4321 39.543 34.0905 39.6024 34.0311C39.6619 33.9716 40.0087 34.1311 40.2607 34.3326Z" fill="#FCCD05"/>
<path d="M38.5255 37.0779C38.8256 37.1235 41.5945 38.0551 41.568 38.1542C41.5414 38.2534 38.6314 37.6538 38.395 37.565C38.0835 37.448 37.783 37.227 37.8047 37.1459C37.8265 37.0647 38.2066 37.0294 38.5255 37.0779Z" fill="#FCCD05"/>
<path d="M50.4319 40.2051C50.1492 40.0946 47.2855 39.5169 47.2589 39.616C47.2323 39.7152 50.0522 40.6509 50.3014 40.6922C50.6297 40.7466 51.0004 40.7055 51.0222 40.6244C51.0439 40.5432 50.7324 40.3226 50.4319 40.2051Z" fill="#FCCD05"/>
<path d="M48.922 43.0799C48.7325 42.8428 46.5413 40.9106 46.4687 40.9832C46.3961 41.0558 48.3704 43.2761 48.5655 43.4364C48.8226 43.6477 49.1642 43.7975 49.2236 43.7381C49.283 43.6787 49.1235 43.3319 48.922 43.0799Z" fill="#FCCD05"/>
<path d="M38.396 40.2022C38.6786 40.0917 41.5424 39.5139 41.5689 39.6131C41.5955 39.7123 38.7756 40.648 38.5265 40.6893C38.1982 40.7437 37.8274 40.7026 37.8057 40.6215C37.7839 40.5403 38.0955 40.3197 38.396 40.2022Z" fill="#FCCD05"/>
<path d="M39.9058 43.0769C40.0953 42.8399 42.2865 40.9077 42.3591 40.9803C42.4317 41.0529 40.4575 43.2731 40.2624 43.4335C40.0053 43.6448 39.6637 43.7946 39.6043 43.7352C39.5448 43.6757 39.7043 43.3289 39.9058 43.0769Z" fill="#FCCD05"/>
<path d="M48.5672 34.3307C48.3301 34.5202 46.3979 36.7114 46.4705 36.784C46.5431 36.8566 48.7634 34.8823 48.9237 34.6872C49.135 34.4301 49.2848 34.0885 49.2254 34.0291C49.166 33.9697 48.8192 34.1292 48.5672 34.3307Z" fill="#FCCD05"/>
<path d="M50.3023 37.076C50.0023 37.1216 47.2333 38.0531 47.2599 38.1523C47.2865 38.2515 50.1964 37.6518 50.4328 37.563C50.7443 37.446 51.0449 37.2251 51.0231 37.1439C51.0014 37.0628 50.6213 37.0275 50.3023 37.076Z" fill="#FCCD05"/>
<path d="M39.675 44.4106C39.8497 44.1996 41.813 42.4341 41.8685 42.4896C41.9239 42.545 40.1214 44.5355 39.9474 44.6829C39.7181 44.8772 39.4227 45.0261 39.3773 44.9807C39.3319 44.9354 39.4893 44.6349 39.675 44.4106Z" fill="#E81212"/>
<path d="M41.1701 45.485C41.2843 45.2359 42.7237 43.0225 42.7916 43.0617C42.8596 43.101 41.6336 45.4901 41.5037 45.6776C41.3325 45.9246 41.0857 46.1449 41.0301 46.1128C40.9745 46.0807 41.0487 45.7497 41.1701 45.485Z" fill="#E81212"/>
<path d="M49.2362 33.357C49.0614 33.568 47.0982 35.3335 47.0427 35.278C46.9872 35.2225 48.7898 33.2321 48.9638 33.0846C49.193 32.8904 49.4885 32.7415 49.5339 32.7868C49.5793 32.8322 49.4219 33.1327 49.2362 33.357Z" fill="#E81212"/>
<path d="M47.7411 32.2826C47.6269 32.5316 46.1875 34.745 46.1195 34.7058C46.0516 34.6666 47.2776 32.2774 47.4075 32.09C47.5786 31.843 47.8255 31.6227 47.8811 31.6548C47.9366 31.6869 47.8624 32.0178 47.7411 32.2826Z" fill="#E81212"/>
<path d="M43.0787 46.061C43.1245 45.7909 43.942 43.2803 44.0178 43.3006C44.0935 43.3209 43.5277 45.946 43.4508 46.1607C43.3494 46.4435 43.1679 46.7202 43.106 46.7036C43.044 46.687 43.03 46.3481 43.0787 46.061Z" fill="#E81212"/>
<path d="M44.9107 46.2437C44.8851 45.971 45.025 43.3344 45.1034 43.3344C45.1818 43.3344 45.3147 46.0164 45.2959 46.2437C45.2712 46.5432 45.1676 46.8574 45.1034 46.8574C45.0392 46.8574 44.938 46.5337 44.9107 46.2437Z" fill="#E81212"/>
<path d="M45.8319 31.7066C45.7861 31.9767 44.9686 34.4873 44.8928 34.467C44.8171 34.4467 45.3829 31.8216 45.4598 31.6069C45.5612 31.324 45.7427 31.0474 45.8046 31.064C45.8666 31.0806 45.8806 31.4195 45.8319 31.7066Z" fill="#E81212"/>
<path d="M43.9999 31.5238C44.0255 31.7966 43.8856 34.4332 43.8072 34.4332C43.7288 34.4332 43.5959 31.7511 43.6147 31.5238C43.6394 31.2244 43.743 30.9102 43.8072 30.9102C43.8714 30.9102 43.9726 31.2339 43.9999 31.5238Z" fill="#E81212"/>
<path d="M46.8518 45.7877C46.7564 45.5308 46.2092 42.9479 46.2849 42.9276C46.3607 42.9073 47.1832 45.4636 47.2239 45.688C47.2775 45.9836 47.2588 46.314 47.1968 46.3306C47.1348 46.3472 46.9532 46.0607 46.8518 45.7877Z" fill="#E81212"/>
<path d="M48.5299 45.0302C48.3713 44.8068 47.1741 42.4535 47.2421 42.4143C47.31 42.3751 48.7661 44.6314 48.8635 44.8376C48.9918 45.1093 49.0592 45.4332 49.0036 45.4653C48.948 45.4974 48.6985 45.2677 48.5299 45.0302Z" fill="#E81212"/>
<path d="M42.0593 31.9799C42.1547 32.2367 42.702 34.8197 42.6262 34.84C42.5504 34.8603 41.7279 32.304 41.6872 32.0796C41.6336 31.7839 41.6524 31.4536 41.7144 31.437C41.7764 31.4204 41.9579 31.7069 42.0593 31.9799Z" fill="#E81212"/>
<path d="M40.3812 32.7374C40.5398 32.9608 41.737 35.3141 41.6691 35.3533C41.6011 35.3925 40.145 33.1362 40.0476 32.93C39.9193 32.6583 39.852 32.3343 39.9075 32.3022C39.9631 32.2702 40.2126 32.4999 40.3812 32.7374Z" fill="#E81212"/>
<path d="M49.9826 43.6659C49.7716 43.4912 48.0061 41.5279 48.0616 41.4724C48.1171 41.417 50.1075 43.2195 50.255 43.3935C50.4492 43.6228 50.5981 43.9182 50.5528 43.9636C50.5074 44.009 50.2069 43.8516 49.9826 43.6659Z" fill="#E81212"/>
<path d="M51.0571 42.1699C50.808 42.0558 48.5946 40.6163 48.6338 40.5484C48.6731 40.4805 51.0622 41.7064 51.2497 41.8363C51.4967 42.0075 51.717 42.2543 51.6849 42.3099C51.6528 42.3655 51.3218 42.2913 51.0571 42.1699Z" fill="#E81212"/>
<path d="M38.9285 34.1007C39.1395 34.2754 40.905 36.2387 40.8495 36.2942C40.7941 36.3496 38.8036 34.5471 38.6561 34.3731C38.4619 34.1438 38.313 33.8484 38.3584 33.803C38.4037 33.7576 38.7042 33.915 38.9285 34.1007Z" fill="#E81212"/>
<path d="M37.8541 35.5967C38.1031 35.7108 40.3165 37.1503 40.2773 37.2182C40.2381 37.2861 37.8489 36.0602 37.6615 35.9303C37.4145 35.7591 37.1942 35.5123 37.2263 35.4567C37.2584 35.4011 37.5893 35.4753 37.8541 35.5967Z" fill="#E81212"/>
<path d="M51.6324 40.2609C51.3623 40.2151 48.8518 39.3976 48.8721 39.3218C48.8924 39.246 51.5174 39.8118 51.7321 39.8888C52.015 39.9902 52.2917 40.1716 52.275 40.2336C52.2584 40.2956 51.9195 40.3096 51.6324 40.2609Z" fill="#E81212"/>
<path d="M51.8154 38.429C51.5426 38.4547 48.906 38.3148 48.906 38.2363C48.906 38.1579 51.5881 38.025 51.8154 38.0438C52.1148 38.0685 52.4291 38.1722 52.4291 38.2363C52.4291 38.3005 52.1053 38.4017 51.8154 38.429Z" fill="#E81212"/>
<path d="M37.2787 37.5077C37.5488 37.5535 40.0594 38.371 40.0391 38.4468C40.0188 38.5225 37.3937 37.9567 37.179 37.8798C36.8961 37.7784 36.6195 37.5969 36.6361 37.5349C36.6527 37.4729 36.9916 37.459 37.2787 37.5077Z" fill="#E81212"/>
<path d="M37.0957 39.3396C37.3685 39.3139 40.0051 39.4538 40.0051 39.5322C40.0051 39.6107 37.323 39.7435 37.0957 39.7248C36.7963 39.7 36.482 39.5964 36.482 39.5322C36.482 39.468 36.8058 39.3668 37.0957 39.3396Z" fill="#E81212"/>
<path d="M51.3592 36.4877C51.1024 36.5831 48.5194 37.1304 48.4991 37.0546C48.4788 36.9789 51.0351 36.1563 51.2595 36.1156C51.5552 36.062 51.8855 36.0808 51.9021 36.1428C51.9187 36.2048 51.6322 36.3863 51.3592 36.4877Z" fill="#E81212"/>
<path d="M50.6017 34.81C50.3783 34.9686 48.025 36.1657 47.9857 36.0978C47.9465 36.0299 50.2028 34.5738 50.409 34.4764C50.6808 34.3481 51.0047 34.2807 51.0368 34.3363C51.0689 34.3919 50.8391 34.6414 50.6017 34.81Z" fill="#E81212"/>
<path d="M37.5519 41.2798C37.8087 41.1845 40.3917 40.6372 40.412 40.713C40.4323 40.7887 37.876 41.6112 37.6516 41.6519C37.3559 41.7055 37.0256 41.6868 37.009 41.6248C36.9924 41.5628 37.2789 41.3812 37.5519 41.2798Z" fill="#E81212"/>
<path d="M38.3095 42.9576C38.5329 42.799 40.8862 41.6019 40.9254 41.6698C40.9646 41.7377 38.7083 43.1938 38.5021 43.2912C38.2304 43.4195 37.9064 43.4869 37.8743 43.4313C37.8423 43.3757 38.072 43.1262 38.3095 42.9576Z" fill="#E81212"/>
<path d="M18.6354 2.82656C18.6825 2.54374 18.4256 -0.190138 18.2816 -0.190138C18.1376 -0.190138 17.8936 2.59088 17.9281 2.82656C17.9735 3.13708 18.1638 3.46289 18.2816 3.46289C18.3995 3.46289 18.5853 3.12721 18.6354 2.82656Z" fill="#E81212"/>
<path d="M20.6327 2.10243C20.5321 1.83395 18.9427 -0.405242 18.818 -0.333235C18.6933 -0.261227 19.8725 2.26919 20.0202 2.45606C20.2148 2.70227 20.5425 2.8893 20.6445 2.83038C20.7466 2.77146 20.7396 2.38785 20.6327 2.10243Z" fill="#E81212"/>
<path d="M22.0004 0.476629C21.779 0.294419 19.283 -0.850091 19.211 -0.72537C19.139 -0.60065 21.4254 1.00115 21.6467 1.08913C21.9384 1.20506 22.3157 1.2032 22.3746 1.10114C22.4335 0.999092 22.2357 0.670333 22.0004 0.476629Z" fill="#E81212"/>
<path d="M14.5655 0.476629C14.7869 0.294419 17.2829 -0.850091 17.3549 -0.72537C17.4269 -0.60065 15.1405 1.00115 14.9192 1.08913C14.6275 1.20506 14.2502 1.2032 14.1913 1.10114C14.1324 0.999092 14.3302 0.670333 14.5655 0.476629Z" fill="#E81212"/>
<path d="M15.9332 2.10243C16.0338 1.83395 17.6232 -0.405242 17.7479 -0.333235C17.8726 -0.261227 16.6934 2.26919 16.5457 2.45606C16.3511 2.70227 16.0234 2.8893 15.9214 2.83038C15.8193 2.77146 15.8263 2.38785 15.9332 2.10243Z" fill="#E81212"/>
<path d="M20.1543 4.61765C20.1087 4.3176 19.1771 1.54863 19.078 1.57521C18.9788 1.60178 19.5784 4.51173 19.6672 4.74815C19.7842 5.05967 20.0052 5.3602 20.0863 5.33845C20.1675 5.31671 20.2028 4.93661 20.1543 4.61765Z" fill="#FCCD05"/>
<path d="M16.9093 4.74804C17.0198 4.46539 17.5976 1.60163 17.4984 1.57505C17.3992 1.54848 16.4636 4.36838 16.4222 4.61754C16.3678 4.94581 16.4089 5.31656 16.49 5.3383C16.5712 5.36005 16.7918 5.04853 16.9093 4.74804Z" fill="#FCCD05"/>
<path d="M24.3073 0.0664637C24.0246 -0.0440494 21.1609 -0.621817 21.1343 -0.522639C21.1077 -0.423462 23.9276 0.512213 24.1768 0.553525C24.5051 0.607962 24.8758 0.566871 24.8976 0.48572C24.9193 0.404568 24.6078 0.183947 24.3073 0.0664637Z" fill="#FCCD05"/>
<path d="M22.7974 2.9412C22.6079 2.70416 20.4167 0.771921 20.3441 0.844524C20.2715 0.917127 22.2458 3.1374 22.4409 3.29775C22.698 3.50903 23.0396 3.65882 23.099 3.59941C23.1584 3.54001 22.9989 3.19318 22.7974 2.9412Z" fill="#FCCD05"/>
<path d="M12.2714 0.063534C12.554 -0.0469791 15.4178 -0.624747 15.4444 -0.525569C15.4709 -0.426392 12.651 0.509283 12.4019 0.550595C12.0736 0.605033 11.7029 0.563942 11.6811 0.48279C11.6594 0.401639 11.9709 0.181017 12.2714 0.063534Z" fill="#FCCD05"/>
<path d="M13.7812 2.93827C13.9707 2.70123 16.1619 0.768992 16.2346 0.841595C16.3072 0.914197 14.3329 3.13447 14.1378 3.29482C13.8807 3.5061 13.5391 3.65589 13.4797 3.59648C13.4203 3.53708 13.5797 3.19025 13.7812 2.93827Z" fill="#FCCD05"/>
<path d="M13.5504 4.27189C13.7251 4.06088 15.6884 2.29544 15.7439 2.35091C15.7993 2.40637 13.9968 4.39684 13.8228 4.54428C13.5935 4.73855 13.2981 4.88746 13.2527 4.84207C13.2073 4.79669 13.3647 4.49621 13.5504 4.27189Z" fill="#E81212"/>
<path d="M15.0455 5.34631C15.1596 5.09727 16.5991 2.88386 16.667 2.92308C16.735 2.9623 15.509 5.35147 15.3791 5.53892C15.2079 5.78591 14.9611 6.00621 14.9055 5.97412C14.8499 5.94203 14.9241 5.61106 15.0455 5.34631Z" fill="#E81212"/>
<path d="M16.9536 5.92229C16.9994 5.65219 17.817 3.14164 17.8927 3.16194C17.9685 3.18224 17.4027 5.8073 17.3257 6.02199C17.2243 6.30486 17.0429 6.58155 16.9809 6.56494C16.9189 6.54832 16.9049 6.20943 16.9536 5.92229Z" fill="#E81212"/>
<path d="M18.7857 6.10506C18.76 5.83231 18.8999 3.19571 18.9783 3.19571C19.0568 3.19571 19.1897 5.87777 19.1709 6.10506C19.1462 6.40454 19.0425 6.71875 18.9783 6.71875C18.9142 6.71875 18.813 6.39501 18.7857 6.10506Z" fill="#E81212"/>
<path d="M20.7272 5.64899C20.6319 5.39217 20.0846 2.80921 20.1604 2.78891C20.2361 2.7686 21.0586 5.32488 21.0993 5.54929C21.1529 5.84496 21.1342 6.17529 21.0722 6.1919C21.0102 6.20851 20.8286 5.922 20.7272 5.64899Z" fill="#E81212"/>
<path d="M22.4053 4.89152C22.2467 4.66814 21.0496 2.31484 21.1175 2.27562C21.1854 2.2364 22.6415 4.49269 22.7389 4.69892C22.8672 4.97064 22.9346 5.29457 22.879 5.32666C22.8234 5.35875 22.5739 5.12899 22.4053 4.89152Z" fill="#E81212"/>
<path d="M23.858 3.52916C23.647 3.35444 21.8815 1.39117 21.937 1.33571C21.9925 1.28024 23.9829 3.08278 24.1304 3.25678C24.3247 3.48603 24.4736 3.78149 24.4282 3.82687C24.3828 3.87226 24.0823 3.7149 23.858 3.52916Z" fill="#E81212"/>
<path d="M24.9325 2.03319C24.6835 1.91904 22.47 0.479597 22.5093 0.411667C22.5485 0.343738 24.9376 1.56968 25.1251 1.69959C25.3721 1.87076 25.5924 2.1176 25.5603 2.17319C25.5282 2.22877 25.1972 2.15455 24.9325 2.03319Z" fill="#E81212"/>
<path d="M25.5078 0.122211C25.2377 0.0764048 22.7272 -0.741119 22.7475 -0.816884C22.7678 -0.89265 25.3928 -0.32684 25.6075 -0.249873C25.8904 -0.148468 26.1671 0.0329509 26.1505 0.0949456C26.1339 0.15694 25.795 0.170906 25.5078 0.122211Z" fill="#E81212"/>
<path d="M11.4274 1.14117C11.6842 1.04579 14.2671 0.498514 14.2874 0.574279C14.3077 0.650045 11.7515 1.47257 11.5271 1.51326C11.2314 1.56687 10.9011 1.5481 10.8844 1.48611C10.8678 1.42411 11.1543 1.24257 11.4274 1.14117Z" fill="#E81212"/>
<path d="M12.1849 2.81894C12.4083 2.66034 14.7616 1.46318 14.8008 1.53111C14.84 1.59904 12.5838 3.05515 12.3775 3.15254C12.1058 3.28085 11.7819 3.34822 11.7498 3.29263C11.7177 3.23705 11.9475 2.98754 12.1849 2.81894Z" fill="#E81212"/>
</g>
<path d="M79.7807 23.166C79.7807 23.7493 79.5194 24.2493 78.9097 24.5827C78.3871 28.7493 77.3419 31.3327 75.6871 32.3327C75.0774 32.666 74.4678 32.916 73.9452 32.916C72.8129 32.916 71.8548 32.666 71.071 32.166C70.2871 31.666 69.9387 30.666 69.9387 29.166C69.9387 28.3327 70.0258 27.666 70.2 27.3327C70.3742 26.916 70.8097 26.7493 71.5065 26.7493C71.9419 26.7493 72.2032 26.916 72.3774 27.166C72.5516 27.4993 72.7258 27.916 72.7258 28.4993C72.8129 29.166 72.8129 29.5827 72.8129 29.5827C72.9 30.0827 73.1613 30.2493 73.5097 30.2493C73.6839 30.2493 73.9452 30.0827 74.2936 29.666C74.9903 28.8327 75.4258 27.3327 75.6871 24.9993C75.3387 24.9993 75.0774 24.916 75.0774 24.916C74.729 24.916 74.4678 24.916 74.3807 24.9993C74.2065 25.0827 74.0323 25.0827 73.8581 25.0827C73.6839 25.0827 73.5097 24.9993 73.3355 24.7493C73.1613 24.4993 73.0742 24.3327 73.0742 24.166C73.0742 23.9993 73.0742 23.8327 72.9871 23.5827C72.9871 23.3327 72.9 23.166 72.9 22.9993C72.9 22.666 72.9871 22.4993 73.2484 22.4993C73.4226 22.4993 73.6839 22.4993 74.0323 22.5827C74.3807 22.5827 74.6419 22.666 74.8161 22.666H75.6871V21.5827C75.6871 20.0827 75.5129 18.916 75.1645 17.916C75.0774 17.666 74.8161 17.4993 74.4678 17.4993C73.771 17.4993 73.1613 17.9993 72.6387 18.916C72.4645 19.416 72.2903 19.9993 72.1161 20.4993C71.8548 21.166 71.5065 21.4993 70.9839 21.4993C70.5484 21.4993 70.2871 21.3327 70.0258 20.9993C69.7645 20.666 69.6774 20.3327 69.6774 19.916C69.6774 18.5827 70.0258 17.4993 70.8097 16.666C71.5936 15.8327 72.6387 15.416 74.0323 15.416C74.6419 15.416 75.3387 15.5827 75.9484 15.8327C76.6452 16.0827 77.0807 16.416 77.429 16.8327C78.3871 17.8327 78.8226 19.7493 78.8226 22.4993C79.6065 22.4993 79.7807 22.7493 79.7807 23.166Z" fill="white"/>
<path d="M90.8419 24.9997C90.8419 25.2497 90.8419 25.583 90.8419 26.083C90.8419 26.583 90.8419 26.9163 90.8419 27.1663C90.8419 27.6663 90.8419 28.4163 90.7548 29.4163C90.6677 30.4163 90.6677 31.1663 90.6677 31.6663C90.6677 31.9163 90.5806 32.083 90.4935 32.1663C90.4064 32.2497 90.2322 32.333 90.058 32.333C88.7516 32.333 88.0548 31.9163 88.0548 31.083C88.0548 30.6663 88.0548 29.9997 87.9677 29.083C87.8806 28.1663 87.8806 27.4997 87.8806 27.083C87.8806 26.9163 87.8806 26.6663 87.9677 26.4163C87.9677 26.083 88.0548 25.9163 88.0548 25.7497C88.0548 25.333 87.9677 25.083 87.7935 25.083C87.6193 25.083 87.358 25.083 87.0097 25.1663C86.6613 25.2497 86.4 25.2497 86.2258 25.2497H86.1387C86.0516 25.2497 86.0516 25.2497 85.9645 25.2497C85.4419 25.2497 85.0064 25.333 84.7451 25.4163C84.658 25.4163 84.658 26.2497 84.658 27.833C84.658 28.083 84.658 28.4997 84.658 28.9997C84.658 29.4997 84.658 29.9163 84.658 30.1663C84.658 30.2497 84.658 30.333 84.658 30.4163C84.658 30.4997 84.658 30.6663 84.658 30.6663C84.658 30.7497 84.658 30.9997 84.658 31.2497C84.658 31.4997 84.658 31.6663 84.658 31.833C84.658 31.9163 84.658 31.9163 84.658 32.083C84.658 32.1663 84.658 32.2497 84.658 32.333C84.658 32.583 84.5709 32.6663 84.3096 32.6663C84.2226 32.6663 84.1355 32.6663 84.0484 32.583C83.9613 32.583 83.7871 32.4997 83.7871 32.4997C83.0032 32.4997 82.4806 32.333 82.3064 31.9997C82.1322 31.6663 81.958 30.9163 81.958 29.7497C81.958 29.083 81.958 27.9997 81.8709 26.6663C81.8709 25.2497 81.7838 24.2497 81.7838 23.583C81.7838 22.9997 81.7838 22.333 81.8709 21.4997C81.958 20.333 81.958 19.6663 81.958 19.4163C81.958 18.9163 81.958 18.1663 81.958 17.1663C81.958 16.9163 82.0451 16.6663 82.2193 16.333C82.3064 16.083 82.4806 15.9163 82.7419 15.9163C83.6129 15.9163 84.1355 15.9997 84.3096 16.1663C84.5709 16.333 84.658 16.833 84.658 17.583C84.658 17.833 84.658 18.1663 84.658 18.583C84.658 18.9997 84.658 19.333 84.658 19.583C84.658 19.833 84.658 20.1663 84.658 20.583C84.658 20.9997 84.658 21.333 84.658 21.583C84.658 21.6663 84.658 21.833 84.658 21.9997C84.658 22.1663 84.658 22.333 84.658 22.333C84.658 22.4163 84.658 22.4997 84.7451 22.4997C84.8322 22.4997 85.0064 22.4997 85.1806 22.4997C85.3548 22.4997 85.529 22.4997 85.6161 22.4997C85.6161 22.4997 85.7032 22.4997 85.7903 22.4997C85.8774 22.4997 85.9645 22.4997 85.9645 22.4997C86.1387 22.4997 86.4 22.4997 86.6613 22.4163C86.9226 22.333 87.1838 22.333 87.358 22.333C87.4451 22.333 87.4451 22.333 87.5322 22.333C87.6193 22.333 87.7064 22.333 87.7064 22.333C87.7064 22.333 87.7935 22.2497 87.7935 21.9997C87.8806 21.1663 87.9677 19.583 87.9677 17.083C87.9677 16.9163 87.9677 16.583 87.8806 16.2497C87.8806 15.833 87.7935 15.583 87.7935 15.4163C87.7935 15.083 87.8806 14.833 87.9677 14.7497C88.0548 14.6663 88.3161 14.583 88.6645 14.583C89.1 14.583 89.5355 14.6663 89.8838 14.833C90.4064 15.083 90.5806 15.333 90.5806 15.6663C90.5806 15.7497 90.5806 15.9163 90.5806 16.083C90.5806 16.2497 90.5806 16.4163 90.5806 16.4997C90.5806 16.583 90.5806 16.833 90.5806 17.083C90.5806 17.333 90.5806 17.4997 90.5806 17.6663C90.5806 17.9163 90.5806 18.2497 90.5806 18.6663C90.5806 19.083 90.5806 19.4163 90.5806 19.6663C90.5806 19.9997 90.5806 20.583 90.5806 21.2497C90.5806 21.9997 90.5806 22.4997 90.5806 22.833C90.5806 23.083 90.5806 23.4163 90.5806 23.9163C90.8419 24.333 90.8419 24.7497 90.8419 24.9997Z" fill="white"/>
<path d="M101.642 31.833C101.381 31.9163 100.423 32.083 98.8548 32.333C97.2 32.583 96.2419 32.6663 95.8935 32.6663C95.8064 32.6663 95.5452 32.583 95.1097 32.333C94.7613 32.1663 94.5 31.9997 94.4129 31.833C94.1516 31.4997 94.0645 30.1663 94.0645 27.833C94.0645 25.1663 94.0645 22.9997 94.1516 21.333C94.1516 20.333 94.2387 18.9163 94.4129 16.9163C94.5 16.4163 94.5871 16.083 94.7613 15.9997C94.8484 15.9163 95.0226 15.9163 95.1968 15.9163C95.2839 15.9163 95.4581 15.9163 95.5452 15.9997C95.6323 16.083 95.8064 16.083 95.8935 16.083C95.9806 16.083 96.0677 16.083 96.4161 15.9997C97.5484 15.7497 98.7677 15.583 99.9 15.583C100.248 15.583 100.597 15.833 100.858 16.333C101.119 16.7497 101.206 17.1663 101.206 17.583C101.206 17.833 100.945 17.9997 100.51 18.083C99.9 18.1663 98.8548 18.2497 97.5484 18.4163C97.1129 18.4997 96.8516 18.583 96.8516 18.833C96.8516 19.1663 96.8516 19.583 96.7645 20.1663C96.6774 20.7497 96.6774 21.1663 96.6774 21.4997C96.6774 22.083 96.7645 22.4163 96.9387 22.4163C97.0258 22.4163 97.2 22.4163 97.4613 22.333C98.4194 22.2497 99.2903 22.1663 99.9 22.1663C100.771 22.1663 101.206 22.7497 101.206 23.833C101.206 23.9163 101.206 23.9997 101.206 24.083C101.206 24.2497 101.206 24.333 101.206 24.4163C101.206 24.583 100.423 24.7497 98.8548 24.9163C97.2871 24.9997 96.5032 25.2497 96.5032 25.583C96.5032 25.583 96.5032 25.6663 96.5903 25.7497C96.5903 25.833 96.6774 25.9163 96.6774 25.9163C96.6774 26.083 96.6774 26.333 96.6774 26.7497C96.6774 27.083 96.6774 27.4163 96.6774 27.583C96.6774 27.7497 96.6774 27.9997 96.5903 28.4163C96.5032 28.833 96.5032 29.083 96.5032 29.2497C96.5032 29.583 96.5903 29.7497 96.7645 29.7497C96.8516 29.7497 97.1129 29.7497 97.4613 29.6663C97.8968 29.583 98.5935 29.4997 99.5516 29.4163C99.9 29.333 100.074 29.333 100.161 29.333C100.335 29.333 100.597 29.4163 100.858 29.6663C101.032 29.833 101.206 30.083 101.294 30.2497C101.381 30.4163 101.468 30.6663 101.468 30.9997C101.468 31.083 101.468 31.083 101.468 31.2497C101.468 31.333 101.468 31.4163 101.468 31.4997C101.468 31.583 101.468 31.583 101.555 31.7497C101.642 31.7497 101.642 31.833 101.642 31.833Z" fill="white"/>
<path d="M112.79 20.2497C112.79 21.333 112.529 22.4163 111.919 23.4163C111.31 24.4997 110.613 25.2497 109.655 25.833C109.045 26.083 108.261 26.4163 107.129 26.9163V28.583C107.129 28.833 107.129 29.1663 107.216 29.583C107.216 29.9997 107.303 30.333 107.303 30.583C107.303 30.7497 107.303 30.9997 107.216 31.2497C107.129 31.583 107.129 31.7497 107.129 31.9163C107.129 31.9997 107.129 31.9997 107.216 32.083C107.303 32.1663 107.303 32.2497 107.303 32.333C107.303 32.833 107.042 33.083 106.519 33.083C105.213 33.083 104.516 32.583 104.429 31.4997C104.342 30.2497 104.342 28.2497 104.342 25.6663C104.342 25.2497 104.342 24.583 104.342 23.7497C104.342 22.9163 104.342 22.2497 104.342 21.833C104.342 21.2497 104.342 20.333 104.342 19.1663C104.342 17.9997 104.342 17.083 104.342 16.4997C104.342 15.9163 104.952 15.583 106.258 15.583H107.565C108.174 15.583 108.697 15.6663 109.132 15.7497C110.003 15.9997 110.874 16.583 111.658 17.4997C112.442 18.4997 112.79 19.4163 112.79 20.2497ZM109.655 20.333C109.655 19.6663 109.568 19.1663 109.394 18.9163C109.132 18.4997 108.697 18.333 108 18.333H107.565C107.39 18.333 107.216 18.4163 107.216 18.4997C107.129 18.583 107.129 18.9997 107.129 19.7497C107.129 19.833 107.129 20.083 107.129 20.333C107.129 20.583 107.129 20.7497 107.129 20.9163C107.129 20.9997 107.129 21.1663 107.129 21.4163C107.129 21.6663 107.129 21.833 107.129 21.9163C107.129 21.9997 107.129 22.1663 107.129 22.4163C107.129 22.6663 107.129 22.833 107.129 22.9163C107.129 22.9997 107.129 23.083 107.129 23.2497C107.129 23.4163 107.129 23.4997 107.129 23.583C107.129 23.9163 107.216 24.083 107.39 24.083C108.087 24.083 108.61 23.6663 109.132 22.833C109.481 22.083 109.655 21.2497 109.655 20.333Z" fill="white"/>
<path d="M122.371 17.8327C122.371 18.3327 122.197 18.5827 121.935 18.5827C121.674 18.5827 121.326 18.5827 120.803 18.5827C120.281 18.5827 119.932 18.5827 119.671 18.5827C119.497 18.5827 119.235 18.5827 118.8 18.5827C118.452 18.5827 118.103 18.5827 117.929 18.5827C117.755 18.5827 117.668 18.666 117.668 18.916C117.668 19.0827 117.668 19.3327 117.755 19.666C117.842 19.9993 117.842 20.2493 117.842 20.416C117.842 20.666 117.842 20.9993 117.755 21.416C117.668 21.8327 117.668 22.2493 117.668 22.416C117.668 22.916 117.668 23.4993 117.755 24.166C117.842 24.666 117.842 25.666 117.842 27.2493C117.842 27.666 117.842 28.3327 117.755 29.166C117.755 29.9993 117.668 30.666 117.668 30.9993C117.668 31.416 117.668 31.666 117.581 31.8327C117.581 31.916 117.494 32.0827 117.406 32.2493C117.494 32.5827 117.232 32.5827 116.884 32.5827C116.623 32.5827 116.361 32.4993 115.839 32.3327C115.316 32.166 115.055 31.9993 115.055 31.8327C115.055 31.7493 115.055 31.666 115.055 31.4993C115.055 31.3327 115.055 31.2493 115.055 31.2493C115.055 31.166 115.055 30.916 115.055 30.666C115.055 30.416 115.055 30.166 115.055 30.0827C115.055 29.8327 115.055 29.4993 115.055 28.9993C115.055 28.4993 115.055 28.166 115.055 27.916C115.055 27.666 115.055 27.2493 114.968 26.666C114.968 26.0827 114.881 25.666 114.881 25.416C114.881 24.9993 114.881 24.3327 114.968 23.4993C114.968 22.666 115.055 21.9993 115.055 21.5827V18.166C115.055 17.9993 115.055 17.7493 115.055 17.416C115.055 17.0827 115.055 16.8327 115.055 16.666C115.055 16.2493 115.142 16.0827 115.316 15.9993C116.013 15.8327 116.971 15.666 118.103 15.666C120.106 15.666 121.239 15.7493 121.5 15.9993C122.11 16.666 122.371 17.166 122.371 17.8327Z" fill="white"/>
<path d="M133.868 28.2497C133.868 28.583 133.868 29.1663 133.781 29.833C133.694 30.4997 133.694 30.9997 133.694 31.333C133.694 31.6663 133.694 31.9163 133.606 31.9997C133.519 32.083 133.345 32.1663 133.084 32.1663C132.997 32.1663 132.823 32.2497 132.561 32.4163C132.387 32.4997 132.126 32.583 131.952 32.583C131.603 32.583 131.342 32.4163 131.255 32.083C131.168 31.9163 131.168 31.583 131.168 31.083C131.168 30.9163 131.168 30.6663 131.168 30.333C131.168 29.9997 131.168 29.7497 131.168 29.583C131.168 29.4163 131.168 29.083 131.168 28.7497C131.168 28.4163 131.168 28.083 131.168 27.9163C131.168 27.583 131.255 26.583 131.342 24.7497C131.342 24.1663 131.429 23.833 131.429 23.7497C131.429 23.4163 131.429 23.2497 131.342 23.2497C131.255 23.2497 131.081 23.4997 130.819 24.083C130.732 24.333 130.645 24.6663 130.471 25.1663C129.948 26.1663 129.513 27.2497 129.077 28.4997C128.642 29.7497 128.032 31.083 127.423 32.333C127.074 32.9163 126.639 33.2497 126.116 33.2497C125.855 33.2497 125.594 33.1663 125.419 32.9997C125.158 32.833 124.984 32.7497 124.897 32.7497C124.461 32.7497 124.287 31.9163 124.287 30.1663C124.287 29.583 124.287 28.6663 124.374 27.4997C124.374 26.333 124.461 25.4163 124.461 24.833C124.461 24.4997 124.461 23.9997 124.461 23.333C124.461 22.6663 124.461 22.1663 124.461 21.833C124.461 21.333 124.461 20.583 124.548 19.583C124.548 18.583 124.635 17.833 124.635 17.333C124.635 16.583 125.245 16.2497 126.552 16.2497C126.813 16.2497 126.987 16.333 127.074 16.4163C127.161 16.583 127.161 16.7497 127.161 17.083C127.161 17.9997 127.161 19.333 127.248 21.083C127.335 22.833 127.335 24.2497 127.335 25.083C127.335 25.333 127.335 25.6663 127.335 26.083C127.335 26.4997 127.335 26.833 127.335 27.083C127.335 27.2497 127.335 27.333 127.423 27.333C127.597 27.333 127.771 26.9997 128.032 26.333C128.555 25.083 129.164 23.4163 129.774 21.333C130.035 20.333 130.384 19.333 130.645 18.4163C131.168 16.833 131.516 15.9997 131.69 15.833C131.864 15.7497 132.126 15.6663 132.474 15.4997C132.91 15.4163 133.171 15.333 133.345 15.333C133.519 15.333 133.606 15.333 133.694 15.4163C133.781 15.4997 133.868 16.1663 133.868 17.4163C133.955 18.4997 133.955 19.2497 133.955 19.6663C133.955 20.2497 133.955 21.083 133.868 22.1663C133.781 23.2497 133.781 24.083 133.781 24.6663C133.781 25.083 133.781 25.6663 133.868 26.4997C133.955 27.333 133.868 27.833 133.868 28.2497Z" fill="white"/>
<path d="M146.148 28.75C146.148 29.0833 146.148 29.5833 146.235 30.1667C146.235 30.8333 146.323 31.25 146.323 31.5833C146.323 32 146.235 32.25 146.148 32.4167C145.974 32.5833 145.713 32.6667 145.364 32.6667C144.232 32.6667 143.623 32.4167 143.623 32C143.623 31.75 143.623 31.4167 143.623 30.9167C143.623 30.4167 143.623 30.0833 143.623 29.8333C143.623 29.4167 143.623 28.6667 143.71 27.75C143.797 26.8333 143.797 26.1667 143.797 25.6667C143.797 25.5833 143.71 25.5 143.623 25.5C143.448 25.5 143.274 25.5 142.926 25.5833C142.403 26.4167 141.881 27.3333 141.445 28.25L141.097 29C140.748 29.75 140.4 30.5 139.964 31.25C139.355 32.4167 138.832 33 138.484 33C138.223 33 137.787 32.8333 137.264 32.5C136.742 32.1667 136.481 31.8333 136.481 31.5833C136.481 31.4167 136.568 31.1667 136.742 30.9167C137.439 30.0833 138.484 28.25 139.964 25.5833C139.268 25.4167 138.745 25.25 138.484 25C137.787 24.4167 137.352 23.8333 137.177 23.3333C137.003 22.9167 136.916 22.25 136.916 21.3333C136.916 19.0833 137.874 17.5833 139.79 16.75C141.184 16.1667 142.403 15.8333 143.361 15.8333C143.448 15.8333 143.535 15.8333 143.71 15.8333C143.884 15.8333 143.971 15.8333 144.058 15.8333C144.232 15.8333 144.494 15.75 144.842 15.6667C145.19 15.5833 145.452 15.5 145.626 15.5C145.974 15.5 146.235 15.5833 146.323 15.8333C146.41 15.9167 146.41 16.1667 146.41 16.5833C146.41 16.6667 146.41 16.9167 146.497 17.0833C146.497 17.3333 146.584 17.5 146.584 17.5833C146.584 17.9167 146.584 18.3333 146.497 19C146.497 19.5833 146.41 20.0833 146.41 20.4167C146.41 20.8333 146.41 21.4167 146.497 22.25C146.584 23.0833 146.584 23.6667 146.584 24.0833C146.584 25.1667 146.497 26.4167 146.41 27.9167C146.148 28.4167 146.148 28.75 146.148 28.75ZM143.623 21.8333C143.623 21.0833 143.623 20.5833 143.623 20.4167C143.623 20.0833 143.535 19.8333 143.535 19.75C143.535 19.6667 143.535 19.5 143.535 19.25C143.535 19.0833 143.535 18.9167 143.535 18.75C143.535 18.5833 143.448 18.5 143.361 18.4167C143.361 18.4167 143.187 18.4167 143.013 18.4167C142.142 18.4167 141.358 18.6667 140.661 19.0833C139.877 19.5833 139.529 20.25 139.529 21C139.529 21.6667 139.703 22.25 140.139 22.6667C140.574 23.0833 141.097 23.25 141.794 23.25C141.968 23.25 142.229 23.25 142.577 23.1667C142.926 23.0833 143.187 23.0833 143.361 23.0833C143.535 22.9167 143.623 22.5 143.623 21.8333Z" fill="white"/>
<path d="M168.794 31.666C168.794 32.166 168.619 32.416 168.271 32.416C166.965 32.416 166.268 31.9993 166.268 31.0827C166.268 30.666 166.268 29.9993 166.181 29.0827C166.094 28.166 166.094 27.4994 166.094 27.0827C166.094 26.7494 166.094 26.166 166.181 25.4993C166.268 24.8327 166.268 24.2493 166.268 23.916C166.268 23.5827 166.268 23.0827 166.181 22.4994C166.094 21.8327 166.094 21.416 166.094 21.0827C166.094 20.7494 166.094 20.166 166.181 19.4993C166.268 18.7493 166.268 18.2494 166.268 17.916C166.094 17.916 165.745 17.9993 165.397 18.0827C164.526 18.2493 164.003 18.3327 163.829 18.3327C163.742 18.3327 163.655 18.3327 163.568 18.3327C163.394 18.3327 163.306 18.3327 163.306 18.3327H162.871C162.871 18.4994 162.871 18.8327 162.871 19.2493C162.871 19.666 162.871 19.916 162.871 20.166C162.871 20.8327 162.871 21.8327 162.784 23.2493C162.784 24.5827 162.697 25.5827 162.697 26.3327C162.697 27.666 162.697 28.5827 162.697 28.8327C162.697 29.4993 162.697 29.8327 162.697 29.9994C162.697 30.0827 162.697 30.2494 162.697 30.416C162.697 30.5827 162.697 30.7494 162.697 30.8327C162.697 30.916 162.697 31.0827 162.697 31.3327C162.697 31.5827 162.697 31.7493 162.697 31.8327C162.697 31.916 162.697 31.9994 162.697 32.0827C162.697 32.2494 162.697 32.3327 162.697 32.3327C162.697 32.416 162.697 32.4993 162.61 32.5827C162.523 32.5827 162.523 32.666 162.435 32.666C162.348 32.666 162.261 32.666 162.174 32.5827C162 32.5827 161.913 32.5827 161.826 32.5827C161.042 32.5827 160.519 32.416 160.345 32.0827C160.171 31.7494 159.997 30.9993 159.997 29.8327C159.997 29.166 159.997 28.0827 159.91 26.7493C159.91 25.3327 159.823 24.3327 159.823 23.666C159.823 23.0827 159.823 22.2494 159.91 21.0827C159.997 19.916 159.997 19.0827 159.997 18.4993C159.997 18.416 159.91 18.2493 159.823 18.0827C159.648 17.8327 159.648 17.5827 159.648 17.3327C159.648 16.666 159.735 16.2493 159.91 16.0827C160.084 15.916 160.432 15.8327 160.868 15.8327C161.652 15.8327 163.394 15.5827 166.094 15.166C166.181 14.8327 166.442 14.666 166.965 14.666C167.139 14.666 167.313 14.666 167.574 14.7493C167.835 14.8327 168.097 14.8327 168.184 14.8327C168.271 14.8327 168.445 14.9993 168.619 15.166C168.794 15.416 168.881 15.5827 168.881 15.666C168.881 15.7493 168.881 15.8327 168.794 15.9993C168.794 16.166 168.706 16.3327 168.706 16.416C168.706 16.4993 168.706 16.666 168.794 16.8327C168.794 16.9993 168.881 17.166 168.881 17.2493C168.881 17.4993 168.881 17.8327 168.794 18.3327C168.794 18.8327 168.706 19.166 168.706 19.416C168.706 19.7494 168.706 20.3327 168.794 21.0827C168.794 21.8327 168.881 22.416 168.881 22.7493C168.881 23.7493 168.881 25.166 168.794 27.166C168.881 29.166 168.794 30.666 168.794 31.666Z" fill="white"/>
<path d="M180.726 20.2497C180.726 21.333 180.465 22.4163 179.855 23.4163C179.245 24.4997 178.548 25.2497 177.59 25.833C176.981 26.083 176.197 26.4163 175.065 26.9163V28.583C175.065 28.833 175.065 29.1663 175.152 29.583C175.152 29.9997 175.239 30.333 175.239 30.583C175.239 30.7497 175.239 30.9997 175.152 31.2497C175.065 31.583 175.065 31.7497 175.065 31.9163C175.065 31.9997 175.065 31.9997 175.152 32.083C175.239 32.1663 175.239 32.2497 175.239 32.333C175.239 32.833 174.977 33.083 174.455 33.083C173.148 33.083 172.452 32.583 172.365 31.4997C172.277 30.2497 172.277 28.2497 172.277 25.6663C172.277 25.2497 172.277 24.583 172.277 23.7497C172.277 22.9163 172.277 22.2497 172.277 21.833C172.277 21.2497 172.277 20.333 172.277 19.1663C172.277 17.9997 172.277 17.083 172.277 16.4997C172.277 15.9163 172.887 15.583 174.194 15.583H175.5C176.11 15.583 176.632 15.6663 177.068 15.7497C177.939 15.9997 178.81 16.583 179.594 17.4997C180.29 18.4997 180.726 19.4163 180.726 20.2497ZM177.503 20.333C177.503 19.6663 177.416 19.1663 177.242 18.9163C176.981 18.4997 176.545 18.333 175.848 18.333H175.5C175.326 18.333 175.152 18.4163 175.152 18.4997C175.065 18.583 175.065 18.9997 175.065 19.7497C175.065 19.9163 175.065 20.083 175.065 20.333C175.065 20.583 175.065 20.7497 175.065 20.9163C175.065 20.9997 175.065 21.1663 175.065 21.4163C175.065 21.6663 175.065 21.833 175.065 21.9163C175.065 21.9997 175.065 22.1663 175.065 22.4163C175.065 22.6663 175.065 22.833 175.065 22.9163C175.065 22.9997 175.065 23.083 175.065 23.2497C175.065 23.4163 175.065 23.4997 175.065 23.583C175.065 23.9163 175.152 24.083 175.326 24.083C176.023 24.083 176.545 23.6663 177.068 22.833C177.329 22.083 177.503 21.2497 177.503 20.333Z" fill="white"/>
<path d="M191.787 32.2493C191.787 32.3327 191.7 32.416 191.613 32.4993C191.526 32.5827 191.352 32.666 191.264 32.666C191.177 32.666 191.177 32.666 191.003 32.5827C190.916 32.5827 190.829 32.4993 190.742 32.4993C190.655 32.4993 190.568 32.4993 190.394 32.5827C190.306 32.666 190.132 32.666 190.132 32.666C189.61 32.666 189.174 32.0827 188.826 30.9993C188.826 30.8327 188.739 30.666 188.739 30.416C188.564 29.666 188.39 28.916 188.129 28.3327C188.042 28.166 187.955 27.9993 187.868 27.8327H187.345C185.516 27.8327 184.558 27.916 184.471 28.166C184.384 28.3327 184.297 28.7493 184.123 29.416C183.948 30.2493 183.861 30.666 183.774 30.8327C183.513 31.666 183.339 32.3327 183.339 32.666C183.339 33.2493 183.077 33.4993 182.468 33.4993C182.119 33.4993 181.858 33.4993 181.51 33.416C181.074 33.3327 180.813 33.0827 180.813 32.916C180.813 32.8327 180.813 32.8327 180.813 32.7493C180.813 32.666 180.813 32.5827 180.813 32.5827C180.813 32.2493 180.9 31.666 180.9 30.916C181.248 28.166 181.945 25.0827 183.164 21.5827V21.4993C183.426 20.3327 183.774 19.166 184.035 17.9993C184.471 16.2493 184.819 15.416 185.168 15.416C185.69 15.416 186.387 15.4993 187.171 15.666C188.216 15.8327 188.739 16.0827 188.739 16.416V16.4993C188.739 16.5827 188.739 16.5827 188.739 16.5827C188.739 16.5827 188.739 16.8327 188.826 17.2493C189 18.2493 189.261 19.666 189.61 21.5827C189.958 23.166 190.132 24.0827 190.132 24.3327C190.132 24.8327 190.219 25.5827 190.481 26.416C190.655 27.166 190.829 27.9993 191.003 28.8327C191.09 29.416 191.264 30.2493 191.439 31.416C191.439 31.4993 191.526 31.666 191.526 31.8327C191.7 31.9993 191.787 32.166 191.787 32.2493ZM187.781 25.166C187.781 24.7493 187.694 24.166 187.519 23.416C187.258 22.3327 187.171 21.7493 187.171 21.666C187.171 21.5827 187.171 21.416 187.084 21.2493C186.91 20.3327 186.735 19.8327 186.648 19.8327C186.648 19.916 186.561 20.166 186.474 20.5827C185.603 23.5827 185.081 25.2493 185.081 25.416C185.081 25.4993 185.342 25.5827 185.777 25.5827C185.864 25.5827 185.952 25.5827 186.126 25.5827C186.3 25.5827 186.387 25.5827 186.474 25.5827C187.258 25.666 187.781 25.4993 187.781 25.166Z" fill="white"/>
<path d="M202.413 27.1663C202.413 27.833 202.152 28.583 201.716 29.4163C201.019 30.6663 199.539 31.6663 197.448 32.4163C196.49 32.7497 195.794 32.9163 195.358 32.9163C193.79 32.9163 193.006 32.2497 193.006 30.833C193.006 30.2497 193.442 29.9163 194.313 29.9163C194.574 29.9163 194.748 29.9163 194.923 29.9997C195.097 30.083 195.184 30.083 195.271 30.083C196.142 30.083 197.1 29.7497 198.058 29.083C199.103 28.4163 199.626 27.6663 199.626 26.833C199.626 26.2497 199.452 25.7497 199.016 25.2497C198.581 24.833 198.058 24.583 197.448 24.583C197.013 24.583 196.577 24.6663 196.229 24.9163C195.881 25.1663 195.619 25.2497 195.445 25.2497C195.01 25.2497 194.748 25.1663 194.574 25.083C194.4 24.9163 194.313 24.6663 194.313 24.333C194.313 23.7497 194.4 23.333 194.661 23.083C194.923 22.833 195.358 22.583 195.968 22.2497C197.1 21.7497 197.71 21.4163 198.058 21.2497C198.929 20.7497 199.452 20.2497 199.626 19.7497C199.713 19.4997 199.8 19.1663 199.8 18.7497C199.8 18.6663 199.713 18.583 199.539 18.4163C199.365 18.2497 199.103 18.1663 198.668 18.1663C198.058 18.1663 197.535 18.2497 197.013 18.4163C196.49 18.583 196.055 18.833 195.445 19.2497C195.097 19.4997 194.923 19.583 194.748 19.583C194.661 19.583 194.574 19.4997 194.4 19.4163C193.877 18.9163 193.616 18.333 193.616 17.6663C193.616 17.2497 194.052 16.833 194.923 16.4163C195.532 16.1663 196.142 15.9163 196.752 15.7497C197.274 15.6663 197.71 15.583 198.058 15.583C199.452 15.583 200.584 15.9997 201.455 16.833C201.977 17.4163 202.326 18.1663 202.326 19.1663C202.326 19.7497 201.89 20.583 201.106 21.583C200.845 21.9163 200.497 22.1663 200.148 22.4163C199.8 22.583 199.626 22.7497 199.626 22.833C199.626 22.833 199.713 22.9163 199.887 22.9163C200.235 22.9997 200.758 23.2497 201.368 23.6663C201.977 24.333 202.413 25.583 202.413 27.1663Z" fill="white"/>
<path d="M216.087 31.1667C216.087 31.3333 216.087 31.9167 216 33C215.913 34.0833 215.913 34.5833 215.913 34.6667C215.826 34.75 215.564 34.8333 215.129 34.8333C214.955 34.8333 214.606 34.75 214.258 34.6667C213.823 34.5833 213.561 34.4167 213.561 34.3333C213.561 34.25 213.735 33.5 213.997 32.25C212.69 32.3333 210.6 32.5 207.987 32.75C207.377 32.8333 206.332 32.9167 205.113 33.0833C205.2 33.6667 205.287 34.25 205.287 34.75C205.287 35.1667 204.939 35.4167 204.155 35.4167C203.371 35.4167 203.023 35.3333 203.023 35.1667C203.023 34.9167 203.023 34.5 203.11 33.9167C203.197 33.3333 203.197 32.9167 203.197 32.6667C203.197 32.5833 203.197 32.5 203.197 32.4167C203.11 32.3333 203.11 32.1667 203.11 31.9167C203.11 31.25 203.632 30.9167 204.677 30.9167C205.548 26.8333 206.245 23.6667 206.855 21.5C207.029 20.9167 207.29 20 207.552 18.75C208.074 16.5833 208.423 15.5 208.771 15.5C208.858 15.5 209.032 15.5 209.294 15.5833C210.6 15.8333 211.558 16 211.994 16C212.255 16 212.342 16.0833 212.429 16.1667C212.516 16.5 212.516 16.9167 212.603 17.4167C212.777 18.1667 212.952 19.25 213.213 20.75C213.213 20.8333 213.3 21.3333 213.474 22.25C213.561 22.8333 213.648 23.3333 213.648 23.75C213.648 24.25 213.735 25.25 213.91 26.8333C214.084 28.5 214.171 29.4167 214.258 29.6667C214.345 29.9167 214.519 30 214.694 30C215.216 30 215.477 30 215.652 30C216 30.0833 216.174 30.25 216.261 30.5C216.087 30.5833 216.087 30.8333 216.087 31.1667ZM211.645 30.0833C211.645 29.5 211.558 28.6667 211.297 27.5C211.123 26.4167 210.948 25.5 210.948 24.9167C210.948 24.6667 210.861 24.25 210.774 23.6667C210.513 22.6667 210.164 21.25 209.729 19.5833C209.642 19.75 209.468 20.5 209.119 21.75C208.945 22.5 208.597 23.6667 208.248 25.1667C208.074 25.9167 207.9 26.9167 207.552 28.4167C207.464 28.9167 207.29 29.5833 207.116 30.5H207.29C207.813 30.5 208.51 30.4167 209.468 30.3333C210.426 30.1667 211.123 30.0833 211.645 30.0833Z" fill="white"/>
<path d="M226.277 24.9997C226.277 25.2497 226.277 25.583 226.277 26.083C226.277 26.583 226.277 26.9163 226.277 27.1663C226.277 27.6663 226.277 28.4163 226.19 29.4163C226.103 30.4163 226.103 31.1663 226.103 31.6663C226.103 31.9163 226.016 32.083 225.929 32.1663C225.842 32.2497 225.668 32.333 225.494 32.333C224.187 32.333 223.49 31.9163 223.49 31.083C223.49 30.6663 223.49 29.9997 223.403 29.083C223.316 28.1663 223.403 27.4997 223.403 27.083C223.403 26.9163 223.403 26.6663 223.49 26.4163C223.49 26.083 223.577 25.9163 223.577 25.7497C223.577 25.333 223.49 25.083 223.316 25.083C223.142 25.083 222.881 25.083 222.532 25.1663C222.184 25.2497 221.923 25.2497 221.748 25.2497H221.661C221.574 25.2497 221.574 25.2497 221.487 25.2497C220.965 25.2497 220.529 25.333 220.268 25.4163C220.181 25.4163 220.181 26.2497 220.181 27.833C220.181 28.083 220.181 28.4997 220.181 28.9997C220.181 29.4997 220.181 29.9163 220.181 30.1663C220.181 30.2497 220.181 30.333 220.181 30.4163C220.181 30.4997 220.181 30.6663 220.181 30.6663C220.181 30.7497 220.181 30.9997 220.181 31.2497C220.181 31.4997 220.181 31.6663 220.181 31.833C220.181 31.9163 220.181 31.9163 220.181 32.083C220.181 32.1663 220.181 32.2497 220.181 32.333C220.181 32.583 220.094 32.6663 219.832 32.6663C219.745 32.6663 219.658 32.6663 219.571 32.583C219.223 32.583 219.135 32.583 219.048 32.583C218.265 32.583 217.742 32.4163 217.568 32.083C217.394 31.6663 217.306 30.9163 217.306 29.833C217.306 29.1663 217.306 28.083 217.219 26.7497C217.132 25.4163 217.132 24.333 217.132 23.6663C217.132 23.083 217.132 22.4163 217.219 21.583C217.306 20.4163 217.306 19.7497 217.306 19.4997C217.306 18.9997 217.306 18.2497 217.306 17.2497C217.306 16.9997 217.394 16.7497 217.568 16.4163C217.742 16.083 217.916 15.9163 218.09 15.9163C218.961 15.9163 219.484 15.9997 219.658 16.1663C219.919 16.333 220.006 16.833 220.006 17.583C220.006 17.833 220.006 18.1663 220.006 18.583C220.006 18.9997 220.006 19.333 220.006 19.583C220.006 19.833 220.006 20.1663 220.006 20.583C220.006 20.9997 220.006 21.333 220.006 21.583C220.006 21.6663 220.006 21.833 220.006 21.9997C220.006 22.1663 220.006 22.333 220.006 22.333C220.006 22.4163 220.006 22.4997 220.094 22.4997C220.181 22.4997 220.355 22.4997 220.529 22.4997C220.703 22.4997 220.877 22.4997 220.965 22.4997C220.965 22.4997 221.052 22.4997 221.139 22.4997C221.226 22.4997 221.313 22.4997 221.313 22.4997C221.487 22.4997 221.748 22.4997 222.01 22.4163C222.358 22.333 222.532 22.333 222.706 22.333C222.794 22.333 222.794 22.333 222.881 22.333C222.968 22.333 223.055 22.333 223.055 22.333C223.055 22.333 223.142 22.2497 223.142 21.9997C223.229 21.1663 223.316 19.583 223.316 17.083C223.316 16.9163 223.316 16.583 223.229 16.2497C223.142 15.9163 223.142 15.583 223.142 15.4163C223.142 15.083 223.229 14.833 223.316 14.7497C223.403 14.6663 223.665 14.583 224.013 14.583C224.448 14.583 224.884 14.6663 225.232 14.833C225.755 15.083 225.929 15.333 225.929 15.6663C225.929 15.7497 225.929 15.9163 225.929 16.083C225.929 16.2497 225.929 16.333 225.929 16.4997C225.929 16.583 225.929 16.833 225.929 17.083C225.929 17.333 225.929 17.4997 225.929 17.6663C225.929 17.9163 225.929 18.2497 225.929 18.6663C225.929 19.083 225.929 19.4163 225.929 19.6663C225.929 19.9997 225.929 20.583 225.929 21.2497C225.929 21.9997 225.929 22.4997 225.929 22.833C225.929 23.083 225.929 23.4163 225.929 23.9163C226.277 24.333 226.277 24.7497 226.277 24.9997Z" fill="white"/>
<path d="M239.081 28.25C239.081 28.5833 239.081 29.1667 238.994 29.8333C238.906 30.5 238.906 31 238.906 31.3333C238.906 31.6667 238.906 31.9167 238.819 32C238.732 32.0833 238.558 32.1667 238.297 32.1667C238.21 32.1667 238.035 32.25 237.774 32.4167C237.513 32.5 237.339 32.5833 237.077 32.5833C236.729 32.5833 236.468 32.4167 236.381 32.0833C236.294 31.9167 236.294 31.5833 236.294 31.0833C236.294 30.9167 236.294 30.6667 236.294 30.3333C236.294 30 236.294 29.75 236.294 29.5833C236.294 29.4167 236.294 29.0833 236.294 28.75C236.294 28.4167 236.294 28.0833 236.294 27.9167C236.294 27.5833 236.381 26.5833 236.468 24.75C236.468 24.1667 236.555 23.8333 236.555 23.75C236.555 23.4167 236.555 23.25 236.468 23.25C236.381 23.25 236.206 23.5 235.945 24.0833C235.858 24.3333 235.771 24.6667 235.597 25.1667C235.074 26.1667 234.639 27.25 234.203 28.5C233.768 29.75 233.158 31.0833 232.548 32.3333C232.2 32.9167 231.765 33.25 231.242 33.25C230.981 33.25 230.719 33.1667 230.545 33C230.284 32.8333 230.11 32.75 230.11 32.75C229.674 32.75 229.5 31.9167 229.5 30.1667C229.5 29.5833 229.5 28.6667 229.587 27.5C229.587 26.3333 229.674 25.4167 229.674 24.8333C229.674 24.5 229.674 24 229.674 23.3333C229.674 22.6667 229.674 22.1667 229.674 21.8333C229.674 21.3333 229.674 20.5833 229.761 19.5833C229.761 18.5833 229.848 17.8333 229.848 17.3333C229.848 16.5833 230.458 16.25 231.765 16.25C232.026 16.25 232.2 16.3333 232.287 16.4167C232.113 16.5 232.113 16.75 232.113 17C232.113 17.9167 232.113 19.25 232.2 21C232.287 22.75 232.287 24.1667 232.287 25C232.287 25.25 232.287 25.5833 232.287 26C232.287 26.4167 232.287 26.75 232.287 27C232.287 27.1667 232.287 27.25 232.374 27.25C232.548 27.25 232.723 26.9167 232.984 26.25C233.506 25 234.116 23.3333 234.726 21.25C234.987 20.25 235.335 19.25 235.597 18.3333C236.119 16.75 236.468 15.9167 236.642 15.75C236.816 15.6667 237.077 15.5833 237.426 15.4167C237.861 15.3333 238.123 15.25 238.297 15.25C238.471 15.25 238.558 15.25 238.645 15.3333C238.732 15.4167 238.819 16.0833 238.906 17.3333C238.994 18.4167 238.994 19.1667 238.994 19.5833C238.994 20.1667 238.994 21 238.906 22.0833C238.819 23.1667 238.819 24 238.819 24.5833C238.819 25 238.819 25.5833 238.906 26.4167C238.994 27.25 239.081 27.8333 239.081 28.25Z" fill="white"/>
<path d="M252.668 16.5827C252.668 16.8327 251.884 18.0827 250.229 20.416C248.661 22.7494 247.79 24.0827 247.79 24.416C247.79 24.4994 248.574 25.5827 250.055 27.7494C251.535 29.916 252.319 31.0827 252.319 31.3327C252.319 31.416 252.145 31.666 251.797 31.9993C251.448 32.3327 251.187 32.4994 251.1 32.4994C251.013 32.4994 250.665 32.2493 250.229 31.8327C249.619 31.2493 248.835 30.3327 248.052 29.2493C246.919 27.7493 246.223 26.916 245.961 26.5827C245.613 26.2493 245.439 26.0827 245.352 26.0827C245.352 26.0827 245.352 26.0827 245.265 26.0827V26.3327C245.265 26.416 245.265 26.5827 245.352 26.7493C245.352 26.916 245.439 27.0827 245.439 27.166C245.439 27.7493 245.439 28.666 245.352 30.0827C245.265 31.666 245.177 32.4993 245.09 32.666C245.003 32.8327 244.829 32.916 244.742 32.916C244.394 32.916 243.958 32.8327 243.435 32.666C242.826 32.416 242.565 32.166 242.565 31.8327V27.9993C242.565 27.416 242.565 26.4994 242.652 25.2494C242.739 23.9994 242.739 23.166 242.739 22.4994C242.739 22.166 242.739 21.666 242.739 21.0827C242.739 20.4994 242.739 19.9994 242.739 19.666C242.739 18.4994 242.826 17.4994 242.913 16.7494C243 15.9994 243.087 15.666 243.261 15.666C243.61 15.666 243.958 15.666 244.394 15.7493C244.916 15.8327 245.265 15.9993 245.439 16.166C245.526 16.3327 245.613 17.5827 245.7 19.916V20.0827C245.7 20.3327 245.7 20.666 245.613 21.166C245.7 21.666 245.7 21.9993 245.7 22.2493C245.7 22.7493 245.7 22.9994 245.787 22.9994C245.874 22.9994 246.745 21.666 248.4 19.0827C250.055 16.4993 251.013 15.166 251.361 15.166C251.535 15.166 251.884 15.3327 252.406 15.7493C252.406 16.166 252.668 16.416 252.668 16.5827Z" fill="white"/>
<path d="M263.468 32.2493C263.468 32.3327 263.381 32.416 263.294 32.4993C263.119 32.5827 263.032 32.666 262.945 32.666C262.858 32.666 262.858 32.666 262.684 32.5827C262.597 32.5827 262.51 32.4993 262.423 32.4993C262.335 32.4993 262.248 32.4993 262.074 32.5827C261.9 32.666 261.813 32.666 261.813 32.666C261.29 32.666 260.855 32.0827 260.506 30.9993C260.506 30.8327 260.419 30.666 260.419 30.416C260.245 29.666 260.071 28.916 259.81 28.3327C259.723 28.166 259.635 27.9993 259.548 27.8327H259.026C257.197 27.8327 256.239 27.916 256.152 28.166C256.064 28.3327 255.977 28.7493 255.803 29.416C255.629 30.2493 255.542 30.666 255.455 30.8327C255.194 31.666 255.019 32.3327 255.019 32.666C255.019 33.2493 254.758 33.4993 254.148 33.4993C253.8 33.4993 253.539 33.4993 253.19 33.416C252.755 33.3327 252.494 33.0827 252.494 32.916C252.494 32.8327 252.494 32.8327 252.494 32.7493C252.494 32.666 252.494 32.5827 252.494 32.5827C252.494 32.2493 252.581 31.666 252.581 30.916C252.929 28.166 253.626 25.0827 254.845 21.5827V21.4993C255.106 20.3327 255.455 19.166 255.716 17.9993C256.152 16.2493 256.5 15.416 256.848 15.416C257.371 15.416 258.068 15.4993 258.852 15.666C259.897 15.8327 260.419 16.0827 260.419 16.416V16.4993C260.419 16.5827 260.419 16.5827 260.419 16.5827C260.419 16.5827 260.419 16.8327 260.506 17.2493C260.681 18.2493 260.942 19.666 261.29 21.5827C261.639 23.166 261.813 24.0827 261.813 24.3327C261.813 24.8327 261.9 25.5827 262.161 26.416C262.335 27.166 262.51 27.9993 262.684 28.8327C262.771 29.416 262.945 30.2493 263.119 31.416C263.119 31.4993 263.206 31.666 263.206 31.8327C263.468 31.9993 263.468 32.166 263.468 32.2493ZM259.461 25.166C259.461 24.7493 259.374 24.166 259.2 23.416C258.939 22.3327 258.852 21.7493 258.852 21.666C258.852 21.5827 258.852 21.416 258.764 21.2493C258.59 20.3327 258.416 19.8327 258.329 19.8327C258.329 19.916 258.242 20.166 258.155 20.5827C257.284 23.5827 256.761 25.2493 256.761 25.416C256.761 25.4993 257.023 25.5827 257.458 25.5827C257.545 25.5827 257.632 25.5827 257.806 25.5827C257.981 25.5827 258.068 25.5827 258.155 25.5827C259.026 25.666 259.461 25.4993 259.461 25.166Z" fill="white"/>
<defs>
<clipPath id="clip0_110_2189">
<rect width="50" height="50" rx="25" fill="white"/>
</clipPath>
</defs>
</svg>
