<svg width="270" height="40" viewBox="0 0 270 40" fill="none" xmlns="http://www.w3.org/2000/svg">
<rect width="270" height="40" fill="url(#paint0_linear_110_6165)"/>
<path d="M27.6076 13.1797H22.3985C20.0749 13.1797 18.1876 15.067 18.1876 17.3906V22.5997C18.1876 24.9233 20.0749 26.8106 22.3985 26.8106H27.6076C29.9313 26.8106 31.8185 24.9233 31.8185 22.5997V17.3906C31.8185 15.067 29.9313 13.1797 27.6076 13.1797ZM30.2967 22.6051C30.2967 24.0888 29.0913 25.2997 27.6022 25.2997H22.3931C20.9094 25.2997 19.6985 24.0942 19.6985 22.6051V17.3961C19.6985 15.9124 20.904 14.7015 22.3931 14.7015H27.6022C29.0858 14.7015 30.2967 15.907 30.2967 17.3961V22.6051Z" fill="white"/>
<path d="M25.0006 16.5127C23.0806 16.5127 21.5151 18.0781 21.5151 19.9981C21.5151 21.9181 23.0806 23.4836 25.0006 23.4836C26.9206 23.4836 28.486 21.9181 28.486 19.9981C28.486 18.0781 26.9206 16.5127 25.0006 16.5127ZM25.0006 22.1145C23.8333 22.1145 22.8842 21.1654 22.8842 19.9981C22.8842 18.8309 23.8333 17.8818 25.0006 17.8818C26.1679 17.8818 27.117 18.8309 27.117 19.9981C27.117 21.1654 26.1679 22.1145 25.0006 22.1145Z" fill="white"/>
<path d="M28.7513 16.8919C29.0724 16.8398 29.2905 16.5373 29.2384 16.2162C29.1864 15.895 28.8839 15.6769 28.5628 15.729C28.2416 15.781 28.0235 16.0836 28.0756 16.4047C28.1276 16.7258 28.4301 16.9439 28.7513 16.8919Z" fill="white"/>
<path d="M51.54 24.5C51.4373 24.5 51.358 24.472 51.302 24.416C51.246 24.3507 51.218 24.2713 51.218 24.178V15.036C51.218 14.9333 51.246 14.854 51.302 14.798C51.358 14.7327 51.4373 14.7 51.54 14.7H52.254C52.3567 14.7 52.436 14.7327 52.492 14.798C52.5573 14.854 52.59 14.9333 52.59 15.036V18.9H57.406V15.036C57.406 14.9333 57.434 14.854 57.49 14.798C57.5553 14.7327 57.6347 14.7 57.728 14.7H58.442C58.5447 14.7 58.624 14.7327 58.68 14.798C58.7453 14.854 58.778 14.9333 58.778 15.036V24.178C58.778 24.2713 58.7453 24.3507 58.68 24.416C58.624 24.472 58.5447 24.5 58.442 24.5H57.728C57.6347 24.5 57.5553 24.472 57.49 24.416C57.434 24.3507 57.406 24.2713 57.406 24.178V20.16H52.59V24.178C52.59 24.2713 52.5573 24.3507 52.492 24.416C52.436 24.472 52.3567 24.5 52.254 24.5H51.54ZM63.9985 24.64C63.2891 24.64 62.6965 24.5047 62.2205 24.234C61.7445 23.9633 61.3805 23.59 61.1285 23.114C60.8765 22.6287 60.7365 22.078 60.7085 21.462C60.6991 21.3033 60.6945 21.1027 60.6945 20.86C60.6945 20.608 60.6991 20.4073 60.7085 20.258C60.7365 19.6327 60.8765 19.082 61.1285 18.606C61.3898 18.13 61.7585 17.7567 62.2345 17.486C62.7105 17.2153 63.2985 17.08 63.9985 17.08C64.6985 17.08 65.2865 17.2153 65.7625 17.486C66.2385 17.7567 66.6025 18.13 66.8545 18.606C67.1158 19.082 67.2605 19.6327 67.2885 20.258C67.2978 20.4073 67.3025 20.608 67.3025 20.86C67.3025 21.1027 67.2978 21.3033 67.2885 21.462C67.2605 22.078 67.1205 22.6287 66.8685 23.114C66.6165 23.59 66.2525 23.9633 65.7765 24.234C65.3005 24.5047 64.7078 24.64 63.9985 24.64ZM63.9985 23.562C64.5771 23.562 65.0391 23.38 65.3845 23.016C65.7298 22.6427 65.9165 22.1013 65.9445 21.392C65.9538 21.252 65.9585 21.0747 65.9585 20.86C65.9585 20.6453 65.9538 20.468 65.9445 20.328C65.9165 19.6187 65.7298 19.082 65.3845 18.718C65.0391 18.3447 64.5771 18.158 63.9985 18.158C63.4198 18.158 62.9531 18.3447 62.5985 18.718C62.2531 19.082 62.0711 19.6187 62.0525 20.328C62.0431 20.468 62.0385 20.6453 62.0385 20.86C62.0385 21.0747 62.0431 21.252 62.0525 21.392C62.0711 22.1013 62.2531 22.6427 62.5985 23.016C62.9531 23.38 63.4198 23.562 63.9985 23.562ZM69.3775 24.5C69.2842 24.5 69.2049 24.472 69.1395 24.416C69.0835 24.3507 69.0555 24.2713 69.0555 24.178V17.542C69.0555 17.4487 69.0835 17.374 69.1395 17.318C69.2049 17.2527 69.2842 17.22 69.3775 17.22H72.2895C73.1669 17.22 73.8249 17.3973 74.2635 17.752C74.7115 18.1067 74.9355 18.5827 74.9355 19.18C74.9355 19.6 74.8562 19.9173 74.6975 20.132C74.5389 20.3467 74.3149 20.5287 74.0255 20.678C74.3802 20.8273 74.6462 21.07 74.8235 21.406C75.0102 21.7327 75.1035 22.0733 75.1035 22.428C75.1035 23.1 74.8655 23.6133 74.3895 23.968C73.9135 24.3227 73.2509 24.5 72.4015 24.5H69.3775ZM70.3435 23.478H72.2895C72.7375 23.478 73.0969 23.394 73.3675 23.226C73.6475 23.0487 73.7875 22.7827 73.7875 22.428C73.7875 22.0547 73.6615 21.784 73.4095 21.616C73.1575 21.4387 72.7842 21.35 72.2895 21.35H70.3435V23.478ZM70.3435 20.314H72.2055C72.6535 20.314 73.0082 20.216 73.2695 20.02C73.5402 19.824 73.6755 19.5487 73.6755 19.194C73.6755 18.83 73.5402 18.5827 73.2695 18.452C73.0082 18.312 72.6535 18.242 72.2055 18.242H70.3435V20.314ZM77.2112 24.5C77.1272 24.5 77.0525 24.472 76.9872 24.416C76.9312 24.3507 76.9032 24.2807 76.9032 24.206V17.542C76.9032 17.4487 76.9312 17.374 76.9872 17.318C77.0525 17.2527 77.1319 17.22 77.2252 17.22H77.8972C77.9905 17.22 78.0652 17.2527 78.1212 17.318C78.1772 17.374 78.2052 17.4487 78.2052 17.542V23.478L77.8412 23.1L82.0832 17.43C82.1299 17.374 82.1812 17.3273 82.2372 17.29C82.2932 17.2433 82.3632 17.22 82.4472 17.22H83.0912C83.1659 17.22 83.2312 17.248 83.2872 17.304C83.3525 17.36 83.3852 17.4253 83.3852 17.5V24.178C83.3852 24.2713 83.3525 24.3507 83.2872 24.416C83.2312 24.472 83.1565 24.5 83.0632 24.5H82.4052C82.3025 24.5 82.2232 24.472 82.1672 24.416C82.1112 24.3507 82.0832 24.2713 82.0832 24.178V18.592L82.4752 18.578L78.2052 24.29C78.1679 24.3367 78.1212 24.3833 78.0652 24.43C78.0092 24.4767 77.9345 24.5 77.8412 24.5H77.2112ZM85.7564 24.5C85.6631 24.5 85.5838 24.472 85.5184 24.416C85.4624 24.3507 85.4344 24.2713 85.4344 24.178V17.542C85.4344 17.4487 85.4624 17.374 85.5184 17.318C85.5838 17.2527 85.6631 17.22 85.7564 17.22H86.4284C86.5218 17.22 86.5964 17.2527 86.6524 17.318C86.7084 17.374 86.7364 17.4487 86.7364 17.542V20.23H90.5584V17.542C90.5584 17.4487 90.5864 17.374 90.6424 17.318C90.7078 17.2527 90.7871 17.22 90.8804 17.22H91.5384C91.6318 17.22 91.7064 17.2527 91.7624 17.318C91.8278 17.374 91.8604 17.4487 91.8604 17.542V24.178C91.8604 24.2713 91.8278 24.3507 91.7624 24.416C91.7064 24.472 91.6318 24.5 91.5384 24.5H90.8804C90.7871 24.5 90.7078 24.472 90.6424 24.416C90.5864 24.3507 90.5584 24.2713 90.5584 24.178V21.35H86.7364V24.178C86.7364 24.2713 86.7084 24.3507 86.6524 24.416C86.5964 24.472 86.5218 24.5 86.4284 24.5H85.7564ZM94.2877 24.5C94.1944 24.5 94.115 24.472 94.0497 24.416C93.9937 24.3507 93.9657 24.2713 93.9657 24.178V17.542C93.9657 17.4487 93.9937 17.374 94.0497 17.318C94.115 17.2527 94.1944 17.22 94.2877 17.22H94.9457C95.039 17.22 95.1137 17.2527 95.1697 17.318C95.235 17.374 95.2677 17.4487 95.2677 17.542V20.23H96.5417L98.4317 17.43C98.4784 17.3647 98.5297 17.3133 98.5857 17.276C98.6417 17.2387 98.7164 17.22 98.8097 17.22H99.5377C99.6217 17.22 99.6917 17.2387 99.7477 17.276C99.8037 17.3133 99.8317 17.3693 99.8317 17.444C99.8317 17.4627 99.8224 17.4907 99.8037 17.528C99.7944 17.556 99.7804 17.584 99.7617 17.612L97.6617 20.706L100.042 24.094C100.088 24.15 100.112 24.2107 100.112 24.276C100.112 24.3507 100.084 24.4067 100.028 24.444C99.981 24.4813 99.9157 24.5 99.8317 24.5H98.9777C98.8937 24.5 98.8237 24.4813 98.7677 24.444C98.7117 24.4067 98.6604 24.3553 98.6137 24.29L96.5557 21.364H95.2677V24.178C95.2677 24.2713 95.235 24.3507 95.1697 24.416C95.1137 24.472 95.039 24.5 94.9457 24.5H94.2877ZM101.78 24.5C101.696 24.5 101.621 24.472 101.556 24.416C101.5 24.3507 101.472 24.2807 101.472 24.206V17.542C101.472 17.4487 101.5 17.374 101.556 17.318C101.621 17.2527 101.7 17.22 101.794 17.22H102.466C102.559 17.22 102.634 17.2527 102.69 17.318C102.746 17.374 102.774 17.4487 102.774 17.542V23.478L102.41 23.1L106.652 17.43C106.698 17.374 106.75 17.3273 106.806 17.29C106.862 17.2433 106.932 17.22 107.016 17.22H107.66C107.734 17.22 107.8 17.248 107.856 17.304C107.921 17.36 107.954 17.4253 107.954 17.5V24.178C107.954 24.2713 107.921 24.3507 107.856 24.416C107.8 24.472 107.725 24.5 107.632 24.5H106.974C106.871 24.5 106.792 24.472 106.736 24.416C106.68 24.3507 106.652 24.2713 106.652 24.178V18.592L107.044 18.578L102.774 24.29C102.736 24.3367 102.69 24.3833 102.634 24.43C102.578 24.4767 102.503 24.5 102.41 24.5H101.78ZM113.742 24.5C113.658 24.5 113.584 24.472 113.518 24.416C113.462 24.3507 113.434 24.2807 113.434 24.206V17.542C113.434 17.4487 113.462 17.374 113.518 17.318C113.584 17.2527 113.663 17.22 113.756 17.22H114.428C114.522 17.22 114.596 17.2527 114.652 17.318C114.708 17.374 114.736 17.4487 114.736 17.542V23.478L114.372 23.1L118.614 17.43C118.661 17.374 118.712 17.3273 118.768 17.29C118.824 17.2433 118.894 17.22 118.978 17.22H119.622C119.697 17.22 119.762 17.248 119.818 17.304C119.884 17.36 119.916 17.4253 119.916 17.5V24.178C119.916 24.2713 119.884 24.3507 119.818 24.416C119.762 24.472 119.688 24.5 119.594 24.5H118.936C118.834 24.5 118.754 24.472 118.698 24.416C118.642 24.3507 118.614 24.2713 118.614 24.178V18.592L119.006 18.578L114.736 24.29C114.699 24.3367 114.652 24.3833 114.596 24.43C114.54 24.4767 114.466 24.5 114.372 24.5H113.742ZM128.337 24.64C127.675 24.64 127.101 24.514 126.615 24.262C126.139 24.0007 125.771 23.632 125.509 23.156C125.248 22.6707 125.108 22.092 125.089 21.42C125.08 21.28 125.075 21.0933 125.075 20.86C125.075 20.6267 125.08 20.44 125.089 20.3C125.108 19.628 125.248 19.054 125.509 18.578C125.771 18.0927 126.139 17.724 126.615 17.472C127.101 17.2107 127.675 17.08 128.337 17.08C128.879 17.08 129.341 17.1547 129.723 17.304C130.115 17.4533 130.437 17.6447 130.689 17.878C130.941 18.1113 131.128 18.3633 131.249 18.634C131.38 18.9047 131.45 19.1613 131.459 19.404C131.469 19.4973 131.441 19.572 131.375 19.628C131.31 19.684 131.231 19.712 131.137 19.712H130.465C130.372 19.712 130.302 19.6933 130.255 19.656C130.209 19.6093 130.162 19.5347 130.115 19.432C129.947 18.9747 129.719 18.6527 129.429 18.466C129.14 18.2793 128.781 18.186 128.351 18.186C127.791 18.186 127.334 18.3587 126.979 18.704C126.634 19.0493 126.447 19.6047 126.419 20.37C126.41 20.706 126.41 21.0327 126.419 21.35C126.447 22.1247 126.634 22.6847 126.979 23.03C127.334 23.366 127.791 23.534 128.351 23.534C128.781 23.534 129.14 23.4407 129.429 23.254C129.719 23.0673 129.947 22.7453 130.115 22.288C130.162 22.1853 130.209 22.1153 130.255 22.078C130.302 22.0313 130.372 22.008 130.465 22.008H131.137C131.231 22.008 131.31 22.036 131.375 22.092C131.441 22.148 131.469 22.2227 131.459 22.316C131.45 22.512 131.408 22.7127 131.333 22.918C131.259 23.1233 131.137 23.3333 130.969 23.548C130.811 23.7533 130.61 23.94 130.367 24.108C130.125 24.2667 129.831 24.3973 129.485 24.5C129.149 24.5933 128.767 24.64 128.337 24.64ZM136.104 24.64C135.395 24.64 134.802 24.5047 134.326 24.234C133.85 23.9633 133.486 23.59 133.234 23.114C132.982 22.6287 132.842 22.078 132.814 21.462C132.805 21.3033 132.8 21.1027 132.8 20.86C132.8 20.608 132.805 20.4073 132.814 20.258C132.842 19.6327 132.982 19.082 133.234 18.606C133.495 18.13 133.864 17.7567 134.34 17.486C134.816 17.2153 135.404 17.08 136.104 17.08C136.804 17.08 137.392 17.2153 137.868 17.486C138.344 17.7567 138.708 18.13 138.96 18.606C139.221 19.082 139.366 19.6327 139.394 20.258C139.403 20.4073 139.408 20.608 139.408 20.86C139.408 21.1027 139.403 21.3033 139.394 21.462C139.366 22.078 139.226 22.6287 138.974 23.114C138.722 23.59 138.358 23.9633 137.882 24.234C137.406 24.5047 136.813 24.64 136.104 24.64ZM136.104 23.562C136.683 23.562 137.145 23.38 137.49 23.016C137.835 22.6427 138.022 22.1013 138.05 21.392C138.059 21.252 138.064 21.0747 138.064 20.86C138.064 20.6453 138.059 20.468 138.05 20.328C138.022 19.6187 137.835 19.082 137.49 18.718C137.145 18.3447 136.683 18.158 136.104 18.158C135.525 18.158 135.059 18.3447 134.704 18.718C134.359 19.082 134.177 19.6187 134.158 20.328C134.149 20.468 134.144 20.6453 134.144 20.86C134.144 21.0747 134.149 21.252 134.158 21.392C134.177 22.1013 134.359 22.6427 134.704 23.016C135.059 23.38 135.525 23.562 136.104 23.562ZM141.483 24.5C141.39 24.5 141.31 24.472 141.245 24.416C141.189 24.3507 141.161 24.2713 141.161 24.178V17.542C141.161 17.4487 141.189 17.374 141.245 17.318C141.31 17.2527 141.39 17.22 141.483 17.22H144.395C145.272 17.22 145.93 17.3973 146.369 17.752C146.817 18.1067 147.041 18.5827 147.041 19.18C147.041 19.6 146.962 19.9173 146.803 20.132C146.644 20.3467 146.42 20.5287 146.131 20.678C146.486 20.8273 146.752 21.07 146.929 21.406C147.116 21.7327 147.209 22.0733 147.209 22.428C147.209 23.1 146.971 23.6133 146.495 23.968C146.019 24.3227 145.356 24.5 144.507 24.5H141.483ZM142.449 23.478H144.395C144.843 23.478 145.202 23.394 145.473 23.226C145.753 23.0487 145.893 22.7827 145.893 22.428C145.893 22.0547 145.767 21.784 145.515 21.616C145.263 21.4387 144.89 21.35 144.395 21.35H142.449V23.478ZM142.449 20.314H144.311C144.759 20.314 145.114 20.216 145.375 20.02C145.646 19.824 145.781 19.5487 145.781 19.194C145.781 18.83 145.646 18.5827 145.375 18.452C145.114 18.312 144.759 18.242 144.311 18.242H142.449V20.314ZM151.907 24.64C150.945 24.64 150.18 24.346 149.611 23.758C149.041 23.1607 148.729 22.3487 148.673 21.322C148.663 21.2007 148.659 21.0467 148.659 20.86C148.659 20.664 148.663 20.5053 148.673 20.384C148.71 19.7213 148.864 19.1427 149.135 18.648C149.405 18.144 149.774 17.7567 150.241 17.486C150.717 17.2153 151.272 17.08 151.907 17.08C152.616 17.08 153.209 17.2293 153.685 17.528C154.17 17.8267 154.539 18.2513 154.791 18.802C155.043 19.3527 155.169 19.9967 155.169 20.734V20.972C155.169 21.0747 155.136 21.154 155.071 21.21C155.015 21.266 154.94 21.294 154.847 21.294H150.003C150.003 21.3033 150.003 21.322 150.003 21.35C150.003 21.378 150.003 21.4013 150.003 21.42C150.021 21.8027 150.105 22.162 150.255 22.498C150.404 22.8247 150.619 23.0907 150.899 23.296C151.179 23.5013 151.515 23.604 151.907 23.604C152.243 23.604 152.523 23.5527 152.747 23.45C152.971 23.3473 153.153 23.2353 153.293 23.114C153.433 22.9833 153.526 22.8853 153.573 22.82C153.657 22.6987 153.722 22.6287 153.769 22.61C153.815 22.582 153.89 22.568 153.993 22.568H154.665C154.758 22.568 154.833 22.596 154.889 22.652C154.954 22.6987 154.982 22.7687 154.973 22.862C154.963 23.002 154.889 23.1747 154.749 23.38C154.609 23.576 154.408 23.772 154.147 23.968C153.885 24.164 153.568 24.3273 153.195 24.458C152.821 24.5793 152.392 24.64 151.907 24.64ZM150.003 20.328H153.839V20.286C153.839 19.866 153.759 19.4927 153.601 19.166C153.451 18.8393 153.232 18.5827 152.943 18.396C152.653 18.2 152.308 18.102 151.907 18.102C151.505 18.102 151.16 18.2 150.871 18.396C150.591 18.5827 150.376 18.8393 150.227 19.166C150.077 19.4927 150.003 19.866 150.003 20.286V20.328ZM159.069 24.5C158.975 24.5 158.896 24.472 158.831 24.416C158.775 24.3507 158.747 24.2713 158.747 24.178V18.34H156.311C156.217 18.34 156.138 18.312 156.073 18.256C156.017 18.1907 155.989 18.1113 155.989 18.018V17.542C155.989 17.4487 156.017 17.374 156.073 17.318C156.138 17.2527 156.217 17.22 156.311 17.22H162.471C162.564 17.22 162.639 17.2527 162.695 17.318C162.76 17.374 162.793 17.4487 162.793 17.542V18.018C162.793 18.1113 162.76 18.1907 162.695 18.256C162.639 18.312 162.564 18.34 162.471 18.34H160.035V24.178C160.035 24.2713 160.007 24.3507 159.951 24.416C159.895 24.472 159.815 24.5 159.713 24.5H159.069ZM164.329 24.5C164.235 24.5 164.156 24.472 164.091 24.416C164.035 24.3507 164.007 24.2713 164.007 24.178V17.542C164.007 17.4487 164.035 17.374 164.091 17.318C164.156 17.2527 164.235 17.22 164.329 17.22H165.001C165.094 17.22 165.169 17.2527 165.225 17.318C165.29 17.374 165.323 17.4487 165.323 17.542V19.6H166.779C167.731 19.6 168.426 19.824 168.865 20.272C169.303 20.72 169.523 21.3267 169.523 22.092C169.523 22.9133 169.28 23.52 168.795 23.912C168.309 24.304 167.581 24.5 166.611 24.5H164.329ZM165.309 23.45H166.653C167.222 23.45 167.637 23.352 167.899 23.156C168.16 22.9507 168.291 22.596 168.291 22.092C168.291 21.6067 168.165 21.2473 167.913 21.014C167.661 20.7713 167.241 20.65 166.653 20.65H165.309V23.45ZM170.839 24.5C170.745 24.5 170.666 24.472 170.601 24.416C170.545 24.3507 170.517 24.2713 170.517 24.178V17.542C170.517 17.4487 170.545 17.374 170.601 17.318C170.666 17.2527 170.745 17.22 170.839 17.22H171.511C171.604 17.22 171.679 17.2527 171.735 17.318C171.8 17.374 171.833 17.4487 171.833 17.542V24.178C171.833 24.2713 171.8 24.3507 171.735 24.416C171.679 24.472 171.604 24.5 171.511 24.5H170.839ZM177.672 24.5C177.579 24.5 177.5 24.472 177.434 24.416C177.378 24.3507 177.35 24.2713 177.35 24.178V17.542C177.35 17.4487 177.378 17.374 177.434 17.318C177.5 17.2527 177.579 17.22 177.672 17.22H183.23C183.324 17.22 183.398 17.2527 183.454 17.318C183.52 17.374 183.552 17.4487 183.552 17.542V24.178C183.552 24.2713 183.52 24.3507 183.454 24.416C183.398 24.472 183.324 24.5 183.23 24.5H182.558C182.465 24.5 182.39 24.472 182.334 24.416C182.278 24.3507 182.25 24.2713 182.25 24.178V18.34H178.652V24.178C178.652 24.2713 178.624 24.3507 178.568 24.416C178.512 24.472 178.438 24.5 178.344 24.5H177.672ZM188.618 24.64C187.908 24.64 187.316 24.5047 186.84 24.234C186.364 23.9633 186 23.59 185.748 23.114C185.496 22.6287 185.356 22.078 185.328 21.462C185.318 21.3033 185.314 21.1027 185.314 20.86C185.314 20.608 185.318 20.4073 185.328 20.258C185.356 19.6327 185.496 19.082 185.748 18.606C186.009 18.13 186.378 17.7567 186.854 17.486C187.33 17.2153 187.918 17.08 188.618 17.08C189.318 17.08 189.906 17.2153 190.382 17.486C190.858 17.7567 191.222 18.13 191.474 18.606C191.735 19.082 191.88 19.6327 191.908 20.258C191.917 20.4073 191.922 20.608 191.922 20.86C191.922 21.1027 191.917 21.3033 191.908 21.462C191.88 22.078 191.74 22.6287 191.488 23.114C191.236 23.59 190.872 23.9633 190.396 24.234C189.92 24.5047 189.327 24.64 188.618 24.64ZM188.618 23.562C189.196 23.562 189.658 23.38 190.004 23.016C190.349 22.6427 190.536 22.1013 190.564 21.392C190.573 21.252 190.578 21.0747 190.578 20.86C190.578 20.6453 190.573 20.468 190.564 20.328C190.536 19.6187 190.349 19.082 190.004 18.718C189.658 18.3447 189.196 18.158 188.618 18.158C188.039 18.158 187.572 18.3447 187.218 18.718C186.872 19.082 186.69 19.6187 186.672 20.328C186.662 20.468 186.658 20.6453 186.658 20.86C186.658 21.0747 186.662 21.252 186.672 21.392C186.69 22.1013 186.872 22.6427 187.218 23.016C187.572 23.38 188.039 23.562 188.618 23.562ZM197.428 24.5C197.335 24.5 197.256 24.472 197.19 24.416C197.134 24.3507 197.106 24.2713 197.106 24.178V17.542C197.106 17.4487 197.134 17.374 197.19 17.318C197.256 17.2527 197.335 17.22 197.428 17.22H200.34C201.218 17.22 201.876 17.3973 202.314 17.752C202.762 18.1067 202.986 18.5827 202.986 19.18C202.986 19.6 202.907 19.9173 202.748 20.132C202.59 20.3467 202.366 20.5287 202.076 20.678C202.431 20.8273 202.697 21.07 202.874 21.406C203.061 21.7327 203.154 22.0733 203.154 22.428C203.154 23.1 202.916 23.6133 202.44 23.968C201.964 24.3227 201.302 24.5 200.452 24.5H197.428ZM198.394 23.478H200.34C200.788 23.478 201.148 23.394 201.418 23.226C201.698 23.0487 201.838 22.7827 201.838 22.428C201.838 22.0547 201.712 21.784 201.46 21.616C201.208 21.4387 200.835 21.35 200.34 21.35H198.394V23.478ZM198.394 20.314H200.256C200.704 20.314 201.059 20.216 201.32 20.02C201.591 19.824 201.726 19.5487 201.726 19.194C201.726 18.83 201.591 18.5827 201.32 18.452C201.059 18.312 200.704 18.242 200.256 18.242H198.394V20.314ZM205.276 24.5C205.183 24.5 205.103 24.472 205.038 24.416C204.982 24.3507 204.954 24.2713 204.954 24.178V17.542C204.954 17.4487 204.982 17.374 205.038 17.318C205.103 17.2527 205.183 17.22 205.276 17.22H205.948C206.041 17.22 206.116 17.2527 206.172 17.318C206.237 17.374 206.27 17.4487 206.27 17.542V19.6H207.726C208.678 19.6 209.373 19.824 209.812 20.272C210.251 20.72 210.47 21.3267 210.47 22.092C210.47 22.9133 210.227 23.52 209.742 23.912C209.257 24.304 208.529 24.5 207.558 24.5H205.276ZM206.256 23.45H207.6C208.169 23.45 208.585 23.352 208.846 23.156C209.107 22.9507 209.238 22.596 209.238 22.092C209.238 21.6067 209.112 21.2473 208.86 21.014C208.608 20.7713 208.188 20.65 207.6 20.65H206.256V23.45ZM211.786 24.5C211.693 24.5 211.613 24.472 211.548 24.416C211.492 24.3507 211.464 24.2713 211.464 24.178V17.542C211.464 17.4487 211.492 17.374 211.548 17.318C211.613 17.2527 211.693 17.22 211.786 17.22H212.458C212.551 17.22 212.626 17.2527 212.682 17.318C212.747 17.374 212.78 17.4487 212.78 17.542V24.178C212.78 24.2713 212.747 24.3507 212.682 24.416C212.626 24.472 212.551 24.5 212.458 24.5H211.786ZM217.946 24.64C217.227 24.64 216.625 24.5047 216.14 24.234C215.664 23.954 215.3 23.562 215.048 23.058C214.805 22.5447 214.675 21.952 214.656 21.28C214.647 21 214.642 20.72 214.642 20.44C214.642 20.16 214.647 19.88 214.656 19.6C214.656 18.7507 214.726 18.046 214.866 17.486C215.006 16.926 215.216 16.4687 215.496 16.114C215.785 15.75 216.149 15.4513 216.588 15.218C217.027 14.9847 217.545 14.784 218.142 14.616C218.739 14.4387 219.421 14.252 220.186 14.056C220.27 14.0373 220.349 14.0513 220.424 14.098C220.508 14.1447 220.555 14.21 220.564 14.294L220.676 14.868C220.695 14.952 220.681 15.0267 220.634 15.092C220.597 15.1573 220.536 15.1993 220.452 15.218C219.752 15.3953 219.141 15.5493 218.618 15.68C218.095 15.8107 217.657 15.9647 217.302 16.142C216.947 16.31 216.663 16.5293 216.448 16.8C216.233 17.0707 216.084 17.43 216 17.878C215.925 18.326 215.902 18.9 215.93 19.6L215.622 19.474C215.669 19.1287 215.813 18.816 216.056 18.536C216.308 18.2467 216.621 18.0133 216.994 17.836C217.367 17.6587 217.764 17.57 218.184 17.57C218.828 17.57 219.369 17.7053 219.808 17.976C220.256 18.2467 220.597 18.6153 220.83 19.082C221.073 19.5487 221.208 20.0853 221.236 20.692C221.255 21.0093 221.255 21.2847 221.236 21.518C221.208 22.1247 221.068 22.666 220.816 23.142C220.564 23.6087 220.2 23.9773 219.724 24.248C219.248 24.5093 218.655 24.64 217.946 24.64ZM217.946 23.604C218.534 23.604 219.001 23.422 219.346 23.058C219.691 22.694 219.873 22.162 219.892 21.462C219.901 21.3687 219.906 21.2613 219.906 21.14C219.906 21.0187 219.901 20.8927 219.892 20.762C219.873 20.0527 219.691 19.516 219.346 19.152C219.01 18.788 218.585 18.606 218.072 18.606C217.484 18.606 216.999 18.788 216.616 19.152C216.233 19.516 216.028 20.0527 216 20.762C215.991 20.8927 215.986 21.0187 215.986 21.14C215.986 21.2613 215.991 21.3687 216 21.462C216.028 22.162 216.215 22.694 216.56 23.058C216.905 23.422 217.367 23.604 217.946 23.604ZM225.983 24.64C225.274 24.64 224.681 24.5047 224.205 24.234C223.729 23.9633 223.365 23.59 223.113 23.114C222.861 22.6287 222.721 22.078 222.693 21.462C222.684 21.3033 222.679 21.1027 222.679 20.86C222.679 20.608 222.684 20.4073 222.693 20.258C222.721 19.6327 222.861 19.082 223.113 18.606C223.374 18.13 223.743 17.7567 224.219 17.486C224.695 17.2153 225.283 17.08 225.983 17.08C226.683 17.08 227.271 17.2153 227.747 17.486C228.223 17.7567 228.587 18.13 228.839 18.606C229.1 19.082 229.245 19.6327 229.273 20.258C229.282 20.4073 229.287 20.608 229.287 20.86C229.287 21.1027 229.282 21.3033 229.273 21.462C229.245 22.078 229.105 22.6287 228.853 23.114C228.601 23.59 228.237 23.9633 227.761 24.234C227.285 24.5047 226.692 24.64 225.983 24.64ZM225.983 23.562C226.562 23.562 227.024 23.38 227.369 23.016C227.714 22.6427 227.901 22.1013 227.929 21.392C227.938 21.252 227.943 21.0747 227.943 20.86C227.943 20.6453 227.938 20.468 227.929 20.328C227.901 19.6187 227.714 19.082 227.369 18.718C227.024 18.3447 226.562 18.158 225.983 18.158C225.404 18.158 224.938 18.3447 224.583 18.718C224.238 19.082 224.056 19.6187 224.037 20.328C224.028 20.468 224.023 20.6453 224.023 20.86C224.023 21.0747 224.028 21.252 224.037 21.392C224.056 22.1013 224.238 22.6427 224.583 23.016C224.938 23.38 225.404 23.562 225.983 23.562ZM231.376 27.16C231.283 27.16 231.203 27.1273 231.138 27.062C231.082 27.006 231.054 26.9313 231.054 26.838V17.542C231.054 17.4487 231.082 17.374 231.138 17.318C231.203 17.2527 231.283 17.22 231.376 17.22H232.02C232.113 17.22 232.188 17.2527 232.244 17.318C232.309 17.374 232.342 17.4487 232.342 17.542V18.158C232.566 17.85 232.865 17.5933 233.238 17.388C233.611 17.1827 234.078 17.08 234.638 17.08C235.161 17.08 235.604 17.1687 235.968 17.346C236.341 17.5233 236.645 17.766 236.878 18.074C237.121 18.382 237.303 18.732 237.424 19.124C237.545 19.516 237.611 19.936 237.62 20.384C237.629 20.5333 237.634 20.692 237.634 20.86C237.634 21.028 237.629 21.1867 237.62 21.336C237.611 21.7747 237.545 22.1947 237.424 22.596C237.303 22.988 237.121 23.338 236.878 23.646C236.645 23.9447 236.341 24.1873 235.968 24.374C235.604 24.5513 235.161 24.64 234.638 24.64C234.097 24.64 233.639 24.542 233.266 24.346C232.902 24.1407 232.603 23.8887 232.37 23.59V26.838C232.37 26.9313 232.342 27.006 232.286 27.062C232.23 27.1273 232.151 27.16 232.048 27.16H231.376ZM234.344 23.506C234.829 23.506 235.207 23.4033 235.478 23.198C235.758 22.9833 235.959 22.708 236.08 22.372C236.201 22.0267 236.271 21.658 236.29 21.266C236.299 20.9953 236.299 20.7247 236.29 20.454C236.271 20.062 236.201 19.698 236.08 19.362C235.959 19.0167 235.758 18.7413 235.478 18.536C235.207 18.3213 234.829 18.214 234.344 18.214C233.887 18.214 233.513 18.3213 233.224 18.536C232.944 18.7507 232.734 19.026 232.594 19.362C232.463 19.6887 232.389 20.0247 232.37 20.37C232.361 20.5193 232.356 20.6967 232.356 20.902C232.356 21.1073 232.361 21.2893 232.37 21.448C232.379 21.7747 232.454 22.0967 232.594 22.414C232.743 22.7313 232.963 22.9927 233.252 23.198C233.541 23.4033 233.905 23.506 234.344 23.506ZM239.716 27.16C239.613 27.16 239.534 27.1273 239.478 27.062C239.422 27.006 239.394 26.9313 239.394 26.838V26.362C239.394 26.2687 239.422 26.1893 239.478 26.124C239.534 26.068 239.613 26.04 239.716 26.04H240.08C240.294 26.04 240.467 25.998 240.598 25.914C240.728 25.83 240.85 25.6853 240.962 25.48C241.074 25.284 241.2 25.0133 241.34 24.668L244.378 17.458C244.406 17.3833 244.443 17.3273 244.49 17.29C244.546 17.2433 244.625 17.22 244.728 17.22H245.344C245.428 17.22 245.498 17.248 245.554 17.304C245.61 17.36 245.638 17.4253 245.638 17.5C245.638 17.5373 245.633 17.5747 245.624 17.612C245.614 17.64 245.596 17.6867 245.568 17.752L242.908 24.052C242.768 24.388 242.614 24.738 242.446 25.102C242.278 25.466 242.091 25.802 241.886 26.11C241.69 26.4273 241.456 26.6793 241.186 26.866C240.924 27.062 240.612 27.16 240.248 27.16H239.716ZM241.662 24.29L238.834 17.752C238.787 17.64 238.764 17.5607 238.764 17.514C238.773 17.43 238.806 17.36 238.862 17.304C238.918 17.248 238.983 17.22 239.058 17.22H239.716C239.818 17.22 239.893 17.2433 239.94 17.29C239.996 17.3367 240.038 17.3927 240.066 17.458L242.39 23.016L241.662 24.29Z" fill="white"/>
<defs>
<linearGradient id="paint0_linear_110_6165" x1="0" y1="20" x2="22.6965" y2="-54.9194" gradientUnits="userSpaceOnUse">
<stop stop-color="#FEE411"/>
<stop offset="0.0518459" stop-color="#FEDB16"/>
<stop offset="0.1381" stop-color="#FEC125"/>
<stop offset="0.2481" stop-color="#FE983D"/>
<stop offset="0.3762" stop-color="#FE5F5E"/>
<stop offset="0.5" stop-color="#FE2181"/>
<stop offset="1" stop-color="#9000DC"/>
</linearGradient>
</defs>
</svg>
