<svg width="14" height="14" viewBox="0 0 14 14" fill="none" xmlns="http://www.w3.org/2000/svg">
<path d="M9.54929 0.333496H4.45596C2.18396 0.333496 0.338623 2.17883 0.338623 4.45083V9.54416C0.338623 11.8162 2.18396 13.6615 4.45596 13.6615H9.54929C11.8213 13.6615 13.6666 11.8162 13.6666 9.54416V4.45083C13.6666 2.17883 11.8213 0.333496 9.54929 0.333496ZM12.1786 9.5495C12.1786 11.0002 11 12.1842 9.54396 12.1842H4.45062C2.99996 12.1842 1.81596 11.0055 1.81596 9.5495V4.45616C1.81596 3.0055 2.99462 1.8215 4.45062 1.8215H9.54396C10.9946 1.8215 12.1786 3.00016 12.1786 4.45616V9.5495Z" fill="#E81212"/>
<path d="M6.99992 3.59229C5.12259 3.59229 3.59192 5.12295 3.59192 7.00028C3.59192 8.87762 5.12259 10.4083 6.99992 10.4083C8.87725 10.4083 10.4079 8.87762 10.4079 7.00028C10.4079 5.12295 8.87725 3.59229 6.99992 3.59229ZM6.99992 9.06962C5.85859 9.06962 4.93059 8.14162 4.93059 7.00028C4.93059 5.85895 5.85859 4.93095 6.99992 4.93095C8.14125 4.93095 9.06925 5.85895 9.06925 7.00028C9.06925 8.14162 8.14125 9.06962 6.99992 9.06962Z" fill="#E81212"/>
<path d="M10.6675 3.96577C10.9815 3.91487 11.1948 3.61907 11.1439 3.30509C11.093 2.99111 10.7972 2.77784 10.4832 2.82874C10.1692 2.87964 9.95593 3.17543 10.0068 3.48941C10.0577 3.80339 10.3535 4.01666 10.6675 3.96577Z" fill="#E81212"/>
</svg>
