<svg width="18" height="18" viewBox="0 0 18 18" fill="none" xmlns="http://www.w3.org/2000/svg">
<path d="M16.9283 13.7561L16.8484 13.513C16.6609 12.954 16.0429 12.3706 15.4735 12.2143L13.3713 11.6395C12.8019 11.485 11.9895 11.6934 11.5712 12.1118L10.8108 12.8723C8.04712 12.124 5.87891 9.95537 5.13242 7.1912L5.8928 6.43068C6.30943 6.01397 6.51775 5.20138 6.36326 4.63016L5.79031 2.5275C5.63582 1.95799 5.04903 1.33987 4.49008 1.15235L4.25049 1.07246C3.68976 0.884937 2.88949 1.07418 2.47286 1.49267L1.33406 2.63167C1.13097 2.83308 1.00075 3.41303 1.00075 3.41303C0.962535 7.02802 2.37914 10.5093 4.93449 13.0668C7.48289 15.6157 10.9514 17.0308 14.5535 16.9995C14.5726 16.9995 15.168 16.8728 15.3711 16.6696L16.5099 15.5306C16.9266 15.1156 17.114 14.3152 16.9283 13.7561Z" stroke="#443E3E"/>
</svg>
