<svg width="108" height="30" viewBox="0 0 108 30" fill="none" xmlns="http://www.w3.org/2000/svg">
<rect width="108" height="30" fill="#478ECC"/>
<path d="M18.4883 6.33198C17.9141 6.55073 17.5508 7.29682 17.7109 7.92182C17.8242 8.37104 18.0664 8.65229 18.5156 8.85932C19.0234 9.0937 19.2695 9.05854 19.3203 8.74995C19.3516 8.55464 19.2383 8.42573 18.9141 8.30464C18.4609 8.12885 18.2578 7.80463 18.3594 7.41792C18.5156 6.83588 19.2578 6.73432 19.707 7.23432C19.8945 7.44135 20 7.67182 20 7.89057C20 7.98432 19.9102 8.52729 19.8008 9.08979L19.6016 10.121L19.457 10.0351C18.0586 9.20698 16.9297 8.99604 16.4141 9.4687C16.2891 9.58198 16.2109 9.73823 16.1328 10.039C16.0977 10.1796 15.0234 13.0078 13.7539 16.3281C12.2266 20.3085 11.4336 22.4296 11.418 22.5624C11.3711 23.0117 11.6523 23.4882 12.0742 23.6718C12.2422 23.7421 12.332 23.7539 12.5742 23.7421C12.8555 23.7265 13.1875 23.6015 18.9453 21.3984C22.2852 20.1171 25.1133 19.0507 25.2227 19.0234C26.1172 18.8164 26.2031 17.871 25.4687 16.3359C25.3398 16.0742 25.1406 15.707 25.0234 15.5273L24.8086 15.1992L24.9922 15.164C25.0937 15.1406 25.5703 15.0507 26.0469 14.957C27.0234 14.7695 27.125 14.7734 27.4414 14.9921C28.0273 15.3984 28.0781 16.1249 27.5391 16.3945C27.3359 16.4999 27.1641 16.5078 26.9609 16.4257C26.75 16.3359 26.6562 16.2304 26.5391 15.9414C26.3945 15.5976 26.3125 15.5078 26.1328 15.5078C25.957 15.5078 25.832 15.5937 25.8008 15.7382C25.75 15.9687 26.0977 16.6718 26.3594 16.8632C26.6562 17.082 26.8008 17.1289 27.1875 17.1289C27.5078 17.1289 27.5898 17.1132 27.7812 17.0234C28.5469 16.6679 28.7969 15.8749 28.3984 15.0781C28.1172 14.5195 27.5234 14.1406 26.9258 14.1406C26.793 14.1406 24.668 14.5273 24.4492 14.5937C24.4102 14.6054 24.3008 14.4999 24.1172 14.2695C23.1641 13.0585 21.6641 11.5976 20.5195 10.7617C20.3125 10.6093 20.2031 10.5078 20.2148 10.4687C20.2227 10.4374 20.3281 9.89057 20.4492 9.25776C20.6328 8.31245 20.668 8.05073 20.6562 7.79292C20.625 7.11713 20.1875 6.56245 19.5 6.33198C19.1836 6.22651 18.7656 6.22651 18.4883 6.33198ZM17.8164 9.99995C18.3359 10.1718 19.4531 10.7617 19.4531 10.8632C19.4531 10.8828 19.3906 11.2265 19.3125 11.621C19.1914 12.2304 19.1758 12.3593 19.2148 12.457C19.3008 12.6601 19.5859 12.7226 19.7422 12.5664C19.8125 12.496 19.8516 12.3554 19.9414 11.8828C20.0039 11.5585 20.0664 11.289 20.082 11.289C20.1406 11.289 20.9844 11.9843 21.5352 12.4882C22.1055 13.0117 22.8125 13.7499 23.3359 14.3749L23.6445 14.746L22.9922 14.871C22.5742 14.9492 22.3086 15.0195 22.2617 15.0624C22.1562 15.1562 22.1602 15.4414 22.2656 15.5468C22.3711 15.6523 22.4844 15.6484 23.3008 15.4882C23.6875 15.414 24.0234 15.3515 24.0469 15.3515C24.1172 15.3515 24.6367 16.1718 24.8711 16.6445C25.2187 17.3515 25.375 17.9257 25.2773 18.1718C25.1328 18.5468 24.5469 18.4765 23.4961 17.9531C21.293 16.8593 18.2656 13.8203 17.1875 11.621C16.8867 11.0039 16.7852 10.707 16.7812 10.3867C16.7773 10.1757 16.793 10.1093 16.8555 10.039C17.0273 9.8476 17.3242 9.83198 17.8164 9.99995ZM17.1211 12.8593C17.3008 13.1445 17.6133 13.6523 17.8125 13.9843C19.0781 16.082 20.332 17.8359 21.6758 19.3828L21.8359 19.5624L21.3789 19.7421L20.918 19.9257L20.6914 19.6796C19.3437 18.2304 17.6641 15.8437 16.1367 13.207L15.8555 12.7226L16.0977 12.0703L16.3437 11.4179L16.5703 11.8828C16.6914 12.1367 16.9414 12.5742 17.1211 12.8593ZM15.8984 14.1406C17.0977 16.1914 18.6133 18.3437 19.8477 19.7499L20.2305 20.1835L19.7812 20.3515C19.3945 20.496 19.3242 20.5117 19.2812 20.4648C19.082 20.2539 18.3398 19.332 17.9531 18.8164C17.1914 17.7968 15.832 15.7343 15.2812 14.7617L15.1562 14.539L15.3398 14.0507C15.4805 13.6835 15.5391 13.5703 15.5703 13.6054C15.5937 13.6328 15.7422 13.871 15.8984 14.1406ZM15.1836 15.9062C16.1758 17.5351 17.5586 19.4999 18.4062 20.4843C18.5352 20.6328 18.625 20.7656 18.6055 20.7851C18.5898 20.8007 18.3945 20.8828 18.1719 20.9687L17.7734 21.1249L17.3672 20.6093C16.4531 19.4531 15.125 17.5156 14.5625 16.5234L14.4609 16.3476L14.6445 15.871C14.7422 15.6054 14.8359 15.3906 14.8477 15.3906C14.8594 15.3906 15.0117 15.6249 15.1836 15.9062ZM21.1914 17.2499C21.7891 17.7226 22.7109 18.3242 23.2344 18.5781C23.4961 18.7031 23.707 18.8164 23.707 18.8281C23.7109 18.8398 23.4414 18.9531 23.1172 19.0781L22.5195 19.3046L22.3516 19.1132C21.6289 18.3046 21.0508 17.5859 20.5078 16.8359L20.1797 16.3867L20.4922 16.664C20.6602 16.8164 20.9766 17.0781 21.1914 17.2499ZM14.3984 17.5468C15.1016 18.664 16.043 20.0156 16.7266 20.8906C16.9141 21.1328 17.0703 21.3437 17.0703 21.3632C17.0703 21.3789 16.8828 21.4648 16.6523 21.5507L16.2344 21.707L16.0937 21.5273C15.4062 20.6562 13.7891 18.289 13.7891 18.1523C13.7891 18.1249 13.8555 17.9257 13.9375 17.7109C14.0195 17.4999 14.1016 17.2929 14.1133 17.2539C14.1289 17.2187 14.1445 17.1874 14.1523 17.1874C14.1641 17.1874 14.2734 17.3515 14.3984 17.5468ZM13.6328 19.207C13.8437 19.5546 14.6914 20.7812 15.125 21.3632C15.3398 21.6484 15.5195 21.9023 15.5312 21.9296C15.5469 21.9687 14.8516 22.2656 14.7383 22.2656C14.6836 22.2656 14.2031 21.6093 13.5391 20.6328L13.082 19.9609L13.2656 19.4726C13.3672 19.2031 13.4609 18.9843 13.4766 18.9843C13.4883 18.9843 13.5586 19.0859 13.6328 19.207ZM13.0469 21.1132C13.1641 21.2851 13.4297 21.6679 13.6406 21.9609C13.8516 22.2578 14.0234 22.5117 14.0234 22.5273C14.0234 22.5781 12.6172 23.0976 12.4961 23.0937C12.293 23.0898 12.0703 22.8632 12.0703 22.6679C12.0703 22.6054 12.1641 22.3437 12.6445 21.1015C12.7187 20.9023 12.7969 20.7499 12.8125 20.7695C12.8281 20.7851 12.9336 20.9414 13.0469 21.1132Z" fill="white"/>
<path d="M21.0703 12.7305C20.9375 12.7891 20.8203 12.9688 20.8203 13.1094C20.8203 13.1992 20.8594 13.2812 20.9414 13.3789C21.0469 13.4961 21.0859 13.5156 21.2383 13.5156C21.6016 13.5156 21.7773 13.1211 21.5352 12.8516C21.418 12.7227 21.2148 12.6719 21.0703 12.7305Z" fill="white"/>
<path d="M21.832 7.06637C21.6875 7.21481 21.6875 7.28903 21.8516 7.60934C22.043 7.99215 22.1094 8.2734 22.1367 8.82809C22.1602 9.332 22.1133 9.8984 22.0078 10.4179C21.9453 10.7148 21.9648 10.8203 22.1055 10.9257C22.2109 11.0078 22.4375 10.9882 22.5273 10.8867C22.6719 10.7343 22.8125 9.82028 22.8125 9.06247C22.8125 7.66793 22.293 6.60934 21.832 7.06637Z" fill="white"/>
<path d="M23.9023 7.57418C23.8125 7.66402 23.7891 7.72262 23.7891 7.85152C23.7891 8.05465 23.8398 8.1484 23.9844 8.22262C24.3477 8.41012 24.7344 8.05465 24.5547 7.69918C24.4219 7.44918 24.0938 7.38277 23.9023 7.57418Z" fill="white"/>
<path d="M24.6875 9.64453C24.3086 9.76953 24.0039 10.0586 23.8633 10.4258C23.6602 10.9687 23.9336 11.6094 24.4844 11.8828C24.6289 11.9531 24.7305 11.9727 24.9805 11.9727C25.3672 11.9727 25.6016 11.8633 25.8711 11.5625C26.1016 11.3086 26.1875 11.0547 26.1641 10.707C26.1211 10.0977 25.6641 9.64844 25.0625 9.625C24.9102 9.61719 24.7422 9.625 24.6875 9.64453ZM25.2266 10.3516C25.5234 10.5312 25.5898 10.9023 25.3711 11.1328C25.1406 11.375 24.8594 11.3828 24.6289 11.1523C24.3789 10.8984 24.418 10.5664 24.7227 10.3633C24.8867 10.2539 25.0586 10.25 25.2266 10.3516Z" fill="white"/>
<path d="M27.3203 12.7344C27.1953 12.7852 27.0703 12.9648 27.0703 13.0938C27.0703 13.3438 27.2422 13.5117 27.4922 13.5156C27.9297 13.5156 28.0469 12.957 27.6562 12.7539C27.5312 12.6875 27.4414 12.6836 27.3203 12.7344Z" fill="white"/>
<path d="M41.32 19C41.232 19 41.164 18.976 41.116 18.928C41.068 18.872 41.044 18.804 41.044 18.724V10.888C41.044 10.8 41.068 10.732 41.116 10.684C41.164 10.628 41.232 10.6 41.32 10.6H41.932C42.02 10.6 42.088 10.628 42.136 10.684C42.192 10.732 42.22 10.8 42.22 10.888V14.2H46.348V10.888C46.348 10.8 46.372 10.732 46.42 10.684C46.476 10.628 46.544 10.6 46.624 10.6H47.236C47.324 10.6 47.392 10.628 47.44 10.684C47.496 10.732 47.524 10.8 47.524 10.888V18.724C47.524 18.804 47.496 18.872 47.44 18.928C47.392 18.976 47.324 19 47.236 19H46.624C46.544 19 46.476 18.976 46.42 18.928C46.372 18.872 46.348 18.804 46.348 18.724V15.28H42.22V18.724C42.22 18.804 42.192 18.872 42.136 18.928C42.088 18.976 42.02 19 41.932 19H41.32ZM52.6107 19.12C51.9307 19.12 51.3467 19.004 50.8587 18.772C50.3707 18.532 49.9947 18.168 49.7307 17.68C49.4667 17.184 49.3187 16.564 49.2867 15.82C49.2787 15.468 49.2747 15.132 49.2747 14.812C49.2747 14.484 49.2787 14.144 49.2867 13.792C49.3187 13.056 49.4707 12.444 49.7427 11.956C50.0227 11.46 50.4067 11.092 50.8947 10.852C51.3907 10.604 51.9627 10.48 52.6107 10.48C53.2667 10.48 53.8387 10.604 54.3267 10.852C54.8227 11.092 55.2107 11.46 55.4907 11.956C55.7707 12.444 55.9227 13.056 55.9467 13.792C55.9627 14.144 55.9707 14.484 55.9707 14.812C55.9707 15.132 55.9627 15.468 55.9467 15.82C55.9227 16.564 55.7747 17.184 55.5027 17.68C55.2387 18.168 54.8627 18.532 54.3747 18.772C53.8867 19.004 53.2987 19.12 52.6107 19.12ZM52.6107 18.1C53.2267 18.1 53.7267 17.916 54.1107 17.548C54.5027 17.18 54.7147 16.584 54.7467 15.76C54.7627 15.4 54.7707 15.08 54.7707 14.8C54.7707 14.512 54.7627 14.192 54.7467 13.84C54.7307 13.288 54.6267 12.84 54.4347 12.496C54.2507 12.152 54.0027 11.9 53.6907 11.74C53.3787 11.58 53.0187 11.5 52.6107 11.5C52.2187 11.5 51.8667 11.58 51.5547 11.74C51.2427 11.9 50.9907 12.152 50.7987 12.496C50.6147 12.84 50.5107 13.288 50.4867 13.84C50.4787 14.192 50.4747 14.512 50.4747 14.8C50.4747 15.08 50.4787 15.4 50.4867 15.76C50.5187 16.584 50.7307 17.18 51.1227 17.548C51.5147 17.916 52.0107 18.1 52.6107 18.1ZM57.9958 19C57.9078 19 57.8398 18.976 57.7918 18.928C57.7438 18.872 57.7198 18.804 57.7198 18.724V10.888C57.7198 10.8 57.7438 10.732 57.7918 10.684C57.8398 10.628 57.9078 10.6 57.9958 10.6H61.2838C61.8838 10.6 62.3718 10.7 62.7478 10.9C63.1318 11.092 63.4118 11.356 63.5878 11.692C63.7718 12.028 63.8638 12.404 63.8638 12.82C63.8638 13.148 63.8078 13.432 63.6958 13.672C63.5918 13.904 63.4598 14.096 63.2998 14.248C63.1398 14.392 62.9838 14.504 62.8318 14.584C63.1438 14.736 63.4198 14.984 63.6598 15.328C63.9078 15.672 64.0318 16.088 64.0318 16.576C64.0318 17.016 63.9318 17.42 63.7318 17.788C63.5318 18.156 63.2318 18.452 62.8318 18.676C62.4398 18.892 61.9518 19 61.3678 19H57.9958ZM58.8958 18.028H61.2118C61.7318 18.028 62.1318 17.888 62.4118 17.608C62.6918 17.328 62.8318 16.984 62.8318 16.576C62.8318 16.152 62.6918 15.804 62.4118 15.532C62.1318 15.252 61.7318 15.112 61.2118 15.112H58.8958V18.028ZM58.8958 14.152H61.1038C61.6158 14.152 62.0038 14.036 62.2678 13.804C62.5318 13.564 62.6638 13.24 62.6638 12.832C62.6638 12.424 62.5318 12.112 62.2678 11.896C62.0038 11.68 61.6158 11.572 61.1038 11.572H58.8958V14.152ZM66.0114 19C65.9234 19 65.8554 18.972 65.8074 18.916C65.7594 18.86 65.7354 18.792 65.7354 18.712V10.888C65.7354 10.8 65.7594 10.732 65.8074 10.684C65.8634 10.628 65.9314 10.6 66.0114 10.6H66.6354C66.7154 10.6 66.7794 10.628 66.8274 10.684C66.8834 10.732 66.9114 10.8 66.9114 10.888V17.092L71.3874 10.768C71.4114 10.736 71.4434 10.7 71.4834 10.66C71.5314 10.62 71.5994 10.6 71.6874 10.6H72.2754C72.3554 10.6 72.4194 10.628 72.4674 10.684C72.5234 10.732 72.5514 10.8 72.5514 10.888V18.724C72.5514 18.804 72.5234 18.872 72.4674 18.928C72.4194 18.976 72.3554 19 72.2754 19H71.6634C71.5834 19 71.5154 18.976 71.4594 18.928C71.4034 18.872 71.3754 18.804 71.3754 18.724V12.568L66.9114 18.832C66.8954 18.856 66.8634 18.892 66.8154 18.94C66.7674 18.98 66.6994 19 66.6114 19H66.0114ZM74.9177 19C74.8297 19 74.7617 18.976 74.7137 18.928C74.6657 18.872 74.6417 18.804 74.6417 18.724V10.888C74.6417 10.8 74.6657 10.732 74.7137 10.684C74.7617 10.628 74.8297 10.6 74.9177 10.6H75.5297C75.6177 10.6 75.6857 10.628 75.7337 10.684C75.7897 10.732 75.8177 10.8 75.8177 10.888V14.2H79.9457V10.888C79.9457 10.8 79.9697 10.732 80.0177 10.684C80.0737 10.628 80.1417 10.6 80.2217 10.6H80.8337C80.9217 10.6 80.9897 10.628 81.0377 10.684C81.0937 10.732 81.1217 10.8 81.1217 10.888V18.724C81.1217 18.804 81.0937 18.872 81.0377 18.928C80.9897 18.976 80.9217 19 80.8337 19H80.2217C80.1417 19 80.0737 18.976 80.0177 18.928C79.9697 18.872 79.9457 18.804 79.9457 18.724V15.28H75.8177V18.724C75.8177 18.804 75.7897 18.872 75.7337 18.928C75.6857 18.976 75.6177 19 75.5297 19H74.9177ZM83.4723 19C83.3843 19 83.3163 18.976 83.2683 18.928C83.2203 18.872 83.1963 18.804 83.1963 18.724V10.888C83.1963 10.8 83.2203 10.732 83.2683 10.684C83.3163 10.628 83.3843 10.6 83.4723 10.6H84.0843C84.1723 10.6 84.2403 10.628 84.2883 10.684C84.3443 10.732 84.3723 10.8 84.3723 10.888V14.2H85.7283L87.8643 10.792C87.9043 10.728 87.9563 10.68 88.0203 10.648C88.0843 10.616 88.1683 10.6 88.2723 10.6H88.9203C89.0083 10.6 89.0723 10.624 89.1123 10.672C89.1523 10.72 89.1723 10.776 89.1723 10.84C89.1723 10.888 89.1523 10.94 89.1123 10.996L86.8083 14.668L89.3403 18.58C89.3643 18.612 89.3763 18.656 89.3763 18.712C89.3763 18.792 89.3483 18.86 89.2923 18.916C89.2443 18.972 89.1803 19 89.1003 19H88.4163C88.3283 19 88.2603 18.984 88.2123 18.952C88.1723 18.912 88.1363 18.868 88.1043 18.82L85.7763 15.28H84.3723V18.724C84.3723 18.804 84.3443 18.872 84.2883 18.928C84.2403 18.976 84.1723 19 84.0843 19H83.4723ZM90.3081 19C90.2441 19 90.1881 18.976 90.1401 18.928C90.0921 18.88 90.0681 18.824 90.0681 18.76C90.0681 18.72 90.0721 18.676 90.0801 18.628L93.0561 10.864C93.0881 10.784 93.1321 10.72 93.1881 10.672C93.2441 10.624 93.3281 10.6 93.4401 10.6H94.2561C94.3601 10.6 94.4401 10.624 94.4961 10.672C94.5601 10.72 94.6081 10.784 94.6401 10.864L97.6041 18.628C97.6201 18.676 97.6281 18.72 97.6281 18.76C97.6281 18.824 97.6041 18.88 97.5561 18.928C97.5081 18.976 97.4521 19 97.3881 19H96.7761C96.6801 19 96.6081 18.976 96.5601 18.928C96.5201 18.88 96.4921 18.836 96.4761 18.796L95.8161 17.092H91.8801L91.2201 18.796C91.2121 18.836 91.1841 18.88 91.1361 18.928C91.0881 18.976 91.0161 19 90.9201 19H90.3081ZM92.2281 16.06H95.4681L93.8481 11.8L92.2281 16.06Z" fill="white"/>
</svg>
