<svg width="25" height="25" viewBox="0 0 25 25" fill="none" xmlns="http://www.w3.org/2000/svg">
<rect width="25" height="25" rx="12.5" fill="#CCCCCC"/>
<path d="M12.4954 17.12C11.9434 17.12 11.4754 17.036 11.0914 16.868C10.7154 16.692 10.4074 16.452 10.1674 16.148C9.92741 15.844 9.75141 15.496 9.63941 15.104C9.53541 14.712 9.47541 14.296 9.45941 13.856C9.45141 13.64 9.44341 13.412 9.43541 13.172C9.43541 12.932 9.43541 12.692 9.43541 12.452C9.44341 12.204 9.45141 11.968 9.45941 11.744C9.46741 11.304 9.52741 10.888 9.63941 10.496C9.75941 10.096 9.93541 9.748 10.1674 9.452C10.4074 9.148 10.7194 8.912 11.1034 8.744C11.4874 8.568 11.9514 8.48 12.4954 8.48C13.0474 8.48 13.5114 8.568 13.8874 8.744C14.2714 8.912 14.5834 9.148 14.8234 9.452C15.0634 9.748 15.2394 10.096 15.3514 10.496C15.4714 10.888 15.5354 11.304 15.5434 11.744C15.5514 11.968 15.5554 12.204 15.5554 12.452C15.5634 12.692 15.5634 12.932 15.5554 13.172C15.5554 13.412 15.5514 13.64 15.5434 13.856C15.5354 14.296 15.4714 14.712 15.3514 15.104C15.2394 15.496 15.0634 15.844 14.8234 16.148C14.5914 16.452 14.2834 16.692 13.8994 16.868C13.5234 17.036 13.0554 17.12 12.4954 17.12ZM12.4954 16.1C13.1194 16.1 13.5794 15.896 13.8754 15.488C14.1794 15.072 14.3354 14.508 14.3434 13.796C14.3594 13.564 14.3674 13.34 14.3674 13.124C14.3674 12.9 14.3674 12.68 14.3674 12.464C14.3674 12.24 14.3594 12.02 14.3434 11.804C14.3354 11.108 14.1794 10.552 13.8754 10.136C13.5794 9.712 13.1194 9.5 12.4954 9.5C11.8794 9.5 11.4194 9.712 11.1154 10.136C10.8194 10.552 10.6634 11.108 10.6474 11.804C10.6474 12.02 10.6434 12.24 10.6354 12.464C10.6354 12.68 10.6354 12.9 10.6354 13.124C10.6434 13.34 10.6474 13.564 10.6474 13.796C10.6634 14.508 10.8234 15.072 11.1274 15.488C11.4314 15.896 11.8874 16.1 12.4954 16.1Z" fill="#443E3E"/>
</svg>
