<svg width="25" height="25" viewBox="0 0 25 25" fill="none" xmlns="http://www.w3.org/2000/svg">
<rect width="25" height="25" rx="12.5" fill="#E81212"/>
<path d="M13.2456 17C13.1656 17 13.0976 16.976 13.0416 16.928C12.9936 16.872 12.9696 16.804 12.9696 16.724V10.004L10.9776 11.54C10.9136 11.588 10.8456 11.608 10.7736 11.6C10.7016 11.592 10.6416 11.556 10.5936 11.492L10.2816 11.096C10.2336 11.024 10.2136 10.952 10.2216 10.88C10.2376 10.808 10.2776 10.748 10.3416 10.7L12.9576 8.684C13.0136 8.644 13.0656 8.62 13.1136 8.612C13.1616 8.604 13.2136 8.6 13.2696 8.6H13.8816C13.9616 8.6 14.0256 8.628 14.0736 8.684C14.1216 8.732 14.1456 8.796 14.1456 8.876V16.724C14.1456 16.804 14.1216 16.872 14.0736 16.928C14.0256 16.976 13.9616 17 13.8816 17H13.2456Z" fill="white"/>
</svg>
