<svg width="130" height="30" viewBox="0 0 130 30" fill="none" xmlns="http://www.w3.org/2000/svg">
<rect width="130" height="30" fill="#FCCD05"/>
<path d="M19.7969 9.34375C19.7617 9.37109 19.1992 10.2695 18.5508 11.3438C17.6641 12.8047 17.3399 13.3086 17.25 13.3633C17.1719 13.4102 17.0547 13.4375 16.9258 13.4375C16.6289 13.4375 16.5274 13.3281 16.0156 12.4531C15.4805 11.5391 15.4219 11.4609 15.2891 11.4336C15.0547 11.3906 14.9883 11.457 14.586 12.1211C13.9727 13.1328 13.875 13.2773 13.7383 13.3594C13.6055 13.4414 13.3828 13.4609 13.2344 13.4023C13.1836 13.3828 12.8125 13.0469 12.4102 12.6562C11.6875 11.957 11.6719 11.9453 11.5352 11.9648C11.375 11.9922 11.2656 12.0781 11.2344 12.207C11.2188 12.2695 11.5235 13.2188 12.1914 15.1641C12.7813 16.8984 13.1836 18.1367 13.211 18.3086C13.2539 18.5859 13.2344 18.8516 13.1289 19.3359C13 19.9297 13.1758 20.3672 13.6524 20.6172L13.8477 20.7227H20.0235H26.1953L26.4258 20.6055C26.6914 20.4688 26.8867 20.2383 26.9571 19.9883C27.0117 19.7852 26.9805 19.4141 26.8906 19.1797C26.836 19.0469 26.8203 18.8867 26.8203 18.5156V18.0273L27.7891 15.2148C28.3203 13.668 28.7578 12.3438 28.7578 12.2695C28.7578 12.1055 28.6563 11.9961 28.4688 11.9648C28.3281 11.9453 28.3164 11.9531 27.6289 12.6172C27.2461 12.9922 26.8828 13.3281 26.8164 13.3672C26.6641 13.4609 26.418 13.457 26.2617 13.3594C26.125 13.2773 26.0274 13.1328 25.4141 12.1211C25.1133 11.625 25.0078 11.4805 24.9219 11.4492C24.8047 11.4102 24.6641 11.4297 24.5821 11.4922C24.5547 11.5117 24.3125 11.9023 24.043 12.3594C23.7735 12.8164 23.5 13.2383 23.4414 13.2969C23.2344 13.4961 22.8906 13.5 22.6797 13.3086C22.625 13.2617 22.0625 12.3594 21.4258 11.3086C20.7891 10.2539 20.2422 9.37109 20.2071 9.34375C20.1719 9.32031 20.0781 9.29688 20 9.29688C19.9219 9.29688 19.8321 9.32031 19.7969 9.34375ZM21.0313 11.957C21.5899 12.8789 22.1055 13.6953 22.1797 13.7695C22.4219 14.0117 22.6211 14.082 23.0664 14.082C23.4141 14.082 23.4805 14.0703 23.6524 13.9766C23.9297 13.832 24.0117 13.7305 24.4297 13.0312L24.7969 12.4141L24.8906 12.5625C24.9453 12.6484 25.1094 12.918 25.2578 13.1641C25.7188 13.9297 25.9375 14.082 26.5625 14.082C26.9922 14.082 27.1485 14.0195 27.4688 13.7188L27.6563 13.543L27.3203 14.5156C26.7422 16.1875 26.4063 17.1914 26.2696 17.6562L26.1406 18.1055L20.0039 18.1172L13.8672 18.125L13.8438 18.0195C13.8164 17.8828 13.3047 16.3398 12.7617 14.7539L12.3477 13.5469L12.5352 13.7227C12.8516 14.0195 13.0078 14.082 13.4375 14.082C14.0625 14.082 14.2813 13.9297 14.7422 13.1641C14.8906 12.918 15.0547 12.6484 15.1094 12.5625L15.2031 12.4141L15.5703 13.0312C15.9883 13.7305 16.0703 13.832 16.3477 13.9766C16.5196 14.0703 16.586 14.082 16.9336 14.082C17.3789 14.082 17.5781 14.0117 17.8203 13.7695C17.8946 13.6953 18.4102 12.8789 18.9688 11.9531C19.5235 11.0312 19.9883 10.2773 20 10.2773C20.0117 10.2773 20.4766 11.0312 21.0313 11.957ZM26.1524 18.9336C26.168 19.0156 26.211 19.2109 26.2539 19.3672C26.3516 19.7383 26.3477 19.7812 26.2149 19.9297L26.1016 20.0586H20.0391H13.9766L13.8633 19.9297C13.7149 19.7656 13.7188 19.6797 13.8906 18.875L13.9063 18.7891H20.0196H26.1289L26.1524 18.9336Z" fill="#443E3E"/>
<path d="M19.8946 13.2031C19.7891 13.2461 19.7188 13.3515 19.4453 13.8867C19.336 14.1015 19.2422 14.2812 19.2383 14.289C19.2305 14.2969 18.9766 14.3359 18.6758 14.3789C18.0938 14.457 17.9961 14.4844 17.9297 14.6094C17.8321 14.7929 17.875 14.8789 18.3164 15.3281L18.7422 15.7617L18.6524 16.2304C18.5313 16.8437 18.5274 16.9922 18.6446 17.1015C18.7891 17.2383 18.9414 17.2109 19.4844 16.9375L19.9805 16.6875L20.4688 16.957C20.9766 17.2344 21.0938 17.2695 21.2422 17.164C21.4102 17.0469 21.4141 16.9883 21.3203 16.3828L21.2344 15.8125L21.6524 15.4062C21.8789 15.1836 22.0782 14.957 22.0938 14.9023C22.1289 14.7617 22.043 14.5859 21.9219 14.5351C21.836 14.5 20.918 14.3359 20.8125 14.3359C20.7969 14.3359 20.6719 14.1015 20.5352 13.8164C20.3985 13.5351 20.2617 13.2812 20.2305 13.2539C20.1485 13.1875 19.9922 13.164 19.8946 13.2031ZM20.3633 14.8984C20.4102 14.9297 20.5274 14.9648 20.625 14.9804C20.7227 14.9922 20.8516 15.0156 20.9102 15.0234L21.0196 15.0469L20.7852 15.2929C20.5235 15.5664 20.5078 15.6133 20.586 16.0156C20.6094 16.1289 20.6172 16.2304 20.6094 16.2383C20.6016 16.2461 20.4766 16.1914 20.3321 16.1172C20.1875 16.039 20.0274 15.9765 19.9766 15.9765C19.9219 15.9765 19.7578 16.039 19.6016 16.1172L19.3242 16.2578L19.3516 16.1445C19.3633 16.0859 19.3867 15.914 19.3985 15.7695L19.4258 15.5039L19.1797 15.2539L18.9375 15.0078L19.1836 14.9804C19.6289 14.9336 19.6719 14.9101 19.8516 14.5781L20.0157 14.2812L20.1446 14.5625C20.2149 14.7148 20.3125 14.8672 20.3633 14.8984Z" fill="#443E3E"/>
<path d="M40.54 19C40.476 19 40.416 18.976 40.36 18.928C40.312 18.88 40.288 18.824 40.288 18.76C40.288 18.728 40.292 18.7 40.3 18.676C40.316 18.644 40.328 18.62 40.336 18.604L43.084 14.728L40.468 10.996C40.444 10.948 40.432 10.896 40.432 10.84C40.432 10.776 40.456 10.72 40.504 10.672C40.552 10.624 40.608 10.6 40.672 10.6H41.392C41.472 10.6 41.536 10.62 41.584 10.66C41.632 10.692 41.676 10.74 41.716 10.804L43.828 13.804L45.928 10.804C45.96 10.74 46 10.692 46.048 10.66C46.104 10.62 46.168 10.6 46.24 10.6H46.924C46.988 10.6 47.044 10.624 47.092 10.672C47.14 10.72 47.164 10.776 47.164 10.84C47.164 10.896 47.148 10.948 47.116 10.996L44.536 14.74L47.272 18.604C47.288 18.62 47.3 18.644 47.308 18.676C47.316 18.7 47.32 18.728 47.32 18.76C47.32 18.824 47.296 18.88 47.248 18.928C47.2 18.976 47.14 19 47.068 19H46.336C46.264 19 46.2 18.98 46.144 18.94C46.096 18.9 46.052 18.856 46.012 18.808L43.78 15.688L41.56 18.808C41.52 18.856 41.476 18.9 41.428 18.94C41.38 18.98 41.316 19 41.236 19H40.54ZM48.9138 19C48.8258 19 48.7578 18.972 48.7098 18.916C48.6618 18.86 48.6378 18.792 48.6378 18.712V10.888C48.6378 10.8 48.6618 10.732 48.7098 10.684C48.7658 10.628 48.8338 10.6 48.9138 10.6H49.5378C49.6178 10.6 49.6818 10.628 49.7298 10.684C49.7858 10.732 49.8138 10.8 49.8138 10.888V17.092L54.2898 10.768C54.3138 10.736 54.3458 10.7 54.3858 10.66C54.4338 10.62 54.5018 10.6 54.5898 10.6H55.1778C55.2578 10.6 55.3218 10.628 55.3698 10.684C55.4258 10.732 55.4538 10.8 55.4538 10.888V18.724C55.4538 18.804 55.4258 18.872 55.3698 18.928C55.3218 18.976 55.2578 19 55.1778 19H54.5658C54.4858 19 54.4178 18.976 54.3618 18.928C54.3058 18.872 54.2778 18.804 54.2778 18.724V12.568L49.8138 18.832C49.7978 18.856 49.7658 18.892 49.7178 18.94C49.6698 18.98 49.6018 19 49.5138 19H48.9138ZM59.656 19C59.576 19 59.508 18.976 59.452 18.928C59.404 18.872 59.38 18.804 59.38 18.724V11.668H57.076C56.996 11.668 56.928 11.644 56.872 11.596C56.824 11.54 56.8 11.472 56.8 11.392V10.888C56.8 10.8 56.824 10.732 56.872 10.684C56.928 10.628 56.996 10.6 57.076 10.6H62.86C62.948 10.6 63.016 10.628 63.064 10.684C63.12 10.732 63.148 10.8 63.148 10.888V11.392C63.148 11.472 63.12 11.54 63.064 11.596C63.016 11.644 62.948 11.668 62.86 11.668H60.568V18.724C60.568 18.804 60.54 18.872 60.484 18.928C60.436 18.976 60.368 19 60.28 19H59.656ZM67.7106 19C67.6226 19 67.5546 18.976 67.5066 18.928C67.4586 18.872 67.4346 18.804 67.4346 18.724V10.888C67.4346 10.8 67.4586 10.732 67.5066 10.684C67.5546 10.628 67.6226 10.6 67.7106 10.6H73.6266C73.7146 10.6 73.7826 10.628 73.8306 10.684C73.8866 10.732 73.9146 10.8 73.9146 10.888V18.724C73.9146 18.804 73.8866 18.872 73.8306 18.928C73.7826 18.976 73.7146 19 73.6266 19H73.0146C72.9346 19 72.8666 18.976 72.8106 18.928C72.7626 18.872 72.7386 18.804 72.7386 18.724V11.68H68.6106V18.724C68.6106 18.804 68.5826 18.872 68.5266 18.928C68.4786 18.976 68.4106 19 68.3226 19H67.7106ZM76.2653 19C76.1773 19 76.1093 18.976 76.0613 18.928C76.0133 18.872 75.9893 18.804 75.9893 18.724V10.888C75.9893 10.8 76.0133 10.732 76.0613 10.684C76.1093 10.628 76.1773 10.6 76.2653 10.6H79.3133C79.9053 10.6 80.4173 10.696 80.8493 10.888C81.2893 11.08 81.6293 11.368 81.8693 11.752C82.1093 12.128 82.2293 12.6 82.2293 13.168C82.2293 13.736 82.1093 14.208 81.8693 14.584C81.6293 14.96 81.2893 15.244 80.8493 15.436C80.4173 15.628 79.9053 15.724 79.3133 15.724H77.1893V18.724C77.1893 18.804 77.1613 18.872 77.1053 18.928C77.0573 18.976 76.9893 19 76.9013 19H76.2653ZM77.1773 14.716H79.2533C79.8453 14.716 80.2893 14.584 80.5853 14.32C80.8813 14.056 81.0293 13.672 81.0293 13.168C81.0293 12.672 80.8853 12.288 80.5973 12.016C80.3093 11.744 79.8613 11.608 79.2533 11.608H77.1773V14.716ZM86.7005 19.12C86.0205 19.12 85.4365 19.004 84.9485 18.772C84.4605 18.532 84.0845 18.168 83.8205 17.68C83.5565 17.184 83.4085 16.564 83.3765 15.82C83.3685 15.468 83.3645 15.132 83.3645 14.812C83.3645 14.484 83.3685 14.144 83.3765 13.792C83.4085 13.056 83.5605 12.444 83.8325 11.956C84.1125 11.46 84.4965 11.092 84.9845 10.852C85.4805 10.604 86.0525 10.48 86.7005 10.48C87.3565 10.48 87.9285 10.604 88.4165 10.852C88.9125 11.092 89.3005 11.46 89.5805 11.956C89.8605 12.444 90.0125 13.056 90.0365 13.792C90.0525 14.144 90.0605 14.484 90.0605 14.812C90.0605 15.132 90.0525 15.468 90.0365 15.82C90.0125 16.564 89.8645 17.184 89.5925 17.68C89.3285 18.168 88.9525 18.532 88.4645 18.772C87.9765 19.004 87.3885 19.12 86.7005 19.12ZM86.7005 18.1C87.3165 18.1 87.8165 17.916 88.2005 17.548C88.5925 17.18 88.8045 16.584 88.8365 15.76C88.8525 15.4 88.8605 15.08 88.8605 14.8C88.8605 14.512 88.8525 14.192 88.8365 13.84C88.8205 13.288 88.7165 12.84 88.5245 12.496C88.3405 12.152 88.0925 11.9 87.7805 11.74C87.4685 11.58 87.1085 11.5 86.7005 11.5C86.3085 11.5 85.9565 11.58 85.6445 11.74C85.3325 11.9 85.0805 12.152 84.8885 12.496C84.7045 12.84 84.6005 13.288 84.5765 13.84C84.5685 14.192 84.5645 14.512 84.5645 14.8C84.5645 15.08 84.5685 15.4 84.5765 15.76C84.6085 16.584 84.8205 17.18 85.2125 17.548C85.6045 17.916 86.1005 18.1 86.7005 18.1ZM91.3176 20.668C91.2376 20.668 91.1696 20.644 91.1136 20.596C91.0656 20.548 91.0416 20.48 91.0416 20.392V18.196C91.0416 18.116 91.0656 18.052 91.1136 18.004C91.1696 17.948 91.2376 17.92 91.3176 17.92H91.5696C91.7616 17.92 91.9296 17.832 92.0736 17.656C92.2176 17.48 92.3376 17.212 92.4336 16.852C92.5376 16.484 92.6136 16.02 92.6616 15.46C92.7096 14.9 92.7336 14.236 92.7336 13.468V10.876C92.7336 10.796 92.7576 10.732 92.8056 10.684C92.8616 10.628 92.9296 10.6 93.0096 10.6H97.6896C97.7776 10.6 97.8456 10.628 97.8936 10.684C97.9496 10.732 97.9776 10.8 97.9776 10.888V17.92H98.5656C98.6536 17.92 98.7216 17.948 98.7696 18.004C98.8256 18.052 98.8536 18.116 98.8536 18.196V20.392C98.8536 20.472 98.8256 20.536 98.7696 20.584C98.7216 20.64 98.6536 20.668 98.5656 20.668H97.9536C97.8656 20.668 97.7976 20.64 97.7496 20.584C97.7016 20.536 97.6776 20.472 97.6776 20.392V19H92.2176V20.392C92.2176 20.472 92.1896 20.536 92.1336 20.584C92.0856 20.64 92.0176 20.668 91.9296 20.668H91.3176ZM93.1056 17.92H96.8016V11.68H93.8856V13.612C93.8856 14.748 93.8176 15.664 93.6816 16.36C93.5536 17.056 93.3616 17.576 93.1056 17.92ZM99.7417 19C99.6777 19 99.6217 18.976 99.5737 18.928C99.5257 18.88 99.5017 18.824 99.5017 18.76C99.5017 18.72 99.5057 18.676 99.5137 18.628L102.49 10.864C102.522 10.784 102.566 10.72 102.622 10.672C102.678 10.624 102.762 10.6 102.874 10.6H103.69C103.794 10.6 103.874 10.624 103.93 10.672C103.994 10.72 104.042 10.784 104.074 10.864L107.038 18.628C107.054 18.676 107.062 18.72 107.062 18.76C107.062 18.824 107.038 18.88 106.99 18.928C106.942 18.976 106.886 19 106.822 19H106.21C106.114 19 106.042 18.976 105.994 18.928C105.954 18.88 105.926 18.836 105.91 18.796L105.25 17.092H101.314L100.654 18.796C100.646 18.836 100.618 18.88 100.57 18.928C100.522 18.976 100.45 19 100.354 19H99.7417ZM101.662 16.06H104.902L103.282 11.8L101.662 16.06ZM108.033 19C107.953 19 107.885 18.972 107.829 18.916C107.781 18.86 107.757 18.792 107.757 18.712C107.757 18.656 107.769 18.612 107.793 18.58L110.325 14.668L108.021 10.996C107.981 10.94 107.961 10.888 107.961 10.84C107.961 10.776 107.981 10.72 108.021 10.672C108.061 10.624 108.125 10.6 108.213 10.6H108.849C108.953 10.6 109.037 10.616 109.101 10.648C109.165 10.68 109.217 10.728 109.257 10.792L111.393 14.212H112.665V10.876C112.665 10.796 112.689 10.732 112.737 10.684C112.793 10.628 112.861 10.6 112.941 10.6H113.541C113.629 10.6 113.697 10.628 113.745 10.684C113.793 10.732 113.817 10.796 113.817 10.876V14.212H115.077L117.213 10.792C117.253 10.728 117.305 10.68 117.369 10.648C117.441 10.616 117.525 10.6 117.621 10.6H118.281C118.361 10.6 118.421 10.624 118.461 10.672C118.501 10.72 118.521 10.776 118.521 10.84C118.521 10.888 118.501 10.94 118.461 10.996L116.157 14.668L118.701 18.58C118.717 18.612 118.725 18.656 118.725 18.712C118.725 18.792 118.697 18.86 118.641 18.916C118.593 18.972 118.529 19 118.449 19H117.777C117.689 19 117.621 18.984 117.573 18.952C117.525 18.912 117.485 18.868 117.453 18.82L115.137 15.28H113.817V18.736C113.817 18.808 113.793 18.872 113.745 18.928C113.697 18.976 113.629 19 113.541 19H112.941C112.861 19 112.793 18.976 112.737 18.928C112.689 18.872 112.665 18.804 112.665 18.724V15.28H111.333L109.029 18.82C108.997 18.868 108.957 18.912 108.909 18.952C108.869 18.984 108.805 19 108.717 19H108.033Z" fill="#443E3E"/>
</svg>
