<svg width="139" height="30" viewBox="0 0 139 30" fill="none" xmlns="http://www.w3.org/2000/svg">
<rect width="139" height="30" fill="#69A042"/>
<path d="M20.8078 8.2347C20.5897 8.30742 20.4178 8.40988 20.279 8.5454C20.2063 8.61482 19.5584 9.49734 18.8346 10.5055C17.4728 12.4126 17.2216 12.7399 16.6729 13.3084L16.3457 13.6521L16.2035 13.4373C15.5788 12.4787 14.2468 12.3432 13.4502 13.1497C13.1957 13.4075 13.0469 13.6819 12.9742 14.0256C12.9015 14.3694 12.9015 20.0612 12.9742 20.4049C13.1163 21.0726 13.632 21.6048 14.2864 21.7601C15.0367 21.9353 15.8234 21.618 16.2167 20.9801L16.339 20.785L16.6729 21.109C17.053 21.4725 17.3306 21.6345 17.7636 21.7436C18.0148 21.8064 18.1371 21.8097 20.5897 21.8097C23.4158 21.8097 23.3827 21.8097 23.7793 21.6048C24.0305 21.4725 24.4239 21.0891 24.5363 20.8677C24.7742 20.395 26.9194 15.5097 26.9822 15.2982C27.045 15.08 27.0549 14.971 27.0549 14.4058C27.0549 13.8141 27.0483 13.7447 26.9789 13.5761C26.8169 13.1696 26.5195 12.8655 26.146 12.7101C25.9642 12.6374 25.9542 12.6374 23.7926 12.6275C22.596 12.6242 21.6177 12.611 21.6177 12.6043C21.6177 12.5944 21.7994 12.1383 22.0176 11.5896C22.2391 11.0376 22.4539 10.4889 22.4969 10.3666C22.7712 9.56014 22.4506 8.67431 21.7631 8.33386C21.5416 8.22479 21.4788 8.21157 21.2276 8.20165C21.0524 8.19504 20.8872 8.20826 20.8078 8.2347ZM21.4987 9.0412C21.7036 9.18664 21.849 9.48742 21.849 9.77168C21.849 9.97661 21.816 10.0725 21.2706 11.4376C20.9533 12.2342 20.6922 12.9316 20.6922 12.9845C20.6922 13.1233 20.7484 13.2291 20.8574 13.2919C20.9401 13.3414 21.1714 13.348 23.3265 13.348C25.2238 13.3514 25.7262 13.3613 25.8253 13.3943C26.0137 13.4637 26.1658 13.5959 26.2484 13.7678C26.3211 13.9133 26.3277 13.9694 26.3244 14.3892C26.3244 14.6537 26.3046 14.9313 26.2815 15.0338C26.2385 15.2056 24.1 20.0645 23.8884 20.4644C23.7694 20.6958 23.5876 20.8611 23.3397 20.9801L23.1546 21.066L20.6922 21.0759C17.9421 21.0858 17.9355 21.0858 17.5653 20.8644C17.4562 20.7983 17.1786 20.557 16.934 20.3124L16.4944 19.8761V17.2186V14.5644L17.0497 13.9959C17.7901 13.2357 18.0248 12.9349 19.5022 10.8691C20.1997 9.89728 20.7913 9.08087 20.8211 9.05773C21.0227 8.89246 21.2772 8.88585 21.4987 9.0412ZM15.1227 13.4439C15.3408 13.5398 15.5458 13.7513 15.6548 13.986L15.7507 14.1909V17.2153V20.2397L15.6548 20.4446C15.473 20.8445 15.1359 21.0627 14.7095 21.0627C14.2831 21.0627 13.946 20.8445 13.7642 20.4446L13.6683 20.2397V17.2153V14.1909L13.7609 13.9926C14.0154 13.4472 14.6004 13.2125 15.1227 13.4439Z" fill="white"/>
<path d="M41.32 19C41.232 19 41.164 18.976 41.116 18.928C41.068 18.872 41.044 18.804 41.044 18.724V10.888C41.044 10.8 41.068 10.732 41.116 10.684C41.164 10.628 41.232 10.6 41.32 10.6H44.368C44.96 10.6 45.472 10.696 45.904 10.888C46.344 11.08 46.684 11.368 46.924 11.752C47.164 12.128 47.284 12.6 47.284 13.168C47.284 13.736 47.164 14.208 46.924 14.584C46.684 14.96 46.344 15.244 45.904 15.436C45.472 15.628 44.96 15.724 44.368 15.724H42.244V18.724C42.244 18.804 42.216 18.872 42.16 18.928C42.112 18.976 42.044 19 41.956 19H41.32ZM42.232 14.716H44.308C44.9 14.716 45.344 14.584 45.64 14.32C45.936 14.056 46.084 13.672 46.084 13.168C46.084 12.672 45.94 12.288 45.652 12.016C45.364 11.744 44.916 11.608 44.308 11.608H42.232V14.716ZM49.0192 19C48.9312 19 48.8632 18.976 48.8152 18.928C48.7672 18.872 48.7432 18.804 48.7432 18.724V10.888C48.7432 10.8 48.7672 10.732 48.8152 10.684C48.8632 10.628 48.9312 10.6 49.0192 10.6H53.9752C54.0632 10.6 54.1312 10.628 54.1792 10.684C54.2272 10.732 54.2512 10.8 54.2512 10.888V11.344C54.2512 11.432 54.2272 11.5 54.1792 11.548C54.1312 11.596 54.0632 11.62 53.9752 11.62H49.8952V14.248H53.7112C53.7992 14.248 53.8672 14.276 53.9152 14.332C53.9632 14.38 53.9872 14.448 53.9872 14.536V14.98C53.9872 15.06 53.9632 15.128 53.9152 15.184C53.8672 15.232 53.7992 15.256 53.7112 15.256H49.8952V17.98H54.0712C54.1592 17.98 54.2272 18.004 54.2752 18.052C54.3232 18.1 54.3472 18.168 54.3472 18.256V18.724C54.3472 18.804 54.3232 18.872 54.2752 18.928C54.2272 18.976 54.1592 19 54.0712 19H49.0192ZM56.2966 19C56.2086 19 56.1406 18.976 56.0926 18.928C56.0446 18.872 56.0206 18.804 56.0206 18.724V10.888C56.0206 10.8 56.0446 10.732 56.0926 10.684C56.1406 10.628 56.2086 10.6 56.2966 10.6H56.9086C56.9966 10.6 57.0646 10.628 57.1126 10.684C57.1686 10.732 57.1966 10.8 57.1966 10.888V14.2H58.5526L60.6886 10.792C60.7286 10.728 60.7806 10.68 60.8446 10.648C60.9086 10.616 60.9926 10.6 61.0966 10.6H61.7446C61.8326 10.6 61.8966 10.624 61.9366 10.672C61.9766 10.72 61.9966 10.776 61.9966 10.84C61.9966 10.888 61.9766 10.94 61.9366 10.996L59.6326 14.668L62.1646 18.58C62.1886 18.612 62.2006 18.656 62.2006 18.712C62.2006 18.792 62.1726 18.86 62.1166 18.916C62.0686 18.972 62.0046 19 61.9246 19H61.2406C61.1526 19 61.0846 18.984 61.0366 18.952C60.9966 18.912 60.9606 18.868 60.9286 18.82L58.6006 15.28H57.1966V18.724C57.1966 18.804 57.1686 18.872 57.1126 18.928C57.0646 18.976 56.9966 19 56.9086 19H56.2966ZM66.7083 19.12C66.0283 19.12 65.4443 19.004 64.9563 18.772C64.4683 18.532 64.0923 18.168 63.8283 17.68C63.5643 17.184 63.4163 16.564 63.3843 15.82C63.3763 15.468 63.3723 15.132 63.3723 14.812C63.3723 14.484 63.3763 14.144 63.3843 13.792C63.4163 13.056 63.5683 12.444 63.8403 11.956C64.1203 11.46 64.5043 11.092 64.9923 10.852C65.4883 10.604 66.0603 10.48 66.7083 10.48C67.3643 10.48 67.9363 10.604 68.4243 10.852C68.9203 11.092 69.3083 11.46 69.5883 11.956C69.8683 12.444 70.0203 13.056 70.0443 13.792C70.0603 14.144 70.0683 14.484 70.0683 14.812C70.0683 15.132 70.0603 15.468 70.0443 15.82C70.0203 16.564 69.8723 17.184 69.6003 17.68C69.3363 18.168 68.9603 18.532 68.4723 18.772C67.9843 19.004 67.3963 19.12 66.7083 19.12ZM66.7083 18.1C67.3243 18.1 67.8243 17.916 68.2083 17.548C68.6003 17.18 68.8123 16.584 68.8443 15.76C68.8603 15.4 68.8683 15.08 68.8683 14.8C68.8683 14.512 68.8603 14.192 68.8443 13.84C68.8283 13.288 68.7243 12.84 68.5323 12.496C68.3483 12.152 68.1003 11.9 67.7883 11.74C67.4763 11.58 67.1163 11.5 66.7083 11.5C66.3163 11.5 65.9643 11.58 65.6523 11.74C65.3403 11.9 65.0883 12.152 64.8963 12.496C64.7123 12.84 64.6083 13.288 64.5843 13.84C64.5763 14.192 64.5723 14.512 64.5723 14.8C64.5723 15.08 64.5763 15.4 64.5843 15.76C64.6163 16.584 64.8283 17.18 65.2203 17.548C65.6123 17.916 66.1083 18.1 66.7083 18.1ZM72.0934 19C72.0134 19 71.9454 18.976 71.8894 18.928C71.8414 18.872 71.8174 18.804 71.8174 18.724V10.888C71.8174 10.8 71.8414 10.732 71.8894 10.684C71.9454 10.628 72.0134 10.6 72.0934 10.6H72.6934C72.7894 10.6 72.8614 10.624 72.9094 10.672C72.9574 10.72 72.9854 10.76 72.9934 10.792L75.5374 15.64L78.0934 10.792C78.1094 10.76 78.1374 10.72 78.1774 10.672C78.2254 10.624 78.2974 10.6 78.3934 10.6H78.9814C79.0694 10.6 79.1374 10.628 79.1854 10.684C79.2414 10.732 79.2694 10.8 79.2694 10.888V18.724C79.2694 18.804 79.2414 18.872 79.1854 18.928C79.1374 18.976 79.0694 19 78.9814 19H78.3934C78.3134 19 78.2454 18.976 78.1894 18.928C78.1414 18.872 78.1174 18.804 78.1174 18.724V12.82L76.1134 16.732C76.0814 16.812 76.0334 16.876 75.9694 16.924C75.9054 16.964 75.8254 16.984 75.7294 16.984H75.3574C75.2534 16.984 75.1694 16.964 75.1054 16.924C75.0494 16.876 75.0014 16.812 74.9614 16.732L72.9574 12.82V18.724C72.9574 18.804 72.9294 18.872 72.8734 18.928C72.8254 18.976 72.7614 19 72.6814 19H72.0934ZM81.6208 19C81.5328 19 81.4648 18.976 81.4168 18.928C81.3688 18.872 81.3448 18.804 81.3448 18.724V10.888C81.3448 10.8 81.3688 10.732 81.4168 10.684C81.4648 10.628 81.5328 10.6 81.6208 10.6H86.5768C86.6648 10.6 86.7328 10.628 86.7808 10.684C86.8288 10.732 86.8528 10.8 86.8528 10.888V11.344C86.8528 11.432 86.8288 11.5 86.7808 11.548C86.7328 11.596 86.6648 11.62 86.5768 11.62H82.4968V14.248H86.3128C86.4008 14.248 86.4688 14.276 86.5168 14.332C86.5648 14.38 86.5888 14.448 86.5888 14.536V14.98C86.5888 15.06 86.5648 15.128 86.5168 15.184C86.4688 15.232 86.4008 15.256 86.3128 15.256H82.4968V17.98H86.6728C86.7608 17.98 86.8288 18.004 86.8768 18.052C86.9248 18.1 86.9488 18.168 86.9488 18.256V18.724C86.9488 18.804 86.9248 18.872 86.8768 18.928C86.8288 18.976 86.7608 19 86.6728 19H81.6208ZM88.8981 19C88.8101 19 88.7421 18.976 88.6941 18.928C88.6461 18.872 88.6221 18.804 88.6221 18.724V10.888C88.6221 10.8 88.6461 10.732 88.6941 10.684C88.7421 10.628 88.8101 10.6 88.8981 10.6H89.5101C89.5981 10.6 89.6661 10.628 89.7141 10.684C89.7701 10.732 89.7981 10.8 89.7981 10.888V14.2H93.9261V10.888C93.9261 10.8 93.9501 10.732 93.9981 10.684C94.0541 10.628 94.1221 10.6 94.2021 10.6H94.8141C94.9021 10.6 94.9701 10.628 95.0181 10.684C95.0741 10.732 95.1021 10.8 95.1021 10.888V18.724C95.1021 18.804 95.0741 18.872 95.0181 18.928C94.9701 18.976 94.9021 19 94.8141 19H94.2021C94.1221 19 94.0541 18.976 93.9981 18.928C93.9501 18.872 93.9261 18.804 93.9261 18.724V15.28H89.7981V18.724C89.7981 18.804 89.7701 18.872 89.7141 18.928C89.6661 18.976 89.5981 19 89.5101 19H88.8981ZM96.6848 20.668C96.6048 20.668 96.5368 20.644 96.4808 20.596C96.4328 20.548 96.4088 20.48 96.4088 20.392V18.196C96.4088 18.116 96.4328 18.052 96.4808 18.004C96.5368 17.948 96.6048 17.92 96.6848 17.92H96.9368C97.1288 17.92 97.2968 17.832 97.4408 17.656C97.5848 17.48 97.7048 17.212 97.8008 16.852C97.9048 16.484 97.9808 16.02 98.0288 15.46C98.0768 14.9 98.1008 14.236 98.1008 13.468V10.876C98.1008 10.796 98.1248 10.732 98.1728 10.684C98.2288 10.628 98.2968 10.6 98.3768 10.6H103.057C103.145 10.6 103.213 10.628 103.261 10.684C103.317 10.732 103.345 10.8 103.345 10.888V17.92H103.933C104.021 17.92 104.089 17.948 104.137 18.004C104.193 18.052 104.221 18.116 104.221 18.196V20.392C104.221 20.472 104.193 20.536 104.137 20.584C104.089 20.64 104.021 20.668 103.933 20.668H103.321C103.233 20.668 103.165 20.64 103.117 20.584C103.069 20.536 103.045 20.472 103.045 20.392V19H97.5848V20.392C97.5848 20.472 97.5568 20.536 97.5008 20.584C97.4528 20.64 97.3848 20.668 97.2968 20.668H96.6848ZM98.4728 17.92H102.169V11.68H99.2528V13.612C99.2528 14.748 99.1848 15.664 99.0488 16.36C98.9208 17.056 98.7288 17.576 98.4728 17.92ZM106.057 19C105.977 19 105.909 18.976 105.853 18.928C105.805 18.872 105.781 18.804 105.781 18.724V18.22C105.781 18.132 105.805 18.064 105.853 18.016C105.909 17.96 105.977 17.932 106.057 17.932H106.477C106.733 17.932 106.953 17.872 107.137 17.752C107.321 17.624 107.493 17.428 107.653 17.164C107.821 16.9 107.993 16.556 108.169 16.132L110.509 10.804C110.533 10.732 110.573 10.68 110.629 10.648C110.685 10.616 110.745 10.6 110.809 10.6H111.457C111.521 10.6 111.577 10.624 111.625 10.672C111.673 10.72 111.697 10.776 111.697 10.84C111.697 10.872 111.693 10.904 111.685 10.936C111.685 10.96 111.677 10.984 111.661 11.008L109.213 16.552C109.021 16.976 108.841 17.344 108.673 17.656C108.505 17.96 108.325 18.212 108.133 18.412C107.941 18.612 107.717 18.76 107.461 18.856C107.205 18.952 106.897 19 106.537 19H106.057ZM108.097 16.96L104.821 10.984C104.797 10.936 104.785 10.892 104.785 10.852C104.785 10.788 104.809 10.732 104.857 10.684C104.913 10.628 104.973 10.6 105.037 10.6H105.709C105.781 10.6 105.841 10.616 105.889 10.648C105.937 10.68 105.977 10.732 106.009 10.804L108.733 15.76L108.097 16.96ZM113.015 19C112.927 19 112.859 18.976 112.811 18.928C112.763 18.872 112.739 18.804 112.739 18.724V10.888C112.739 10.8 112.763 10.732 112.811 10.684C112.859 10.628 112.927 10.6 113.015 10.6H117.971C118.059 10.6 118.127 10.628 118.175 10.684C118.223 10.732 118.247 10.8 118.247 10.888V11.344C118.247 11.432 118.223 11.5 118.175 11.548C118.127 11.596 118.059 11.62 117.971 11.62H113.891V14.248H117.707C117.795 14.248 117.863 14.276 117.911 14.332C117.959 14.38 117.983 14.448 117.983 14.536V14.98C117.983 15.06 117.959 15.128 117.911 15.184C117.863 15.232 117.795 15.256 117.707 15.256H113.891V17.98H118.067C118.155 17.98 118.223 18.004 118.271 18.052C118.319 18.1 118.343 18.168 118.343 18.256V18.724C118.343 18.804 118.319 18.872 118.271 18.928C118.223 18.976 118.155 19 118.067 19H113.015ZM120.293 19C120.213 19 120.145 18.976 120.089 18.928C120.041 18.872 120.017 18.804 120.017 18.724V10.888C120.017 10.8 120.041 10.732 120.089 10.684C120.145 10.628 120.213 10.6 120.293 10.6H120.893C120.989 10.6 121.061 10.624 121.109 10.672C121.157 10.72 121.185 10.76 121.193 10.792L123.737 15.64L126.293 10.792C126.309 10.76 126.337 10.72 126.377 10.672C126.425 10.624 126.497 10.6 126.593 10.6H127.181C127.269 10.6 127.337 10.628 127.385 10.684C127.441 10.732 127.469 10.8 127.469 10.888V18.724C127.469 18.804 127.441 18.872 127.385 18.928C127.337 18.976 127.269 19 127.181 19H126.593C126.513 19 126.445 18.976 126.389 18.928C126.341 18.872 126.317 18.804 126.317 18.724V12.82L124.313 16.732C124.281 16.812 124.233 16.876 124.169 16.924C124.105 16.964 124.025 16.984 123.929 16.984H123.557C123.453 16.984 123.369 16.964 123.305 16.924C123.249 16.876 123.201 16.812 123.161 16.732L121.157 12.82V18.724C121.157 18.804 121.129 18.872 121.073 18.928C121.025 18.976 120.961 19 120.881 19H120.293Z" fill="white"/>
</svg>
