<svg width="169" height="40" viewBox="0 0 169 40" fill="none" xmlns="http://www.w3.org/2000/svg">
<path d="M18.3239 6.46519C14.175 7.20973 11.0263 10.2618 10.1624 14.3766C10.009 15.1098 9.95213 16.9399 10.0488 17.9061C10.3613 20.8672 11.5606 23.726 13.743 26.6985C14.533 27.7727 15.1071 28.4661 17.3862 31.1032C18.0909 31.916 18.8241 32.7799 19.023 33.0243C19.4379 33.5301 19.6027 33.6324 20.0006 33.6324C20.3984 33.6324 20.5633 33.5301 20.9782 33.0243C21.1771 32.7799 21.9216 31.9046 22.6434 31.0748C25.0816 28.2615 26.0649 27.0338 26.9743 25.6755C28.702 23.0838 29.6739 20.5376 29.9524 17.9061C30.049 16.9399 29.9922 15.1041 29.8388 14.3937C28.9692 10.3698 26.0706 7.43707 22.0751 6.53908C21.5408 6.41972 21.268 6.39699 20.1995 6.37426C19.1367 6.35721 18.8582 6.36857 18.3239 6.46519ZM20.7679 8.24982C21.6886 8.30665 22.9674 8.68745 23.8654 9.18191C24.5531 9.55702 25.1385 10.006 25.7694 10.6369C26.9117 11.785 27.6335 13.1149 27.9859 14.7063C28.1337 15.3599 28.1621 17.1104 28.0484 18.0027C27.6449 21.0661 26.2581 23.834 23.3993 27.2782C22.5354 28.324 20.0404 31.1885 20.0006 31.1885C19.9608 31.1885 17.4657 28.324 16.6018 27.2782C13.743 23.834 12.3392 21.032 11.9527 17.9914C11.8106 16.8717 11.8618 15.2974 12.0664 14.4789C12.4586 12.9273 13.1349 11.7338 14.2546 10.6142C15.3969 9.47177 16.6018 8.79543 18.1534 8.42032C18.7218 8.28392 19.7732 8.17025 20.1143 8.20435C20.1938 8.21572 20.4894 8.23277 20.7679 8.24982Z" fill="#E81212"/>
<path d="M18.8639 10.9836C16.8349 11.4383 15.2833 12.8989 14.7035 14.9109C14.5899 15.3031 14.5728 15.4849 14.5728 16.3545C14.5728 17.2241 14.5899 17.406 14.7035 17.7981C15.2492 19.685 16.6587 21.1002 18.5286 21.6459C19.1708 21.8277 20.4723 21.8618 21.1771 21.7084C23.172 21.2651 24.7179 19.7987 25.2976 17.7981C25.4113 17.406 25.4283 17.2241 25.4283 16.3545C25.4283 15.4849 25.4113 15.3031 25.2976 14.9109C24.752 13.024 23.3482 11.6145 21.4726 11.0632C20.9213 10.904 19.4322 10.8585 18.8639 10.9836ZM21.1373 12.9444C22.1831 13.2968 23.0754 14.1891 23.4164 15.2235C23.53 15.5815 23.5528 15.7521 23.5528 16.3829C23.5528 17.0365 23.5357 17.1672 23.405 17.531C22.3536 20.4125 18.4945 20.8047 16.9088 18.1846C16.545 17.5821 16.4484 17.2127 16.4484 16.3829C16.4484 15.7521 16.4711 15.5815 16.5848 15.2292C17.1986 13.3593 19.2731 12.3192 21.1373 12.9444Z" fill="#E81212"/>
<path fill-rule="evenodd" clip-rule="evenodd" d="M20.7679 8.24982C21.6886 8.30665 22.9674 8.68745 23.8654 9.18191C24.5531 9.55702 25.1385 10.006 25.7694 10.6369C26.9117 11.785 27.6335 13.1149 27.9859 14.7063C28.1337 15.3599 28.1621 17.1104 28.0484 18.0027C27.6449 21.0661 26.2581 23.834 23.3993 27.2782C22.5354 28.324 20.0404 31.1885 20.0006 31.1885C19.9608 31.1885 17.4657 28.324 16.6018 27.2782C13.743 23.834 12.3392 21.032 11.9527 17.9914C11.8106 16.8717 11.8618 15.2974 12.0664 14.4789C12.4586 12.9273 13.1349 11.7338 14.2546 10.6142C15.3969 9.47177 16.6018 8.79543 18.1534 8.42032C18.7218 8.28392 19.7732 8.17025 20.1143 8.20435C20.1938 8.21572 20.4894 8.23277 20.7679 8.24982ZM14.7035 14.9109C15.2833 12.8989 16.8349 11.4383 18.8639 10.9836C19.4322 10.8585 20.9213 10.904 21.4726 11.0632C23.3482 11.6145 24.752 13.024 25.2976 14.9109C25.4113 15.3031 25.4283 15.4849 25.4283 16.3545C25.4283 17.2241 25.4113 17.406 25.2976 17.7981C24.7179 19.7987 23.172 21.2651 21.1771 21.7084C20.4723 21.8618 19.1708 21.8277 18.5286 21.6459C16.6587 21.1002 15.2492 19.685 14.7035 17.7981C14.5899 17.406 14.5728 17.2241 14.5728 16.3545C14.5728 15.4849 14.5899 15.3031 14.7035 14.9109Z" fill="#E81212"/>
<path d="M45.56 24.5C45.4853 24.5 45.42 24.472 45.364 24.416C45.308 24.36 45.28 24.2947 45.28 24.22C45.28 24.1733 45.2847 24.122 45.294 24.066L48.766 15.008C48.8033 14.9147 48.8547 14.84 48.92 14.784C48.9853 14.728 49.0833 14.7 49.214 14.7H50.166C50.2873 14.7 50.3807 14.728 50.446 14.784C50.5207 14.84 50.5767 14.9147 50.614 15.008L54.072 24.066C54.0907 24.122 54.1 24.1733 54.1 24.22C54.1 24.2947 54.072 24.36 54.016 24.416C53.96 24.472 53.8947 24.5 53.82 24.5H53.106C52.994 24.5 52.91 24.472 52.854 24.416C52.8073 24.36 52.7747 24.3087 52.756 24.262L51.986 22.274H47.394L46.624 24.262C46.6147 24.3087 46.582 24.36 46.526 24.416C46.47 24.472 46.386 24.5 46.274 24.5H45.56ZM47.8 21.07H51.58L49.69 16.1L47.8 21.07ZM54.9949 26.04C54.9016 26.04 54.8222 26.0073 54.7569 25.942C54.7009 25.886 54.6729 25.8113 54.6729 25.718V23.702C54.6729 23.6087 54.7009 23.534 54.7569 23.478C54.8222 23.4127 54.9016 23.38 54.9949 23.38H55.0649C55.3169 23.3707 55.5316 23.2307 55.7089 22.96C55.8862 22.68 56.0216 22.246 56.1149 21.658C56.2082 21.0607 56.2549 20.286 56.2549 19.334V17.542C56.2549 17.4487 56.2829 17.374 56.3389 17.318C56.4042 17.2527 56.4836 17.22 56.5769 17.22H61.0429C61.1362 17.22 61.2109 17.2527 61.2669 17.318C61.3322 17.374 61.3649 17.4487 61.3649 17.542V23.352H62.0229C62.1256 23.352 62.2049 23.3847 62.2609 23.45C62.3169 23.506 62.3449 23.5807 62.3449 23.674V25.718C62.3449 25.8113 62.3169 25.886 62.2609 25.942C62.2049 26.0073 62.1256 26.04 62.0229 26.04H61.3649C61.2716 26.04 61.1922 26.0073 61.1269 25.942C61.0709 25.886 61.0429 25.8113 61.0429 25.718V24.5H55.9749V25.718C55.9749 25.8113 55.9422 25.886 55.8769 25.942C55.8209 26.0073 55.7462 26.04 55.6529 26.04H54.9949ZM56.7309 23.38L60.0629 23.352V18.34H57.5289V19.488C57.5289 20.4773 57.4589 21.2893 57.3189 21.924C57.1789 22.5493 56.9829 23.0347 56.7309 23.38ZM64.1454 27.16C64.0521 27.16 63.9728 27.1273 63.9074 27.062C63.8514 27.006 63.8234 26.9313 63.8234 26.838V17.542C63.8234 17.4487 63.8514 17.374 63.9074 17.318C63.9728 17.2527 64.0521 17.22 64.1454 17.22H64.7894C64.8828 17.22 64.9574 17.2527 65.0134 17.318C65.0788 17.374 65.1114 17.4487 65.1114 17.542V18.158C65.3354 17.85 65.6341 17.5933 66.0074 17.388C66.3808 17.1827 66.8474 17.08 67.4074 17.08C67.9301 17.08 68.3734 17.1687 68.7374 17.346C69.1108 17.5233 69.4141 17.766 69.6474 18.074C69.8901 18.382 70.0721 18.732 70.1934 19.124C70.3148 19.516 70.3801 19.936 70.3894 20.384C70.3988 20.5333 70.4034 20.692 70.4034 20.86C70.4034 21.028 70.3988 21.1867 70.3894 21.336C70.3801 21.7747 70.3148 22.1947 70.1934 22.596C70.0721 22.988 69.8901 23.338 69.6474 23.646C69.4141 23.9447 69.1108 24.1873 68.7374 24.374C68.3734 24.5513 67.9301 24.64 67.4074 24.64C66.8661 24.64 66.4088 24.542 66.0354 24.346C65.6714 24.1407 65.3728 23.8887 65.1394 23.59V26.838C65.1394 26.9313 65.1114 27.006 65.0554 27.062C64.9994 27.1273 64.9201 27.16 64.8174 27.16H64.1454ZM67.1134 23.506C67.5988 23.506 67.9768 23.4033 68.2474 23.198C68.5274 22.9833 68.7281 22.708 68.8494 22.372C68.9708 22.0267 69.0408 21.658 69.0594 21.266C69.0688 20.9953 69.0688 20.7247 69.0594 20.454C69.0408 20.062 68.9708 19.698 68.8494 19.362C68.7281 19.0167 68.5274 18.7413 68.2474 18.536C67.9768 18.3213 67.5988 18.214 67.1134 18.214C66.6561 18.214 66.2828 18.3213 65.9934 18.536C65.7134 18.7507 65.5034 19.026 65.3634 19.362C65.2328 19.6887 65.1581 20.0247 65.1394 20.37C65.1301 20.5193 65.1254 20.6967 65.1254 20.902C65.1254 21.1073 65.1301 21.2893 65.1394 21.448C65.1488 21.7747 65.2234 22.0967 65.3634 22.414C65.5128 22.7313 65.7321 22.9927 66.0214 23.198C66.3108 23.4033 66.6748 23.506 67.1134 23.506ZM75.0473 24.64C74.0859 24.64 73.3206 24.346 72.7513 23.758C72.1819 23.1607 71.8693 22.3487 71.8133 21.322C71.8039 21.2007 71.7993 21.0467 71.7993 20.86C71.7993 20.664 71.8039 20.5053 71.8133 20.384C71.8506 19.7213 72.0046 19.1427 72.2753 18.648C72.5459 18.144 72.9146 17.7567 73.3813 17.486C73.8573 17.2153 74.4126 17.08 75.0473 17.08C75.7566 17.08 76.3493 17.2293 76.8253 17.528C77.3106 17.8267 77.6793 18.2513 77.9313 18.802C78.1833 19.3527 78.3093 19.9967 78.3093 20.734V20.972C78.3093 21.0747 78.2766 21.154 78.2113 21.21C78.1553 21.266 78.0806 21.294 77.9873 21.294H73.1433C73.1433 21.3033 73.1433 21.322 73.1433 21.35C73.1433 21.378 73.1433 21.4013 73.1433 21.42C73.1619 21.8027 73.2459 22.162 73.3953 22.498C73.5446 22.8247 73.7593 23.0907 74.0393 23.296C74.3193 23.5013 74.6553 23.604 75.0473 23.604C75.3833 23.604 75.6633 23.5527 75.8873 23.45C76.1113 23.3473 76.2933 23.2353 76.4333 23.114C76.5733 22.9833 76.6666 22.8853 76.7133 22.82C76.7973 22.6987 76.8626 22.6287 76.9093 22.61C76.9559 22.582 77.0306 22.568 77.1333 22.568H77.8053C77.8986 22.568 77.9733 22.596 78.0293 22.652C78.0946 22.6987 78.1226 22.7687 78.1133 22.862C78.1039 23.002 78.0293 23.1747 77.8893 23.38C77.7493 23.576 77.5486 23.772 77.2873 23.968C77.0259 24.164 76.7086 24.3273 76.3353 24.458C75.9619 24.5793 75.5326 24.64 75.0473 24.64ZM73.1433 20.328H76.9793V20.286C76.9793 19.866 76.8999 19.4927 76.7413 19.166C76.5919 18.8393 76.3726 18.5827 76.0833 18.396C75.7939 18.2 75.4486 18.102 75.0473 18.102C74.6459 18.102 74.3006 18.2 74.0113 18.396C73.7313 18.5827 73.5166 18.8393 73.3673 19.166C73.2179 19.4927 73.1433 19.866 73.1433 20.286V20.328ZM82.9233 24.64C82.2606 24.64 81.6866 24.514 81.2013 24.262C80.7253 24.0007 80.3566 23.632 80.0953 23.156C79.8339 22.6707 79.6939 22.092 79.6753 21.42C79.6659 21.28 79.6613 21.0933 79.6613 20.86C79.6613 20.6267 79.6659 20.44 79.6753 20.3C79.6939 19.628 79.8339 19.054 80.0953 18.578C80.3566 18.0927 80.7253 17.724 81.2013 17.472C81.6866 17.2107 82.2606 17.08 82.9233 17.08C83.4646 17.08 83.9266 17.1547 84.3093 17.304C84.7013 17.4533 85.0233 17.6447 85.2753 17.878C85.5273 18.1113 85.7139 18.3633 85.8353 18.634C85.9659 18.9047 86.0359 19.1613 86.0453 19.404C86.0546 19.4973 86.0266 19.572 85.9613 19.628C85.8959 19.684 85.8166 19.712 85.7233 19.712H85.0513C84.9579 19.712 84.8879 19.6933 84.8413 19.656C84.7946 19.6093 84.7479 19.5347 84.7013 19.432C84.5333 18.9747 84.3046 18.6527 84.0153 18.466C83.7259 18.2793 83.3666 18.186 82.9373 18.186C82.3773 18.186 81.9199 18.3587 81.5653 18.704C81.2199 19.0493 81.0333 19.6047 81.0053 20.37C80.9959 20.706 80.9959 21.0327 81.0053 21.35C81.0333 22.1247 81.2199 22.6847 81.5653 23.03C81.9199 23.366 82.3773 23.534 82.9373 23.534C83.3666 23.534 83.7259 23.4407 84.0153 23.254C84.3046 23.0673 84.5333 22.7453 84.7013 22.288C84.7479 22.1853 84.7946 22.1153 84.8413 22.078C84.8879 22.0313 84.9579 22.008 85.0513 22.008H85.7233C85.8166 22.008 85.8959 22.036 85.9613 22.092C86.0266 22.148 86.0546 22.2227 86.0453 22.316C86.0359 22.512 85.9939 22.7127 85.9193 22.918C85.8446 23.1233 85.7233 23.3333 85.5553 23.548C85.3966 23.7533 85.1959 23.94 84.9533 24.108C84.7106 24.2667 84.4166 24.3973 84.0713 24.5C83.7353 24.5933 83.3526 24.64 82.9233 24.64ZM89.7379 24.64C89.2712 24.64 88.8465 24.5467 88.4639 24.36C88.0812 24.1733 87.7732 23.9213 87.5399 23.604C87.3065 23.2867 87.1899 22.9273 87.1899 22.526C87.1899 21.882 87.4512 21.3687 87.9739 20.986C88.4965 20.6033 89.1779 20.3513 90.0179 20.23L92.1039 19.936V19.53C92.1039 19.082 91.9732 18.732 91.7119 18.48C91.4599 18.228 91.0445 18.102 90.4659 18.102C90.0459 18.102 89.7052 18.186 89.4439 18.354C89.1919 18.522 89.0145 18.7367 88.9119 18.998C88.8559 19.138 88.7579 19.208 88.6179 19.208H87.9879C87.8852 19.208 87.8059 19.18 87.7499 19.124C87.7032 19.0587 87.6799 18.984 87.6799 18.9C87.6799 18.76 87.7312 18.5873 87.8339 18.382C87.9459 18.1767 88.1139 17.976 88.3379 17.78C88.5619 17.584 88.8465 17.4207 89.1919 17.29C89.5465 17.15 89.9759 17.08 90.4799 17.08C91.0399 17.08 91.5112 17.1547 91.8939 17.304C92.2765 17.444 92.5752 17.6353 92.7899 17.878C93.0139 18.1207 93.1725 18.396 93.2659 18.704C93.3685 19.012 93.4199 19.3247 93.4199 19.642V24.178C93.4199 24.2713 93.3872 24.3507 93.3219 24.416C93.2659 24.472 93.1912 24.5 93.0979 24.5H92.4539C92.3512 24.5 92.2719 24.472 92.2159 24.416C92.1599 24.3507 92.1319 24.2713 92.1319 24.178V23.576C92.0105 23.744 91.8472 23.912 91.6419 24.08C91.4365 24.2387 91.1799 24.374 90.8719 24.486C90.5639 24.5887 90.1859 24.64 89.7379 24.64ZM90.0319 23.59C90.4145 23.59 90.7645 23.5107 91.0819 23.352C91.3992 23.184 91.6465 22.9273 91.8239 22.582C92.0105 22.2367 92.1039 21.8027 92.1039 21.28V20.888L90.4799 21.126C89.8172 21.2193 89.3179 21.378 88.9819 21.602C88.6459 21.8167 88.4779 22.092 88.4779 22.428C88.4779 22.6893 88.5525 22.9087 88.7019 23.086C88.8605 23.254 89.0565 23.38 89.2899 23.464C89.5325 23.548 89.7799 23.59 90.0319 23.59ZM99.1721 24.5C99.0788 24.5 99.0041 24.472 98.9481 24.416C98.8921 24.36 98.8641 24.2853 98.8641 24.192V17.486C98.8641 17.4113 98.8921 17.3507 98.9481 17.304C99.0135 17.248 99.0788 17.22 99.1441 17.22H99.8581C100.007 17.22 100.124 17.2947 100.208 17.444L102.588 21.896L104.982 17.444C105.066 17.2947 105.183 17.22 105.332 17.22H106.032C106.107 17.22 106.172 17.248 106.228 17.304C106.284 17.3507 106.312 17.4113 106.312 17.486V24.192C106.312 24.2853 106.284 24.36 106.228 24.416C106.172 24.472 106.102 24.5 106.018 24.5H105.332C105.239 24.5 105.164 24.472 105.108 24.416C105.052 24.36 105.024 24.2853 105.024 24.192V18.606L105.514 18.662L103.232 22.974C103.185 23.0673 103.129 23.1513 103.064 23.226C102.999 23.3007 102.901 23.338 102.77 23.338H102.406C102.285 23.338 102.191 23.3007 102.126 23.226C102.061 23.1513 102 23.0673 101.944 22.974L99.7321 18.872L100.166 18.83V24.192C100.166 24.2853 100.138 24.36 100.082 24.416C100.026 24.472 99.9515 24.5 99.8581 24.5H99.1721ZM110.437 24.64C109.97 24.64 109.546 24.5467 109.163 24.36C108.78 24.1733 108.472 23.9213 108.239 23.604C108.006 23.2867 107.889 22.9273 107.889 22.526C107.889 21.882 108.15 21.3687 108.673 20.986C109.196 20.6033 109.877 20.3513 110.717 20.23L112.803 19.936V19.53C112.803 19.082 112.672 18.732 112.411 18.48C112.159 18.228 111.744 18.102 111.165 18.102C110.745 18.102 110.404 18.186 110.143 18.354C109.891 18.522 109.714 18.7367 109.611 18.998C109.555 19.138 109.457 19.208 109.317 19.208H108.687C108.584 19.208 108.505 19.18 108.449 19.124C108.402 19.0587 108.379 18.984 108.379 18.9C108.379 18.76 108.43 18.5873 108.533 18.382C108.645 18.1767 108.813 17.976 109.037 17.78C109.261 17.584 109.546 17.4207 109.891 17.29C110.246 17.15 110.675 17.08 111.179 17.08C111.739 17.08 112.21 17.1547 112.593 17.304C112.976 17.444 113.274 17.6353 113.489 17.878C113.713 18.1207 113.872 18.396 113.965 18.704C114.068 19.012 114.119 19.3247 114.119 19.642V24.178C114.119 24.2713 114.086 24.3507 114.021 24.416C113.965 24.472 113.89 24.5 113.797 24.5H113.153C113.05 24.5 112.971 24.472 112.915 24.416C112.859 24.3507 112.831 24.2713 112.831 24.178V23.576C112.71 23.744 112.546 23.912 112.341 24.08C112.136 24.2387 111.879 24.374 111.571 24.486C111.263 24.5887 110.885 24.64 110.437 24.64ZM110.731 23.59C111.114 23.59 111.464 23.5107 111.781 23.352C112.098 23.184 112.346 22.9273 112.523 22.582C112.71 22.2367 112.803 21.8027 112.803 21.28V20.888L111.179 21.126C110.516 21.2193 110.017 21.378 109.681 21.602C109.345 21.8167 109.177 22.092 109.177 22.428C109.177 22.6893 109.252 22.9087 109.401 23.086C109.56 23.254 109.756 23.38 109.989 23.464C110.232 23.548 110.479 23.59 110.731 23.59ZM116.454 24.5C116.36 24.5 116.281 24.472 116.216 24.416C116.16 24.3507 116.132 24.2713 116.132 24.178V17.542C116.132 17.4487 116.16 17.374 116.216 17.318C116.281 17.2527 116.36 17.22 116.454 17.22H120.64C120.733 17.22 120.808 17.2527 120.864 17.318C120.92 17.374 120.948 17.4487 120.948 17.542V18.018C120.948 18.1113 120.92 18.1907 120.864 18.256C120.808 18.312 120.733 18.34 120.64 18.34H117.434V24.178C117.434 24.2713 117.406 24.3507 117.35 24.416C117.294 24.472 117.219 24.5 117.126 24.5H116.454ZM124.177 24.64C123.711 24.64 123.286 24.5467 122.903 24.36C122.521 24.1733 122.213 23.9213 121.979 23.604C121.746 23.2867 121.629 22.9273 121.629 22.526C121.629 21.882 121.891 21.3687 122.413 20.986C122.936 20.6033 123.617 20.3513 124.457 20.23L126.543 19.936V19.53C126.543 19.082 126.413 18.732 126.151 18.48C125.899 18.228 125.484 18.102 124.905 18.102C124.485 18.102 124.145 18.186 123.883 18.354C123.631 18.522 123.454 18.7367 123.351 18.998C123.295 19.138 123.197 19.208 123.057 19.208H122.427C122.325 19.208 122.245 19.18 122.189 19.124C122.143 19.0587 122.119 18.984 122.119 18.9C122.119 18.76 122.171 18.5873 122.273 18.382C122.385 18.1767 122.553 17.976 122.777 17.78C123.001 17.584 123.286 17.4207 123.631 17.29C123.986 17.15 124.415 17.08 124.919 17.08C125.479 17.08 125.951 17.1547 126.333 17.304C126.716 17.444 127.015 17.6353 127.229 17.878C127.453 18.1207 127.612 18.396 127.705 18.704C127.808 19.012 127.859 19.3247 127.859 19.642V24.178C127.859 24.2713 127.827 24.3507 127.761 24.416C127.705 24.472 127.631 24.5 127.537 24.5H126.893C126.791 24.5 126.711 24.472 126.655 24.416C126.599 24.3507 126.571 24.2713 126.571 24.178V23.576C126.45 23.744 126.287 23.912 126.081 24.08C125.876 24.2387 125.619 24.374 125.311 24.486C125.003 24.5887 124.625 24.64 124.177 24.64ZM124.471 23.59C124.854 23.59 125.204 23.5107 125.521 23.352C125.839 23.184 126.086 22.9273 126.263 22.582C126.45 22.2367 126.543 21.8027 126.543 21.28V20.888L124.919 21.126C124.257 21.2193 123.757 21.378 123.421 21.602C123.085 21.8167 122.917 22.092 122.917 22.428C122.917 22.6893 122.992 22.9087 123.141 23.086C123.3 23.254 123.496 23.38 123.729 23.464C123.972 23.548 124.219 23.59 124.471 23.59ZM132.406 24.64C131.855 24.64 131.389 24.5747 131.006 24.444C130.633 24.304 130.329 24.1313 130.096 23.926C129.872 23.7113 129.709 23.492 129.606 23.268C129.503 23.0347 129.447 22.82 129.438 22.624C129.438 22.54 129.466 22.4747 129.522 22.428C129.578 22.372 129.643 22.344 129.718 22.344H130.376C130.46 22.344 130.53 22.3673 130.586 22.414C130.642 22.4513 130.684 22.5213 130.712 22.624C130.824 22.9787 131.039 23.226 131.356 23.366C131.673 23.506 132.061 23.576 132.518 23.576C132.817 23.576 133.092 23.5387 133.344 23.464C133.596 23.38 133.792 23.2493 133.932 23.072C134.081 22.8947 134.156 22.6753 134.156 22.414C134.156 22.0313 134.044 21.742 133.82 21.546C133.605 21.35 133.269 21.252 132.812 21.252H132.042C131.949 21.252 131.874 21.224 131.818 21.168C131.762 21.112 131.734 21.0373 131.734 20.944V20.566C131.734 20.482 131.762 20.412 131.818 20.356C131.874 20.2907 131.949 20.258 132.042 20.258H132.728C133.111 20.258 133.405 20.1833 133.61 20.034C133.815 19.8847 133.918 19.6467 133.918 19.32C133.918 19.124 133.871 18.9373 133.778 18.76C133.685 18.5827 133.526 18.438 133.302 18.326C133.087 18.2047 132.789 18.144 132.406 18.144C131.865 18.144 131.482 18.2373 131.258 18.424C131.043 18.6013 130.889 18.8673 130.796 19.222C130.759 19.3247 130.712 19.3947 130.656 19.432C130.609 19.4693 130.539 19.488 130.446 19.488H129.816C129.732 19.488 129.662 19.4647 129.606 19.418C129.55 19.3713 129.522 19.306 129.522 19.222C129.531 18.942 129.592 18.676 129.704 18.424C129.825 18.172 130.003 17.9433 130.236 17.738C130.479 17.5327 130.777 17.374 131.132 17.262C131.496 17.1407 131.921 17.08 132.406 17.08C133.106 17.08 133.657 17.1873 134.058 17.402C134.469 17.6167 134.758 17.8827 134.926 18.2C135.103 18.508 135.192 18.816 135.192 19.124C135.192 19.488 135.131 19.7913 135.01 20.034C134.898 20.2767 134.674 20.482 134.338 20.65C134.758 20.8087 135.047 21.0467 135.206 21.364C135.365 21.6813 135.449 22.05 135.458 22.47C135.467 22.9553 135.337 23.3567 135.066 23.674C134.805 23.9913 134.445 24.234 133.988 24.402C133.531 24.5607 133.003 24.64 132.406 24.64ZM137.344 24.5C137.26 24.5 137.185 24.472 137.12 24.416C137.064 24.3507 137.036 24.2807 137.036 24.206V17.542C137.036 17.4487 137.064 17.374 137.12 17.318C137.185 17.2527 137.265 17.22 137.358 17.22H138.03C138.123 17.22 138.198 17.2527 138.254 17.318C138.31 17.374 138.338 17.4487 138.338 17.542V23.478L137.974 23.1L142.216 17.43C142.263 17.374 142.314 17.3273 142.37 17.29C142.426 17.2433 142.496 17.22 142.58 17.22H143.224C143.299 17.22 143.364 17.248 143.42 17.304C143.485 17.36 143.518 17.4253 143.518 17.5V24.178C143.518 24.2713 143.485 24.3507 143.42 24.416C143.364 24.472 143.289 24.5 143.196 24.5H142.538C142.435 24.5 142.356 24.472 142.3 24.416C142.244 24.3507 142.216 24.2713 142.216 24.178V18.592L142.608 18.578L138.338 24.29C138.301 24.3367 138.254 24.3833 138.198 24.43C138.142 24.4767 138.067 24.5 137.974 24.5H137.344ZM145.889 24.5C145.796 24.5 145.717 24.472 145.651 24.416C145.595 24.3507 145.567 24.2713 145.567 24.178V17.542C145.567 17.4487 145.595 17.374 145.651 17.318C145.717 17.2527 145.796 17.22 145.889 17.22H146.561C146.655 17.22 146.729 17.2527 146.785 17.318C146.841 17.374 146.869 17.4487 146.869 17.542V20.23H150.691V17.542C150.691 17.4487 150.719 17.374 150.775 17.318C150.841 17.2527 150.92 17.22 151.013 17.22H151.671C151.765 17.22 151.839 17.2527 151.895 17.318C151.961 17.374 151.993 17.4487 151.993 17.542V24.178C151.993 24.2713 151.961 24.3507 151.895 24.416C151.839 24.472 151.765 24.5 151.671 24.5H151.013C150.92 24.5 150.841 24.472 150.775 24.416C150.719 24.3507 150.691 24.2713 150.691 24.178V21.35H146.869V24.178C146.869 24.2713 146.841 24.3507 146.785 24.416C146.729 24.472 146.655 24.5 146.561 24.5H145.889ZM157.081 24.64C156.371 24.64 155.779 24.5047 155.303 24.234C154.827 23.9633 154.463 23.59 154.211 23.114C153.959 22.6287 153.819 22.078 153.791 21.462C153.781 21.3033 153.777 21.1027 153.777 20.86C153.777 20.608 153.781 20.4073 153.791 20.258C153.819 19.6327 153.959 19.082 154.211 18.606C154.472 18.13 154.841 17.7567 155.317 17.486C155.793 17.2153 156.381 17.08 157.081 17.08C157.781 17.08 158.369 17.2153 158.845 17.486C159.321 17.7567 159.685 18.13 159.937 18.606C160.198 19.082 160.343 19.6327 160.371 20.258C160.38 20.4073 160.385 20.608 160.385 20.86C160.385 21.1027 160.38 21.3033 160.371 21.462C160.343 22.078 160.203 22.6287 159.951 23.114C159.699 23.59 159.335 23.9633 158.859 24.234C158.383 24.5047 157.79 24.64 157.081 24.64ZM157.081 23.562C157.659 23.562 158.121 23.38 158.467 23.016C158.812 22.6427 158.999 22.1013 159.027 21.392C159.036 21.252 159.041 21.0747 159.041 20.86C159.041 20.6453 159.036 20.468 159.027 20.328C158.999 19.6187 158.812 19.082 158.467 18.718C158.121 18.3447 157.659 18.158 157.081 18.158C156.502 18.158 156.035 18.3447 155.681 18.718C155.335 19.082 155.153 19.6187 155.135 20.328C155.125 20.468 155.12 20.6453 155.12 20.86C155.12 21.0747 155.125 21.252 155.135 21.392C155.153 22.1013 155.335 22.6427 155.681 23.016C156.035 23.38 156.502 23.562 157.081 23.562ZM162.46 24.5C162.366 24.5 162.287 24.472 162.222 24.416C162.166 24.3507 162.138 24.2713 162.138 24.178V17.542C162.138 17.4487 162.166 17.374 162.222 17.318C162.287 17.2527 162.366 17.22 162.46 17.22H165.372C166.249 17.22 166.907 17.3973 167.346 17.752C167.794 18.1067 168.018 18.5827 168.018 19.18C168.018 19.6 167.938 19.9173 167.78 20.132C167.621 20.3467 167.397 20.5287 167.108 20.678C167.462 20.8273 167.728 21.07 167.906 21.406C168.092 21.7327 168.186 22.0733 168.186 22.428C168.186 23.1 167.948 23.6133 167.472 23.968C166.996 24.3227 166.333 24.5 165.484 24.5H162.46ZM163.426 23.478H165.372C165.82 23.478 166.179 23.394 166.45 23.226C166.73 23.0487 166.87 22.7827 166.87 22.428C166.87 22.0547 166.744 21.784 166.492 21.616C166.24 21.4387 165.866 21.35 165.372 21.35H163.426V23.478ZM163.426 20.314H165.288C165.736 20.314 166.09 20.216 166.352 20.02C166.622 19.824 166.758 19.5487 166.758 19.194C166.758 18.83 166.622 18.5827 166.352 18.452C166.09 18.312 165.736 18.242 165.288 18.242H163.426V20.314Z" fill="#443E3E"/>
<path d="M45 25.55H168.956V26.25H45V25.55Z" fill="#443E3E"/>
</svg>
